<?xml version="1.0" encoding="utf-8"?>
<!-- Generator: Adobe Illustrator 22.1.0, SVG Export Plug-In . SVG Version: 6.00 Build 0)  -->
<svg version="1.1" id="Layer_1" focusable="false" xmlns="http://www.w3.org/2000/svg" xmlns:xlink="http://www.w3.org/1999/xlink"
	 x="0px" y="0px" viewBox="0 0 896.9 632.2" style="enable-background:new 0 0 896.9 632.2;" xml:space="preserve">
<style type="text/css">
	.st0{fill:#339999;}
</style>
<path class="st0" d="M464,184.2H48c-26.5,0-48,21.5-48,48v288c0,26.5,21.5,48,48,48h416c26.5,0,48-21.5,48-48v-288
	C512,205.7,490.5,184.2,464,184.2z M464,232.2V273c-22.4,18.3-58.2,46.7-134.6,106.5c-16.8,13.2-50.2,45.1-73.4,44.7
	c-23.2,0.4-56.6-31.5-73.4-44.7C106.2,319.7,70.4,291.3,48,273v-40.8H464z M48,520.2V334.6c22.9,18.3,55.4,43.9,104.9,82.6
	c21.9,17.2,60.1,55.2,103.1,55c42.7,0.2,80.5-37.2,103.1-54.9c49.5-38.8,82-64.4,104.9-82.7v185.6H48z"/>
<path class="st0" d="M867.8,27.3L492.1,244c-14.7,8.4-12.8,28.9,1.8,35l86.2,36.1L812.9,110c4.5-4,10.8,2.1,7,6.7L624.6,354.6v65.2
	c0,19.1,23.1,26.7,34.4,12.8l51.5-62.7l101,42.3c11.5,4.9,24.6-2.4,26.7-14.8l58.4-350.1C899.4,31,881.8,19.2,867.8,27.3z"/>
</svg>
