<?xml version="1.0" encoding="utf-8"?>
<!-- Generator: Adobe Illustrator 22.1.0, SVG Export Plug-In . SVG Version: 6.00 Build 0)  -->
<svg version="1.1" id="Layer_1" xmlns="http://www.w3.org/2000/svg" xmlns:xlink="http://www.w3.org/1999/xlink" x="0px" y="0px"
	 viewBox="0 0 150 25" style="enable-background:new 0 0 150 25;" xml:space="preserve">
<style type="text/css">
	.st0{fill:#1C7979;}
</style>
<g id="Group_157" transform="translate(1359.14 43.883) rotate(177)">
	<path id="Path_286" class="st0" d="M1344.9,99.2c0.2-0.1,0.5-0.2,0.7-0.2c0.3,0,0.6-0.1,0.8-0.2l0,0c0.2-0.1-1.5,0.1-1.8,0.2
		c-0.1,0.1-0.3,0.1-0.5,0.1c-0.2,0-0.2,0-0.1,0.1C1344.1,99.4,1344.8,99.4,1344.9,99.2z"/>
	<path id="Path_287" class="st0" d="M1343.9,98.9c-0.1,0-0.2,0-0.1,0c0.1,0,0.2,0,0.2,0C1344,98.9,1344,98.9,1343.9,98.9z"/>
	<path id="Path_288" class="st0" d="M1324.1,102.7C1324.1,102.6,1324.1,102.6,1324.1,102.7c-0.1,0-0.1,0-0.1,0
		C1324,102.7,1324,102.7,1324.1,102.7L1324.1,102.7z"/>
	<path id="Path_289" class="st0" d="M1325.3,101.8c0.1,0,0,0-0.1,0c-0.1,0-0.2,0-0.1,0C1325.2,101.8,1325.2,101.8,1325.3,101.8z"/>
	<path id="Path_290" class="st0" d="M1324.9,102.2c0,0,0.1,0,0.1,0C1325.1,102.2,1325.1,102.1,1324.9,102.2
		C1324.9,102.1,1324.9,102.2,1324.9,102.2z"/>
	<path id="Path_291" class="st0" d="M1324.4,101.8c-0.1,0-0.2-0.1-0.3-0.1c-0.2,0-0.2,0.1,0.1,0.1
		C1324.4,101.8,1324.5,101.8,1324.4,101.8z"/>
	<path id="Path_292" class="st0" d="M1341.2,102.5C1341.2,102.4,1341.2,102.4,1341.2,102.5c-0.1-0.1-0.1,0-0.1,0
		C1341.1,102.5,1341.1,102.6,1341.2,102.5C1341.2,102.6,1341.2,102.5,1341.2,102.5z"/>
	<path id="Path_293" class="st0" d="M1351,96.5c0.1,0,0.1,0,0.1-0.1c0,0,0-0.1-0.1-0.1c0,0,0,0,0,0C1351,96.3,1350.9,96.4,1351,96.5
		C1350.9,96.5,1350.9,96.5,1351,96.5z"/>
	<path id="Path_294" class="st0" d="M1352.8,97.1C1352.8,97.1,1352.8,97.1,1352.8,97.1c0.1-0.1,0-0.2,0-0.2
		C1352.7,97,1352.7,97,1352.8,97.1C1352.7,97.1,1352.7,97.1,1352.8,97.1z"/>
	<path id="Path_295" class="st0" d="M1351.9,97.5c0-0.1,0-0.1-0.1-0.1c-0.1,0-0.1,0.1-0.1,0.1c0,0.1,0,0.1,0.1,0.1
		C1351.9,97.6,1351.9,97.6,1351.9,97.5z"/>
	<path id="Path_296" class="st0" d="M1355.7,97.6c0.1,0.1,0.3,0,0.2-0.1c-0.1-0.1-0.3-0.1-0.3,0
		C1355.6,97.5,1355.6,97.6,1355.7,97.6z"/>
	<path id="Path_297" class="st0" d="M1317.2,100.3c0.1,0,0,0-0.1,0c-0.1,0-0.2,0-0.1,0C1317.1,100.3,1317.1,100.3,1317.2,100.3z"/>
	<path id="Path_298" class="st0" d="M1318.8,100.4c0.1,0,0.2,0,0.2,0l0,0c0,0-0.2-0.1-0.3,0C1318.4,100.3,1318.4,100.3,1318.8,100.4
		z"/>
	<path id="Path_299" class="st0" d="M1286.2,93.4c0.1,0,0.1,0,0.2,0l0,0c0.1,0,0,0-0.1,0C1286.2,93.4,1286.1,93.4,1286.2,93.4z"/>
	<path id="Path_300" class="st0" d="M1288.7,93.3c0.1,0,0,0-0.1,0c-0.1,0-0.2,0-0.1,0C1288.5,93.4,1288.6,93.4,1288.7,93.3z"/>
	<path id="Path_301" class="st0" d="M1289.8,93.3c0.1,0,0.1,0,0.2,0C1290,93.3,1289.9,93.2,1289.8,93.3
		C1289.7,93.3,1289.7,93.3,1289.8,93.3z"/>
	<path id="Path_302" class="st0" d="M1264,96.6c0,0,0.1,0,0.1,0C1264.1,96.6,1264.1,96.6,1264,96.6C1264,96.6,1263.9,96.6,1264,96.6
		z"/>
	<path id="Path_303" class="st0" d="M1280.7,96.6c-0.1,0-0.2,0-0.1,0c0.1,0,0.2,0,0.2,0C1280.9,96.7,1280.8,96.6,1280.7,96.6z"/>
	<path id="Path_304" class="st0" d="M1249.5,98c0.1,0,0,0-0.1,0c-0.1,0-0.2,0-0.1,0C1249.3,98,1249.4,98,1249.5,98z"/>
	<path id="Path_305" class="st0" d="M1325.2,96.9c0.1,0,0,0-0.1,0s-0.2,0-0.1,0C1325.1,96.9,1325.1,96.9,1325.2,96.9z"/>
	<path id="Path_306" class="st0" d="M1290.8,93.3c0,0,0.1,0,0.1,0C1291,93.3,1291,93.3,1290.8,93.3
		C1290.9,93.3,1290.8,93.3,1290.8,93.3z"/>
	<path id="Path_307" class="st0" d="M1302.7,92.6c-0.1-0.1-0.2-0.1-0.2,0.1c0,0.1,0.4,0.2,0.9,0.2c0.2,0,0.2,0-0.2-0.1
		C1303,92.7,1302.9,92.7,1302.7,92.6z"/>
	<path id="Path_308" class="st0" d="M1294.9,93.3c0.2,0,0.3,0,0.5,0c0.1,0,0,0-0.2,0C1294.9,93.3,1294.8,93.3,1294.9,93.3z"/>
	<path id="Path_309" class="st0" d="M1325.5,92.5L1325.5,92.5c-0.1,0-0.2-0.1-0.2-0.1s0,0,0,0.1S1325.4,92.6,1325.5,92.5l0.2,0.1
		L1325.5,92.5z"/>
	<path id="Path_310" class="st0" d="M1340.9,94.5c-0.2-0.1-0.5-0.2-0.7-0.2c-0.9-0.2-1-0.3-0.9-0.2
		C1339.8,94.3,1340.4,94.4,1340.9,94.5z"/>
	<path id="Path_311" class="st0" d="M1342.9,94.8c0,0,0,0.1,0.1,0.1c0.1,0.1,0.1,0.1,0.2,0.1c0,0,0-0.1-0.1-0.1
		C1343.1,94.9,1343,94.8,1342.9,94.8z"/>
	<path id="Path_312" class="st0" d="M1324.4,92.4c-0.3-0.1-0.6-0.1-0.9-0.1c-0.3,0-0.5,0-0.8,0c-0.1-0.1-0.1,0-0.1,0
		c0,0.1,0.3,0.1,1.3,0.1C1324.3,92.5,1324.5,92.5,1324.4,92.4z"/>
	<path id="Path_313" class="st0" d="M1323.7,93.1C1323.6,93.1,1323.6,93.1,1323.7,93.1c0.1,0.1,0.1,0.1,0.2,0.1c0.1,0,0.1,0,0-0.1
		C1323.9,93.2,1323.8,93.1,1323.7,93.1z"/>
	<path id="Path_314" class="st0" d="M1306.2,92.8l0.4,0c0.5,0,1.7,0.1,1.5,0c-0.1,0-0.4,0-0.6-0.1l0,0c-0.3,0-0.6,0-0.9,0
		L1306.2,92.8z"/>
	<path id="Path_315" class="st0" d="M1306.4,96.4c0.1,0,0.1,0,0.2,0l0,0c0.1,0,0,0-0.1,0C1306.4,96.4,1306.4,96.4,1306.4,96.4z"/>
	<path id="Path_316" class="st0" d="M1280.2,91.9c-0.1,0-0.3,0-0.4,0c-0.2,0-0.3,0-0.5,0.1C1279.3,92,1280.1,91.9,1280.2,91.9z"/>
	<path id="Path_317" class="st0" d="M1216.4,100.3L1216.4,100.3C1216.5,100.3,1216.5,100.2,1216.4,100.3c-0.1,0-0.1,0-0.1,0
		C1216.4,100.3,1216.4,100.3,1216.4,100.3z"/>
	<path id="Path_318" class="st0" d="M1218.2,101.6L1218.2,101.6C1218.3,101.6,1218.2,101.5,1218.2,101.6c-0.1,0-0.1,0-0.1,0
		C1218.1,101.6,1218.2,101.6,1218.2,101.6z"/>
	<path id="Path_319" class="st0" d="M1214.7,101.2c-0.1,0-0.2,0-0.1,0c0.1,0,0.2,0,0.2,0l0,0
		C1214.9,101.2,1214.8,101.2,1214.7,101.2z"/>
	<path id="Path_320" class="st0" d="M1217,100.3C1217,100.3,1217,100.3,1217,100.3c-0.2,0-0.2,0-0.2,0
		C1216.8,100.3,1216.9,100.3,1217,100.3z"/>
	<path id="Path_321" class="st0" d="M1214.3,101.3L1214.3,101.3C1214.4,101.3,1214.3,101.3,1214.3,101.3c-0.1,0-0.1,0-0.1,0
		C1214.2,101.3,1214.3,101.3,1214.3,101.3z"/>
	<path id="Path_322" class="st0" d="M1210.8,94.8c0.2-0.2,0.1-0.2-0.2,0c-0.1,0.1-0.1,0.1-0.1,0.1
		C1210.7,94.9,1210.8,94.9,1210.8,94.8z"/>
	<path id="Path_323" class="st0" d="M1212.6,95.5c0.2,0,0,0-0.3,0c-0.4,0-0.5,0-0.3,0C1212.1,95.5,1212.4,95.5,1212.6,95.5z"/>
	<path id="Path_324" class="st0" d="M1270,101.7c0.2,0,0.4,0,0.5,0c0.1,0,0,0-0.3,0C1269.9,101.6,1269.8,101.7,1270,101.7z"/>
	<path id="Path_325" class="st0" d="M1212.1,97.3c-0.1,0.1-0.1,0.1,0.1,0.1c0.2,0,0.2,0,0.1-0.1l0,0
		C1212.2,97.3,1212.1,97.3,1212.1,97.3z"/>
	<path id="Path_326" class="st0" d="M1208.9,96.7c0-0.1-0.1-0.1-0.2-0.1c-0.1,0-0.2,0-0.2,0.1c0,0,0.1,0.1,0.2,0.1
		C1208.9,96.8,1209,96.7,1208.9,96.7z"/>
	<path id="Path_327" class="st0" d="M1215.5,99.1c-0.1,0-0.1,0.1-0.1,0.2c0,0,0,0,0,0.1c0.1,0,0.1,0,0.1,0
		C1215.6,99.3,1215.6,99.2,1215.5,99.1L1215.5,99.1C1215.6,99.1,1215.5,99.1,1215.5,99.1z"/>
	<path id="Path_328" class="st0" d="M1324.9,101.3c0,0-0.1,0.1-0.1,0.1c0,0,0,0.1,0.1,0.1c0,0,0,0,0,0
		C1324.9,101.5,1324.9,101.4,1324.9,101.3C1324.9,101.3,1324.9,101.2,1324.9,101.3z"/>
	<path id="Path_329" class="st0" d="M1280.1,101c0.1,0,0.1,0,0.2,0C1280.3,101,1280.2,101,1280.1,101C1280,101,1280,101,1280.1,101z
		"/>
	<path id="Path_330" class="st0" d="M1275.3,99.2c0,0.1,1,0,1.1-0.1l0,0c0,0-0.2,0-0.5,0C1275.5,99.1,1275.3,99.1,1275.3,99.2z"/>
	<path id="Path_331" class="st0" d="M1277.8,99.1c0,0.1,0.3,0.1,0.4,0.1c0.1-0.1,0.3-0.1,0.4-0.1c0.2,0,0.4,0,0.6-0.1
		c0.1-0.1-0.1-0.1-0.6,0C1278.3,99,1278.1,99,1277.8,99.1z"/>
	<path id="Path_332" class="st0" d="M1270.9,101.1c0.1,0,0.1,0,0.2,0C1271.1,101.1,1271.1,101,1270.9,101.1
		C1270.9,101.1,1270.9,101.1,1270.9,101.1z"/>
	<path id="Path_333" class="st0" d="M1283.4,101.5c0,0,0.1,0,0.1,0l0,0C1283.5,101.5,1283.5,101.5,1283.4,101.5
		C1283.4,101.5,1283.4,101.5,1283.4,101.5z"/>
	<path id="Path_334" class="st0" d="M1266.5,101.1c0.1,0,0.3,0,0.4,0c0.1,0,0,0-0.2,0C1266.5,101.1,1266.4,101.1,1266.5,101.1z"/>
	<path id="Path_335" class="st0" d="M1271.6,101.1c0.1,0,0.1,0,0.2,0l0,0c0.1,0,0,0-0.1,0C1271.6,101.1,1271.5,101.1,1271.6,101.1z"
		/>
	<path id="Path_336" class="st0" d="M1272,101.6c0,0,0.1,0,0.1,0l0,0C1272.2,101.6,1272.2,101.6,1272,101.6
		C1272.1,101.6,1272,101.6,1272,101.6z"/>
	<path id="Path_337" class="st0" d="M1210.3,96.2c-0.1,0.1,0.1,0.1,0.9-0.2c1.1-0.4,2.2-0.6,3.3-0.7c0.2,0,0.5,0,0.7-0.1
		c0.5,0,1.1,0,1.6,0.1c0.2,0,0.2,0,0.2-0.1s0-0.1,0.1-0.1c0.3,0,0.6,0,0.9,0c0.4,0,0.9,0,1.2,0c0.3,0,0.5,0,0.4,0
		c0,0-0.1-0.1-0.1-0.1c0,0-0.3,0-0.6,0c-0.3,0-0.8,0-1,0c-0.2,0-0.3,0-0.5-0.1c-0.1-0.1-2.8,0.1-3.6,0.2c-0.9,0.1-1.3,0.2-1.7,0.3
		C1211.5,95.7,1210.9,95.9,1210.3,96.2z"/>
	<path id="Path_338" class="st0" d="M1249.9,92.9L1249.9,92.9c0.1,0,0,0-0.1,0c-0.1,0-0.2,0-0.1,0
		C1249.7,92.9,1249.8,92.9,1249.9,92.9z"/>
	<path id="Path_339" class="st0" d="M1247.1,92.9l0.4,0L1247.1,92.9L1247.1,92.9c-0.3-0.1-0.6-0.1-0.7-0.1c-0.2,0-0.2,0,0.1,0.1
		C1246.7,92.9,1246.9,92.9,1247.1,92.9z"/>
	<path id="Path_340" class="st0" d="M1220.5,93.4C1220.5,93.4,1220.5,93.4,1220.5,93.4c-0.1,0-0.1,0-0.1,0
		C1220.4,93.4,1220.5,93.4,1220.5,93.4z"/>
	<path id="Path_341" class="st0" d="M1320.9,102.6c0.5,0.1,1.7,0,1.7,0c-0.2-0.1-0.5-0.1-0.7,0l0,0
		C1320.5,102.6,1320.5,102.6,1320.9,102.6z"/>
	<path id="Path_342" class="st0" d="M1241.7,92.8c0.2,0,0.4,0,0.5,0c0,0-0.1-0.1-0.4-0.1c-0.9,0-1.7,0-2.6,0.2
		c-0.5,0.1-0.9,0.2-0.9,0.2c0.3,0,0.5,0,0.8,0c0.5,0,0.7-0.1,0.5-0.1l-0.3,0l0.4-0.1C1240.4,92.8,1241,92.8,1241.7,92.8z"/>
	<path id="Path_343" class="st0" d="M1257.1,93L1257.1,93C1257.1,92.9,1257.1,92.9,1257.1,93c-0.1,0-0.1,0-0.1,0
		C1257,93,1257,93,1257.1,93z"/>
	<path id="Path_344" class="st0" d="M1254.3,93c0.1,0,0,0-0.1,0c-0.1,0-0.2,0-0.1,0C1254.2,93,1254.3,93,1254.3,93z"/>
	<path id="Path_345" class="st0" d="M1236.5,93.3c-0.2,0-0.3,0-0.2,0c0.1,0,0.2,0,0.3,0l0,0C1236.7,93.3,1236.7,93.3,1236.5,93.3z"
		/>
	<path id="Path_346" class="st0" d="M1259.9,93C1259.9,92.9,1259.9,92.9,1259.9,93c-0.2,0-0.2,0-0.2,0
		C1259.8,93,1259.8,93,1259.9,93z"/>
	<path id="Path_347" class="st0" d="M1291.1,99.1c0,0,0.1,0,0.1,0C1291.2,99,1291.2,99,1291.1,99.1C1291.1,99,1291,99,1291.1,99.1z"
		/>
	<path id="Path_348" class="st0" d="M1263.3,93c0.1,0,0,0-0.2,0c-0.2,0-0.3,0-0.2,0C1263,93.1,1263.2,93.1,1263.3,93z"/>
	<path id="Path_349" class="st0" d="M1261.9,93L1261.9,93C1261.9,93,1261.9,93,1261.9,93c-0.2,0-0.2,0-0.2,0
		C1261.7,93,1261.8,93,1261.9,93z"/>
	<path id="Path_350" class="st0" d="M1300.1,96.4c0.5,0,0.8,0,0.7-0.1c-0.3,0-1.7,0-1.7,0C1299.4,96.4,1299.7,96.4,1300.1,96.4z"/>
	<path id="Path_351" class="st0" d="M1342.4,97c0,0,0.1,0,0.1,0C1342.6,96.9,1342.6,96.9,1342.4,97
		C1342.4,96.9,1342.4,96.9,1342.4,97z"/>
	<path id="Path_352" class="st0" d="M1342.6,96.8c0-0.1-0.3-0.1-0.3,0c0,0,0.1,0,0.2,0.1C1342.6,96.9,1342.6,96.9,1342.6,96.8z"/>
	<path id="Path_353" class="st0" d="M1345.3,97C1345.3,97,1345.4,97.1,1345.3,97c0.1,0.1,0.1,0,0.1,0
		C1345.5,96.9,1345.4,96.9,1345.3,97C1345.4,96.9,1345.3,96.9,1345.3,97z"/>
	<path id="Path_354" class="st0" d="M1350.4,95.1C1350.4,95.1,1350.4,95.1,1350.4,95.1c0,0.1,0.1,0.1,0.2,0.1l0.2,0l-0.2,0l0,0
		C1350.5,95.1,1350.4,95.1,1350.4,95.1z"/>
	<path id="Path_355" class="st0" d="M1347.8,97.3c0,0,0.1,0,0.1,0C1348,97.3,1348,97.3,1347.8,97.3
		C1347.9,97.3,1347.8,97.3,1347.8,97.3z"/>
	<path id="Path_356" class="st0" d="M1342.3,99.1c-0.2,0-0.3,0-0.3,0.1c0.2,0,0.4,0,0.5-0.1C1342.5,99.1,1342.4,99.1,1342.3,99.1z"
		/>
	<path id="Path_357" class="st0" d="M1342.3,99.4c0,0,0.1,0,0.1,0C1342.5,99.4,1342.5,99.4,1342.3,99.4
		C1342.3,99.4,1342.3,99.4,1342.3,99.4z"/>
	<path id="Path_358" class="st0" d="M1293.1,99.1c0.1,0,0.1,0,0.2,0C1293.3,99.1,1293.2,99,1293.1,99.1
		C1293.1,99.1,1293,99.1,1293.1,99.1z"/>
	<path id="Path_359" class="st0" d="M1343.4,99.2c0,0,0.1,0,0.1,0l0,0C1343.6,99.2,1343.5,99.2,1343.4,99.2
		C1343.4,99.2,1343.4,99.2,1343.4,99.2z"/>
	<path id="Path_360" class="st0" d="M1342.9,99.2C1342.8,99.2,1342.8,99.2,1342.9,99.2C1342.9,99.2,1343,99.2,1342.9,99.2
		C1343,99.2,1343,99.2,1342.9,99.2z"/>
	<path id="Path_361" class="st0" d="M1285.6,96.5C1285.6,96.5,1285.6,96.5,1285.6,96.5c-0.1,0-0.1,0-0.1,0
		C1285.5,96.6,1285.5,96.6,1285.6,96.5z"/>
	<path id="Path_362" class="st0" d="M1294.7,96.5c0,0-0.1,0-0.2,0c-0.1,0-0.2,0-0.2,0.1C1294.2,96.7,1294.6,96.6,1294.7,96.5z"/>
	<path id="Path_363" class="st0" d="M1293.9,96.4c0.1,0,0.1,0,0.2,0l0,0c0.1,0,0,0-0.1,0C1293.9,96.3,1293.9,96.3,1293.9,96.4z"/>
	<path id="Path_364" class="st0" d="M1295.7,96.5C1295.8,96.5,1295.7,96.5,1295.7,96.5c-0.2,0-0.2,0-0.2,0
		C1295.6,96.6,1295.7,96.6,1295.7,96.5z"/>
	<path id="Path_365" class="st0" d="M1303.8,96.3c0.3,0.1,0.6,0.1,0.9,0.1l0.8,0l-0.7,0c-0.4,0-0.7-0.1-0.8-0.1l0,0
		C1303.9,96.3,1303.8,96.3,1303.8,96.3C1303.7,96.3,1303.7,96.3,1303.8,96.3z"/>
	<path id="Path_366" class="st0" d="M1289.6,96.6c-0.3-0.1-0.5-0.1-0.8,0c-0.4,0-0.9,0-1,0l-0.3,0l0.3,0
		C1288.3,96.7,1289.6,96.7,1289.6,96.6z"/>
	<path id="Path_367" class="st0" d="M1292,96.6c0.1,0,0,0-0.1,0c-0.2,0-0.2,0-0.1,0C1291.8,96.7,1291.9,96.7,1292,96.6z"/>
	<path id="Path_368" class="st0" d="M1341.8,98.8c0,0,0.1,0,0.1,0C1342,98.7,1341.9,98.7,1341.8,98.8
		C1341.8,98.7,1341.8,98.7,1341.8,98.8z"/>
	<path id="Path_369" class="st0" d="M1293.6,96.7C1293.6,96.7,1293.6,96.6,1293.6,96.7c0.1-0.1,0-0.2,0-0.2c0,0,0,0,0,0
		c-0.1,0-0.1,0-0.1,0.1C1293.5,96.6,1293.5,96.7,1293.6,96.7z"/>
	<path id="Path_370" class="st0" d="M1292.9,96.6L1292.9,96.6C1293,96.5,1293,96.5,1292.9,96.6c-0.1,0-0.1,0-0.1,0
		C1292.8,96.6,1292.9,96.6,1292.9,96.6z"/>
	<path id="Path_371" class="st0" d="M1280.7,93.3c-0.1,0-0.1,0-0.2,0c-0.1,0-0.1,0-0.1,0c0.2,0.1-3.2,0.1-7.6,0c-0.9,0-2.9,0-4.5,0
		c-5.9,0.1-6.3,0.1-11.2,0c-0.9,0-1.9,0-2.2,0l0,0c-0.3,0-1.3,0-2.1,0c-0.8,0-4.6,0.1-8.3,0.2c-5.9,0.1-11.4,0.2-9.9,0.3
		c0.8,0,0.4,0-1.3,0.1c-1.2,0.1-2.1,0.1-3.3,0.1c-0.9,0-2.3,0-3.1,0c-0.8,0-2.4,0-3.5,0c-2.1,0-2.5,0-6.2,0.2
		c-2.1,0.1-3.6,0.3-3.6,0.4c0,0.1,0.4,0.1,1.2,0c0.3,0,0.8-0.1,1.1-0.1s1,0,1.7-0.1c1.1-0.1,1.2-0.1,0.6-0.1h-0.7l1-0.1
		c2.1-0.2,7.1-0.3,6.9-0.2c0,0-0.9,0.1-2.1,0.1c-2,0-4.8,0.1-4,0.1c0.4,0,0.3,0-0.2,0.1c-0.2,0-0.5,0-0.7,0.1c-0.1,0-0.3,0-0.4,0
		c-0.2,0-0.2,0-0.1,0c0.2,0,1.7,0,5.2-0.1l2.6-0.1l-0.2,0.1c-0.2,0.1-0.4,0.1-1.3,0.1c-0.4,0-0.9,0-1.3,0.1c-0.3,0.1-0.7,0.1-1,0.1
		c-0.3,0-0.7,0.1-1,0.2c-0.1,0-0.2,0.1-0.4,0.1c-0.4,0.1-0.9,0.2-1.3,0.3c-0.4,0.1-0.9,0.1-1.3,0.1c-1.7,0.1-2.3,0.1-2.8,0.2
		c-0.4,0.1-0.9,0.1-2.9,0.1c-2.2,0-4.3,0.2-4.5,0.2c-0.1,0,0.4,0,1.2,0c1-0.1,4.5-0.2,4.4-0.1c-0.1,0-0.2,0-0.3,0
		c-0.2,0-0.4,0-0.6,0.1c-0.2,0-0.4,0.1-0.5,0.1c-0.3,0-0.8,0.2-0.7,0.3c0.1,0.1,0.1,0.1,0.4,0c0.1,0,0.3-0.1,0.4-0.1
		c0.2,0.1-0.1,0.2-0.3,0.2c-0.1,0-0.2,0-0.3,0.1c-0.1,0.1,0,0,1.4-0.1c0.2,0,0.5,0,0.7,0c0.1,0,0.3,0,0.4-0.1c0.3,0,0.6-0.1,0.8,0
		c0.3,0,0.6,0,0.9,0c0.4-0.1,0.9-0.1,1.3-0.1c0.6,0,1.4,0,1.7-0.1c0.5,0,0.5,0,0.2,0c-0.2,0-0.3,0-0.2,0c0.3,0,0.7,0.1,0.6,0.2
		c0,0-0.5,0-1,0.1c-0.3,0-0.7,0-1,0.1c-0.3,0-0.5,0.1-0.8,0.1c-1.4,0-2.5,0.1-2.5,0.2c-0.1,0-0.2,0.1-0.3,0c-0.5,0,1.3,0.1,2.4,0.1
		c2,0,2,0,1.7,0c-0.2,0-0.5,0-0.7,0.1c-0.2,0-0.4,0-0.6,0.1c-0.2,0.1-0.5,0.1-3.4,0.1c-2.4,0-3.3,0-3.6,0.1
		c-0.4,0.1-0.4,0.1-0.2,0.2c0.4,0.1,0.7,0.1,1.1,0.1c0.5,0,0.8,0,0.5,0c-0.4,0-0.4,0-0.3,0.1c0.2,0,0.1,0.1-0.1,0.2
		c-0.3,0.1-0.4,0.1-1.4,0.1c-0.8,0-1.1,0-1.2,0.1c0,0.1,0.1,0.1,0.8,0c0.5,0,1.5-0.1,2.2-0.1c1.5-0.1,1.9-0.1,0.8-0.1
		c-0.3,0-0.6,0-0.9,0c-0.3-0.1,0.6-0.1,1.8-0.1c0.6,0,1.3,0,1.7,0c0.9-0.1,2-0.1,2,0c0,0-0.1,0.1-0.3,0.1c-0.3,0-0.6,0.1-0.9,0.2
		l-0.6,0.2l1.6,0c0.9,0,2-0.1,2.6-0.1c0.9,0,1-0.1,1-0.1c0-0.1-0.1-0.1-0.7-0.1c-0.4,0-0.9,0-1.1,0l-0.4,0l0.5,0
		c0.9-0.1,1.8-0.1,2.7,0c0.3,0,1.3,0,2.2,0c1,0,2,0,2.3,0c0.3,0,1.5,0,2.6,0c1.1,0,2.1,0,2.1,0c0,0,0,0,0,0.1
		c-0.1,0-0.8,0.1-2.5,0.1c-2.4,0-5.7,0.1-7.8,0.3c-1.7,0.1-4.5,0.3-4.6,0.4c-0.1,0,0.1,0,0.4,0c0.7,0,0.6,0-0.2,0.1
		c-0.3,0-0.5,0.1-0.8,0.2c-0.2,0.1,0,0.1,0.5,0c0.7-0.1,1.5-0.2,2.2-0.1c0.7,0.1,0.7,0.1,0.1,0.1c-0.5,0-0.5,0.1-0.1,0.2
		c0.1,0,0.2,0.1,0.3,0.1c0,0-0.5,0-1,0c-1.9,0-4.6,0.1-4.6,0.1c0,0,0.1,0,0.3,0c0.1,0,0.3,0,0.4,0c0.3,0,0.6,0,0.9,0
		c0.9-0.1,3.7-0.1,5.1,0c0.6,0,0.6,0,0.3,0.1c-0.2,0-0.6,0.1-0.8,0.1c-0.3,0-0.5,0-0.8,0c-0.4-0.1-0.5-0.1-0.6,0.1
		c-0.2,0.1-0.3,0.2-0.5,0.2c-0.4,0-0.6,0.1-0.5,0.2c0.1,0,0.2,0,0.3,0c0.2,0,0.7,0,2,0c1,0,2.1,0.1,2.4,0.1c0.2,0,0.5,0,0.7,0
		c0,0,0.7,0,1.6,0c0.9,0,1.9,0,2.3,0c0.2,0,0.4,0,0.6,0c-0.2-0.1-0.5-0.1-0.7,0c-0.2,0-0.3,0-0.3,0c0.2,0,0.5,0,0.7,0
		c0.4,0,1.2,0,1.8,0.1c0.7,0,1.4,0.1,2.1,0.2c1.1,0.2,2.2,0.2,3.2,0.3c0.1,0,0.1,0,0,0.1c-0.3,0.2-1.5,0.2-4.1,0.2
		c-1.3,0-2.9,0-3.6,0s-1.7,0-2.2,0c-1.2,0-3.2,0-3.2,0.1c-0.3,0.1-0.6,0.1-0.9,0.1c-1,0-1,0.1,0.2,0.1c1.2,0,1.3,0.1,0.3,0.1l-0.9,0
		l1.1,0c0.4,0,0.8,0,1.3,0.1c0.1,0,0.1,0.1-0.2,0.1c-0.2,0,0.1,0,0.7,0.1c0.6,0,1.7,0.1,2.3,0.1s1.7,0.1,2.4,0.1
		c1.7,0,2.7,0.1,2.4,0.1c-0.1,0-0.2,0-0.4,0.1c-0.1,0,0.8,0.1,3,0.1c0.8,0,1.4,0,1.5,0c0.1,0-5.5,0.1-7.3,0c-1.9,0-5.6,0-5.7,0.1
		c0,0,0.2,0.1,0.4,0.1l0.5,0.1l-0.6,0l-0.6,0l0.7,0c0.4,0,1,0,1.3,0c0.6,0,0.9,0,4.4,0.1c3.7,0,3.4,0.1-0.7,0.1
		c-2.6,0-3.8,0.1-3.8,0.1c0.3,0.1,0.5,0.1,0.8,0.1c0.4,0,1.2,0.1,1.6,0.1c0.5,0,1.5,0.1,2.3,0.1c0.8,0,1.9,0,2.5,0
		c0.6,0,1.9,0,2.7,0.1s1.8,0,2.1,0.1c0.3,0,1.4,0,2.5,0c2.4,0,3.7,0,4.2,0.1c0.2,0,0.6,0.1,1,0.1c1.1,0,0.7,0.1-0.7,0.1
		c-4.8,0-5.2,0-5.4-0.1c-0.1,0-0.2-0.1-0.3-0.1c-0.1,0-0.1,0,0.1,0c0.3,0.1-1.2,0.1-2.4,0c-0.7,0-1.3,0-1.8,0c-0.3,0-0.5,0-0.8,0
		c-0.6-0.1-1.1-0.1-1.7-0.1l-2.8-0.1c-0.6,0-2,0-3.1,0l-1.9,0l1.7,0c0.9,0,2,0,2.3,0s1.2,0.1,1.9,0.1c0.7,0,1.3,0.1,1.3,0.1
		c0.2,0.1-0.1,0.1-2.2,0c-1.1,0-1.9,0-2.5,0c-0.5,0-1,0.1-1.2,0.1c-1,0-2.6,0-2.7,0.1c-0.3,0.1,0.6,0.2,1.5,0.2c0.6,0,0.8,0,0.6,0.1
		c-0.2,0-0.1,0,0.3,0c0.3,0,0.8,0,1.1,0c0.4,0-0.1,0-1.6,0c-1.2,0-2.1,0-2.1,0c0,0,1.5,0,3.2,0c2.3,0,3.1,0,3.2,0
		c0.1,0.1,2.1,0.1,5.2,0.2c0.8,0,2.7,0,4.3,0.1c1.5,0,2.8,0,2.9,0s1,0,2.2,0c1.2,0,2.4,0,2.7,0s0.7,0,0.9,0c0.3,0,0.3,0,0.1-0.1
		c-0.2,0,1.2-0.1,3,0c0.5,0,0.5,0,0.3,0c-0.6-0.1,18.9-0.4,30.7-0.5c6.2-0.1,13-0.2,14.3-0.2c0.9,0,0.4-0.1-0.5-0.1
		c-0.3,0-0.7,0-1,0c-0.1,0-0.9,0-2.5,0c-1.3,0-2.7,0-3.2,0c-2.5,0-8,0-11.6,0c-7.1,0.1-14.5,0.1-15.4,0.1c-0.5,0-1.7,0-2.8-0.1
		s-2.1,0-2.4,0s2.7-0.1,6.5-0.1c17.4-0.3,34.8-0.5,40.8-0.4c1.5,0,3.6,0,4.7,0c1,0,2.2,0,2.7,0c0.4,0,1.3,0,1.9,0c0.6,0,1.6,0,2.3,0
		c0.6,0,1.5,0,2,0c1.3,0,1.9,0,2.6,0.1c1,0.1,5.7,0.1,7.4,0.1c0.8,0,2.3,0,3.3,0c2.2,0,2.1,0,2.1,0c0-0.1-2.4-0.2-6-0.2
		c-1.9,0-5.2,0-6.8-0.1c-1.9-0.1-7.1-0.1-10.6-0.2c-1.4,0-3.4,0-4.5,0c-1.8,0-8.2,0-16.1,0.1c-4,0-19.4,0.2-27.4,0.3
		c-4.2,0.1-5.8,0.1-6,0c-0.3-0.1-0.3-0.1,0.1-0.1c0.5,0-0.9-0.1-1.8-0.1c-1,0-1.6-0.1-0.7-0.1c3.2-0.1,7.4-0.2,10.1-0.2
		c3.1,0,4-0.1,5.5-0.1c0.4,0,0.9,0,1.1,0c0.2,0,1.6,0,3.1,0c4.6-0.1,14.6-0.1,14.9-0.1c0.1,0,2.6,0,5.5,0c8.1-0.1,20.3,0,20.5,0.1
		c0.3,0,0.6,0,0.8,0c0.3,0,0.5,0,0.8,0c0.2,0,0.4,0,0.7,0c0.3,0,1.7,0,3.1,0.1c2.4,0.1,5.3,0.1,7,0.1c0.4,0,1.5,0,2.3,0
		c2.7,0,3.3,0.1,4.3,0.1c0.5,0,1.1,0,1.4,0l0.5,0l-0.3-0.1c-0.2,0-0.2-0.1-0.1,0s0.2,0,0.2,0c-0.2,0-0.5-0.1-0.7,0
		c-0.8,0-0.9,0-0.8-0.1c0.1-0.1,0.3-0.1,1.1-0.1c0.6,0,1.1,0,1.2,0c0.1,0,0.8,0,1.5,0c0.7,0,1-0.1,0.8-0.1c-0.4,0-0.5,0-0.5-0.1
		c0-0.1-0.1-0.1-0.3-0.1c-0.1,0-0.3,0-0.4,0c-0.1,0-0.3,0-0.4,0c-0.2,0-0.7,0-1.2-0.1c-1.3-0.1-3.7-0.2-5.6-0.3
		c-2.4-0.1-2.7-0.1-1.5-0.1c1.1,0,2.4,0,4,0.1c0.5,0,1.6,0,2.3,0c1.5,0,3.3,0,4.7,0.1c0.9,0,1.1,0,1.7-0.2c0.2-0.1,0.2-0.1,0.1-0.2
		c-0.1-0.1-0.1-0.1,0.5-0.1c0.4,0,0.5,0,0.4-0.1c-0.3,0-0.6,0-0.9,0c-0.3,0-0.5,0-0.8,0c-0.5-0.1-1-0.1-1.5-0.1c-0.2,0-0.3,0-0.5,0
		c-0.4,0-0.9-0.1-1.3-0.1c-0.7,0-1.5,0-1.8,0c-0.9,0-2.8-0.1-3.4-0.1c-1-0.1-1.9-0.1-2.6-0.1c-0.4,0-1.3,0-2.1,0c-1.2,0-5.2,0-8.4,0
		c-0.6,0-1.8,0-2.6,0c-0.8,0-2.7,0-4.1,0s-2.7,0-2.8,0c-0.1,0-0.9,0-4.7,0c-1.7,0-2.4,0-2.3,0.1c0.2,0,0,0-0.5,0.1
		c-0.6,0-0.6,0-0.3,0c0.3,0,0.3,0-0.3,0c-0.5,0-0.6,0-0.4,0c0.3,0,0.3,0,0,0c-0.2,0-0.3,0-0.5-0.1c-0.2,0-0.3-0.1-0.5-0.1l-0.4,0
		l0.3,0c0.3,0,0.2,0-0.4,0c-0.3,0-0.5,0-0.8,0c-0.3,0-0.5,0-0.8,0c-0.5,0-0.7,0-0.6,0c0.1,0-0.1,0-0.9,0c-1,0-1,0-0.4,0l0.7,0
		l-0.8,0c-0.5,0-0.7,0-0.7,0c0.1,0-0.1,0-0.5,0c-0.2,0-0.4,0-0.6,0c-0.7,0-1.5,0-2.2,0c-0.2,0-2.7,0.1-2.7,0c0,0,0.6,0,1.3,0l1.3,0
		l-1.1,0c-0.8,0-1.2,0-1.3-0.1c-0.2-0.1-0.4-0.1-0.3,0c0.1,0.1-0.2,0.1-3.3,0.1c-1.9,0-3.8,0-4.4,0c-0.9,0-1,0-0.9-0.1
		c0-0.1-0.1-0.1-1.2-0.1c-0.7,0,0.9,0,3.6-0.1c2.7,0,4.6-0.1,4.2,0c-0.2,0-0.5,0-0.7,0.1c0.3,0,0.6,0,0.9,0c1.3-0.1,5.8-0.1,8.6-0.1
		c1.3,0,3.3,0,4.4,0c1.1,0,2.2,0,2.5,0c0.3,0,1.5,0,2.7,0c1.3,0,2.1,0,2,0c-0.1,0-0.1,0,0.1,0c0.2,0,0.5,0,0.7,0c0.4,0,0.4,0,0.2,0
		c-0.2,0-0.2,0,0.3-0.1c0.3,0,0.6,0,0.9,0c0.5,0,1,0,1.5,0c0.4,0,0.8,0,1.2,0c0.2,0,0.5,0,0.7,0c0.4,0,1,0,1.5,0
		c1.1,0,5.3,0.1,8.9,0.2c1.5,0,3.4,0,4.2,0.1c0.9,0,1.8,0,2,0c0.2,0,0.3,0,0.5,0c0.5,0,0.9,0,1.4,0c1.2,0,1.4,0,1.4-0.1
		s0.1-0.1,0.6-0.1c0.6,0,1.9,0,1.6,0c-0.2,0-4.3-0.1-5.6-0.1c-0.6,0-1.2,0-1.4,0c-0.1,0-0.3,0-0.4,0c0.1,0,0.2,0.1,0.4,0.1
		c0.2,0,0,0-0.4,0c-0.4,0-0.6,0-0.5,0c0.2,0,0.3-0.1,0.1-0.1c-0.1,0-1.2,0-2.6-0.1c-1.4,0-2.6,0-2.7,0c-0.1,0-0.2,0-0.2,0.1
		c0,0-0.1,0.1-0.3,0c-0.2,0-1,0-1.9,0c-0.5,0-1.1,0-1.6-0.1c-0.3,0-0.6,0-1,0c-0.5,0-0.9,0-0.8,0c0.1,0-0.5,0-1.3,0
		c-0.8,0-1.6,0-1.6,0c-0.1,0-0.1,0-0.1,0c0.1,0-0.1-0.1-0.5-0.1c-0.3,0,0.7,0,2.2,0s3,0,3.2,0c0.2,0,1.7,0,3.2,0
		c1.5,0,3.6,0.1,4.5,0.1c0.9,0,2.6,0.1,3.8,0.1c1.2,0,2.8,0.1,3.5,0.1c0.8,0,1.5,0,1.7,0c0.1,0,0.3,0,0.4,0c0.3,0,0.5,0.1,0.8,0.1
		c0.4,0,0.5,0,0.4,0c-0.1,0-0.2,0-0.2-0.1c0,0-0.2,0-0.4,0c-0.3,0-0.4,0-0.3,0c0,0,0,0-0.2,0c-1.3,0-2.7-0.1-2.6-0.1
		c0,0-0.1,0-0.2,0c-0.3,0-2.6,0-3.8-0.1c-0.3,0-0.9,0-1.3,0c-0.4,0-1.5,0-2.5-0.1c-3.6-0.1-6.5-0.1-10-0.1c-4,0-6.3,0-10.1,0
		c-1.4,0-4.1,0-5.9,0c-2.2,0-3,0-2.3,0c0.8,0,0.7,0-0.8,0c-1,0-1.9,0-2,0c-0.2,0-0.3,0-0.2,0c0,0-0.9,0-2,0c-1.1,0-3.2,0-4.5,0
		c-1.8,0-2.4,0-2.3,0.1c0.1,0,0,0-0.3,0c-0.6,0-1.1,0-1.7,0c-1.1,0-1.3,0-1.2,0c0.1-0.1,0.1-0.1-0.1,0c-0.1,0-0.3,0.1-0.5,0
		c-0.3,0-5.9,0-5.9,0.1c0,0-0.1,0-0.2,0c-0.2,0-0.4,0-0.5,0c-0.1,0-0.3,0-0.4,0c0,0-0.6,0-1.2,0c-0.5,0-0.9,0-1.4-0.1
		c-0.2-0.1-0.2-0.1,0.1-0.1c1.1,0,4.4-0.1,4.5,0c0.2,0,0.7,0,0.7-0.1c0,0,0-0.1,0.1-0.1c0.1,0,2.3,0,5-0.1c4.3-0.1,6.3-0.1,12.4-0.1
		c0.8,0,2.6,0,4.1,0c1.5,0,2.7,0,2.7,0c0.1,0,2.9,0,4.9,0c1.4,0,5,0,6.8,0.1c0.8,0,2.1,0,2.9,0c2.6,0,3.2,0.1,3.1,0.1
		c-0.1,0,0.1,0,0.5,0c0.3,0,0.5,0,0.8,0c0,0,0.6,0,1.3,0c0.7,0,1.3,0,1.4,0s1.1,0,2.3,0s2.2,0,2.3,0c0.2,0,0.2,0,0.2,0
		c-0.1-0.1,1.6-0.1,3,0c1.9,0.1,4.6,0.1,4.8,0.1c0.2,0,0.4,0,0.6,0c0.2,0,1,0.1,2,0.1c1,0,2.1,0,3.1,0.2c0.3,0,0.3,0,0,0
		c-0.6-0.1-1.2-0.2-1.9-0.2c-0.4,0-0.5,0-0.5-0.1c0-0.1,0.1-0.1,0.6-0.1l0.6,0l-0.7,0c-0.3,0-0.5,0-0.8-0.1
		c-0.4-0.1-0.9-0.1-1.3-0.1c-1.3-0.1-2.7-0.2-3.2-0.2c-0.2,0-1.1,0-2.2,0c-3.4,0-6.5,0-7.7,0c-2.3-0.1-4.3-0.1-5-0.1
		c-0.4,0-1.2,0-1.8,0c-0.6,0-1.9,0-3-0.1s-2.2,0-2.5,0s-1.2,0-1.9,0c-3.6,0-5.7-0.1-3.9-0.1c0.5,0,0.7,0,0.7-0.1c-0.1,0,0.1,0,0.4,0
		c0.3,0,1.4,0,2.5,0c2.6,0,5.4,0,8.4,0.1c1.3,0,3.9,0.1,5.8,0.1c1.9,0,4.1,0,4.9,0.1c0.8,0,1.5,0,1.6,0s1.4,0,2.8,0.1l3,0.1
		c0.2,0,1.1,0,2,0c0.9,0,1.8,0,2.1,0.1c0.7,0.1,7.1-0.1,7.9-0.1c0.7-0.1,1.4-0.3,1.4-0.4c0,0-0.1,0-0.2,0c-0.3,0.1-0.5,0.1-0.8,0.2
		c-0.6,0.1-0.6,0.1-0.9,0c-0.2-0.1-0.3-0.1-0.1-0.2c0.2-0.1,0.2-0.1-0.3-0.1c-0.2,0-0.4,0-0.5-0.1c-0.1-0.1-0.3-0.1-0.9-0.1
		c-0.4,0-1.1,0-1.6-0.1c-0.9-0.1-2.8-0.1-5.6-0.1c-1.1,0-2.2,0-2.3,0c-0.2,0-0.4,0-0.5,0c-0.2,0-0.2-0.1,0.1-0.1c0.1,0,0.1,0-0.1,0
		c-0.6,0-0.6-0.1,0.1-0.1c0.2,0,0.4,0,0.6,0c0.2,0,0.4,0,0.6,0c0.6,0,1.3,0,1.9,0c0.3,0,0.6-0.1,0.8-0.1c0.4,0,0.7,0,1-0.1
		c0.3-0.1,0.6-0.1,0.9,0c0.5,0,2.4,0.1,2.5,0.1c0,0,0,0-0.1-0.1c-0.1,0,0.1,0,0.6,0c0.4,0,0.8,0,0.9,0c0.2,0,0.4,0,0.5,0.1
		c0.6,0.1,1.3,0.1,1.9,0.1c-0.2,0-0.3-0.1-0.5-0.1c-0.5,0-0.5-0.1-0.4-0.1c0.4-0.1,0.8-0.1,1.2-0.1c0,0,0.6,0,1.3,0
		c0.6,0,1.4,0,1.6,0.1c0.3,0,0.5,0,0.8,0l0.4,0l-0.5-0.1c-0.2,0-0.4-0.1-0.6-0.1c-0.2-0.1-0.9-0.2-1.8-0.2c-0.5,0-0.9,0-1,0
		c-0.7,0-1.5,0-2.2-0.1c0-0.1,0.9-0.4,1.3-0.4c0.1,0,0.3,0,0.4-0.1c0.1-0.1,0.2-0.1,0.3-0.1c0.3-0.1,0.5-0.1,0.8-0.1
		c0.7,0,2.3,0.1,3.6,0.2c1.1,0.1,2.1,0.1,3.2,0c1.3-0.2,1.4-0.3,0.2-0.1c-0.9,0.1-1.9,0.1-2.8,0.1c-0.6-0.1-0.4-0.1,0.7-0.1
		c1,0,1.9-0.1,1.9-0.2c-0.2,0-0.5,0-0.7,0c-1.9,0-6.2,0.1-6.4,0.1c-0.1,0-0.2-0.1-0.2-0.1c0-0.1,0.3-0.2,0.9-0.2c0.9,0,3.9,0,3.8,0
		c0,0-0.5,0-1.1,0c-1,0-1.7-0.1-1.7-0.2c0.1-0.1,0.6-0.1,2.8,0c0.3,0,0.3,0-0.1-0.1c-0.3,0-0.5-0.1-0.8-0.1c-0.3,0-0.5,0-0.8,0
		l-0.4,0l0.3-0.1c0.2,0,0.9-0.1,1.5-0.1c0.6,0,1.2,0,1.9-0.1c0.6-0.1,1.2-0.1,1.7-0.1c0.6,0,1.1,0,1.1,0c-0.1,0-0.3-0.1-0.4-0.1
		c-0.6-0.1-0.5-0.2,0.3-0.2c0.2,0,0.4,0,0.6,0c0,0-0.5,0-1.1-0.1c-0.4,0-0.8-0.1-1.1-0.1c0,0,0-0.1,0.1,0c0.5,0.1,0.8,0.1,0.8,0
		c0-0.1-1.3-0.2-2.7-0.2c-0.7,0-1.5-0.1-1.7-0.1s-0.8-0.1-1.2-0.1c-0.4,0-1.2,0-1.7-0.1c-0.5,0-1.9-0.1-3-0.1
		c-1.1,0-2.5-0.1-3.1-0.1c-0.6,0-1.5,0-2.1,0c-1.6,0-3.3-0.1-4.1-0.1c-0.4,0-1.2-0.1-1.7-0.1c-0.5,0-1.2,0-1.5,0c-0.2,0-0.5,0-0.7,0
		c-0.1,0-2.7,0-3-0.1c-0.3-0.1-7.4-0.2-10-0.3c-0.7,0-1.9,0-2.7-0.1c-2.2-0.1-5.6-0.1-10.9-0.1c-0.4,0-1.5,0-2.3,0
		c-1.3,0-1.4,0-0.5,0c0.6,0,2.8,0,4.9,0c4.1,0,6.6,0,8.5,0.1c0.6,0,2.1,0,3.3,0.1c3.1,0,6.1,0.1,6.2,0.1c0.1,0-3.3,0-3.9,0
		c-0.3,0-1.6,0-2.9,0c-1.3,0-2.4,0-2.5,0c-0.1,0-0.7,0-1.5,0c-0.8,0-2,0-2.8,0c-0.8,0-1.9,0-2.6,0c-0.7,0-1.5,0-1.9,0
		c-1.5,0-3.6,0-5.9,0c-1.3,0-2.4,0-2.5,0c-0.1,0-1.7,0-3.6,0c-3.3,0-5.3,0-6.9-0.1c-0.4,0-1.4,0-2.2,0
		C1281.7,93.4,1281.2,93.4,1280.7,93.3z M1216.7,96.9c-0.2,0-1.6,0.1-2.2,0.1c-0.2,0-0.2,0,0,0l0,0c0.2,0,0.8-0.1,1.4-0.1
		C1216.5,96.8,1216.8,96.8,1216.7,96.9z M1218.1,96.6c0.2,0,0.3,0,0.2,0c-0.1,0-0.2,0-0.3,0C1217.8,96.6,1217.9,96.6,1218.1,96.6
		L1218.1,96.6z M1218.8,98l-1,0c-1.1,0-2.5,0-2.3,0c0.3-0.1,0.6-0.1,1.9,0L1218.8,98z M1220.6,97.2c-0.3,0-2.4,0.1-2.9,0
		c-0.4,0-0.4,0,0.2,0c0.4,0,1,0,1.5,0C1219.9,97.1,1220.4,97.1,1220.6,97.2C1220.9,97.2,1220.9,97.2,1220.6,97.2L1220.6,97.2z
		 M1221.5,97.2c-0.1,0-0.2,0-0.3,0l0,0C1221.2,97.2,1221.3,97.2,1221.5,97.2C1221.6,97.2,1221.6,97.2,1221.5,97.2L1221.5,97.2z
		 M1222.5,97.2c-0.2,0-0.3,0-0.5,0l0,0c-0.1,0,0,0,0.2,0S1222.6,97.2,1222.5,97.2L1222.5,97.2z M1225.5,97c0.2,0,0.3,0,0.2,0
		c-0.1,0-0.2,0-0.3,0C1225.2,97.1,1225.3,97,1225.5,97L1225.5,97z M1224.8,97.1C1224.9,97.1,1224.9,97.1,1224.8,97.1
		c0,0-0.1,0-0.2,0l0,0C1224.5,97.1,1224.6,97.1,1224.8,97.1L1224.8,97.1z M1223.9,97C1224.1,97,1224.1,97,1223.9,97c0,0-0.1,0-0.2,0
		l0,0C1223.7,97,1223.8,97,1223.9,97L1223.9,97z M1225,97.3c-0.5,0-1,0-1.5,0c0.3-0.1,0.7-0.1,1-0.1c0.3,0,0.7,0,1,0
		c0.2,0,0.3,0.1,0.5,0.1C1226.3,97.2,1225.8,97.2,1225,97.3L1225,97.3z M1227.5,94.1c0.4,0,0.6,0,0.4,0c-0.2,0-0.5,0-0.7,0
		C1227,94.1,1227.1,94.1,1227.5,94.1L1227.5,94.1z M1228.1,97.1c-0.3,0-0.5,0-0.4,0c0.1-0.1,0.1-0.1,0.6,0
		C1228.6,97.1,1228.6,97.1,1228.1,97.1L1228.1,97.1z M1218.6,98.7c-0.2,0-0.5,0-0.7,0c-0.8,0,0-0.1,1.7-0.2l0,0
		c2.3-0.1,2.1-0.1,2.4-0.1c0.2,0,0.4,0,0.6,0c0.2,0,0.4,0,0.6,0c0.1,0.1,0,0.1-1,0.1C1220.9,98.7,1219.3,98.7,1218.6,98.7
		L1218.6,98.7z M1221.7,99.4L1221.7,99.4c-0.1,0,0,0,0.3,0s0.4,0,0.2,0C1222,99.4,1221.8,99.4,1221.7,99.4L1221.7,99.4z
		 M1222.5,99.9c-0.1,0-0.2,0-0.3,0c-0.1,0,0,0,0.2,0S1222.6,99.9,1222.5,99.9L1222.5,99.9z M1222,99.2c-1.5,0.1-1.9,0.1-1.7,0l0,0
		c0.1,0,2.5-0.1,2.9-0.1C1223.5,99.1,1223.2,99.1,1222,99.2L1222,99.2z M1223.4,99.9c-0.2,0-0.3,0-0.5,0l0,0c-0.1,0,0,0,0.2,0
		C1223.4,99.9,1223.5,99.9,1223.4,99.9L1223.4,99.9z M1224.2,99.9c-0.1,0-0.2,0-0.3,0c-0.1,0,0,0,0.2,0
		C1224.3,99.9,1224.3,99.9,1224.2,99.9L1224.2,99.9z M1228.8,100.9c-0.1,0-0.2,0-0.3,0c-0.1,0,0,0,0.2,0
		C1228.9,100.9,1228.9,100.9,1228.8,100.9L1228.8,100.9z M1230.8,100.9c-0.1,0-0.2,0-0.3,0C1230.5,100.9,1230.6,100.9,1230.8,100.9
		C1230.9,100.9,1231,100.9,1230.8,100.9L1230.8,100.9z M1232,100.9c-0.1,0-0.2,0-0.3,0C1231.7,100.9,1231.8,100.9,1232,100.9
		C1232.1,100.9,1232.2,100.9,1232,100.9L1232,100.9z M1253.1,103.5c0.7,0,1.2,0,1.3,0.1c-0.9,0-1.8,0-2.6,0l0,0
		C1251.5,103.4,1251.4,103.4,1253.1,103.5L1253.1,103.5z M1305.5,101.3C1305.6,101.3,1305.6,101.3,1305.5,101.3c0,0-0.1,0-0.2,0l0,0
		C1305.2,101.3,1305.3,101.3,1305.5,101.3L1305.5,101.3z M1302.8,100.5c0.2,0,0.3,0,0.2,0c-0.1,0-0.2,0-0.3,0
		C1302.5,100.5,1302.6,100.5,1302.8,100.5L1302.8,100.5z M1299.3,100.5c0.1,0,0.6,0,1.3,0l1.2,0l-1.2,0
		C1300.1,100.5,1299.7,100.5,1299.3,100.5L1299.3,100.5C1299.2,100.5,1299.2,100.5,1299.3,100.5L1299.3,100.5z M1298.4,100.5
		c0.2,0,0.3,0,0.2,0c-0.1,0-0.3,0-0.4,0l0,0C1298.1,100.5,1298.2,100.5,1298.4,100.5L1298.4,100.5z M1297.3,100.5c0.3,0,0.4,0,0.2,0
		c-0.2,0-0.3,0-0.5,0C1297,100.5,1297.1,100.5,1297.3,100.5L1297.3,100.5z M1294.6,101.4c3.8,0,4.7,0,7.1,0c0.4,0,2.2,0,3.9,0
		c2.6,0,6.5-0.1,7.3,0c0.1,0,0.6,0,1.1,0c0.5,0,1,0,1.1,0c0.1,0,0.2,0,0.2,0c0.2,0,0.4,0,0.6,0c1.1,0,3,0,3.2,0.1
		c0.2,0,0.1,0,1.3,0.1c0.7,0,1,0,1.1,0.1c0.1,0.1,0.2,0.1,0.4,0.1c0.2,0,0.2,0,0,0c-0.5-0.1,0.1-0.1,2,0c2.7,0.1,3.9,0.2,3.8,0.2
		c-1,0.1-2,0-2.9,0c-0.4-0.1-0.9-0.1-1.3-0.1c-0.1,0-3.5,0-4,0c-0.2,0-1,0-1.7,0c-1,0-1.3,0-1.3-0.1c0,0,0.1-0.1,0.4,0
		c0.8,0,1.6,0,1.5,0c-0.9-0.1-1.8-0.1-2.6,0c-0.1,0,0,0,0.2,0c0.3,0,0.3,0-0.1,0c-0.2,0-0.4,0-0.6,0c-0.1,0-0.7,0-1.2,0
		s-1.3,0-1.7,0s-1.3,0-2.1,0s-2.5,0-3.7,0c-2.1,0-3,0-6.7,0c-0.7,0-2.8,0-4.7,0c-2.1,0-3.5,0-3.6,0c-0.1,0-0.3,0-0.4,0
		c-0.2,0-0.4,0-0.6,0l0,0C1290.4,101.4,1291.5,101.4,1294.6,101.4L1294.6,101.4z M1289.3,101.4c0.2,0,0.3,0,0.3,0c0,0,0,0,0.2,0
		c0.2,0,0.2,0,0.2,0c-0.1-0.1,0.1-0.1,0.2,0c0.2,0.1,0.1,0.1-0.5,0.1c-0.3,0-0.6,0-0.5,0c0,0,0-0.1-0.1-0.1
		C1289,101.4,1289.1,101.4,1289.3,101.4L1289.3,101.4z M1324.1,100.3c0.2,0,0.3,0,0.2,0c-0.1,0-0.2,0-0.3,0
		C1323.9,100.3,1324,100.3,1324.1,100.3L1324.1,100.3z M1323.3,100.3c0,0,0.1,0,0.1,0c0,0,0.1,0,0.1,0
		C1323.5,100.3,1323.4,100.3,1323.3,100.3C1323.3,100.3,1323.2,100.3,1323.3,100.3L1323.3,100.3z M1319.7,100.2c0.2,0,0.6,0,0.9-0.1
		c0.5,0,0.5,0,0.2,0c-0.2,0-0.2,0,0.3,0c0.4,0,0.5,0,0.4,0c-0.2,0.1-1.2,0.1-1.2,0c-0.2,0-0.3,0-0.5,0
		C1319.3,100.2,1319.3,100.2,1319.7,100.2L1319.7,100.2z M1319,100.1c0.4,0,0.5,0,0.2,0.1c-0.1,0-0.2,0-0.4,0
		C1318.6,100.1,1318.7,100.1,1319,100.1L1319,100.1z M1317.2,100.1c0.3,0,0.5,0,0.3,0c-0.2,0-0.4,0-0.6,0l0,0
		C1316.7,100.1,1316.9,100.1,1317.2,100.1L1317.2,100.1z M1312.1,100.1c1.1,0,4,0,3.5,0.1c-0.2,0-0.4,0-0.4,0c0,0-0.7,0-1.4,0
		c-0.7,0-1.6,0-2,0C1311.2,100.2,1311.2,100.1,1312.1,100.1L1312.1,100.1z M1310.5,100.1c0.2,0,0.3,0,0.2,0c-0.1,0-0.2,0-0.3,0
		C1310.3,100.1,1310.3,100.1,1310.5,100.1L1310.5,100.1z M1300.9,100c0.2,0,0.3,0,0.2,0c-0.1,0-0.2,0-0.3,0
		C1300.6,100,1300.7,100,1300.9,100L1300.9,100z M1290.1,99.8c0.2,0,0.3,0,0.2,0c-0.1,0-0.2,0-0.3,0
		C1289.8,99.8,1289.9,99.8,1290.1,99.8L1290.1,99.8z M1268.2,97.4c0.2,0,0.3,0,0.2,0c-0.1,0-0.3,0-0.4,0l0,0
		C1267.9,97.4,1268,97.4,1268.2,97.4L1268.2,97.4z M1261.1,97.8c0.3,0,0.7,0,0.9,0l0.3,0l-0.3,0
		C1261.8,97.8,1261.4,97.8,1261.1,97.8L1261.1,97.8l-0.5,0L1261.1,97.8z M1261.1,98c-0.1,0-0.2,0-0.3,0c-0.1,0,0,0,0.2,0
		S1261.2,98,1261.1,98L1261.1,98z M1259.7,98c0.2,0,0.3,0,0.2,0c-0.1,0-0.3,0-0.4,0l0,0C1259.3,98,1259.4,98,1259.7,98L1259.7,98z
		 M1258.2,99.1c0.3,0,0.4,0,0.2,0c-0.2,0-0.3,0-0.5,0C1257.9,99.1,1258,99.1,1258.2,99.1L1258.2,99.1z M1258.9,100c0.8,0,2,0,2.5,0
		c0.8,0,0.8,0-0.6,0c-0.8,0-2,0-2.5,0C1257.5,100,1257.5,100,1258.9,100L1258.9,100z M1256.7,98c0.2,0,0.3,0,0.2,0
		c-0.1,0-0.2,0-0.3,0C1256.4,98,1256.5,98,1256.7,98L1256.7,98z M1256.6,100.3c0.6-0.1,1.2-0.1,1.7,0c0.3,0,0.1,0-0.8,0
		C1256.7,100.3,1256.3,100.3,1256.6,100.3L1256.6,100.3z M1246.1,99.1c0.2,0,0.3,0,0.2,0c-0.1,0-0.3,0-0.4,0l0,0
		C1245.8,99.1,1245.9,99.1,1246.1,99.1z M1241.9,99.2c0.2,0,1.1-0.1,2-0.1c1,0,1.5,0,1.3,0c-0.2,0-0.2,0,0.1,0c0.2,0,0.3,0,0.3,0
		c-0.1,0,0.3,0,0.8,0c0.6,0,0.8,0,0.7-0.1c-0.2,0-0.1,0,0.1,0c0.2,0,0.3,0,0.3,0l0,0c0.1,0,0.2,0,0.4,0c0.2,0,1,0,1.7,0
		c1,0,1.2,0,0.7,0c-0.3,0,0.5,0,1.9,0c1.4,0,3.1,0,3.9,0c1,0-0.7,0-5.1,0.1c-3.6,0-6.8,0.1-7,0.1c-0.3,0-0.9,0-1.5,0
		C1241.6,99.3,1241.5,99.3,1241.9,99.2L1241.9,99.2z M1253.9,100.3c-0.1,0-0.2,0-0.3,0c-0.1,0,0,0,0.2,0S1254,100.3,1253.9,100.3
		L1253.9,100.3z M1251.6,100.2c0.8,0,1.3,0,1.2,0c-0.5,0-3.4,0-3.6,0l0,0C1249,100.2,1249.3,100.2,1251.6,100.2L1251.6,100.2z
		 M1249.5,100.1c0-0.1,0.5-0.1,1.1,0c0.3,0,0.3,0-0.4,0C1250,100.2,1249.7,100.2,1249.5,100.1z M1246.4,100.3c-0.1,0-0.3,0-1.1,0
		c-0.6,0-1.1-0.1-1.1-0.1c-0.1,0,0,0,1.5,0C1246.3,100.2,1246.5,100.2,1246.4,100.3L1246.4,100.3z M1235.3,99.3
		c-0.5,0,0.4,0,2.8-0.1c2.4,0,3.5,0,3.3,0C1241.2,99.3,1236.5,99.3,1235.3,99.3L1235.3,99.3z M1240.9,100.2c-0.1,0-0.2,0-0.3,0
		C1240.6,100.1,1240.7,100.1,1240.9,100.2C1241,100.1,1241.1,100.1,1240.9,100.2L1240.9,100.2z M1239.3,97.3c0.2,0,0.3,0,0.2,0
		c-0.1,0-0.3,0-0.4,0l0,0C1239,97.3,1239.1,97.3,1239.3,97.3z M1231.2,97.9c0.4,0,0.5,0,0.3,0c-0.2,0-0.5,0-0.7,0l0,0
		C1230.7,97.9,1230.8,97.9,1231.2,97.9L1231.2,97.9z M1227.3,99L1227.3,99c0.8,0,7.4-0.1,7.6-0.1c0.2,0,1,0.1,1.8,0.1l1.5,0.1
		l-2.6,0c-1.4,0-2.9,0-3.2,0c-0.3,0-1.4,0-2.5,0C1228.3,99,1226.8,99,1227.3,99L1227.3,99z M1233.3,99.3c-0.1,0-0.2,0-0.3,0
		c-0.1,0,0,0,0.2,0C1233.3,99.2,1233.4,99.2,1233.3,99.3L1233.3,99.3z M1226.6,99.3c-0.6,0-1.1,0-1.1,0c0.1-0.1,1.3-0.1,2.9-0.1
		c2.3,0,2.7,0,0.8,0C1228.4,99.3,1227.2,99.3,1226.6,99.3L1226.6,99.3z M1229.9,100.2c0.3,0,0.6,0,0.9,0c0.9,0,0.9,0,0.5,0.1
		C1230.7,100.3,1230.3,100.3,1229.9,100.2L1229.9,100.2z M1233.3,100.7c-0.2,0-0.4,0-0.6,0l0,0
		C1232.5,100.7,1232.6,100.7,1233.3,100.7l0.6,0L1233.3,100.7z M1234.5,101.8c-0.1,0-0.2,0-0.3,0
		C1234.2,101.8,1234.3,101.8,1234.5,101.8C1234.6,101.8,1234.6,101.8,1234.5,101.8L1234.5,101.8z M1232.5,100.4
		c-0.4,0-0.8,0-1.2-0.1c0.5,0,0.9-0.1,1.4,0c0.8,0,1.1,0,0.8,0l0,0c-1-0.1,1.6-0.1,4.5,0c2,0,3.4,0.1,4.1,0c0.6,0,1.3,0,1.5,0
		c0.5,0.1-1,0.1-2.5,0.1c-0.8,0-2.7,0-4.3,0.1C1234.2,100.4,1233.6,100.4,1232.5,100.4z M1235.6,101.8c-0.1,0-0.2,0-0.3,0
		c-0.1,0,0,0,0.2,0C1235.6,101.7,1235.7,101.7,1235.6,101.8L1235.6,101.8z M1236.9,101.8c-0.2,0-0.4,0-0.5,0l0,0c-0.1,0,0,0,0.3,0
		C1237,101.8,1237.1,101.8,1236.9,101.8L1236.9,101.8z M1237.1,100.6c-0.4,0-1,0-1.4,0.1c-0.5,0-0.7,0-0.6,0l0,0
		c0.8-0.1,1.5-0.1,2.3-0.1C1237.7,100.6,1237.7,100.6,1237.1,100.6L1237.1,100.6z M1238.3,102c-0.2,0-0.3,0-0.5,0l0,0c0,0,0,0,0,0
		C1237.9,101.9,1238.1,101.9,1238.3,102l0.5,0L1238.3,102z M1245.8,103.5c-4.3,0-6.8,0.1-7.8,0c-0.3,0-1,0-1.5,0
		c-1.3,0-5.6-0.1-5.8-0.1l0,0c0.3,0,0.5,0,0.8,0c2.2,0,5.8,0,6.9,0c0.6,0,2.6,0,4.3,0c1.8,0,4.1,0,5.2,0l2,0L1245.8,103.5z
		 M1245.4,103.1c0.3,0,0.4,0,0.2,0c-0.2,0-0.3,0-0.5,0l0,0C1245,103.1,1245.1,103.1,1245.4,103.1L1245.4,103.1z M1247.9,102.9
		c0.8,0,1.6,0.1,1.8,0.1c0.4,0,0.2,0.1-1.4,0.1c-1,0-1.8,0-1.8,0c0,0-0.1,0-0.2,0c-0.2,0-0.3,0-0.5,0c-0.1,0-0.8,0-1.5-0.1
		c-0.7,0-1.4-0.1-1.5-0.1c-0.3,0-0.5,0-0.8,0c-1,0-0.5,0,0.9-0.1c0.8,0,1.1,0,0.7,0l-0.7,0l0.6,0l0,0c0.3,0,0.6,0,0.9-0.1
		c0.2,0,0.3,0,0.3,0c0.2,0,0.5,0.1,0.7,0c0.3,0,0.6,0,0.8,0C1246.5,102.9,1247.2,102.9,1247.9,102.9L1247.9,102.9z M1279.6,100.6
		C1279.8,100.6,1279.8,100.6,1279.6,100.6c0,0-0.1,0-0.2,0l0,0C1279.4,100.6,1279.5,100.6,1279.6,100.6L1279.6,100.6z M1281.5,101.4
		c3.6,0,4.3,0,4.3,0c0,0,0.1,0,0.2,0c0.3,0,0.6-0.1,0.8,0c0.4,0,0.9,0,1.2,0c0.4,0,0.5,0,0.4,0c-0.2,0-0.2,0,0,0.1c0.1,0,0,0-0.2,0
		c-0.1,0-0.3,0-0.4,0c0,0-0.8,0-1.7,0c-1.1,0-1.7,0-1.7,0c0-0.1-0.4-0.1-0.4,0c0,0-0.2,0-0.6,0c-0.3,0-1.1,0-1.7,0s-1.7,0-2.2,0l0,0
		C1278.9,101.5,1279.6,101.5,1281.5,101.4L1281.5,101.4z M1278.1,100.6c0.3,0,0.4,0,0.2,0c-0.2,0-0.3,0-0.5,0
		C1277.7,100.6,1277.8,100.6,1278.1,100.6L1278.1,100.6z M1270.7,100.3c0.3,0,0.6,0,0.9,0c-0.5,0.1-1.1,0.1-1.6,0
		C1269.8,100.4,1270,100.3,1270.7,100.3L1270.7,100.3z M1270.8,100.5c-0.1,0-0.2,0-0.3,0c-0.1,0,0,0,0.2,0
		C1270.8,100.5,1270.9,100.5,1270.8,100.5L1270.8,100.5z M1270.1,100.5C1270.2,100.6,1270.2,100.6,1270.1,100.5c-0.2,0-0.3,0-0.3,0
		C1269.8,100.5,1269.8,100.5,1270.1,100.5L1270.1,100.5z M1268.7,100.4c0.5,0,0.7,0,0.5,0c-0.2,0-0.7,0-0.9,0l0,0
		C1267.9,100.4,1268.1,100.4,1268.7,100.4L1268.7,100.4z M1268.8,100.6c-0.1,0-0.2,0-0.3,0c-0.1,0,0,0,0.2,0
		C1268.8,100.6,1268.9,100.6,1268.8,100.6L1268.8,100.6z M1268.2,100.6c1.2,0,4.9,0,4.8-0.1c0,0-0.5,0-1,0c-0.3,0-0.6,0-0.9,0
		c0,0,0.1,0,0.1,0l0,0c0.1,0,0.2,0,0.3,0s0.9,0,1.8,0c1.2,0,1.6,0,1.5,0c0,0-0.3,0.1-0.9,0.1c-0.3,0-0.5,0-0.8,0
		c0.1,0,1.4,0.1,2.3,0c0.2,0,0.5,0,0.7,0c-0.2,0.1-8.3,0.1-8.4,0C1267.7,100.6,1267.9,100.6,1268.2,100.6L1268.2,100.6z
		 M1267.8,101.5c7.7-0.1,10.6-0.1,10.7,0c0.1,0-11.9,0.2-12.7,0.2c-0.2,0-2.8,0-5.7,0c-4.5,0-5.4,0-5.9,0c-0.6-0.1-1.1-0.1-1,0
		c0.1,0-0.2,0-0.9,0c-0.8,0-1,0-1.2,0.1c-0.2,0.1-0.5,0.1-0.7,0c0,0-1,0-2,0s-2.5,0-3,0c-0.6,0-2.5-0.1-4.2-0.1c-1.7,0-3.2,0-3.2,0
		l0,0c-0.1,0,2.4-0.1,2.5,0c0.1,0,6.4,0,10.6-0.1c6.6-0.1,8.4-0.1,9.9-0.1C1261.7,101.6,1264.8,101.5,1267.8,101.5L1267.8,101.5z
		 M1263.6,100C1263.7,100,1263.7,100,1263.6,100c0,0-0.1,0-0.2,0l0,0C1263.3,100,1263.4,100,1263.6,100L1263.6,100z M1264.2,100
		c0.2,0,0.3,0,0.2,0c-0.1,0-0.3,0-0.4,0l0,0C1263.9,100,1264,100,1264.2,100L1264.2,100z M1264.9,98c-0.8,0-2,0-2.5,0
		c-0.3,0-0.6,0-0.9,0c0.1-0.1,3.7-0.1,4.3-0.1C1266.8,98,1266.4,98,1264.9,98L1264.9,98z M1268.8,97.9c-0.1,0-0.2,0-0.3,0
		C1268.5,97.9,1268.6,97.9,1268.8,97.9C1268.9,97.9,1268.9,97.9,1268.8,97.9L1268.8,97.9z M1269.7,97.9c-0.1,0-0.2,0-0.3,0
		c-0.1,0,0,0,0.2,0C1269.7,97.9,1269.7,97.9,1269.7,97.9L1269.7,97.9z M1263.6,97.6c0,0-0.1-0.1-0.2-0.1l0,0c-0.3,0-0.3,0,0,0
		c0.1,0,0.3,0,0.4,0c0,0,1.5,0,3.2,0c3,0,7.4,0,7.6,0c0,0,0.7,0,1.5,0c0.8,0,1.6,0,1.9,0c0.6,0-0.3,0-8.3,0.1
		C1263.4,97.7,1263.5,97.7,1263.6,97.6L1263.6,97.6z M1271,97.7c-0.1,0-0.2,0-0.3,0c-0.1,0,0,0,0.2,0S1271.1,97.7,1271,97.7
		L1271,97.7z M1271.3,97.9c-0.2,0-0.7,0-0.9,0l0,0c-0.3,0-0.1,0,0.4,0C1271.3,97.9,1271.5,97.9,1271.3,97.9L1271.3,97.9z
		 M1272.5,97.9c-0.2,0-0.3,0-0.5,0c-0.1,0,0,0,0.2,0S1272.6,97.9,1272.5,97.9L1272.5,97.9z M1300.8,97.7c-0.3,0-0.6,0-0.9-0.1
		c-0.1,0,0.1,0,0.5,0c0.3,0,0.6,0,0.9,0.1C1301.6,97.7,1301.5,97.8,1300.8,97.7L1300.8,97.7z M1302.6,97.7c-0.3,0-0.6,0-0.8,0
		c0-0.1,0.3-0.1,1.1,0C1303.4,97.7,1303.4,97.7,1302.6,97.7L1302.6,97.7z M1305,97.7c-0.2,0-0.4,0-0.5,0l0,0c-0.1,0,0,0,0.3,0
		C1305.1,97.7,1305.2,97.7,1305,97.7L1305,97.7z M1322,93.6c0.3,0,0.4,0,0.2,0c-0.2,0-0.3,0-0.5,0
		C1321.6,93.6,1321.7,93.6,1322,93.6L1322,93.6z M1321.8,97.5C1321.9,97.5,1322,97.5,1321.8,97.5c0,0-0.1,0-0.2,0
		C1321.5,97.5,1321.6,97.5,1321.8,97.5L1321.8,97.5z M1320.4,97.5c0.2,0,0.3,0,0.5,0C1321.1,97.6,1320.8,97.6,1320.4,97.5
		C1320,97.5,1320,97.5,1320.4,97.5L1320.4,97.5z M1287.5,97.2c1.3,0,3.5,0,4.9,0c2.2,0,4.8,0,7,0c3.2,0,4.8,0,5.2,0
		c3.1,0,4.4,0.1,6,0.1c1.1,0,2.1,0.1,2.3,0.1c1,0,4,0,4.6,0.1c0.5,0,0.9,0,1.4,0c0.2,0,0.5,0,0.7,0c0,0.1,0.5,0.1,1.9,0.1
		c0.5,0,0.9,0,1.4,0c0,0,0.1,0,0.2,0c0.2,0,0.3,0.1,0.5,0c0.3,0,0.3,0,0.2,0c-0.2,0-0.1,0,0.3,0c0.6,0,1.1,0,1,0.1
		c0.2,0,0.4,0.1,0.6,0c0.8,0,3,0,3.3,0.1c0.1,0,0.1,0-0.2,0.1l-0.4,0h0.4c0.2,0,0.4,0,0.6,0.1c0.1,0,0,0.1-0.6,0
		c-0.6,0-0.7,0-0.7-0.1c0,0,0-0.1-0.1,0c-0.3,0-0.7,0.1-1,0c-0.9,0-1.3-0.1-0.6-0.1c0.2,0,0.3,0,0.3-0.1c-0.2,0-0.4,0-0.6,0
		c-0.8,0-1.6,0-1.5-0.1c0,0-0.1,0-0.4,0c-0.4,0-0.4,0-0.2,0c0.2,0,0.2,0-0.3,0c-0.4,0-0.5,0-0.3,0c0.1,0,0,0-0.5,0
		c-0.4,0-1.2,0-1.9,0s-1.8,0-2.7,0c-0.8,0-2.3,0-3.1,0c-0.9,0-2,0-2.5,0c-0.5,0-1.2,0-1.6,0c-0.2,0-0.5,0-0.7,0c-0.1,0-0.1,0-0.2,0
		c-0.1,0-1.3,0-3.4,0c-1.8,0-3.6,0-4,0s-1.7,0-2.9,0c-1.2,0-2,0-1.7,0c0.3,0,0.7,0,0.8,0s0.4,0,0.6,0.1c0.5,0-8.6,0.1-10.5,0.1
		c-1.1,0-2.6,0-11.5,0.1c-2.5,0-3.9,0-4.1,0c-0.1,0-0.2,0-0.3,0c-0.1,0-0.1,0-0.1,0c-0.2-0.1-0.5-0.1-0.7-0.1c-0.6,0-0.4,0,1.1,0
		c1,0,3.4,0,5.3,0c1.9,0,4.2,0,5.1,0c0.9,0,1.3,0,0.9,0l-0.6,0l0.6,0c0.3,0-0.5,0-1.9,0c-3.5,0-8.9-0.1-11.5-0.1l0,0l-1.4,0l2.2,0
		c1.2,0,2.2,0,2.2,0c0,0,2.5,0,5.4-0.1S1286.2,97.2,1287.5,97.2z"/>
	<path id="Path_372" class="st0" d="M1293.6,98.6c0.1,0,0.2,0,0.2,0c0.1,0,0,0-0.1,0C1293.6,98.5,1293.6,98.6,1293.6,98.6z"/>
	<path id="Path_373" class="st0" d="M1272.3,98.5c-0.3-0.1-0.4,0-0.4,0c0,0.1,0.4,0.1,0.5,0.1C1272.4,98.5,1272.4,98.5,1272.3,98.5
		L1272.3,98.5z"/>
	<path id="Path_374" class="st0" d="M1276.2,98.6c-0.1,0-0.2,0-0.1,0C1276.1,98.7,1276.2,98.7,1276.2,98.6L1276.2,98.6
		C1276.3,98.6,1276.3,98.6,1276.2,98.6z"/>
	<path id="Path_375" class="st0" d="M1313.6,98.8c-0.2,0-0.3,0-0.2,0c0.1,0,0.2,0,0.3,0l0,0C1313.8,98.8,1313.8,98.8,1313.6,98.8z"
		/>
	<path id="Path_376" class="st0" d="M1271.3,98.5C1271.3,98.6,1271.3,98.6,1271.3,98.5C1271.4,98.6,1271.4,98.6,1271.3,98.5
		c0.1,0.1,0.2,0,0.2,0C1271.5,98.5,1271.4,98.4,1271.3,98.5C1271.4,98.4,1271.4,98.4,1271.3,98.5
		C1271.3,98.4,1271.3,98.5,1271.3,98.5z"/>
	<path id="Path_377" class="st0" d="M1341.3,98.7c0,0,0.1,0,0.1,0l0,0C1341.5,98.7,1341.5,98.7,1341.3,98.7
		C1341.4,98.7,1341.3,98.7,1341.3,98.7z"/>
	<path id="Path_378" class="st0" d="M1295.8,99.1c0,0,0.1,0.1,0.1,0.1c0.1,0,0.1,0,0-0.1l0,0C1295.8,99,1295.7,99,1295.8,99.1z"/>
	<path id="Path_379" class="st0" d="M1299.7,99c-0.2,0-0.3,0-0.2,0c0.1,0,0.2,0,0.3,0l0,0C1300,99,1299.9,99,1299.7,99z"/>
	<path id="Path_380" class="st0" d="M1302,99c0,0,0.1,0,0.1,0l0,0C1302.2,99,1302.2,99,1302,99C1302,99,1302,99,1302,99z"/>
	<path id="Path_381" class="st0" d="M1324.4,99.3c-0.2,0-0.1,0.1,0.1,0.1c0.1,0,0.2,0,0.1,0C1324.6,99.3,1324.5,99.3,1324.4,99.3z"
		/>
	<path id="Path_382" class="st0" d="M1321.6,98.6c0,0,0.1,0,0.1,0l0,0C1321.7,98.6,1321.7,98.5,1321.6,98.6
		C1321.6,98.5,1321.5,98.6,1321.6,98.6z"/>
	<path id="Path_383" class="st0" d="M1324.3,98.7c0,0,0.1,0,0.1,0l0,0C1324.4,98.7,1324.4,98.6,1324.3,98.7
		C1324.3,98.6,1324.2,98.7,1324.3,98.7z"/>
	<path id="Path_384" class="st0" d="M1295.9,98.5c-0.2,0-0.3,0-0.2,0c0.1,0,0.3,0,0.4,0l0,0C1296.3,98.5,1296.2,98.5,1295.9,98.5z"
		/>
	<path id="Path_385" class="st0" d="M1325.8,98.7c0.1,0,0.1,0,0.2,0C1326,98.7,1325.9,98.7,1325.8,98.7
		C1325.8,98.7,1325.7,98.7,1325.8,98.7z"/>
	<path id="Path_386" class="st0" d="M1322.6,98.6c0,0,0.1,0,0.1,0C1322.8,98.6,1322.7,98.6,1322.6,98.6
		C1322.6,98.6,1322.6,98.6,1322.6,98.6z"/>
	<path id="Path_387" class="st0" d="M1303.3,98.5c0.2,0,0.3,0.1,0.5,0l0.3,0l-0.4,0l0,0C1303.2,98.5,1303.2,98.5,1303.3,98.5z"/>
	<path id="Path_388" class="st0" d="M1301,98.6c0.1,0,0.2,0,0.2,0c0.1,0,0,0-0.1,0C1301,98.5,1300.9,98.5,1301,98.6z"/>
	<path id="Path_389" class="st0" d="M1310.9,98.5c0,0,0.1,0,0.1,0C1311,98.5,1311,98.4,1310.9,98.5
		C1310.9,98.4,1310.8,98.5,1310.9,98.5z"/>
	<path id="Path_390" class="st0" d="M1306.1,98.4c0,0,0.1,0,0.1,0l0,0C1306.3,98.4,1306.2,98.4,1306.1,98.4
		C1306.1,98.4,1306.1,98.4,1306.1,98.4z"/>
	<path id="Path_391" class="st0" d="M1291.7,101.9c-0.2,0.1-0.2,0.1,0.3,0c0.3,0,0.5-0.1,0.5-0.1
		C1292.2,101.8,1291.9,101.8,1291.7,101.9z"/>
	<path id="Path_392" class="st0" d="M1304.8,102.1c-0.2,0-0.4,0-0.5,0c-0.3,0-0.3,0-0.1,0.1C1304.3,102.2,1304.5,102.2,1304.8,102.1
		C1305,102.2,1305,102.2,1304.8,102.1z"/>
	<path id="Path_393" class="st0" d="M1205.8,95.9C1205.7,96,1205.7,96.1,1205.8,95.9c0.1,0,0.1-0.1,0.1-0.1
		C1206,95.7,1205.9,95.8,1205.8,95.9z"/>
	<path id="Path_394" class="st0" d="M1207.3,96.6C1207.3,96.6,1207.3,96.6,1207.3,96.6c-0.2,0-0.2,0-0.2,0
		C1207.2,96.6,1207.2,96.6,1207.3,96.6z"/>
	<path id="Path_395" class="st0" d="M1206.5,96.7c-0.2-0.1-0.2-0.1-0.2,0C1206.2,96.8,1206.3,96.8,1206.5,96.7
		C1206.6,96.8,1206.6,96.8,1206.5,96.7z"/>
	<path id="Path_396" class="st0" d="M1207.5,96.6c0,0,0.1,0,0.1,0l0,0C1207.6,96.6,1207.6,96.6,1207.5,96.6
		C1207.5,96.6,1207.4,96.6,1207.5,96.6z"/>
	<path id="Path_397" class="st0" d="M1207.6,96.9C1207.6,97,1207.6,97,1207.6,96.9c0.1,0.1,0.1,0,0.1,0
		C1207.7,96.9,1207.7,96.8,1207.6,96.9C1207.6,96.8,1207.6,96.9,1207.6,96.9z"/>
	<path id="Path_398" class="st0" d="M1213.7,102.3c0.1,0.1,0.3,0.1,0.4,0.1c0.7,0.1,1.9,0.2,2.1,0.2c0.2,0,1.9,0.1,3.3,0.2
		c0.6,0,1.5,0,2,0.1c0.5,0,1.4,0,2,0l1.1-0.1l-1.4,0c-2.4,0.1-4.8-0.1-7.2-0.4c-0.4-0.1-1-0.1-1.4-0.1
		C1213.5,102.2,1213.6,102.2,1213.7,102.3z"/>
	<path id="Path_399" class="st0" d="M1212.7,104.6c0,0,0.1,0,0.1,0l0,0C1212.8,104.6,1212.8,104.6,1212.7,104.6
		C1212.7,104.6,1212.6,104.6,1212.7,104.6z"/>
	<path id="Path_400" class="st0" d="M1211.1,102.1c0-0.1-0.1-0.1-0.2-0.1c-0.1,0-0.1,0-0.2,0.1c0,0.1,0.1,0.1,0.2,0.1
		C1211,102.2,1211.1,102.2,1211.1,102.1z"/>
	<path id="Path_401" class="st0" d="M1215,102.2c-0.1,0-0.2,0-0.1,0c0.1,0,0.2,0,0.2,0l0,0C1215.1,102.2,1215.1,102.2,1215,102.2z"
		/>
	<path id="Path_402" class="st0" d="M1210.6,100.2l-0.3,0.1l0.4-0.1c0.2,0,0.3-0.1,0.5-0.2l0,0C1211.4,100,1210.9,100,1210.6,100.2z
		"/>
	<path id="Path_403" class="st0" d="M1212.3,99.4C1212.2,99.4,1212.2,99.5,1212.3,99.4C1212.3,99.5,1212.4,99.5,1212.3,99.4
		C1212.4,99.4,1212.4,99.4,1212.3,99.4z"/>
	<path id="Path_404" class="st0" d="M1211.4,99.6C1211.5,99.6,1211.5,99.6,1211.4,99.6c0.1-0.1,0.1-0.1,0-0.1
		C1211.4,99.5,1211.3,99.5,1211.4,99.6C1211.3,99.6,1211.4,99.7,1211.4,99.6z"/>
	<path id="Path_405" class="st0" d="M1211.7,100.7c0,0,0.1,0.1,0.3,0.1l0.3,0l-0.2,0l0,0C1211.9,100.6,1211.7,100.6,1211.7,100.7
		C1211.7,100.6,1211.7,100.6,1211.7,100.7z"/>
	<path id="Path_406" class="st0" d="M1210.1,100.9L1210.1,100.9C1210.2,100.9,1210.2,100.8,1210.1,100.9c-0.2,0-0.2,0-0.2,0
		C1210,100.9,1210.1,100.9,1210.1,100.9z"/>
	<path id="Path_407" class="st0" d="M1212.4,99.8C1212.3,99.8,1212.3,99.8,1212.4,99.8C1212.4,99.8,1212.4,99.8,1212.4,99.8
		C1212.5,99.8,1212.5,99.8,1212.4,99.8z"/>
	<path id="Path_408" class="st0" d="M1211.9,104.3c0.1-0.1,0.1-0.1-0.2,0c-0.1,0-0.3,0.1-0.4,0.2
		C1211.2,104.5,1211.6,104.4,1211.9,104.3z"/>
	<path id="Path_409" class="st0" d="M1248.1,102.1L1248.1,102.1C1248.2,102.1,1248.2,102.1,1248.1,102.1c-0.1,0-0.1,0-0.1,0
		C1248.1,102.1,1248.1,102.1,1248.1,102.1z"/>
	<path id="Path_410" class="st0" d="M1218.3,104.3C1218.3,104.3,1218.3,104.3,1218.3,104.3c-0.2,0-0.2,0-0.2,0
		C1218.2,104.3,1218.2,104.3,1218.3,104.3z"/>
	<path id="Path_411" class="st0" d="M1217.9,100.9C1218,100.9,1217.9,100.9,1217.9,100.9c-0.1,0-0.1,0-0.1,0
		C1217.8,100.9,1217.9,100.9,1217.9,100.9z"/>
	<path id="Path_412" class="st0" d="M1219.1,104.4c0.1,0,0.1,0,0.2,0l0,0c0.1,0,0,0-0.1,0C1219.1,104.4,1219,104.4,1219.1,104.4z"/>
	<path id="Path_413" class="st0" d="M1218.5,104.4c0.1,0,0.1,0,0.2,0C1218.7,104.3,1218.7,104.3,1218.5,104.4
		C1218.5,104.3,1218.4,104.3,1218.5,104.4z"/>
	<path id="Path_414" class="st0" d="M1217.2,100.8c-0.3,0-0.4,0-0.2,0c0.2,0,0.3,0,0.5,0C1217.6,100.8,1217.5,100.8,1217.2,100.8z"
		/>
	<path id="Path_415" class="st0" d="M1218.7,100.5C1218.6,100.5,1218.6,100.5,1218.7,100.5c0.3,0.1,0.4,0.1,0.3,0.1
		C1218.9,100.5,1218.8,100.4,1218.7,100.5z"/>
	<path id="Path_416" class="st0" d="M1239.6,102.1c-0.2,0-0.7,0-1,0l-0.7,0l0.3,0.1c0.3,0.1,0.5,0.1,0.8,0c0.3,0,0.6-0.1,0.7-0.1
		C1239.9,102.2,1239.8,102.2,1239.6,102.1z"/>
	<path id="Path_417" class="st0" d="M1214,99.9c-0.1,0-0.2,0-0.1,0c0.1,0,0.2,0,0.3,0l0,0C1214.2,99.9,1214.1,99.9,1214,99.9z"/>
	<path id="Path_418" class="st0" d="M1215.4,105.5c0,0.1,0.7,0,0.8-0.1c-0.1,0-0.3,0-0.4,0C1215.6,105.4,1215.4,105.4,1215.4,105.5z
		"/>
	<path id="Path_419" class="st0" d="M1216.6,99.3c0.1-0.1-0.9,0-1.2,0.1c-0.2,0.1,0,0.1,0.4,0C1216.1,99.4,1216.4,99.4,1216.6,99.3z
		"/>
	<path id="Path_420" class="st0" d="M1247.2,102.6C1247.3,102.5,1247.2,102.5,1247.2,102.6c-0.2,0-0.2,0-0.2,0
		C1247.1,102.6,1247.2,102.6,1247.2,102.6z"/>
	<path id="Path_421" class="st0" d="M1245.6,101.9c-0.3,0-0.5,0-0.5,0s0,0,0,0.1s0.2,0.1,0.4,0.1c0.2,0,0.4,0,0.6,0.1
		c0.2,0,0.2,0,0.1-0.1C1246,102,1245.8,101.9,1245.6,101.9z"/>
	<path id="Path_422" class="st0" d="M1216.2,105.4L1216.2,105.4z"/>
	<path id="Path_423" class="st0" d="M1220.5,102.6C1220.5,102.6,1220.5,102.6,1220.5,102.6c-0.2,0-0.2,0-0.2,0
		C1220.4,102.6,1220.4,102.6,1220.5,102.6z"/>
	<path id="Path_424" class="st0" d="M1219.9,105L1219.9,105C1220,105,1220,105,1219.9,105c-0.1,0-0.1,0-0.1,0
		C1219.8,105.1,1219.9,105.1,1219.9,105z"/>
	<path id="Path_425" class="st0" d="M1215.5,100.7c-0.1,0-0.2,0-0.1,0C1215.5,100.8,1215.5,100.8,1215.5,100.7L1215.5,100.7
		C1215.6,100.7,1215.6,100.7,1215.5,100.7z"/>
	<path id="Path_426" class="st0" d="M1298.4,101.7l-0.2,0L1298.4,101.7c0.2,0.1,0.5,0.2,0.8,0.2c1.2,0,2.5,0.1,3.4,0.1
		c0.4,0,0.8,0,1.2,0c0.4-0.1-2.7-0.2-4.5-0.2c-0.2,0-0.5,0-0.7,0l0,0C1298.5,101.7,1298.5,101.7,1298.4,101.7z"/>
	<path id="Path_427" class="st0" d="M1315,102.1C1314.9,102.1,1314.9,102.1,1315,102.1C1315,102.2,1315,102.2,1315,102.1
		C1315.1,102.1,1315.1,102.1,1315,102.1z"/>
	<path id="Path_428" class="st0" d="M1315.9,102.2L1315.9,102.2C1315.9,102.1,1315.9,102.1,1315.9,102.2c-0.1,0-0.1,0-0.1,0
		C1315.8,102.2,1315.8,102.2,1315.9,102.2z"/>
	<path id="Path_429" class="st0" d="M1308.8,102c-0.2-0.1-0.4-0.1-0.6-0.1c-0.2,0-0.4,0-0.6,0c0,0-0.1,0-0.1,0.1
		C1307.6,102,1308.8,102.1,1308.8,102z"/>
	<path id="Path_430" class="st0" d="M1313.4,102.1c0,0,0.1,0,0.1,0l0,0C1313.6,102.1,1313.6,102.1,1313.4,102.1
		C1313.5,102.1,1313.4,102.1,1313.4,102.1z"/>
</g>
</svg>
