<?xml version="1.0" encoding="utf-8"?>
<!-- Generator: Adobe Illustrator 22.1.0, SVG Export Plug-In . SVG Version: 6.00 Build 0)  -->
<svg version="1.1" id="Layer_1" xmlns="http://www.w3.org/2000/svg" xmlns:xlink="http://www.w3.org/1999/xlink" x="0px" y="0px"
	 viewBox="0 0 1001 150" style="enable-background:new 0 0 1001 150;" xml:space="preserve">
<style type="text/css">
	.st0{fill:#339999;}
</style>
<path class="st0" d="M920.2,63.8c0.1,0.1,0.2,0.2,0.4,0.2C919.6,63.9,919.5,63.8,920.2,63.8z M408.3,161.7c-0.4,0.1-0.7,0.1-1.1,0.1
	c4.2,0,9.8,0,16.5,0c0.5,0,1.2,0,2,0C418.9,161.6,413,161.6,408.3,161.7z M919.8,63.3c0.1,0.2,0.3,0.4,0.4,0.5c0.4,0,1,0,1.8,0
	c1.1,0,2.2,0,3.4-0.5c0.1-0.1,0.2-0.2,0.2-0.3l-6.7-0.7L919.8,63.3z M922,64.3c-0.6-0.1-1.1-0.2-1.4-0.2c0.1,0,0.1,0.1,0.2,0.1
	C921.2,64.2,921.6,64.2,922,64.3z M285.2,48c-0.2-0.1-0.3-0.3-0.4-0.5l-0.8-1.1l6.3,0.8c0.4-0.9-2.7-1.2-6.1-0.8c-1.1,0-2.1,0-3.2,0
	c-0.8,0-1.6,0-2.1,0c-1.3,0.5-1.6,0-1.3-0.5c-1.3-0.5-2.9-0.5-4-0.5h-0.8c-0.5,0.5-0.8,0.5-0.8,0.5s0.5,0.5,1.1,0.5
	c0.8,0.5,1.6,1.1,2.1,1.6c1.3,0,2.6,0,3.7,0c1.6,0,4.4,0,6.8,0.4c-0.1,0-0.1-0.1-0.2-0.1C284.7,48.1,284.6,48,285.2,48z M278.5,35.8
	c-1.3-0.5-2.9-0.5-4.5-0.5c-2.1,0-3.4,0-2.9,0.5c2.4,0.5,5,0.5,7.4,0.5C279.5,36.3,279.3,36.3,278.5,35.8z M320.9,78.7
	c-1.3-0.5-2.9-0.5-4.5-0.5c-2.1,0-3.2,0-2.9,0.5c2.4,0.5,5,0.5,7.4,0.5C321.9,79.3,321.9,79.3,320.9,78.7z M268.7,48
	c1.6,0,3.7,0,5.6,0c-1.9-0.5-3.7-0.5-5.8,0C268.5,48,268.6,48,268.7,48z M306.9,117.1c0.1,0,0-0.1,0-0.2c-0.8-0.5-1.9-1.1-6.4-0.5
	h-4.8l3.4,0.5c1.5,0.2,3.2,0.3,4.6,0.4c0.6-0.3,1.1-0.4,1.8-0.4C306,116.9,306.4,117,306.9,117.1z M207.5,129.1
	c-0.3,0-0.6,0-0.9-0.1c-1,0-2.1,0-3.2,0C204.9,129.1,206.3,129.1,207.5,129.1z M247.5,37.9c0-0.5-0.3-0.5-0.5-0.5
	c-0.5,0-0.5,0.5-0.3,0.5C247,37.9,247.2,37.9,247.5,37.9z M234.2,38.4c-0.4,0-0.9,0-1.3,0C233.2,39,233.7,38.4,234.2,38.4z
	 M244.6,37.9c0.3,0,0,0-0.5-0.5c-0.5,0-0.5,0.5-0.3,0.5S244.3,37.9,244.6,37.9z M241.7,39c1.9,0.5,3.4,1.1,4.5,1.1
	c0.8,0,1.6,0,2.4-0.5c0,0-1.6-0.5-3.4-0.5C243,38.4,241.7,38.4,241.7,39z M258.9,115.3c0.3,0.5,0.5,0.5,1.1,0.5c0.3,0,0.5,0,0.8,0
	c2.4-0.5,4.2-1.1,4.2-1.1c-3.4,0-6.4,0-6.4,0S258.6,114.8,258.9,115.3z M170.6,127.5c-0.8,0-1,0-0.7,0.1c1.4,0,2.5,0,2.9,0
	c0.3,0,0.6,0,0.9,0c-0.6,0-1.2,0-1.8,0C171.4,127.5,170.9,127.5,170.6,127.5z M132.8,111.1c1.1,0,2.1,0,3.2,0.5c0,0.5,0.5,0.5,0.8,0
	c0,0,0.3-0.5,0.5-0.5c-1.1,0-1.9,0-2.9,0C133.8,111.1,133.3,111.1,132.8,111.1z M254.4,115.3c0.3,0,0.7,0,1.1,0
	C256,114.8,255.4,114.8,254.4,115.3z M146.7,111.6C146.7,111.6,146.8,111.6,146.7,111.6C147.2,111.2,147.1,111.1,146.7,111.6z
	 M298.4,82.5c0.3-0.5,0-0.5-0.5-0.5c-0.5,0-0.5,0.5-0.3,0.5C297.8,82.5,298.1,82.5,298.4,82.5z M287.2,80.9c0,0-0.3,0-0.5-0.5
	c-0.5,0-0.5,0.5-0.3,0.5C286.7,80.9,287,80.9,287.2,80.9z M284.3,83c0.5,0,1.1,0,1.6,0c2.6,0,5-0.5,5-0.5s-1.3-0.5-3.2-0.5
	c-2.1-0.5-3.4-0.5-3.4,0c0,0-0.3,0.5-0.8,0.5C283.8,83,284.1,83,284.3,83z M289.9,80.9c0-0.5,0-0.5-0.5-0.5c-0.5,0-0.5,0.5-0.3,0.5
	C289.4,80.9,289.6,80.9,289.9,80.9z M298.9,89.9c1.9,0.5,3.4,0.5,4.5,0.5c0-0.5,0.3-0.5,2.4-0.5c1.3,0,2.4,0,3.7,0l1.3-0.5l-1.6-0.5
	c-3.2-0.5-6.1-1.1-9-0.5c-0.8,0.5-3.2,0.5-5.8,0.5C296,89.4,297.3,89.9,298.9,89.9z M918.4,144.7c0.3,0,0.8,0,1.1,0
	c0.3-0.5,0-0.5-0.6-0.5C918.1,144.2,917.8,144.2,918.4,144.7z M283.5,128.1c-0.8,0-1.9,0-2.6,0c0.8,0,2.1,0.5,3.9,0.5
	c0.3,0,0.6,0,0.9,0h1.1c0,0.1,0.1,0.2,0.1,0.2c3.3,0.3,4.2,0.2,3.5-0.2c-2.1,0-4-0.5-6.1-0.5C284.1,128.1,283.8,128.1,283.5,128.1z
	 M511.1,143.3c-0.2,0-0.4,0-0.5,0c0.2,0.1,0.4,0.2,0.5,0.4C511.2,143.5,511.2,143.3,511.1,143.3z M258.1,39c-1.1,0-1.1,0-0.3,0.5
	c3.4,0.5,6.6,1.1,9.8,0.5c1.3-0.5,1.3-0.5-0.8-0.5c-1.3,0-3.7-0.5-5-0.5C260.5,39,259.4,39,258.1,39z M948.6,112.5
	c0.3,0,0.6,0,0.8,0c-0.3-0.5-0.3-0.5-0.6-0.5c-0.6-0.5-1.4-0.5-2-0.5C946.7,111.5,947.2,112,948.6,112.5z M957.7,63.9
	c0.4,0.4,1.1,0.4,1.5,0.4c1.1,0.4,2.2,0.4,3,0.8c0.7,0.4,1.8,0.8,2.6,0.8c1.5,0,3.7,1.1,3.3,1.9c-0.4,0.8-0.4,0.8-1.8,0
	c-0.4-0.4-1.1-0.4-1.8-0.4c-0.7,0.4,0.4,1.5,1.5,1.5c0.4,0,1.1,0,1.5,0.4c0.4,0.4,0.4,0.4-6.3-0.4c-1.1,0-2.6-0.4-3.3-0.4
	s-1.1,0-1.8-0.4c-1.5-0.4-2.6-0.4-4.1-0.4c-1.5,0-3,0-4.4-0.4c-1.8-0.4-4.1-0.8-5.9-0.8c-3,0-6.6-0.4-8.1-0.4
	c-2.2-0.4-2.6-0.4-1.1,0c1.1,0.4,1.5,0.4,0.7,0.4c-0.7,0-1.8,0.4-2.6,0.8c1.8,0,3.7,0.4,5.5,0.8c1.1,0,2.6,0,3.7,0.4
	c1.1,0.4,2.2,0.4,3.7,0.4c6.6,0.4,11.4,1.1,11.4,1.9c0,0,0.7,0.4,1.5,0.4c2.6,0-5.9,0.4-11.1,0.4c-1.8,0-3,0-4.1,0
	c-0.4,0.4-1.8,0.4-4.8,0c-0.4,0,0,0.4,0.4,0.4c1.1,0.4,2.2,0.4,3.3,0.4c1.1,0,2.2,0.4,3,0.8c0.7,0.8,2.2,0.8,15.9,0.8
	c11.1,0.4,15.5,0.4,16.6,0.8c1.8,0.8,1.8,0.8,1.1,1.5c-0.4,0.4-2.2,0.8-5.2,0.8c-2.2,0.4-3.3,0.4-2.2,0.4c1.5,0,1.8,0,1.1,0.4
	c-0.7,0-0.7,0.4,0.7,1.1c1.5,0.8,1.8,1.1,6.6,1.1c4.1,0.4,5.2,0.4,5.5,0.8c0.4,0.4-0.4,0.4-3.7,0c-1.8-0.4-6.6-0.4-10.3-0.8
	c-7-0.8-8.9-0.8-3.7-0.8c1.5,0,3,0,4.4-0.4c1.8-0.8-3-1.1-8.1-0.8c-2.6,0.4-5.2,0.4-7.8,0c-4.1-0.8-9.6-0.8-9.6-0.4
	c0,0,0.7,0.4,1.5,0.4c1.5,0.4,3,0.8,4.1,1.5l2.6,1.1l-7.4-0.4c-3.3,0-7.8-0.4-10.7-0.4c0.4,0.4,0.4,0.4,0.7,0.4
	c1.8,0.8,4.1,0.8,13.7,1.1c10.3,0.4,20.3,1.1,21,1.5c0.4,0.4-1.8,0-5.5-0.4c-4.4-0.4-21-1.1-20.7-0.8c0.4,0.4,1.1,0.4,1.5,0.4
	c1.1,0.4,2.2,0.4,3,0.8c0.7,0.4,1.8,0.8,2.6,0.8c1.5,0,3.7,1.1,3.3,1.9c-0.4,0.4-0.4,0.4-0.4,0.4h0.4c1.1,0.8,0,0.8-2.2,0
	c-0.7,0-1.1-0.4-1.8-0.4c0,0.8,1.1,1.5,1.8,1.5c0.4,0,1.1,0,1.5,0.4c0.4,0.4,0.4,0.4-6.3-0.4c-1.1,0-2.6-0.4-3.3-0.4
	c-0.4,0-0.7,0-1.1,0c0.4,0.4,0,0.8-1.1,1.1c-0.4,0-0.7,0.4-1.1,0.8c1.5,0.4,3.3,0.4,4.8,0.4c8.9,0,21.4,0.4,21.4,0.8
	c0,0.4-0.7,0.4-1.5,0.4c-0.7,0-1.5,0-1.8,0.4c-0.4,0.4-1.8,0.4-4.4,0c-2.6-0.4-10-0.4-16.6-0.4c-1.5,0-5.9,0.4-9.2,0.4
	c-0.7,0-0.4,0,0.7,0.4c1.1,0.4,3,0.4,4.1,0.8c1.5,0.4,2.6,0.4,3.7,0c2.2-0.8,2.2-0.8,3,0.4c0.4,0.4,0.7,0.8,1.1,0.8
	c11.1,0.4,15.5,0.4,16.6,0.8c1.8,0.8,1.8,0.8,1.1,1.5c-0.4,0.4-2.2,0.8-5.2,0.8c-2.2,0.4-3.3,0.4-2.2,0.4c1.5,0,1.8,0,1.1,0.4
	c-0.7,0-0.7,0.4,0.7,1.1c1.5,0.8,1.8,1.1,6.6,1.1c4.1,0.4,5.2,0.4,5.5,0.8c0.4,0.4-0.4,0.4-3.7,0c-1.8-0.4-6.6-0.4-10.3-0.8
	c-7-0.8-8.9-0.8-3.7-0.8c1.5,0,3,0,4.4-0.4c1.8-0.8-3-1.1-8.1-0.8c-2.6,0.4-5.2,0.4-7.8,0c-4.1-0.8-9.6-0.8-9.6-0.4
	c0,0,0.7,0.4,1.5,0.4c1.5,0.4,3,0.8,4.1,1.5l2.6,1.1l-7.4-0.4c-4.1-0.4-9.6-0.8-12.2-0.8c-4.1-0.4-4.8-0.4-4.8-1.1
	c0-0.8,0.7-0.8,3.3-0.8c1.8,0,3.3,0,5.2,0l1.8-0.4l-2.2-0.4c-4.4-0.4-8.5-0.8-12.6-0.4c-1.1,0.4-5.9,0.4-10.3,0.4s-9.2,0-10.7,0
	c-1.1,0-3.7,0-6.6,0c-3,0.4-5.9,0.8-8.9,1.1c1.5,0,3.3,0,5.2,0c11.1,0.4,26.2,1.1,36.2,1.9c0,0,0.4,0,0.7,0h0.4
	c5.5-0.4,14.8,0.4,14.8,0.8c0,0.4,1.8,0.8,4.1,0.8c4.8,0.4,4.4,0.4-0.4,0.8c0.4,0,1.1,0.4,1.5,0.4c0,0-0.7,0-1.8,0c-3,0-2.6,0,0,0.8
	h0.7c1.1,0.4,2.6,0.8,3.7,1.1c1.1,0.8,0,0.8-2.2,0c-1.7-0.3-3.5-0.5-5.5-0.6c0.1,0,0.1-0.1-0.1-0.1c-1.1-0.4-2.6-0.8-8.9-0.4h-6.6
	l4.8,0.4c2.1,0.2,4.4,0.2,6.4,0.3c-0.2,0-0.3,0-0.5,0.1c-0.7,0.4-0.4,0.4,1.1,0.4c1.1,0,0,0.4-1.8,0.4c0.4,0,0.4,0,0.7,0
	c1.8,0,2.2,0.8,0.4,1.5c-0.4,0-0.7,0.4-1.1,0.8c1.5,0.4,3.3,0.4,4.8,0.4c8.9,0,21.4,0.4,21.4,0.8c0,0.4-0.7,0.4-1.5,0.4
	c-0.7,0-1.5,0-1.8,0.4c-0.4,0.4-1.8,0.4-4.4,0c-4.1-0.8-17-0.8-23.6-0.4c6.6,0.4,11.8,0.4,12.2,0.8c0.4,0.4-0.4,0.4-1.8,0.8
	l-1.1,0.4l0.4,0.4h1.5l3,0.4h-3.3c0.4,0.4,1.1,0.4,1.5,0.4c2.2,0.4,3,0.8,2.2,1.1c-0.4,0.4-0.7,0.4-1.5,0c-0.7-0.4-3.3-0.4-9.2,0
	c-1.8,0-4.4,0.4-6.3,0.4c5.2,0,7.8,0.4,7.8,0.4c0,0.4-1.5,0.8-3.7,0.8c-2.2,0-5.5,0.4-7.8,0.8c-3.7,0.4-7,0.8-10.7,0.8
	s-8.9,0.4-11.8,0.4c-3,0-8.9,0.4-12.9,0.4c-4.1,0-8.5,0.4-9.6,0.4c-1.1,0.4-6.6,0.4-11.8,0.4h-1.5c0,0,0,0,0.4,0.4
	c0.4,0.8,2.2,1.1,5.2,1.5c0.4-0.4,1.1-0.4,1.5-0.4c0.4,0,0,0.4-0.4,0.4c-0.4,0.4-0.4,0.4,0,0.4c1.1,0,2.2,0,3.7,0c1.8,0,4.4,0,7-0.4
	c3,0,5.5-0.4,8.5,0c2.2,0.4,3.7,0.4,3.7,0c0-0.4,3.7-0.8,8.1-0.8s10.3-0.4,13.3-0.4c3,0,9.6,0,14.4,0l8.9,0.4h-7.8
	c-4.4,0-9.2,0.4-11.1,0.4c-0.7,0-2.6,0.4-4.4,0.4c4.8,0,10,0.4,10,0.8c0,0,0,0,0.4,0c0.4,0,0.7,0,1.1,0c2.6,0.4,5.2,0.4,5.9,0.4
	c4.4,0,11.8,0,12.6,0.4c1.1,0.4-3,1.5-7,1.5c-3,0-3.7,0-3,0.4c1.1,0.4,0.7,0.4-1.1,0.4s-3.7,0.4-5.2,0.4c-1.8,0.4,0.4,0.4,7.4,0.4
	c5.5,0,9.6,0.4,9.6,0.4s-6.6,0-14.8,0c-10.7-0.4-14.8-0.4-15.1,0c-0.4,0.8-9.6,1.1-24,1.9c-1.5,0.4-3.7,0.4-6.3,0.4
	c0.4,0.4,0.4,0.4,0.7,0.4c0.4,0.4-3.7,0.8-14,0.8c-2.6,0-4.8,0.4-7,0.4c-0.4,0.4,12.9,0.4,23.6,0.4c7.8-0.4,15.1-0.8,22.9-1.1
	c3.7,0,9.6-0.4,13.7-0.4c10.7,0,10.3,0,9.2,0.4c-1.5,0.4-3,0.4-4.4,0.4c-5.9,0-15.9,0.8-19.2,0.8c7.4,0.4,14.4,0.4,14.8,0.8
	c0.4,0.4-0.4,0.4-1.8,0.8l-2.2,0.4l3,0.4l3,0.4h-3.3c-1.8,0-4.1,0-5.9,0.4c-2.6,0-4.1,0.4-20.7,0.4c-17,0-15.5,0.4,3.3,0.8
	c12.2,0.4,17.7,0.4,17.7,0.8c0,0.4-1.8,0.8-3.7,0.8c-0.7,0-1.5,0.4-2.6,0.4c2.6,0,5.2,0.4,6.3,0.4c1.5,0.4,0.4,0.4-4.4,0
	c-1.5-0.4-3-0.4-4.1-0.4c-1.1,0-2.2,0.4-3,0.4c-3.7,0.4-7,0.8-10.7,0.8c-3.7,0-8.9,0.4-11.8,0.4s-8.9,0.4-12.9,0.4
	c-4.1,0-8.5,0.4-9.6,0.4c-1.1,0.4-6.6,0.4-11.8,0.4c-11.1,0-17,0-19.6,0.8c-1.5,0.4-3,0.8-4.4,0.8c-5.2,0.4-3.3,0.8,3.3,0.8
	c22.5,0,24.4,0,25.1-0.4c0.4-0.4,1.1-0.4,1.5-0.4c0.4,0,0,0.4-0.4,0.4c-1.5,0.4,5.5,0.4,11.1,0c3,0,5.5-0.4,8.5,0
	c2.2,0.4,3.7,0.4,3.7,0c1.5-0.4,3.3-0.4,4.8-0.4c-0.4,0-0.4-0.4,0.4-0.4c0.7-0.4,1.8-0.4,2.6-0.4c1.1,0,0.7,0-0.4,0.4
	c0.2,0,0.4,0,0.7,0c4.4,0,10.3-0.4,13.3-0.4c3,0,9.6,0,14.4,0l8.9,0.4h-7.8c-4.4,0-9.2,0.4-11.1,0.4c-0.7,0-3,0.4-4.8,0.4
	c0.4,0,0.7,0,1.5,0c2.6,0.4,3.3,0.4,2.2,0.4c-1.8,0-3.3,0-4.8,0h-0.4c-1.1,0-1.8,0-2.6,0c-0.4,0-0.4,0-0.7,0c-0.4,0-0.7,0-1.1,0
	c-1.5,0-3,0-4.4,0.4c-0.7,0.4,0.7,0.4,10,0c4.1-0.4,7.8-0.4,11.8,0c2.6,0.4,5.2,0.4,5.9,0.4c4.4,0,11.8,0,12.6,0.4
	c1.1,0.4-3,1.5-7,1.5c-3,0-3.7,0-3,0.4c1.1,0.4,0.7,0.4-1.1,0.4c-1.8,0-3.7,0.4-5.2,0.4c-1.8,0.4,0.4,0.4,7.4,0.4
	c5.5,0,9.6,0.4,9.6,0.4s-6.6,0-14.8,0c-10.7-0.4-14.8-0.4-15.1,0c-0.4,0.4-9.6,1.1-24,1.9c-3.7,0-12.9,0.4-19.9,0.4
	c-7,0.4-12.9,0.4-13.3,0.4c-0.4,0-4.8,0-10.3,0c-5.5,0-11.1,0.4-12.6,0.4c-1.5,0.4-2.6,0.4-4.1,0.4c-1.5,0-1.5,0-0.7-0.4
	c1.1-0.4-5.5-0.4-14,0c-2.2,0.4-2.6,0.4-1.5,0c2.6-0.4-88.2-3.1-143.3-3.8c-28.8-0.8-60.5-1.1-66.8-1.5c-4.1-0.4-1.8-0.8,2.2-0.8
	c1.8,0,3.3,0,4.8-0.4c0.4-0.4,4.4-0.4,11.4-0.4c4.7,0,10.2,0,13.1,0c0,0,0.1,0,0.1,0c0.1,0,0.4,0,0.7,0c0,0,0.4,0,0.7,0
	c11.8,0,37.3,0,53.9,0.4c32.7,0.4,66.4,0.8,71.3,0.4c19.6,0.7,26.5,0.7,27.6,0.4c1.1-0.4,1.1-0.4-0.4-0.4c-1.4,0,0.5-0.1,3.2-0.3
	c-1,0.3,0.5,0.6,7.1,0.6c2.6,0.4,5.5,0.4,8.1,0c0,0,0.4,0,1.1,0c0.7,0.4,1.5,0,2.2,0c2.2-0.4,4.4-0.4,6.6-0.8c2.2,0,4.8,0,7-0.4
	c1.1-0.4,2.6-0.4,3.7-0.4c4.8,0.4,2.2,0-4.4-0.4c-0.9-0.1-1.7-0.2-2.4-0.2l2.4-0.5h-3c-1.1,0-2.6,0-4.1-0.4c-0.7-0.4-1.1-0.4-1.1,0
	c0,0.4-1.5,0.4-3.3,0.4c-1.5,0-3,0-4.1,0.4c-2.2,0.4-4.8,0.8-7,0.8c0,0-0.1,0-0.1,0c-0.1,0-0.1,0-0.2,0c-14.8-0.8-34.7-1.1-46.9-1.5
	c-14.4-0.4-18.8-0.4-25.8-0.8c-1.8,0-4.1,0-5.2,0s-7.4-0.4-14.4-0.4c-21.4-0.4-67.9-0.8-69.4-0.8c-0.4,0-12.2,0-25.8-0.4
	c-8-0.4-16.4-0.4-25.1-0.4c2.6,0.4,3.3,0.4,2.2,0.4c-1.8,0-3.3,0-4.8,0h-0.4c-1.1,0-1.8,0-2.6,0c-0.4,0-0.4,0-0.7,0
	c-0.4,0-0.7,0-1.1,0c-1.5,0-3,0-4.4,0.4c-0.7,0.4,0.7,0.4,10,0c4.1-0.4,7.8-0.4,11.8,0c2.6,0.4,5.2,0.4,5.9,0.4c1.5,0,3.4,0,5.2,0
	c1,0.4,0.7,0.4-1.1,0.4c-1.8,0-3.7,0.4-5.2,0.4c-1.8,0.4,0.4,0.4,7.4,0.4c5.5,0,9.6,0.4,9.6,0.4s-6.6,0-14.8,0
	c-10.7-0.4-14.8-0.4-15.1,0c-0.4,0.8-9.6,1.1-24,1.9c-3.7,0-12.9,0.4-19.9,0.4c-7,0.4-12.9,0.4-13.3,0.4c-0.4,0-4.8,0-10.3,0
	s-11.1,0.4-12.6,0.4c-1.5,0.4-2.6,0.4-4.1,0.4c-1.5,0-1.5,0-0.7-0.4c1.1-0.4-5.5-0.4-14,0c-2.2,0.4-2.6,0.4-1.5,0
	c1.5,0-19.6-0.8-47.6-1.5c-0.7,0-1.5,0-2.2,0c-10.3,0.4-9.6,0.4-9.6,0c0,0,0.4-0.4,0.7-0.4c-27.3-0.8-59.4-1.5-84.2-1.9
	c-28.8-0.8-60.5-1.1-66.8-1.5c-4.1-0.4-1.8-0.8,2.2-0.8c1.8,0,3.3,0,4.8-0.4c0.4-0.4,4.4-0.4,11.4-0.4c4.7,0,10.2,0,13.1,0
	c0,0,0.1,0,0.1,0c0.1,0,0.4,0,0.7,0c0,0,0.4,0,0.7,0c11.8,0,37.3,0,53.9,0.4c23.6,0.4,47.3,0.8,60.9,0.8c1.8,0,2.2,0,1.8-0.8
	c-0.4-0.4-1.5-0.8-5.2-0.8c-2.2-0.4-4.1,0-5.9,0c-2.6,0.4-4.8,0.4-7,0c-3.3-0.4-4.8-0.4-3.7-0.4c1.5,0,1.8,0,2.2-0.4
	c-54.3-1.4-106.4-2.4-140.2-2.7c2.1,0,4.8,0,7.3,0h5.9c8.9,0,18.8,0.4,29.2,0.4c14.8,0.4,63.1,1.1,101.2,1.9h0.4
	c0.7-0.4,1.1-0.4,1.8-0.4c2.2,0,4.1,0,5.9-0.4c3-0.4,7.8-1.1,12.9-1.5h-1.8c-14.8-0.4-18.8-0.4-25.8-0.8c-1.1,0.4-2.6,0.4-3.7,0.4
	c-3.3,0-4.8,0-6.3-0.4c-2.6,0-5.9,0-9.6,0c-21.4-0.4-67.9-0.8-69.4-0.8c-0.4,0-12.2,0-25.8-0.4c-37.7-0.4-94.5,0-95.6,0.8
	c0,0.4-1.5,0.4-3.7,0c-1.1,0-2.6-0.4-3.7,0c-0.7,0.4-1.8,0.4-3,0.4c-1.5,0-7.8,0-14.4,0.4c-11.1,0.4-25.1,0.8-32.9,0.8
	c-2.2,0-7,0.4-11.1,0.4c-12.6,0.4-15.5,0.4-19.9,0.4c-2.6,0.4-5.5,0.4-6.6,0.4h-2.2l1.5-0.4c0.7-0.4,1.1-0.4,0.4-0.4
	c-0.7,0.4-1.1,0-1.1,0c1.1-0.4,2.2-0.4,3.3-0.4c4.1-0.4,4.4-0.4,4.1-1.1c-0.4-0.4-1.5-0.8-5.2-0.8c-2.2-0.4-4.1,0-5.9,0
	c-2.6,0.4-4.8,0.4-7,0c-0.1,0-0.2,0-0.4,0c0.5-0.1,1-0.3,1.5-0.3c1.7,0,3.5-0.4,3.5-0.8c0-0.3-1.9-0.4-6-0.5
	c0.2-0.3,0.6-0.3,1.4-0.3c0.7,0,1.1,0,1.8-0.4c0.7-0.4,1.1-0.4,1.8-0.4c2.2,0,4.1,0,5.9-0.4c5.9-0.8,17.4-1.9,26.2-2.7
	c11.4-1.1,12.9-1.1,7-1.1c-5.2,0-11.4,0.4-18.8,0.8c-2.6,0.4-7.4,0.4-11.1,0.4c-0.5,0-1.1,0-1.7,0c0,0,0,0,0,0
	c-0.3-0.4-7-0.4-14-0.8c3.1,0,12.6-0.8,18.2-0.8c1.4,0,2.8,0,4.2-0.4c1-0.4,1.4-0.4-8.7-0.4c-3.8,0-9.4,0.4-12.9,0.4
	c-5.5,0.3-10.9,0.6-16.3,0.9c-0.1-0.3,0-0.6,0.2-0.8c0.4-1.1,0.4-1.1-2.2-1.1c-0.9,0-1.4,0-1.7,0c0.4-0.1,0.8-0.1,1.1-0.2
	c13.6-0.8,22.4-1.3,22.7-2.1c0.3-0.4,4.2-0.4,14.3,0c7.7,0,14,0,14,0s-3.8-0.4-9.1-0.4c-3.1,0-5.1,0-6.3,0c4-0.1,8.5-0.4,10.4-0.6
	c2.2-0.4,4.8-0.8,7-0.8c-0.4,0-0.4-0.4-0.4-0.4c0-0.4,1.5-0.4,4.1-0.8c-0.7,0-1.5,0-2.2,0c-1.1,0-2.2,0-2.2,0s-1.1,0-2.7,0
	c0.8-0.3,1.1-0.6,0.7-0.7c-0.7-0.4-7.3-0.4-11.5-0.4c-0.4-0.1-1-0.2-2.1,0c-0.7,0-1.5-0.1-2.5-0.2c3.4-0.1,7.7-0.3,11.7-0.5
	c0.4-0.4,0.4-0.4,0.4-0.4H93c0,0-0.4,0-0.7,0c-4.1-0.4-7.8-0.4-11.4-0.4c-1.8,0-3.3,0-3.7,0c-0.7,0-1.1,0-1.8,0.4
	c-0.2,0.1-0.4,0.1-0.6,0.1c-0.2,0-0.3,0-0.5,0c0,0,0,0,0-0.1c-1.6,0-3.2-0.1-4.8-0.1c1.6-0.1,3.2-0.4,3.8-0.4
	c1.7,0,6.3-0.4,10.5-0.4H91l-8.4-0.4c-4.5,0-10.8,0-13.6,0c-2.8,0-8.4,0.4-12.6,0.4c-2.6,0-4.9,0.2-6.3,0.4
	c-10.7-0.2-20.6-0.4-28.2-0.6c-0.4-0.2-0.6-0.4-0.7-0.6c-0.3-0.4-0.3-0.4-0.3-0.4h1.4c4.9,0,10.1,0,11.2-0.4c1,0,5.2-0.4,9.1-0.4
	c0.7,0,1.5,0,2.3,0c2.6,0,5.6,0,8.7,0c0.4-0.1,0.9-0.3,1.4-0.4c2.8,0,7.6-0.4,11-0.4c3.5,0,6.6-0.4,10.1-0.8
	c2.1-0.4,5.2-0.8,7.3-0.8s3.5-0.4,3.5-0.8c0,0-2.4-0.4-7.3-0.4c1.7,0,4.2-0.4,5.9-0.4c5.6-0.4,8-0.4,8.7,0c0.7,0.4,1,0.4,1.4,0
	c0.7-0.4,0-0.8-2.1-1.3c-0.3,0-1,0-1.4-0.4h3.1l-2.8-0.4H91l-0.3-0.4l1-0.4c1.4-0.4,2.1-0.4,1.7-0.8c-0.3-0.4-5.2-0.4-11.5-0.8
	c6.3-0.4,18.5-0.4,22.4,0.4c2.4,0.4,3.8,0.4,4.2,0c0.3-0.4,1-0.4,1.7-0.4c0.7,0,1.4,0,1.4-0.4c0-0.4-11.9-0.8-20.3-0.8
	c-1.4,0-3.1,0-4.5-0.4c0.3-0.4,0.7-0.8,1-0.8c1.7-0.8,1.4-1.7-0.3-1.7c-0.3,0-0.3,0-0.7,0c1.7,0,2.8-0.4,1.7-0.4c-1.4,0-1.7,0-1-0.4
	c0.2-0.1,0.3-0.1,0.5-0.1c2.2,0,3.9,0,4.1-0.2c1.8,0.1,3.6,0.4,5.2,0.7c2.1,0.8,3.1,0.8,2.1,0c-1-0.4-2.4-0.8-3.5-1.3h-0.7
	c-2.4-0.8-2.8-0.8,0-0.8c1,0,1.7,0,1.7,0c-0.3,0-1-0.4-1.4-0.4c4.5-0.4,4.9-0.4,0.3-0.8c-2.1,0-3.8-0.4-3.8-0.8
	c0-0.4-8.7-1.3-14-0.8h-0.3c-0.3,0-0.7,0-0.7,0c-9.4-0.8-23.8-1.7-34.2-2.1c-1.7,0-3.5,0-4.9,0c2.8-0.4,5.6-0.8,8.4-1.3
	c2.8,0,5.2,0,6.3,0c1.4,0,5.9,0,10.1,0c4.2,0,8.7,0,9.8-0.4c3.8-0.4,7.7,0,11.9,0.4l2.1,0.4l-1.7,0.4c-1.7,0-3.1,0-4.9,0
	c-2.4,0-3.1,0-3.1,0.8c0,0.8,0.7,0.8,4.5,1.3c2.4,0,7.7,0.4,11.5,0.8l7,0.4l-2.4-1.3c-1-0.8-2.4-1.3-3.8-1.7c-0.7,0-1.4-0.4-1.4-0.4
	c0-0.4,5.2-0.4,9.1,0.4c2.4,0.4,4.9,0.4,7.3,0c4.9-0.4,9.4,0,7.7,0.8c-1.4,0.4-2.8,0.4-4.2,0.4c-4.9,0-3.1,0,3.5,0.8
	c3.5,0.4,8,0.4,9.8,0.8c3.1,0.4,3.8,0.4,3.5,0c-0.3-0.4-1.4-0.4-5.2-0.8c-4.5,0-4.9-0.4-6.3-1.3c-1.4-0.8-1.4-1.3-0.7-1.3
	c0.7-0.4,0.3-0.4-1-0.4c-1,0,0,0,2.1-0.4c2.8,0,4.5-0.4,4.9-0.8c0.7-0.8,0.7-0.8-1-1.7c-1-0.4-5.2-0.4-15.7-0.8
	c-0.3,0-0.7-0.4-1-0.8c-0.7-1.3-0.7-1.3-2.8-0.4c-1,0.4-2.1,0.4-3.5,0c-1-0.4-2.8-0.4-3.8-0.8c-1-0.4-1.4-0.4-0.7-0.4
	c3.1,0,7.3-0.4,8.7-0.4c6.3,0,13.3,0,15.7,0.4c2.4,0.4,3.8,0.4,4.2,0c0.3-0.4,1-0.4,1.7-0.4c0.7,0,1.4,0,1.4-0.4
	c0-0.4-11.9-0.8-20.3-0.8c-1.4,0-3.1,0-4.5-0.4c0.3-0.4,0.7-0.8,1-0.8c1-0.4,1.4-0.8,1-1.3c0.3,0,0.7,0,1,0c0.7,0,2.1,0.4,3.1,0.4
	c6.3,0.8,6.3,0.8,5.9,0.4c-0.3-0.4-1-0.4-1.4-0.4c-0.7,0-1.7-0.8-1.7-1.7c0.7,0,1,0.4,1.7,0.4c2.1,0.8,3.1,0.8,2.1,0h-0.3
	c0,0,0,0,0.3-0.4c0.3-0.8-1.7-2.1-3.1-2.1c-0.7,0-1.7-0.4-2.4-0.8c-0.7-0.4-1.7-0.4-2.8-0.8c-0.3,0-1,0-1.4-0.4
	c-0.3-0.4,15.4,0.4,19.6,0.8c3.5,0.4,5.6,0.8,5.2,0.4c-0.7-0.4-10.1-1.3-19.9-1.7c-9.1-0.4-11.2-0.4-12.9-1.3c-0.3,0-0.3,0-0.7-0.4
	c2.8,0,7,0.4,10.1,0.4l7,0.4l-2.4-1.3c-1-0.8-2.4-1.3-3.8-1.7c-0.7,0-1.4-0.4-1.4-0.4c0-0.4,5.2-0.4,9.1,0.4c2.4,0.4,4.9,0.4,7.3,0
	c4.9-0.4,9.4,0,7.7,0.8c-1.4,0.4-2.8,0.4-4.2,0.4c-4.9,0-3.1,0,3.5,0.8c3.5,0.4,8,0.4,9.8,0.8c3.1,0.4,3.8,0.4,3.5,0
	c-0.3-0.4-1.4-0.4-5.2-0.8c-4.5,0-4.9-0.4-6.3-1.3c-1.4-0.8-1.4-1.3-0.7-1.3c0.7-0.4,0.3-0.4-1-0.4c-1,0,0,0,2.1-0.4
	c2.8,0,4.5-0.4,4.9-0.8c0.7-0.8,0.7-0.8-1-1.7c-1-0.4-5.2-0.4-15.7-0.8c-12.9,0-14.3,0-15-0.8c-0.7-0.4-1.7-0.8-2.8-0.8
	c-1,0-2.1,0-3.1-0.4c-0.3,0-0.7-0.4-0.3-0.4c2.8,0.4,4.2,0.4,4.5,0c1,0,2.1,0,3.8,0c4.9,0,12.9-0.4,10.5-0.4c-0.7,0-1.4-0.4-1.4-0.4
	c0-0.8-4.5-1.7-10.8-2.1c-1.4,0-2.4,0-3.5-0.4C99,57,97.6,57,96.6,57c-1.7-0.4-3.5-0.8-5.2-0.8c0.7-0.4,1.7-0.8,2.4-0.8
	c0.7,0,0.3,0-0.7-0.4c-1.4-0.4-1-0.4,1,0c1.4,0,4.9,0.4,7.7,0.4c1.7,0,3.8,0.4,5.6,0.8c1.4,0.4,2.8,0.4,4.2,0.4c1.4,0,2.4,0,3.8,0.4
	c0.7,0.4,1,0.4,1.7,0.4c0.7,0,2.1,0.4,3.1,0.4c6.3,0.8,6.3,0.8,5.9,0.4c-0.3-0.4-1-0.4-1.4-0.4c-1,0-2.1-1.3-1.4-1.7
	c0.7,0,1.4,0,1.7,0.4c1.4,0.8,1.4,0.8,1.7,0c0.3-0.8-1.7-2.1-3.1-2.1c-0.7,0-1.7-0.4-2.4-0.8c-0.7-0.4-1.7-0.4-2.8-0.8
	c-0.3,0-1,0-1.4-0.4c-0.3-0.4,15.4,0.4,19.6,0.8c3.5,0.4,5.6,0.8,5.2,0.4c-0.7-0.4-10.1-1.3-19.9-1.7c-9.1-0.4-11.2-0.4-12.9-1.3
	c-2.1-0.8-4.9-1.3-12.2-1.7c-2.1,0-3.8-0.4-5.9-0.8c-1.7-1.3-3.8-2.1-5.9-2.5c-0.7,0-1-0.4-1.7-0.8c-1.4-0.8-3.1-1.3-4.5-1.3
	s-3.1-0.4-4.5-1.3c-0.7-0.4-2.4-0.8-5.6-0.8c-2.2-0.2-3.5-0.3-4.3-0.6c0.5,0,1,0.1,1.5,0.1c-0.8-0.1-1.3-0.1-1.8-0.2
	c-0.2-0.1-0.4-0.1-0.5-0.2c0.5,0,1.2,0,2.3,0c1.4,0,2.8,0,4.2-0.4c0.2-0.1,0.2-0.2,0.3-0.2l3.2,0.2c15.4,0.8,22.4,1.3,23.1,0.8
	c0.3,0,0.3-0.4-0.3-0.4c-0.7,0-1,0-1.7-0.4c-1-0.4-2.1-0.8-3.1-0.8C88.9,39,88.9,39,90.7,39c3.1,0-8.7-0.8-17.8-1.3
	c-5.2,0-9.1-0.4-9.4-0.8c-0.7-0.8,21.3,0,30.4,1.3l4.2,0.4h-2.8c-2.4,0-2.4,0,2.8,0.8c3.1,0.4,6.3,0.8,7.3,0.8
	c1.7,0,3.1,0.4,4.5,0.8c3.5,0.8,5.6,0.8,5.6,0c0-1.3-6.3-2.5-15.7-3.3c-12.2-1.3-16.4-1.7-21.7-1.7c-2.8,0-3.5-0.4-4.5-1.3
	c-0.3,0-0.3-0.4-0.3-0.4c1.7,0,3.8,0.4,5.6,0.4c2.4,0,4.9,0.4,7.3,0.4c0,0.4,0.3,0.4,0.7,0.4c0.3,0,0.7,0,0.7-0.4
	c7.7,0.4,15,1.3,22.4,2.9c7.3,1.3,9.4,1.7,8,0.8c-1-0.4-13.3-2.9-16.8-3.3c-3.5-0.4-7.7-0.8-15.7-1.3c-1.7,0-4.5-0.4-8-0.4
	c0.3,0,0.3,0,0.3,0c0-0.4-0.7-0.4-1.4-0.4c-0.7,0-1.4,0-1.7,0.4c-0.6,0-0.9,0-1.4,0c0.7-0.4,0.3-0.4-1-0.4c-1,0,0,0,2.1-0.4
	c2.8,0,4.5-0.4,4.9-0.8c0.7-0.8,0.7-0.8-1-1.7c-1-0.4-5.2-0.4-15.7-0.8c-12.9,0-14.3,0-15-0.8c-0.7-0.4-1.7-0.8-2.8-0.8
	c-1,0-2.1,0-3.1-0.4c-1.4-0.4-1-0.4,7.7-0.4c4.9,0,12.9-0.4,10.5-0.4c-0.7,0-1.4-0.4-1.4-0.4c0-0.8-4.5-1.7-10.8-2.1
	c-1.4,0-2.4,0-3.5-0.4c-1.4-0.4-3.1-0.4-4.5-0.4s-2.8,0-4.2-0.4c-0.3-0.4,1.4-1.3,2.4-1.3c0.7,0,0.3,0-0.7-0.4c-1.4-0.4-1-0.4,1,0
	c1.4,0,4.9,0.4,7.7,0.4c1.7,0,3.8,0.4,5.6,0.8c1.4,0.4,2.8,0.4,4.2,0.4s2.4,0,3.8,0.4c0.7,0.4,1,0.4,1.7,0.4s2.1,0.4,3.1,0.4
	c6.3,0.8,6.3,0.8,5.9,0.4s-1-0.4-1.4-0.4c-1,0-2.1-1.3-1.4-1.7c0.7,0,1.4,0,1.7,0.4c1.4,0.8,1.4,0.8,1.7,0c0.3-0.8-1.7-2.1-3.1-2.1
	c-0.7,0-1.7-0.4-2.4-0.8c-0.7-0.4-1.7-0.4-2.8-0.8c-0.3,0-1,0-1.4-0.4c-0.3-0.4,15.4,0.4,19.6,0.8c3.5,0.4,5.6,0.8,5.2,0.4
	c-0.7-0.4-10.1-1.3-19.9-1.7c-9.1-0.4-11.2-0.4-12.9-1.3c-2.1-0.8-4.9-1.3-12.2-1.7c-2.1,0-3.8-0.4-5.9-0.8
	c-1.7-1.3-3.8-2.1-5.9-2.5c-0.7,0-1-0.4-1.7-0.8c-1.4-0.8-3.1-1.3-4.5-1.3c-0.7,0-1.4-0.1-2.1-0.3c0.5,0,0.9-0.1,1.3-0.1
	c1.8,0,5.5-0.4,7.8-0.4c2.6,0,5.5-0.4,7-0.4c1.1-0.4,2.2-0.4,3.3,0c0.7,0.4,12.9,0,14-0.4c0.2-0.1,1.6-0.2,3.8-0.3
	c0.1,0,0.2,0,0.3,0c9.4-0.6,32.7-1.6,42.4-1.6c3.3,0,8.9-0.4,12.6-0.4C123.3,6,139.1,6,163.9,6c2.2,0,7,0,11.1,0c1,0,1.9,0,2.6,0
	c-2.6,0.4-12.9,0.4-22.9,0.4c-19.2,0-31,0.4-39.5,0.8c-3,0-9.6,0.4-15.1,0.4C85.2,7.9,71.2,8.3,70.8,8.7c-0.4,0.4,15.5,0.4,18.5,0
	c1.5,0,7.4-0.4,13.7-0.4c5.9-0.4,11.1-0.4,11.4-0.4s3.7,0,7,0c3.3,0,9.2,0.4,12.9,0c3.7-0.4,9.2-0.4,12.2-0.4s7,0,8.9,0
	c7,0,17,0,27.7,0c5.9,0,11.1,0,11.4,0c0.4,0,7.8,0,16.6,0c15.5,0.4,24.7,0,32.1-0.4c1.8,0,6.3,0,10,0c3.7,0,6.6,0,7-0.4
	c0.4-0.4,0.7-0.4,1.1-0.4c0.4,0,0.7,0.4,0.4,0.4c-0.7,0.4,15.1,0.4,35.4-0.4c4.4,0,13.7,0,21,0c27.3,0.8,29.2,0.8,52.1,0
	C374.3,6,379.1,6,380.6,6c1.5,0,5.9,0.4,9.6,0.4c3.7,0,21,0.8,38.8,1.1c27.3,0.8,53.2,1.9,46.2,1.9c-2.2,0-2.6,0-0.7,0.4
	c0.4,0,0.7,0,1.1,0c0.7-0.4,1.5,0,1.5,0.4c0,0.4-0.4,0.4-0.4,0.4c1.1,0,2.6,0.4,4.4,0.4c5.2,0.4,10.3,0.8,15.5,0.8
	c4.4,0,10.7,0,14.4,0c3.7,0,11.1,0,16.6,0c9.6,0,11.8,0.4,28.8,1.9c1.8,0,3.7,0.4,5.2,0.4c1.5-0.4,3-0.4,4.4-0.4c0.2,0,0.5,0,0.7,0
	c-10.7-1.9-21.4-2.7-32.5-3.1c-2.2,0-4.4,0-6.6-0.4c-0.4,0-10.3,0-15.5,0.4c-1.8,0.4-2.2,0-1.8-0.4c0.4-0.4,0-0.4-1.5-0.4
	c-0.7,0.4-4.8,0.4-8.9,0.4c-4.1,0-9.2,0-11.8,0c-2.6,0-4.4-0.4-4.1-0.4c0.4-0.4,0.7-0.4,1.1-0.4c0.4,0,3.3,0,6.3,0
	c3.3,0,7.8,0,10.3,0c1.5,0,3.3-0.4,4.8-0.4c0.4,0,27,0.8,34.7,1.1c8.5,0.4,12.9,0.8,16.6,1.1c2.6,0.4,9.2,1.5,13.7,2.3
	c1.5,0,3.3,0,4.8,0c3.7,0,6.6,0,7-0.4c0.4-0.4,0.7-0.4,1.1-0.4c0.4,0,0.7,0.4,0.4,0.4c-0.7,0.4,15.1,0.4,35.4-0.4c4.4,0,13.7,0,21,0
	c27.3,0.8,29.2,0.8,52.1,0c4.1-0.4,8.9-0.4,10.3-0.4c1.5,0,5.9,0.4,9.6,0.4c3.7,0,21,0.8,38.8,1.1c27.3,0.8,53.2,1.9,46.2,1.9
	c-3.7,0-1.8,0.4,6.3,1.1c5.2,0.4,10.3,0.8,15.5,0.8c4.4,0,10.7,0,14.4,0c3.7,0,11.1,0,16.6,0c9.6,0,11.8,0.4,28.8,1.9
	c10,0.8,16.6,1.9,16.6,3.1c0,0.8-2.2,0.8-5.9,0c-1.5-0.4-3-0.8-4.8-0.8c-1.1,0-4.4-0.4-7.8-0.8c-5.5-0.8-5.5-0.8-3-0.8h3l-4.4-0.4
	c-9.6-1.1-32.9-1.9-32.1-1.1c0.4,0.4,4.4,0.8,10,0.8c9.6,0.4,22.2,1.1,18.8,1.1c-1.8,0-1.8,0,0.7,0.4c1.1,0,2.2,0.4,3.3,0.8
	c0.7,0.4,1.1,0.4,1.8,0.4s0.7,0.4,0.4,0.4c-0.7,0.4-8.1,0-24.4-0.8l-12.2-0.8l1.1,0.8c0.7,0.8,1.8,0.8,5.9,1.1
	c3.3,0,5.2,0.4,5.9,0.8c1.5,0.8,3.3,1.1,4.8,1.1c1.5,0,3.3,0.4,4.8,1.1c0.7,0.4,1.1,0.8,1.8,0.8c2.2,0.4,4.4,1.1,6.3,2.3
	c2.2,0.4,4.1,0.8,6.3,0.8c7.8,0.4,10.7,0.8,12.9,1.5c1.8,0.8,4.1,0.8,13.7,1.1c10.3,0.4,20.3,1.1,21,1.5c0.4,0.4-1.8,0-5.5-0.4
	c-4.4-0.4-21-1.1-20.7-0.8c0.4,0.4,1.1,0.4,1.5,0.4c1.1,0.4,2.2,0.4,3,0.8c0.7,0.4,1.8,0.8,2.6,0.8c1.5,0,3.7,1.1,3.3,1.9
	c-0.4,0.8-0.4,0.8-1.8,0c-0.4-0.4-1.1-0.4-1.8-0.4c-0.7,0.4,0.4,1.5,1.5,1.5c0.4,0,1.1,0,1.5,0.4c0.4,0.4,0.4,0.4-6.3-0.4
	c-1.1,0-2.6-0.4-3.3-0.4c-0.7,0-1.1,0-1.8-0.4c-1.5-0.4-2.6-0.4-4.1-0.4c-1.5,0-3,0-4.4-0.4c-1.8-0.4-4.1-0.8-5.9-0.8
	c-3,0-6.6-0.4-8.1-0.4c-2.2-0.4-2.6-0.4-1.1,0c1.1,0.4,1.5,0.4,0.7,0.4c-1.1,0-3,0.8-2.6,1.1c1.5,0.4,3,0.4,4.4,0.4
	c1.5,0,3.3,0,4.8,0.4c1.1,0.4,2.2,0.4,3.7,0.4c6.6,0.4,11.4,1.1,11.4,1.9c0,0,0.7,0.4,1.5,0.4c2.6,0-5.9,0.4-11.1,0.4
	c-9.2,0-9.6,0-8.1,0.4c1.1,0.4,2.2,0.4,3.3,0.4s2.2,0.4,3,0.8c0.7,0.8,2.2,0.8,15.9,0.8c11.1,0.4,15.5,0.4,16.6,0.8
	c1.8,0.8,1.8,0.8,1.1,1.5c-0.4,0.4-2.2,0.8-5.2,0.8c-2.2,0.4-3.3,0.4-2.2,0.4c1.5,0,1.8,0,1.1,0.4c0.5,0,0.9,0,1.5,0
	c0.4-0.4,1.1-0.4,1.8-0.4c0.7,0,1.5,0,1.5,0.4c0,0,0,0-0.4,0c3.7,0,6.6,0.4,8.5,0.4c8.5,0.4,12.9,0.8,16.6,1.1
	c3.7,0.4,16.6,2.7,17.7,3.1c1.5,0.8-0.7,0.4-8.5-0.8c-7.8-1.5-15.5-2.3-23.6-2.7c0,0.4-0.4,0.4-0.7,0.4c-0.4,0-0.7,0-0.7-0.4
	c-2.6,0-5.2-0.4-7.8-0.4c-1.8,0-4.1-0.4-5.9-0.4c0,0,0,0.4,0.4,0.4c1.1,0.8,1.8,1.1,4.8,1.1c5.5,0,10,0.4,22.9,1.5
	c10,0.8,16.6,1.9,16.6,3.1c0,0.8-2.2,0.8-5.9,0c-1.5-0.4-3-0.8-4.8-0.8c-1.1,0-4.4-0.4-7.8-0.8c-5.5-0.8-5.5-0.8-3-0.8h3l-4.4-0.4
	c-9.6-1.1-32.9-1.9-32.1-1.1c0.4,0.4,4.4,0.8,10,0.8c9.6,0.4,22.2,1.1,18.8,1.1c-1.8,0-1.8,0,0.7,0.4c1.1,0,2.2,0.4,3.3,0.8
	c0.7,0.4,1.1,0.4,1.8,0.4s0.7,0.4,0.4,0.4c-0.7,0.4-8.1,0-24.4-0.8l-3.4-0.2c0.5-0.6-3.8-0.9-8.4-0.6c-1.5,0-3,0-4.4,0
	c-1.1,0-2.2,0-3,0c-1.8,0.4-2.2,0-1.8-0.4c-1.8-0.4-4.1-0.4-5.5-0.4h-1.1c-0.7,0.4-1.1,0.4-1.1,0.4s0.7,0.4,1.5,0.4
	c1.1,0.4,2.2,0.8,3,1.1c1.8,0,3.7,0,5.2,0c2.2,0,6.1,0,9.5,0.3c0.9,0.2,2.2,0.3,4.6,0.5c3.3,0,5.2,0.4,5.9,0.8
	c1.5,0.8,3.3,1.1,4.8,1.1c1.5,0,3.3,0.4,4.8,1.1c0.7,0.4,1.1,0.8,1.8,0.8c2.2,0.4,4.4,1.1,6.3,2.3c2.2,0.4,4.1,0.8,6.3,0.8
	c7.8,0.4,10.7,0.8,12.9,1.5c1.8,0.8,4.1,0.8,13.7,1.1c10.3,0.4,20.3,1.1,21,1.5c0.4,0.4-1.8,0-5.5-0.4
	C973.9,64.2,957.3,63.5,957.7,63.9z M67.5,26.1c0.4,0,0.7,0,1.1,0C69.4,25.8,69,25.8,67.5,26.1z M100.1,88.5
	c-0.3-0.4-0.3-0.4-0.7-0.4c-0.7-0.4-1.7-0.4-2.4-0.4c-0.3,0,0.3,0.4,2.1,0.8C99.4,88.5,99.7,88.5,100.1,88.5z M62,113
	c-1,0-1.4,0-0.7,0.4c0.3,0,1,0,1.4,0C63.1,113,62.7,113,62,113z M79.7,112.6c-1.5,0-3.3,0-4.8,0c-1.1,0-2.2,0-3,0.3
	c-0.4,0.3-1.1,0.3-1.8,0.3c3.3,0,6.3,0,9.2-0.3C79.7,113,79.7,112.6,79.7,112.6z M101.5,116.5c-0.7,0-1.1,0-0.7,0.3
	c0.4,0,1.1,0,1.5,0C102.6,116.5,102.2,116.5,101.5,116.5z M105.9,116.5c-0.4,0-0.4,0-0.4,0h-0.7c0,0.3,0.4,0.3,0.7,0.3
	C105.9,116.8,106.3,116.8,105.9,116.5z M755.7,144.2c-1.8,0-4.1,0-5.9,0.3c-0.7,0.3,11.1,0,12.2-0.3
	C763.1,143.9,763.8,143.9,755.7,144.2z M847.3,55.3c0.4,0,0.7,0,1.1,0c0-0.3-0.4-0.3-0.7-0.3C846.9,55,846.9,55.3,847.3,55.3z
	 M843.2,55.3c0.4,0,0.7,0,1.1,0c0.4,0,0,0-0.7-0.3C842.8,55,842.8,55.3,843.2,55.3z M764.9,114.7c11.4,0.3,21.4,0.3,27.7,0.3
	c-4.4,0-8.5-0.3-12.6-0.3c-19.6-0.3-30.3-0.7-36.9-0.7c-0.7,0-1.5,0-1.8,0C736.9,114,744.6,114.4,764.9,114.7z M765.3,122.4h-3
	c-1.8-0.3-3.7,0-5.5,0c2.2,0.3,16.2,0.3,17,0C771.2,122,768.3,122,765.3,122.4z M752.7,122.4c0.3,0,0.6,0,0.7,0
	C753.9,122.4,753.5,122,752.7,122.4z M735,122.7c4.1,0.3,5.5,0.3,4.4,0c-2.6-0.7-5.5-0.7-8.1-0.3C729.9,122.4,731,122.4,735,122.7z
	 M707.9,103.6c0,0,0.1,0,0.1,0C708.6,103.3,708.5,103.3,707.9,103.6z M688.5,103.3c1.5,0,3,0,4.4,0.3c0,0.3,0.7,0.3,1.1,0
	c0,0,0.4-0.3,0.7-0.3c-1.5,0-2.6,0-4.1,0C690,103.3,689.2,103.3,688.5,103.3z M683.3,124.1c-0.3,0-0.6,0-0.7,0
	c0.4,0.3,1.1,0.3,1.5,0.3C684.4,124.1,684.1,124.1,683.3,124.1z M677.1,123.7c0,0,0,0-0.4,0c-1.1,0.3-1.1,0.3,0,0.3
	c0.7,0,1.1,0,1.1-0.3H677.1z M673.4,124.1c0.4,0,1.1,0,1.5,0c0.4-0.3,0-0.3-0.7-0.3C673,123.7,672.6,124.1,673.4,124.1z
	 M663.8,102.2c0,0.3,1.8,0.7,4.1,0.7c1.1,0,1.8,0,2.6,0l6.6-0.3l-10-0.3C666,102.2,664.9,102.2,663.8,102.2z M654.2,123.7
	c0,0.3,1.5,0.3,4.1,0.3c1.1-0.3,2.6,0,3.7,0c-1.1,0.3-2.6,0.3-3.7,0.3c1.8,0,1.5,0,0.7,0.3c-1.1,0.3-1.8,0.3-3,0.3
	c6.6,0,16.2,0,22.9,0c0-0.3,0.4-0.3,0.7,0c0.4,0,0.4,0,0.7,0c2.6,0,4.8,0,7-0.3c0.4-0.3-0.7-0.3-2.2-0.3c-5.2,0.3-22.9,0-22.2-0.3
	c1.5,0,3,0,4.4,0c2.2,0,4.1-0.3,4.1-0.3c-5.9,0-11.4-0.3-17-0.3C654.2,123.7,654.2,123.7,654.2,123.7z M636.8,123.4
	c-1.5,0-3.7,0.3-6.6,0.3c8.1,0,16.6,0,18.5,0.3c4.1,0.3,4.8,0,4.4-0.3c-4.8-0.3-9.2-0.3-13.7-0.3
	C638.7,123.4,637.6,123.4,636.8,123.4z M637.9,124.4c0.4,0.3,0.7,0.3,1.1,0C638.5,124.4,638.1,124.4,637.9,124.4z M632,124.1
	c-0.7,0-1.1,0.3-0.4,0.3c0.4,0,0.7,0,1.1,0C633.1,124.1,632.8,124.1,632,124.1z M609.5,101.2l1.1,0.3c3,0,6.6,0,11.4,0
	c2.7,0,6.1,0,9.2,0C624.3,101.5,616.1,101.2,609.5,101.2z M605.4,101.2c0.7,0.3,1.1,0.3,1.8,0.3c0.7,0,1.5-0.3,1.5-0.3
	C607.6,101.2,606.5,101.2,605.4,101.2z M502.4,136.6c13.7,0,16.6,0,17.4-0.3C512.8,136.3,506.5,136.3,502.4,136.6z M531.6,135.9
	c-3.7,0-7,0-10.7,0C522,136.3,527.2,136.3,531.6,135.9z M354,118.2c-1.1,0.3-1.1,0.3,0,0.3c0.7,0,1.1,0,1.1-0.3c0-0.3,0-0.3,0-0.3
	h-0.7C354.4,118.2,354,118.2,354,118.2z M350.7,118.5c0.4,0,1.1,0,1.5,0c0.4-0.3,0-0.3-0.7-0.3C350.7,118.2,350.3,118.2,350.7,118.5
	z M331.5,117.8c0,0.3,1.5,0.3,4.1,0.3c1.1-0.3,2.6,0,3.7,0c-1.1,0.3-2.6,0.3-3.7,0.3c1.8,0,1.5,0,0.7,0.3c-1.1,0.3-1.8,0.3-3,0.3
	c1.1,0,2.2,0,3.3,0c4.1-0.3,7.8-0.3,11.1-0.3c5.1,0,10.8,0,13.7,0c0.4,0,0.8,0,1.1,0h1.5c0.4,0,0.4,0,0.7,0c0.4-0.3-0.7-0.3-2.2-0.3
	c-0.3,0-0.7,0-1.1,0.1c-0.1-0.1-0.4-0.1-0.8-0.1c-0.3,0-0.6,0-0.7,0c0.2,0,0.5,0,0.8,0.1c-6.6,0.2-21.1-0.1-20.4-0.4
	c1.5,0,3,0,4.4,0c2.2,0,4.1-0.3,4.1-0.3c-5.9,0-11.4-0.3-17-0.3C331.5,117.8,331.5,117.8,331.5,117.8z M307.5,117.8
	c8.5,0,16.6,0.3,18.5,0.3c4.1,0.3,4.8,0,4.4-0.3c-4.8-0.3-9.2-0.3-13.7-0.3c-0.7,0-1.8,0-2.6,0C312.7,117.5,310.4,117.8,307.5,117.8
	z M316.7,118.9c-1.5-0.3-1.8-0.3-1.5,0C316,118.9,316.3,118.9,316.7,118.9h0.7C318.2,118.9,317.5,118.5,316.7,118.9z M309.3,118.2
	c-0.7,0-0.7,0.3-0.4,0.3c0.4,0,0.7,0,1.1,0C310.4,118.5,310.1,118.5,309.3,118.2z M209.3,114.4c0.7,0.3,1.1,0.3,1.5,0H209.3z
	 M170.5,117.5c-6.2,0.3-8.8,0.3-12,0.7c2.4,0,4.7,0,6.8-0.3c3.7,0,12.2,0,19.2,0c1.5,0,3,0,4.4,0c-5.2,0-10.3-0.3-16.2-0.3
	C172,117.5,171.3,117.5,170.5,117.5z M258.4,124.4c0.7-0.3-4.4-0.3-18.5-0.7c-17.7-0.3-22.2-0.3-33.2,0c-2.1,0-9.6,0-17.4,0
	c0.4-0.3,0-0.3-0.7-0.3c-0.7,0-0.7,0-0.4,0.3c-12.2-0.3-30.6-0.3-34.3-0.3c-0.4,0-2.6,0.3-5.2,0.3c-2.6,0.3-4.8,0.3-5.2,0.3
	c-0.4,0-0.7,0.3-0.7,0.3c-1.1,0-1.8,0-3,0c-5.2,0-14,0-14.8,0.3c-0.7,0.3-0.7,0-6.3,0.3c-3.3,0-4.4,0.3-5.2,0.7
	c-0.7,0.3-1.1,0.7-1.8,0.3c2.2-0.7-0.4-0.7-8.5,0c-12.6,0.7-18.1,1.4-17.7,1.7c0.4,0.3,12.2,0,13.7-0.3c1.8-0.3,3.7-0.7,5.9-0.7
	c0.4,0,16.2-0.3,18.8-0.3c1.1-0.3,4.8-0.3,8.1-0.3c4.8-0.3,6.3-0.3,6.3-0.7c0-0.3-0.4-0.3-1.8-0.3c-3.7,0.3-7.4,0.3-7,0
	c0.7-0.3,11.4-0.7,12.2-0.3c0,0.3-0.4,0.3-1.1,0.3c-1.5,0-1.5,0,0.4,0.3c1.1,0,1.8,0,3,0c1.8-0.3,3.7-0.3,5.5-0.3
	c2.6,0,5.9-0.3,7.8-0.3c1.8-0.3,6.3-0.3,10-0.3s11.4,0,17.4,0c9.6,0,13.7,0,31,0c3,0,12.9,0,21.8,0c10,0.3,16.2,0.3,16.6,0
	c0.4,0,1.1,0,1.8,0C256.5,124.8,257.6,124.8,258.4,124.4z M264.3,123.7c-1.1,0-1.8,0-1.5,0.3c0,0.3-0.4,0.3-1.1,0.3
	c-0.4,0-1.1-0.3-0.7-0.3c0.4-0.3-0.4-0.3-1.1,0c-1.1,0.7-0.4,1,2.6,0.7c1.5,0,3-0.3,2.6-0.3c-0.4,0,0,0,0.4-0.3
	C265.8,123.7,265.4,123.7,264.3,123.7z M300.5,124.4c-17-0.3-20.3-0.3-20.3,0c0,0.3,0,0.3-0.7,0c-1.5-0.3-2.6-0.3-4.1-0.3
	c-1.8,0-4.4,0-5.9,0c-1.8,0-2.2,0-1.8,0.3c0.7,0,0.7,0.3,0,0.3c-0.7,0.3,0,0.3,1.1,0.3c0.7,0.3,1.5,0.3,2.2,0c2.6-0.3,5.2,0,7.8,0
	c5.2,0.3,7.8,0.3,7.8,0c0-0.3,1.5-0.3,1.8,0c0,0.3,0.7,0.3,2.6,0c2.6-0.3,5.5-0.3,8.1-0.3c3.3,0,7.8,0,10.3,0
	C312.7,124.8,309.7,124.8,300.5,124.4z M415.3,125.5c0.7-0.3,1.5-0.3,2.2-0.3c-11.4,0-16.2,0-20.7,0c-1.1,0-2.6,0-4.8,0
	c-0.4,0-0.4,0-0.4,0c-6.3,0-17,0-27.3,0c-35.8-0.3-49.5-0.3-49.8-0.3c-0.4,0,55.4,1.4,60.2,1.4c0.7,0,5.9,0,13.7,0c0.7,0,1.8,0,3,0
	c3,0,6.6,0,8.1,0C403.5,126.2,412.3,125.8,415.3,125.5z M424.9,132.8c-3.3-0.3-6.3-0.3-9.2-0.3c-5.9,0.7-8.9,1-8.5,1.4
	c0.4,0.3,12.2,0,13.7-0.3C421.9,133.1,423.4,132.8,424.9,132.8z M433,138.3c-1.8,0-4.1,0-5.9,0.3c-0.7,0.3,11.1,0.3,12.2-0.3
	C440.4,138,441.1,138,433,138.3z M516.1,137.6c-6.2,0-11.6,0-14,0c-3,0-12.2,0-20.3,0c-8.1,0-19.2,0.3-24.4,0.3l-9.2,0.3l19.2,0.3
	c4.8,0,8.9,0,12.9-0.3C491.4,138,505.4,137.6,516.1,137.6z M551.5,30.3l-2.2-0.3c-3.3-0.3-8.9-0.7-14-1c-0.4,0-1.1,0-1.5,0
	c-8.5-0.3-16.6-0.3-16.2,0c0.4,0.3,4.4,0.7,10,0.7c7,0,15.9,0.3,18.5,0.7C548.2,30.3,549.7,30.3,551.5,30.3z M564.1,129.7h-0.7
	c-17,0-15.5,0.3,3.3,0.7c3.3,0,5.9,0,8.1,0c0.4,0,1.1,0,1.5,0c0.4,0,1.1,0,1.8,0c0.7,0.3,1.8,0.3,2.6,0
	C581.4,130,576.6,130,564.1,129.7z M587,130c-1.1,0-1.5,0-1.1,0.3c0,0.3-0.4,0.3-1.1,0.3c-0.4,0-1.1-0.3-0.7-0.3
	c0.4-0.3-0.4-0.3-1.1,0c-1.1,0.3-0.4,0.7,2.2,0.7c1.5,0,2.6-0.3,2.6-0.3c-0.4,0,0-0.3,0.4-0.3C588.5,130,588.1,130,587,130z
	 M622.8,130c-17-0.3-20.3-0.3-20.3,0c0,0.3,0,0.3-0.7,0c-1.5-0.3-2.6-0.3-4.1-0.3c-1.8,0-4.4,0-5.9,0c-1.8,0-2.2,0-1.8,0.3
	c0.7,0,0.7,0.3,0,0.3c-0.4,0.3,0,0.3,1.1,0.3c0.7,0.3,1.5,0.3,2.2,0c2.6,0,5.2,0,7.8,0c5.2,0.3,7.8,0.3,7.8,0c0-0.3,1.5-0.3,1.8,0
	c0,0.3,0.7,0.3,2.6,0c2.6-0.3,5.5-0.3,8.1-0.3c3.3,0,7.8,0,10.3,0C635,130.3,632,130.3,622.8,130z M770.5,144.2l9.9-0.4
	c-0.2,0-0.5,0-0.7,0L770.5,144.2z M804.1,143.5c-3.4,0-7.3,0.1-11.1,0.1c5,0.2,9.3,0.2,13.3,0.2h0.4c3,0,5.2,0,5.5,0l0.4,0.3
	c6.6,0,11.1,0,13.7,0c1.5,0,4.8,0,7,0c5.9,0,26.2-0.7,27-0.7c-1.1,0-2.6,0-3.7,0c-10.3,0-27.3,0-32.1,0
	C821.4,143.5,812.2,143.5,804.1,143.5z M826.2,133.1c-0.7-0.3-1.8-0.3-3-0.3c-1.1,0-2.2,0-3.3,0c-1.1,0-1.1,0-0.7-0.3
	c-1.8,0-3.3,0-4.8,0c-0.4,0-5.5,0-12.9,0c-0.4,0-1.1,0-1.5,0c-10.3,0-24-0.3-35.1-0.7c-31-0.7-39.1-1-46.2-0.7
	c-3.3,0.3-17.7,0-32.1,0c-35.8-0.3-49.5-0.3-49.8-0.3c-0.4,0,55.7,1.4,59.4,1.4c1.1,0,12.9,0.3,26.6,0.3c21.4,0,25.1,0,27.7-0.3
	c3-0.3,5.2-0.3,4.4,0.3c-0.4,0.3,0.7,0.3,4.1,0.3c4.1,0,4.8,0,5.5,0.3c0.7,0.7,2.6,0.7,3.3,0.3c3.3,0,6.3,0,9.6,0
	c4.8,0,11.4,0,14-0.3c3-0.3,11.8-0.3,19.9,0C819.2,133.1,825.8,133.1,826.2,133.1z M827,133.5h-1.5c-0.4,0-0.7,0-1.1,0l-2.2,0.3h2.6
	C825.8,133.8,827,133.8,827,133.5z M829.9,55.7c-0.6,0-1.2,0-1.8,0C828.4,56,829.2,55.7,829.9,55.7z M838,132.4c-0.3,0-0.6,0-0.7,0
	c0.4,0,1.1,0,1.5,0.3C839.1,132.4,838.8,132.4,838,132.4z M839.5,124.8c-1.8-0.3-3.3-0.7-5.2-0.7c-0.4,0-0.4,0-0.7,0
	c-0.4,0.3-1.1,0.3-1.5,0.3c1.5,0,3.3,0.3,4.4,0.3C839.1,125.1,839.9,124.8,839.5,124.8z M846.5,56.7c1.1,0,2.2,0,3.3-0.3
	c0,0-2.2-0.3-4.8-0.3c-3-0.3-4.8-0.3-4.8,0C842.8,56.4,845,56.7,846.5,56.7z M842.8,132.1c-0.7,0-0.7,0.3-0.4,0.3
	c0.4,0.3,0.7,0.3,1.1,0C843.9,132.1,843.6,132.1,842.8,132.1z M847.6,125.1l-2.2,0.3h2.6c1.1,0,1.8,0,3-0.3
	C851.3,124.8,851,124.8,847.6,125.1z M894.9,114.4c1.1,0,3,0.3,5.5,0.3c7,0.3,8.9,0.3,7.8,0c-3,0-5.5-0.3-8.5-0.3
	c-0.4,0-0.7,0-1.1,0C897.5,114.4,896,114.4,894.9,114.4z M881.2,53.9c3.3,0.3,7,0.3,10.3,0.3c1.5,0,1.1,0,0-0.3
	c-1.8-0.3-4.1-0.3-6.3-0.3C882.3,53.6,880.5,53.6,881.2,53.9z M862.8,56.4c4.8,0.3,9.2,0.7,13.7,0.3c1.8-0.3,1.8-0.3-1.1-0.3
	c-1.8,0-5.2-0.3-7-0.3c-1.8,0-3.3,0-5.2,0C861.7,56,861.7,56,862.8,56.4z M858.7,56.4c0.4,0,0.7,0,1.1,0c0.4,0,0,0-0.7-0.3
	C858.3,56,858.3,56.4,858.7,56.4z M858,106c0.5,0,1,0,1.5,0C860.2,105.7,859.4,105.7,858,106z M872.7,105.7c-4.8,0-8.9,0-8.9,0
	s0,0,0.4,0.3c0.4,0.3,0.7,0.3,1.5,0.3c0.4,0,0.7,0,1.1,0C870.2,106,872.7,105.7,872.7,105.7z M875.3,61.6l1.8-0.3l-2.2-0.3
	c-0.7-0.3-1.8-0.3-2.6-0.3c-1.5,0-3,0-3.7,0c-2.2,0.3-4.1,0-4.1,0c-0.7,0-1.5,0-2.2,0c-0.7,0-3.3,0-6.3,0.3c1.1,0.3,3.3,0.3,6.6,0.7
	c1.5,0,3,0.3,4.4,0.3c0-0.3,0.7-0.3,3-0.3C872,61.6,873.5,61.6,875.3,61.6z M885.7,61.9c-2.6-0.3-5.2-0.3-8.1,0c0.1,0,0.2,0,0.4,0
	C880.1,61.9,883.1,61.9,885.7,61.9z M906.3,83.5c0.4,0,0.7,0,1.1,0c0-0.3,0-0.3-0.7-0.3C906,83.1,906,83.5,906.3,83.5z M902.6,83.5
	c0.4,0,0.7,0,1.1,0c0,0-0.4,0-0.7-0.3C902.3,83.1,902.3,83.5,902.6,83.5z M908.9,84.5c0,0-1.8-0.3-4.4-0.3c-3-0.3-4.8-0.3-4.8,0
	c0,0-0.4,0.3-1.1,0.3c0.4,0.3,0.7,0.3,1.1,0.3c0.7,0,1.5,0,2.2,0C905.6,84.8,908.9,84.5,908.9,84.5z M940.3,82.1
	c3.3,0.3,7,0.3,10.3,0.3c1.5,0,1.5,0,0-0.3c-1.8-0.3-4.1-0.3-6.3-0.3C941.4,81.7,939.9,81.7,940.3,82.1z M918.1,84.5
	c0.4,0,0.7,0,1.1,0c0.4-0.3,0-0.3-0.7-0.3S917.8,84.5,918.1,84.5z M914.5,84.5c0.4,0,0.7,0,1.1,0C915.9,84.5,915.6,84.2,914.5,84.5z
	 M936.6,89.7c0.4,0,1.1,0.3,1.5,0.3c0,0.3,0.4,0.3,0.4,0.3c4.4,0.3,8.5,0.3,7.8-0.3c-1.1-0.3-2.6-0.7-8.9-0.3H936.6z M936.6,90.4
	c-0.4,0-0.4-0.3-0.7-0.3h-5.2l4.8,0.3c0.4,0,0.7,0,1.5,0.3C937,90.4,936.6,90.4,936.6,90.4z M934.4,88.7c-4.4-0.3-8.5-0.7-12.6-0.3
	c-1.1,0.3-4.4,0.3-8.1,0.3c2.2,0.3,4.1,0.7,6.3,0.7c2.6,0.3,4.8,0.3,6.3,0.3c0-0.3,0.4-0.3,3.3-0.3c1.8,0,3.3,0,5.2,0l1.8-0.3
	L934.4,88.7z M927.7,84.2c-1.8,0-3.3,0-5.2,0c-1.5,0-1.5,0-0.4,0.3c4.8,0.3,9.2,0.7,13.7,0.3c1.8-0.3,1.5-0.3-1.1-0.3
	C932.9,84.5,929.6,84.2,927.7,84.2z M821.7,174.5c1.2-0.1,2.7-0.2,4-0.2c3.5,0,5.5-0.9,2.7-1c-2.2,0-4.1,0.5-6.3,1
	C821.9,174.4,821.8,174.5,821.7,174.5z M294.9,82.5c0.3,0,0.5,0,0.8,0C296,82.5,295.7,81.9,294.9,82.5z M312.1,91.5
	c3.2,0.5,6.1,0.5,5.6-0.5c-0.8-0.5-1.9-1.1-6.4-0.5h-0.5c0.3,0,0.8,0.5,1.1,0.5C311.9,91.5,312.1,91.5,312.1,91.5z M843.1,172.9
	l0.7-0.3C842.4,172.5,842,172.6,843.1,172.9z M255.7,39.5c0.3,0,0,0-0.5-0.5c-0.5,0-0.5,0.5-0.3,0.5
	C255.2,39.5,255.4,39.5,255.7,39.5z M257.8,47.4c1.1,0,2.1,0.5,3.2,0.5c0-0.5,0.5-0.5,2.1-0.5c1.3,0,2.4,0,3.7,0l1.3-0.5l-1.6-0.5
	c-0.5-0.5-1.3-0.5-1.9-0.5c-1.1,0-2.1,0-2.6,0c-1.6,0.5-2.9,0-2.9,0c-0.5,0-1.1,0-1.6,0c-0.5,0-2.4,0-4.5,0.5
	C253.8,46.9,255.4,46.9,257.8,47.4z M300.7,81.9c-1.1,0-1.1,0-0.3,0.5c3.4,0.5,6.6,1.1,9.8,0.5c1.3-0.5,1.1-0.5-0.8-0.5
	c-1.3,0-3.7-0.5-5-0.5C303.1,81.9,302.1,81.9,300.7,81.9z M310.3,90.9h-3.7l3.4,0.5c0.3,0,0.5,0,1.1,0.5c0-0.5-0.3-0.5-0.3-0.5
	C310.6,91.5,310.6,90.9,310.3,90.9z M939.7,127.5c1.7,0,3.1,0,3.3-0.2c-0.5-0.1-1-0.2-1.5-0.2C940.9,127.1,940.4,127.2,939.7,127.5z
	 M911,111.8c-0.4,0-0.7,0-1.1,0C909.2,112.1,909.5,112.1,911,111.8z M878.5,49.4c0.3,0.4,0.3,0.4,0.7,0.4c0.7,0.4,1.7,0.4,2.4,0.4
	c0.3,0-0.3-0.4-2.1-0.8C879.2,49.4,878.8,49.4,878.5,49.4z M916.6,24.9c1,0,1.4,0,0.7-0.4c-0.3,0-1,0-1.4,0
	C915.5,24.9,915.9,24.9,916.6,24.9z M898.9,25.3c1.5,0,3.3,0,4.8,0c1.1,0,2.2,0,3-0.3c0.4-0.3,1.1-0.3,1.8-0.3c-3.3,0-6.3,0-9.2,0.3
	C898.9,24.9,898.9,25.3,898.9,25.3z M877.1,21.4c0.7,0,1.1,0,0.7-0.3c-0.4,0-1.1,0-1.5,0C876,21.4,876.4,21.4,877.1,21.4z
	 M872.7,21.4c0.4,0,0.4,0,0.4,0l0.7,0c0-0.3-0.4-0.3-0.7-0.3C872.7,21,872.3,21,872.7,21.4z M222.9-7.8c1.8,0,4.1,0,5.9-0.3
	c0.7-0.3-11.1,0-12.2,0.3C215.5-7.5,214.8-7.5,222.9-7.8z M131.3,80.9c-0.4,0-0.7,0-1.1,0c0,0.3,0.4,0.3,0.7,0.3
	C131.7,81.3,131.7,80.9,131.3,80.9z M135.3,80.9c-0.4,0-0.7,0-1.1,0c-0.4,0,0,0,0.7,0.3C135.7,81.3,135.7,80.9,135.3,80.9z
	 M213.7,21.7c-11.4-0.4-21.4-0.4-27.7-0.4c4.4,0,8.5,0.4,12.6,0.4c19.6,0.4,30.3,0.8,36.9,0.8c0.7,0,1.5,0,1.8,0
	C241.7,22.4,234,22.1,213.7,21.7z M213.3,14l3,0c1.8,0.4,3.7,0,5.5,0c-2.2-0.4-16.2-0.4-17,0C207.4,14.4,210.3,14.4,213.3,14z
	 M225.8,14.1c-0.3,0-0.6,0-0.7,0C224.7,14.1,225.1,14.4,225.8,14.1z M243.6,13.8c-4.1-0.4-5.5-0.4-4.4,0c2.6,0.7,5.5,0.7,8.1,0.4
	C248.7,14.1,247.6,14.1,243.6,13.8z M270.6,32.9c0,0-0.1,0-0.1,0C269.9,33.2,270,33.2,270.6,32.9z M290.1,33.3c-1.5,0-3,0-4.4-0.4
	c0-0.3-0.7-0.3-1.1,0c0,0-0.4,0.3-0.7,0.3c1.5,0,2.6,0,4.1,0C288.6,33.3,289.3,33.3,290.1,33.3z M295.3,12.5c0.3,0,0.6,0,0.7,0
	c-0.4-0.3-1.1-0.3-1.5-0.4C294.2,12.5,294.5,12.5,295.3,12.5z M301.5,12.9c0,0,0,0,0.4,0c1.1-0.3,1.1-0.3,0-0.3
	c-0.7,0-1.1,0-1.1,0.3L301.5,12.9z M305.2,12.5c-0.4,0-1.1,0-1.5,0c-0.4,0.3,0,0.3,0.7,0.3C305.6,12.9,306,12.5,305.2,12.5z
	 M314.8,34.4c0-0.3-1.8-0.7-4.1-0.7c-1.1,0-1.8,0-2.6,0l-6.6,0.3l10,0.4C312.6,34.4,313.7,34.4,314.8,34.4z M324.4,12.9
	c0-0.3-1.5-0.4-4.1-0.4c-1.1,0.3-2.6,0-3.7,0c1.1-0.3,2.6-0.3,3.7-0.3c-1.8,0-1.5,0-0.7-0.3c1.1-0.3,1.8-0.3,3-0.3
	c-6.6,0-16.2,0-22.9,0c0,0.3-0.4,0.3-0.7,0c-0.4,0-0.4,0-0.7,0c-2.6,0-4.8,0-7,0.3c-0.4,0.3,0.7,0.3,2.2,0.4
	c5.2-0.3,22.9,0,22.2,0.4c-1.5,0-3,0-4.4,0c-2.2,0-4.1,0.3-4.1,0.3c5.9,0,11.4,0.4,17,0.4C324.4,12.9,324.4,12.9,324.4,12.9z
	 M341.8,13.3c1.5,0,3.7-0.3,6.6-0.3c-8.1,0-16.6,0-18.5-0.4c-4.1-0.4-4.8,0-4.4,0.3c4.8,0.4,9.2,0.4,13.7,0.4
	C339.9,13.3,341,13.3,341.8,13.3z M340.7,12.2c-0.4-0.3-0.7-0.3-1.1,0C340.1,12.2,340.5,12.2,340.7,12.2z M346.6,12.6
	c0.7,0,1.1-0.3,0.4-0.3c-0.4,0-0.7,0-1.1,0C345.5,12.6,345.8,12.6,346.6,12.6z M369.1,35.6l-1.1-0.3c-3,0-6.6,0-11.4,0
	c-2.7,0-6.1,0-9.2,0C354.3,35.2,362.4,35.6,369.1,35.6z M373.1,35.6c-0.7-0.3-1.1-0.3-1.8-0.4c-0.7,0-1.5,0.3-1.5,0.3
	C370.9,35.6,372,35.6,373.1,35.6z M476.2,0.4c-13.7,0-16.6,0-17.4,0.3C465.8,0.7,472.1,0.7,476.2,0.4z M447,1c3.7,0,7,0,10.7,0
	C456.6,0.7,451.4,0.7,447,1z M624.6,19.1c1.1-0.3,1.1-0.3,0-0.3c-0.7,0-1.1,0-1.1,0.3c0,0.3,0,0.3,0,0.3l0.7,0
	C624.2,19.1,624.6,19.1,624.6,19.1z M627.9,18.8c-0.4,0-1.1,0-1.5,0c-0.4,0.3,0,0.3,0.7,0.3C627.9,19.1,628.3,19.1,627.9,18.8z
	 M647.1,19.5c0-0.3-1.5-0.4-4.1-0.4c-1.1,0.3-2.6,0-3.7,0c1.1-0.3,2.6-0.3,3.7-0.3c-1.8,0-1.5,0-0.7-0.3c1.1-0.3,1.8-0.3,3-0.3
	c-1.1,0-2.2,0-3.3,0c-4.1,0.3-7.8,0.3-11.1,0.3c-5.1,0-10.8,0-13.7,0c-0.4,0-0.8,0-1.1,0l-1.5,0c-0.4,0-0.4,0-0.7,0
	c-0.4,0.3,0.7,0.3,2.2,0.4c0.3,0,0.7,0,1.1-0.1c0.1,0.1,0.4,0.1,0.8,0.1c0.3,0,0.6,0,0.7,0c-0.2,0-0.5,0-0.8-0.1
	c6.6-0.2,21.1,0.2,20.4,0.5c-1.5,0-3,0-4.4,0c-2.2,0-4.1,0.3-4.1,0.3c5.9,0,11.4,0.4,17,0.4C647.1,19.5,647.1,19.5,647.1,19.5z
	 M671.1,19.6c-8.5,0-16.6-0.4-18.5-0.4c-4.1-0.4-4.8,0-4.4,0.3c4.8,0.4,9.2,0.4,13.7,0.4c0.7,0,1.8,0,2.6,0
	C665.9,19.9,668.2,19.5,671.1,19.6z M661.9,18.5c1.5,0.4,1.8,0.4,1.5,0C662.6,18.5,662.2,18.5,661.9,18.5l-0.7,0
	C660.4,18.5,661.1,18.8,661.9,18.5z M669.3,19.2c0.7,0,0.7-0.3,0.4-0.3c-0.4,0-0.7,0-1.1,0C668.2,18.9,668.5,18.9,669.3,19.2z
	 M769.3,23.2c-0.7-0.3-1.1-0.3-1.5,0L769.3,23.2z M808.1,20.2c6.2-0.3,8.8-0.3,12-0.7c-2.4,0-4.7,0-6.8,0.3c-3.7,0-12.2,0-19.2,0
	c-1.5,0-3,0-4.4,0c5.2,0,10.3,0.4,16.2,0.4C806.6,20.2,807.3,20.2,808.1,20.2z M720.2,13.1c-0.7,0.3,4.4,0.4,18.5,0.7
	c17.7,0.4,22.2,0.4,33.2,0.1c2.1,0,9.6,0,17.4,0c-0.4,0.3,0,0.3,0.7,0.3c0.7,0,0.7,0,0.4-0.3c12.2,0.4,30.6,0.4,34.3,0.4
	c0.4,0,2.6-0.3,5.2-0.3c2.6-0.3,4.8-0.3,5.2-0.3c0.4,0,0.7-0.3,0.7-0.3c1.1,0,1.8,0,3,0c5.2,0,14,0,14.8-0.3c0.7-0.3,0.7,0,6.3-0.3
	c3.3,0,4.4-0.3,5.2-0.7c0.7-0.3,1.1-0.7,1.8-0.3c-2.2,0.7,0.4,0.7,8.5,0c12.6-0.7,18.1-1.4,17.7-1.7c-0.4-0.3-12.2,0-13.7,0.3
	c-1.8,0.3-3.7,0.7-5.9,0.7c-0.4,0-16.2,0.3-18.8,0.3c-1.1,0.3-4.8,0.3-8.1,0.3c-4.8,0.3-6.3,0.3-6.3,0.7c0,0.3,0.4,0.3,1.8,0.4
	c3.7-0.3,7.4-0.3,7,0c-0.7,0.3-11.4,0.7-12.2,0.3c0-0.3,0.4-0.3,1.1-0.3c1.5,0,1.5,0-0.4-0.3c-1.1,0-1.8,0-3,0
	c-1.8,0.3-3.7,0.3-5.5,0.3c-2.6,0-5.9,0.3-7.8,0.3c-1.8,0.3-6.3,0.3-10,0.3c-3.7,0-11.4,0-17.4,0c-9.6,0-13.7,0-31-0.1
	c-3,0-12.9,0-21.8,0c-10-0.4-16.2-0.4-16.6,0c-0.4,0-1.1,0-1.8,0C722.1,12.7,721,12.7,720.2,13.1z M714.3,13.7c1.1,0,1.8,0,1.5-0.3
	c0-0.3,0.4-0.3,1.1-0.3c0.4,0,1.1,0.3,0.7,0.3c-0.4,0.3,0.4,0.3,1.1,0c1.1-0.7,0.4-1-2.6-0.7c-1.5,0-3,0.3-2.6,0.3
	c0.4,0,0,0-0.4,0.3C712.8,13.7,713.2,13.7,714.3,13.7z M678.1,13c17,0.4,20.3,0.4,20.3,0s0-0.3,0.7,0c1.5,0.4,2.6,0.4,4.1,0.4
	c1.8,0,4.4,0,5.9,0c1.8,0,2.2,0,1.8-0.3c-0.7,0-0.7-0.3,0-0.3c0.7-0.3,0-0.3-1.1-0.3c-0.7-0.3-1.5-0.4-2.2,0c-2.6,0.3-5.2,0-7.8,0
	c-5.2-0.4-7.8-0.4-7.8,0c0,0.3-1.5,0.3-1.8,0c0-0.3-0.7-0.3-2.6,0c-2.6,0.3-5.5,0.3-8.1,0.3c-3.3,0-7.8,0-10.3,0
	C665.9,12.6,668.9,12.6,678.1,13z M563.3,11.7c-0.7,0.3-1.5,0.3-2.2,0.3c11.4,0,16.2,0,20.7,0c1.1,0,2.6,0,4.8,0c0.4,0,0.4,0,0.4,0
	c6.3,0,17,0,27.3,0.1c35.8,0.4,49.5,0.5,49.8,0.5c0.4,0-55.4-1.5-60.2-1.5c-0.7,0-5.9,0-13.7,0c-0.7,0-1.8,0-3,0c-3,0-6.6,0-8.1,0
	C575.1,11,566.3,11.3,563.3,11.7z M553.7,4.4c3.3,0.4,6.3,0.4,9.2,0.4c5.9-0.7,8.9-1,8.5-1.4c-0.4-0.3-12.2,0-13.7,0.3
	C556.7,4,555.2,4.4,553.7,4.4z M545.6-1.2c1.8,0,4.1,0,5.9-0.3c0.7-0.3-11.1-0.4-12.2,0.3C538.2-0.9,537.5-0.9,545.6-1.2z
	 M462.5-0.7c6.2,0,11.6,0,14,0c3,0,12.2,0,20.3,0c8.1,0,19.2-0.3,24.4-0.3l9.2-0.3l-19.2-0.4c-4.8,0-8.9,0-12.9,0.3
	C487.3-1,473.2-0.7,462.5-0.7z M427,106.6l2.2,0.4c3.3,0.4,8.9,0.7,14,1.1c0.4,0,1.1,0,1.5,0c8.5,0.4,16.6,0.4,16.2,0
	c-0.4-0.3-4.4-0.7-10-0.7c-7,0-15.9-0.4-18.5-0.7C430.3,106.6,428.8,106.6,427,106.6z M414.5,7.2l0.7,0c17,0,15.5-0.3-3.3-0.7
	c-3.3,0-5.9,0-8.1,0c-0.4,0-1.1,0-1.5,0c-0.4,0-1.1,0-1.8,0c-0.7-0.3-1.8-0.4-2.6,0C397.2,6.8,402,6.8,414.5,7.2z M391.6,6.8
	c1.1,0,1.5,0,1.1-0.3c0-0.3,0.4-0.3,1.1-0.3c0.4,0,1.1,0.3,0.7,0.3c-0.4,0.3,0.4,0.3,1.1,0c1.1-0.3,0.4-0.7-2.2-0.7
	c-1.5,0-2.6,0.3-2.6,0.3c0.4,0,0,0.3-0.4,0.3C390.2,6.8,390.5,6.8,391.6,6.8z M355.8,6.7c17,0.4,20.3,0.4,20.3,0c0-0.3,0-0.3,0.7,0
	c1.5,0.4,2.6,0.4,4.1,0.4c1.8,0,4.4,0,5.9,0c1.8,0,2.2,0,1.8-0.3c-0.7,0-0.7-0.3,0-0.3c0.4-0.3,0-0.3-1.1-0.3
	c-0.7-0.3-1.5-0.4-2.2,0c-2.6,0-5.2,0-7.8,0c-5.2-0.4-7.8-0.4-7.8,0c0,0.3-1.5,0.3-1.8,0c0-0.3-0.7-0.3-2.6,0
	c-2.6,0.3-5.5,0.3-8.1,0.3c-3.3,0-7.8,0-10.3,0C343.6,6.3,346.6,6.3,355.8,6.7z M208.1-7.8l-9.9,0.3c0.2,0,0.5,0,0.7,0L208.1-7.8z
	 M174.5-7.2c3.4,0,7.3,0,11.1-0.1c-5-0.2-9.3-0.2-13.3-0.2l-0.4,0c-3,0-5.2,0-5.5,0l-0.4-0.3c-6.6,0-11.1,0-13.7,0c-1.5,0-4.8,0-7,0
	c-5.9,0-26.2,0.6-27,0.6c1.1,0,2.6,0,3.7,0c10.3,0,27.3,0.1,32.1,0.1C157.2-7.3,166.4-7.2,174.5-7.2z M152.4,3.1
	c0.7,0.3,1.8,0.4,3,0.4c1.1,0,2.2,0,3.3,0c1.1,0,1.1,0,0.7,0.3c1.8,0,3.3,0,4.8,0c0.4,0,5.5,0,12.9,0c0.4,0,1.1,0,1.5,0
	c10.3,0,24,0.4,35.1,0.8c31,0.8,39.1,1.1,46.1,0.8c3.3-0.3,17.7,0,32.1,0.1C327.8,6,341.4,6,341.8,6c0.4,0-55.7-1.5-59.4-1.5
	c-1.1,0-12.9-0.4-26.6-0.4c-21.4,0-25.1-0.1-27.7,0.3c-3,0.3-5.2,0.3-4.4-0.4c0.4-0.3-0.7-0.3-4.1-0.4c-4.1,0-4.8,0-5.5-0.4
	c-0.7-0.7-2.6-0.7-3.3-0.4c-3.3,0-6.3,0-9.6,0c-4.8,0-11.4,0-14,0.3c-3,0.3-11.8,0.3-19.9,0C159.4,3.2,152.8,3.2,152.4,3.1z
	 M151.6,2.8l1.5,0c0.4,0,0.7,0,1.1,0l2.2-0.3l-2.6,0C152.8,2.5,151.6,2.5,151.6,2.8z M148.6,80.6c0.6,0,1.2,0,1.8,0
	C150.1,80.3,149.4,80.6,148.6,80.6z M140.6,3.8c0.3,0,0.6,0,0.7,0c-0.4,0-1.1,0-1.5-0.4C139.5,3.8,139.8,3.8,140.6,3.8z M139.1,11.5
	c1.8,0.4,3.3,0.7,5.2,0.7c0.4,0,0.4,0,0.7,0c0.4-0.3,1.1-0.3,1.5-0.3c-1.5,0-3.3-0.4-4.4-0.4C139.5,11.1,138.7,11.5,139.1,11.5z
	 M132,79.5c-1.1,0-2.2,0-3.3,0.3c0,0,2.2,0.4,4.8,0.4c3,0.4,4.8,0.4,4.8,0C135.7,79.9,133.5,79.5,132,79.5z M135.8,4.2
	c0.7,0,0.7-0.3,0.4-0.3c-0.4-0.3-0.7-0.3-1.1,0C134.7,4.2,135,4.2,135.8,4.2z M131,11.1l2.2-0.3l-2.6,0c-1.1,0-1.8,0-3,0.3
	C127.3,11.4,127.6,11.4,131,11.1z M83.7,21.8c-1.1,0-3-0.4-5.5-0.4c-7-0.4-8.9-0.4-7.8,0c3,0,5.5,0.4,8.5,0.4c0.4,0,0.7,0,1.1,0
	C81.1,21.8,82.6,21.8,83.7,21.8z M97.3,82.2c-3.3-0.4-7-0.4-10.3-0.4c-1.5,0-1.1,0,0,0.3c1.8,0.4,4.1,0.4,6.3,0.4
	C96.2,82.6,98.1,82.6,97.3,82.2z M115.8,79.8c-4.8-0.4-9.2-0.7-13.7-0.4c-1.8,0.3-1.8,0.3,1.1,0.3c1.8,0,5.2,0.4,7,0.4s3.3,0,5.2,0
	C116.9,80.2,116.9,80.2,115.8,79.8z M119.8,79.8c-0.4,0-0.7,0-1.1,0c-0.4,0,0,0,0.7,0.3C120.2,80.2,120.2,79.8,119.8,79.8z
	 M120.6,30.2c-0.5,0-1,0-1.5,0C118.4,30.5,119.1,30.5,120.6,30.2z M105.8,30.5c4.8,0,8.9,0,8.9,0s0,0-0.4-0.3
	c-0.4-0.3-0.7-0.3-1.5-0.4c-0.4,0-0.7,0-1.1,0C108.4,30.1,105.8,30.5,105.8,30.5z M103.2,74.6l-1.8,0.3l2.2,0.4
	c0.7,0.3,1.8,0.4,2.6,0.4c1.5,0,3,0,3.7,0c2.2-0.3,4.1,0,4.1,0c0.7,0,1.5,0,2.2,0c0.7,0,3.3,0,6.3-0.3c-1.1-0.3-3.3-0.4-6.6-0.7
	c-1.5,0-3-0.4-4.4-0.4c0,0.3-0.7,0.3-3,0.3C106.6,74.6,105.1,74.6,103.2,74.6z M92.9,74.2c2.6,0.4,5.2,0.4,8.1,0c-0.1,0-0.2,0-0.4,0
	C98.4,74.2,95.5,74.2,92.9,74.2z M72.2,52.6c-0.4,0-0.7,0-1.1,0c0,0.3,0,0.3,0.7,0.3C72.6,53,72.6,52.6,72.2,52.6z M75.9,52.7
	c-0.4,0-0.7,0-1.1,0c0,0,0.4,0,0.7,0.3C76.3,53,76.3,52.7,75.9,52.7z M69.6,51.6c0,0,1.8,0.4,4.4,0.4c3,0.4,4.8,0.4,4.8,0
	c0,0,0.4-0.3,1.1-0.3c-0.4-0.3-0.7-0.3-1.1-0.3c-0.7,0-1.5,0-2.2,0C73,51.3,69.6,51.6,69.6,51.6z M38.3,54c-3.3-0.4-7-0.4-10.3-0.4
	c-1.5,0-1.5,0,0,0.3c1.8,0.4,4.1,0.4,6.3,0.4C37.2,54.3,38.6,54.3,38.3,54z M60.4,51.6c-0.4,0-0.7,0-1.1,0c-0.4,0.3,0,0.3,0.7,0.3
	C60.8,51.9,60.8,51.6,60.4,51.6z M64.1,51.6c-0.4,0-0.7,0-1.1,0C62.6,51.6,63,51.9,64.1,51.6z M42,46.3c-0.4,0-1.1-0.3-1.5-0.4
	c0-0.3-0.4-0.3-0.4-0.3c-4.4-0.4-8.5-0.4-7.8,0.3c1.1,0.3,2.6,0.7,8.9,0.4L42,46.3z M42,45.6c0.4,0,0.4,0.3,0.7,0.3l5.2,0l-4.8-0.4
	c-0.4,0-0.7,0-1.5-0.4C41.6,45.6,42,45.6,42,45.6z M44.2,47.4c4.4,0.4,8.5,0.7,12.6,0.4c1.1-0.3,4.4-0.3,8.1-0.3
	c-2.2-0.4-4.1-0.7-6.3-0.7c-2.6-0.4-4.8-0.4-6.3-0.4c0,0.3-0.4,0.3-3.3,0.3c-1.8,0-3.3,0-5.2,0L42,47L44.2,47.4z M50.8,51.9
	c1.8,0,3.3,0,5.2,0c1.5,0,1.5,0,0.4-0.3c-4.8-0.4-9.2-0.7-13.7-0.4c-1.8,0.3-1.5,0.3,1.1,0.3C45.7,51.5,49,51.9,50.8,51.9z"/>
</svg>
