<?xml version="1.0" encoding="utf-8"?>
<!-- Generator: Adobe Illustrator 22.1.0, SVG Export Plug-In . SVG Version: 6.00 Build 0)  -->
<svg version="1.1" id="Layer_1" xmlns="http://www.w3.org/2000/svg" xmlns:xlink="http://www.w3.org/1999/xlink" x="0px" y="0px"
	 viewBox="0 0 153.9 30.2" style="enable-background:new 0 0 153.9 30.2;" xml:space="preserve">
<style type="text/css">
	.st0{fill:#FFFFFF;}
</style>
<g>
	<path class="st0" d="M110.1,6.7c0.2,0,0.2,0,0.2,0c0,0,0,0,0,0c0.2,0,0.2,0,0.1-0.1c0,0,0,0,0,0c0,0,0,0-0.1-0.1
		c-0.1,0-0.2,0-0.3,0c-0.1,0,0,0.1,0.1,0.1c0,0,0,0,0,0C110.1,6.6,110.1,6.6,110.1,6.7c0-0.1-0.1-0.1-0.2-0.1
		C109.9,6.7,109.9,6.7,110.1,6.7z"/>
	<path class="st0" d="M110.5,4.2c0.1,0,0.2,0,0.2-0.1c0-0.1-0.1-0.1-0.1-0.1C110.5,4,110.4,4.1,110.5,4.2
		C110.4,4.1,110.4,4.2,110.5,4.2z"/>
	<path class="st0" d="M139.9,17.8c0-0.1-0.1-0.2-0.3-0.2c0,0-0.1,0-0.1-0.1c-0.1,0-0.2,0-0.2,0.1c0,0,0,0,0,0.1c0,0,0,0.1,0,0.1
		C139.3,17.9,139.8,17.9,139.9,17.8z"/>
	<path class="st0" d="M21.2,12.2c-0.1,0-0.2,0-0.3,0c0,0.1,0,0.1,0.2,0.1C21.3,12.3,21.3,12.3,21.2,12.2z"/>
	<path class="st0" d="M13.5,21.6c-0.3,0-0.9,0-1.4-0.1c-0.3,0,0,0,0.7,0.1C13.6,21.7,13.9,21.7,13.5,21.6z"/>
	<path class="st0" d="M13,24.9c0.2,0,0.2-0.1-0.2-0.1c-0.5,0-0.6,0-0.3,0.1C12.7,25,12.8,24.9,13,24.9z"/>
	<path class="st0" d="M109.3,6.8c-0.1,0-0.2,0-0.4,0c0,0,0,0,0-0.1c-0.1-0.1-0.2-0.1-0.3,0c0,0,0.1,0,0.2,0.1c-0.2,0-0.4,0-0.5-0.1
		c0,0,0,0,0,0c-0.1-0.1-0.2-0.1-0.3,0c-0.6,0-1.3,0-1.9,0c-0.8,0.1-0.8,0.1,1.8,0.2C108.3,6.9,108.8,6.9,109.3,6.8z"/>
	<path class="st0" d="M12.7,25.5h0.6c0.6,0,0.5,0-0.5-0.2c-0.6-0.1-1.3-0.2-1.5-0.2c-0.4-0.1-0.7-0.1-1-0.2
		c-0.7-0.3-1.1-0.3-1.1-0.1c0,0.2,1.3,0.6,3.2,0.8c0.7,0.1,1.5,0.2,2.2,0.2c-0.4,0-0.7-0.1-1-0.1L12.7,25.5z"/>
	<path class="st0" d="M0.4,20.9c-0.1,0-0.1-0.1-0.3-0.1C0.2,21,0.3,21,0.4,20.9z"/>
	<path class="st0" d="M2.6,19.4c-0.1,0,0,0.1,0.2,0.1s0.3,0,0.2-0.1C2.9,19.4,2.8,19.4,2.6,19.4z"/>
	<path class="st0" d="M0.9,19.2c0,0.1,0.1,0.1,0.5,0c0.2-0.1,0.2-0.1-0.1-0.1C1.1,19.1,0.9,19.1,0.9,19.2z"/>
	<path class="st0" d="M3.3,19.4c0,0,0.1,0.1,0.2,0.1c0.2,0,0.2,0,0.1-0.1C3.5,19.3,3.4,19.3,3.3,19.4z"/>
	<path class="st0" d="M3.6,18.8c0,0.1,0,0.1,0.1,0.1c0.1,0,0.2,0,0.2-0.1c0,0,0-0.1-0.1-0.1C3.7,18.7,3.6,18.7,3.6,18.8z"/>
	<path class="st0" d="M14,2.9c-0.1-0.1-0.2-0.1-0.3,0c0,0,0,0,0.1,0C14,2.9,14,2.9,14,2.9z"/>
	<path class="st0" d="M10.5,4.3c0,0-0.1-0.1-0.4-0.1c-0.3,0-0.5,0-0.4,0.1C10,4.4,10.2,4.4,10.5,4.3z"/>
	<path class="st0" d="M11,12.5c-0.3-0.1-0.6-0.2-1-0.2l-0.9-0.1l0.6,0.2C10.3,12.5,11.1,12.6,11,12.5z"/>
	<path class="st0" d="M13.1,13.8c-0.1,0-0.2,0-0.3,0c-0.1,0,0,0.1,0.2,0.1S13.3,13.9,13.1,13.8z"/>
	<path class="st0" d="M11.2,13.5c-0.1,0-0.2,0-0.2,0.1c0,0,0.1,0.1,0.2,0.1c0.1,0,0.2-0.1,0.2-0.1S11.3,13.6,11.2,13.5z"/>
	<path class="st0" d="M11.7,11.4c0,0.1,0.1,0.1,0.1,0.2c0.1,0,0.3,0,0.6-0.1l0.5-0.1l-0.6-0.1C12,11.3,11.7,11.3,11.7,11.4z"/>
	<path class="st0" d="M8.5,11.1c0.3,0,0.3-0.1,0.2-0.1c-0.2,0-0.3,0-0.4,0C8.2,11.1,8.3,11.1,8.5,11.1z"/>
	<path class="st0" d="M11,3C10.9,3,11,3.1,11,3C11.1,3.1,11,3.1,11,3z"/>
	<path class="st0" d="M12.2,3.2c-0.5-0.1-0.9-0.1-1.1-0.2c0.2,0.1,0.4,0.2,0.7,0.2C12.3,3.3,12.4,3.3,12.2,3.2z"/>
	<path class="st0" d="M24.6,3.3c0.2,0,0.3,0,0.2-0.1c-0.1,0-0.2,0-0.4,0C24.3,3.2,24.4,3.3,24.6,3.3z"/>
	<path class="st0" d="M24,5.2C24.2,5.2,24.2,5.2,24,5.2c0-0.1-0.1-0.1-0.2-0.1C23.8,5.2,23.8,5.2,24,5.2z"/>
	<path class="st0" d="M26.6,3.2c0.3,0,0.3-0.1,0.2-0.1c-0.1,0-0.3,0-0.4,0C26.3,3.1,26.3,3.2,26.6,3.2z"/>
	<path class="st0" d="M25.6,3.1c-0.1,0-0.2,0-0.3,0c-0.1,0-0.1,0.1,0.1,0.1C25.6,3.2,25.7,3.2,25.6,3.1z"/>
	<path class="st0" d="M23.2,5.2c-0.4-0.1-0.7-0.1-1-0.1c-0.2,0,0,0.1,0.5,0.1C22.9,5.2,23.1,5.2,23.2,5.2z"/>
	<path class="st0" d="M33.1,4.2c-0.3,0-0.9,0-1.5-0.1c-0.5,0-1.1,0-1.6,0.1l-0.1,0c-0.2-0.1-0.7-0.1-1.3-0.1c-0.9-0.1-1.2-0.1-1,0
		c-0.8-0.1-1-0.1-0.6,0c0.7,0.1,1.5,0.1,2.3,0.1c0,0,0,0,0,0c0.2,0,0.3,0,0.5,0l-0.2,0h1.3c0.7,0,1.6,0,2,0
		C33.4,4.3,33.4,4.3,33.1,4.2z"/>
	<path class="st0" d="M19.2,2c-0.1,0,0.3,0.1,0.8,0.1c0.3,0.1,0.5,0.1,0.8,0C20.3,2,19.8,1.9,19.2,2z"/>
	<path class="st0" d="M36.3,4.6c0.1,0,0.5-0.1,1.1-0.1c0.4,0,0.8-0.1,1.1-0.1c0,0,0.1-0.1,0-0.1h0.1h0.7c0,0.1,0,0.1,0.2,0.1
		s0.2,0,0.1-0.1c0.3,0,0.7,0,1,0c0.3,0,0.5,0,0.7,0c0.5,0,0.6,0,0.4-0.1c-0.3,0-0.9,0-1.5-0.1c-0.2,0-0.4,0-0.6,0c0,0-0.1,0-0.1,0
		c-0.5,0-1.1,0-1.6,0.1l-0.6,0.1H38h0.2c-0.2,0-0.7,0.1-1.2,0.1c-0.3,0-0.5,0-0.8,0.1C36.2,4.5,36.2,4.6,36.3,4.6z"/>
	<path class="st0" d="M28.1,2.4c-0.1,0-0.2,0-0.3,0C27.8,2.5,27.8,2.5,28.1,2.4C28.2,2.5,28.2,2.4,28.1,2.4z"/>
	<path class="st0" d="M19.3,5.3c0.2,0,0.3,0,0.2-0.1c-0.1,0-0.3,0-0.4,0C19,5.3,19.1,5.3,19.3,5.3z"/>
	<path class="st0" d="M101.8,8.5c0.1,0,0.2,0,0.1-0.1c-0.1,0-0.2,0-0.3,0C101.5,8.4,101.6,8.5,101.8,8.5z"/>
	<path class="st0" d="M110.1,4.7c0.2,0,0.2,0,0.1-0.1c-0.1,0-0.1,0-0.3,0C109.9,4.7,109.9,4.7,110.1,4.7z"/>
	<path class="st0" d="M111.2,7.3c0.2,0,0.3-0.1,0.2-0.1c-0.2,0-0.3,0-0.4,0C110.8,7.2,110.9,7.3,111.2,7.3z"/>
	<path class="st0" d="M110.1,7.4c0.2,0,0.3,0,0.5-0.1c0.1-0.1,0-0.1-0.2,0C109.8,7.3,109.7,7.4,110.1,7.4z"/>
	<path class="st0" d="M110.5,2.2c0.1,0,0.2,0,0.2-0.1L110.6,2C110.5,2,110.4,2,110.5,2.2C110.4,2.1,110.4,2.2,110.5,2.2z"/>
	<path class="st0" d="M133.5,16.6c0,0,0,0.1,0.1,0.1c0.1,0,0.2,0,0.2-0.1c0,0,0-0.1-0.1-0.1S133.6,16.6,133.5,16.6z"/>
	<path class="st0" d="M139.3,15.8c0,0.1,0.5,0.1,0.6,0c0-0.1-0.2-0.2-0.3-0.2c0,0-0.1-0.1-0.1-0.1c-0.1,0-0.2,0-0.2,0.1
		c0,0,0,0,0,0.1C139.3,15.7,139.3,15.7,139.3,15.8z"/>
	<path class="st0" d="M17,8.2c-0.1-0.1-0.2-0.1-0.3,0C16.7,8.3,16.7,8.3,17,8.2C17.1,8.3,17.1,8.3,17,8.2z"/>
	<path class="st0" d="M60,7.6c0.7,0.1,0.9,0.1,0.6,0c-0.3-0.1-0.8-0.1-1.1-0.1S59.5,7.5,60,7.6z"/>
	<path class="st0" d="M19.2,12.2c-0.2,0-0.1,0.2,0.1,0.2c0.1,0,0.2,0,0.2,0C19.6,12.3,19.4,12.1,19.2,12.2z"/>
	<path class="st0" d="M72.2,7.8c0,0,0,0.1,0.2,0.1c0.2,0,0.2,0,0.1-0.1C72.4,7.7,72.3,7.7,72.2,7.8z"/>
	<path class="st0" d="M61.8,7.6c0.2,0,0.2,0,0.2,0C61.9,7.5,61.8,7.5,61.8,7.6C61.7,7.6,61.8,7.6,61.8,7.6z"/>
	<path class="st0" d="M109.3,4.8c-1.1-0.2-2.2-0.2-3.3-0.1c-0.8,0-0.8,0,1.8,0.2C108.3,4.9,108.8,4.9,109.3,4.8z"/>
	<path class="st0" d="M71.9,8.5c2.8,0,5.3,0.1,7.5,0.1c-2.9,0-6.5-0.1-10.5-0.2C70.2,8.5,71.2,8.5,71.9,8.5z"/>
	<path class="st0" d="M59.1,8.1c3.5,0.1,6.8,0.2,9.9,0.3C66.4,8.3,62.8,8.2,59.1,8.1z"/>
	<path class="st0" d="M80.1,8.6c-0.2,0-0.5,0-0.7,0C79.7,8.6,79.9,8.6,80.1,8.6z"/>
	<path class="st0" d="M4,16.5c0,0.1,0.3,0.1,1,0.2c0.8,0,1,0.1,1.1-0.2c-0.5,0-1.1-0.1-1.4-0.1C4.1,16.4,3.9,16.4,4,16.5z"/>
	<path class="st0" d="M12.7,23.5h0.6c0.6,0,0.5,0-0.5-0.2c-0.6-0.1-1.3-0.2-1.5-0.2c-0.4-0.1-0.7-0.1-1-0.2
		c-0.7-0.3-1.1-0.3-1.1-0.1c0,0.2,1.3,0.6,3.2,0.8c0.7,0.1,1.5,0.2,2.2,0.2c-0.4,0-0.7-0.1-1-0.1L12.7,23.5z"/>
	<path class="st0" d="M80.2,8.6C80.2,8.6,80.1,8.6,80.2,8.6C80.1,8.6,80.2,8.6,80.2,8.6z"/>
	<path class="st0" d="M6.1,16.5c0.1,0,0.2,0,0.3,0c0,0-0.1-0.1-0.3-0.2C6.1,16.5,6.1,16.5,6.1,16.5z"/>
	<path class="st0" d="M92.5,6.6c0.3-0.1,0.3-0.1-0.2-0.1c-0.4,0-0.7,0-1.1,0.1c-0.5,0.1-0.5,0.1,0.2,0.1C91.8,6.7,92.1,6.7,92.5,6.6
		z"/>
	<path class="st0" d="M0.4,19c-0.1,0-0.1-0.1-0.3-0.1C0.2,19,0.3,19.1,0.4,19z"/>
	<path class="st0" d="M2.6,17.4c-0.1,0,0,0.1,0.2,0.1s0.3,0,0.2-0.1C2.9,17.4,2.8,17.4,2.6,17.4z"/>
	<path class="st0" d="M0.9,17.2c0,0.1,0.1,0.1,0.5,0c0.2-0.1,0.2-0.1-0.1-0.1C1.1,17.1,0.9,17.1,0.9,17.2z"/>
	<path class="st0" d="M3.6,17.5c-0.1-0.1-0.2-0.1-0.3,0c0,0,0.1,0,0.2,0.1C3.7,17.6,3.7,17.6,3.6,17.5z"/>
	<path class="st0" d="M3.9,16.9c0,0,0-0.1-0.1-0.1c-0.1,0-0.2,0-0.2,0.1c0,0,0,0,0.1,0.1C3.8,17,3.9,17,3.9,16.9z"/>
	<path class="st0" d="M14,0.9c-0.1-0.1-0.2-0.1-0.3,0c0,0,0,0,0.1,0C14,0.9,14,0.9,14,0.9z"/>
	<path class="st0" d="M10.5,2.3c0,0-0.1,0-0.4-0.1c-0.3,0-0.5,0-0.4,0.1C10,2.4,10.2,2.4,10.5,2.3z"/>
	<path class="st0" d="M11,10.5c-0.3-0.1-0.6-0.2-1-0.2l-0.9-0.1l0.6,0.2C10.3,10.6,11.1,10.6,11,10.5z"/>
	<path class="st0" d="M13,11.9c0.2,0,0.3,0,0.1-0.1c-0.1,0-0.2,0-0.3,0C12.7,11.8,12.8,11.9,13,11.9z"/>
	<path class="st0" d="M11,11.6c0,0,0.1,0.1,0.2,0.1c0.1,0,0.2-0.1,0.2-0.1s-0.1,0-0.2-0.1C11.1,11.5,11,11.5,11,11.6z"/>
	<path class="st0" d="M11.7,9.4c0,0.1,0.1,0.1,0.1,0.2c0.1,0,0.3,0,0.6-0.1l0.5-0.1l-0.6-0.1C12,9.3,11.7,9.3,11.7,9.4z"/>
	<path class="st0" d="M8.5,9.2c0.3,0,0.3-0.1,0.2-0.1C8.5,9,8.4,9,8.3,9.1C8.2,9.2,8.3,9.2,8.5,9.2z"/>
	<path class="st0" d="M13.3,11.1c-0.1,0-0.2,0-0.3,0S13,11.2,13.3,11.1C13.3,11.2,13.4,11.2,13.3,11.1z"/>
	<path class="st0" d="M11,1C10.9,1,11,1,11,1C11.1,1,11,1,11,1z"/>
	<path class="st0" d="M12.2,1.2c-0.5-0.1-0.9-0.1-1.1-0.2c0.2,0.1,0.4,0.2,0.7,0.2C12.3,1.3,12.4,1.3,12.2,1.2z"/>
	<path class="st0" d="M24.6,1.3c0.2,0,0.3,0,0.2-0.1c-0.1-0.1-0.2-0.1-0.4,0C24.3,1.2,24.4,1.3,24.6,1.3z"/>
	<path class="st0" d="M24,3.3C24.2,3.3,24.2,3.3,24,3.3c0-0.2-0.1-0.2-0.2-0.1C23.8,3.3,23.8,3.3,24,3.3z"/>
	<path class="st0" d="M26.6,1.1c0.3,0,0.3-0.1,0.2-0.1c-0.1,0-0.3,0-0.4,0C26.3,1.1,26.3,1.1,26.6,1.1z"/>
	<path class="st0" d="M25.6,1.1c-0.1,0-0.2,0-0.3,0c-0.1,0-0.1,0.1,0.1,0.1C25.6,1.2,25.7,1.2,25.6,1.1z"/>
	<path class="st0" d="M23.2,3.2c-0.4-0.1-0.7-0.1-1-0.1c-0.2,0,0,0.1,0.5,0.1C22.9,3.2,23.1,3.2,23.2,3.2z"/>
	<path class="st0" d="M25.7,3.5c0.1,0,0.3,0,0.5-0.1C26.5,3.4,26.2,3.3,25.7,3.5z"/>
	<path class="st0" d="M32.8,2.4c0.6-0.1,0.6-0.1,0.3-0.1c-0.3,0-0.9,0-1.5-0.1c-0.5,0-1.1,0-1.6,0.1l-0.5,0.1h1.3
		C31.5,2.4,32.4,2.4,32.8,2.4z"/>
	<path class="st0" d="M16.5,3.8c-0.1,0-0.3,0-0.5,0c-0.1,0,0,0.1,0.3,0.1S16.7,3.9,16.5,3.8z"/>
	<path class="st0" d="M20,0.1c0.3,0.1,0.5,0.1,0.8,0c-0.5-0.1-1-0.2-1.6-0.1C19.1,0,19.5,0.1,20,0.1z"/>
	<path class="st0" d="M20.1,4.2c-1-0.1-1.3-0.1-0.9,0c0.7,0.1,1.5,0.1,2.3,0.1C21.5,4.2,20.8,4.2,20.1,4.2z"/>
	<path class="st0" d="M36.3,2.6c0.1,0,0.5-0.1,1.1-0.1c0.4,0,0.8,0,1.1-0.1h0.1h0.7c0.4,0,0.9,0,1.3,0c0.3,0,0.5,0,0.7,0
		c0.5-0.1,0.6-0.1,0.4-0.1c-0.3,0-0.9,0-1.5-0.1c-0.2,0-0.4,0-0.6,0c0,0-0.1,0-0.1,0c-0.5,0-1.1,0-1.6,0.1l-0.5,0.1
		c-0.1,0-0.3,0-0.4,0c-0.2,0-0.4,0-0.5,0c-0.1,0-0.1,0-0.2,0c0,0,0,0,0,0c0,0-0.1,0-0.1,0C36.2,2.5,36.2,2.6,36.3,2.6z"/>
	<path class="st0" d="M28.9,4.7c-0.1,0,0,0.1,0.2,0.1c0.2,0,0.3,0,0.2-0.1C29.2,4.7,29.1,4.7,28.9,4.7z"/>
	<path class="st0" d="M27.8,0.4c0,0.1,0,0.1,0.2,0.1s0.2,0,0.1-0.1C28,0.4,27.9,0.4,27.8,0.4z"/>
	<path class="st0" d="M101.8,6.6c0.1,0,0.2,0,0.1-0.1c-0.1,0-0.2,0-0.3,0C101.5,6.5,101.6,6.6,101.8,6.6z"/>
	<path class="st0" d="M102.5,6.7C102.7,6.7,102.7,6.7,102.5,6.7c0-0.2-0.1-0.2-0.2-0.1C102.3,6.7,102.3,6.7,102.5,6.7z"/>
	<path class="st0" d="M118.1,5.9c0.1,0,0.2,0,0.2-0.1c0-0.1-0.1-0.1-0.1-0.1c-0.1,0-0.2,0-0.2,0.1C118,5.8,118,5.9,118.1,5.9z"/>
	<path class="st0" d="M141.2,20.4c0.1,0,0.2-0.1,0.2-0.1s0-0.1-0.1-0.1C141.2,20.2,141.2,20.3,141.2,20.4
		C141.1,20.3,141.1,20.4,141.2,20.4z"/>
	<path class="st0" d="M147.5,19.5c0-0.1-0.1-0.2-0.3-0.2c0,0-0.1,0-0.1-0.1c-0.1,0-0.2,0-0.2,0.1c0,0,0,0.1,0,0.1c0,0,0,0.1,0,0.1
		C146.9,19.6,147.4,19.6,147.5,19.5z"/>
	<path class="st0" d="M118.6,29.8l0.1,0.1c0,0,0.2,0,0.4-0.1C118.8,29.7,118.7,29.7,118.6,29.8z"/>
	<path class="st0" d="M117.5,29.8c-1.9,0.1-2.6,0.1-2.6,0.2c0,0.2,0.2,0.2,0.3,0.1c0.5-0.1,1.1-0.1,1.6-0.1c0.6,0,1.1,0,1.7-0.1
		C118.6,29.8,118.3,29.8,117.5,29.8z"/>
	<path class="st0" d="M76.6,30.4c0.3,0.1,0.5,0.1,0.8,0c-0.6-0.1-1.2-0.1-1.7-0.1C76,30.4,76.3,30.4,76.6,30.4z"/>
	<path class="st0" d="M48.9,29.4c-0.2,0-0.4,0-0.5,0c-0.1,0,0,0.1,0.3,0.1S49.1,29.4,48.9,29.4z"/>
	<path class="st0" d="M36.6,28.9C36.6,28.9,36.6,28.9,36.6,28.9C36.6,28.9,36.6,28.9,36.6,28.9c-0.3,0-0.5,0-0.7,0
		c-0.1,0,0,0.1,0.4,0.1C36.6,29,36.7,29,36.6,28.9c0.1,0.1,0.1,0.1,0.2,0.1c0.2,0,0.2,0,0.1-0.1C36.8,28.9,36.7,28.9,36.6,28.9z"/>
	<path class="st0" d="M43.7,29.5c-1.4,0-2.6,0-3.9,0L39,29.4l0.6-0.1c0.3,0,0,0-1-0.1c-0.8,0-1.5,0-1.5,0s0.8,0.1,1.7,0.3
		c1.8,0.1,3.5,0.3,5.2,0.2c0.5,0,0.9,0,0.8-0.1C44.4,29.5,44.1,29.4,43.7,29.5z"/>
	<path class="st0" d="M55.2,29.3c0,0.1,0,0.1,0.2,0.1c0.2,0,0.2,0,0.1-0.1C55.4,29.3,55.3,29.3,55.2,29.3z"/>
	<path class="st0" d="M53,29.3c-0.1,0-0.3,0-0.4,0c-0.2,0-0.1,0.1,0.2,0.1C53,29.4,53.1,29.3,53,29.3z"/>
	<path class="st0" d="M57.7,29.3c-0.1,0,0,0.1,0.2,0.1c0.2,0,0.3,0,0.2-0.1C58,29.3,57.9,29.3,57.7,29.3z"/>
	<path class="st0" d="M60.7,29.2c-0.3,0-0.1,0.1,0.4,0.1c0.5,0.1,0.6,0,0.4,0C61.2,29.2,61,29.2,60.7,29.2z"/>
	<path class="st0" d="M59.6,29.3c-0.1,0.1-0.1,0.1,0.2,0.1s0.3-0.1,0.2-0.1C59.8,29.3,59.7,29.3,59.6,29.3z"/>
	<path class="st0" d="M8,22.7c-0.1,0-0.1-0.1-0.3-0.1C7.9,22.7,8,22.8,8,22.7z"/>
	<path class="st0" d="M8.9,20.8c-0.2,0-0.4,0-0.4,0.1c0,0.1,0,0.1,0.2,0.1c0.1,0.1,0.2,0.1,0.2,0c0,0-0.1,0-0.1,0
		C8.9,20.9,8.9,20.9,8.9,20.8C9.2,20.8,9.2,20.8,8.9,20.8z"/>
	<path class="st0" d="M21.6,4.6c-0.1-0.1-0.2-0.1-0.3,0C21.2,4.6,21.3,4.6,21.6,4.6C21.7,4.7,21.7,4.7,21.6,4.6z"/>
	<path class="st0" d="M16.3,12.7c-0.2,0-0.3,0-0.4,0c-0.1,0.1-0.1,0.1,0.2,0.1C16.4,12.8,16.4,12.7,16.3,12.7z"/>
	<path class="st0" d="M18.5,4.7C18.5,4.7,18.5,4.7,18.5,4.7C18.5,4.7,18.5,4.7,18.5,4.7z"/>
	<path class="st0" d="M19.7,4.9c-0.5-0.1-1-0.2-1.2-0.2c0.2,0.1,0.5,0.2,0.8,0.2C19.8,5,19.9,5,19.7,4.9z"/>
	<path class="st0" d="M32.4,4.9c-0.1,0-0.2,0-0.3,0C32,4.9,32,5,32.2,5S32.5,5,32.4,4.9z"/>
	<path class="st0" d="M34.4,4.8c-0.1,0-0.3,0-0.4,0s0,0,0.2,0.1C34.5,4.9,34.5,4.8,34.4,4.8z"/>
	<path class="st0" d="M33,4.9c0.2,0,0.3,0,0.2-0.1C33.1,4.8,33,4.8,33,4.9C32.8,4.9,32.8,4.9,33,4.9z"/>
	<path class="st0" d="M26.7,3.7c0,0,0.4,0.1,0.8,0.1c0.3,0.1,0.5,0.1,0.8,0C27.8,3.7,27.3,3.6,26.7,3.7z"/>
	<path class="st0" d="M35.7,4.3c0.2,0,0.2,0,0.1-0.1c-0.1,0-0.3,0-0.3,0C35.5,4.3,35.5,4.3,35.7,4.3z"/>
	<path class="st0" d="M118.6,4.7C118.8,4.7,118.8,4.7,118.6,4.7c0-0.1-0.1-0.1-0.2-0.1C118.4,4.7,118.4,4.7,118.6,4.7z"/>
	<path class="st0" d="M119.7,7.3c0.2,0,0.3-0.1,0.2-0.1c-0.2,0-0.3,0-0.4,0C119.3,7.2,119.4,7.3,119.7,7.3z"/>
	<path class="st0" d="M119.7,6.5c-0.1-0.1-0.2-0.1-0.3,0c-0.1,0,0,0,0.2,0.1C119.8,6.6,119.8,6.6,119.7,6.5z"/>
	<path class="st0" d="M118.5,7.4c0.2,0,0.3,0,0.5-0.1c0,0,0,0,0,0c0.2,0,0.3-0.1,0.2-0.1c-0.2,0-0.4,0-0.4,0c-0.2,0-0.1,0.1,0,0.1
		c0,0,0,0,0,0C118.2,7.3,118.1,7.4,118.5,7.4z"/>
	<path class="st0" d="M119,2.2c0.1,0,0.2,0,0.2-0.1L119.1,2C119,2,118.9,2,119,2.2C118.9,2.1,118.9,2.2,119,2.2z"/>
	<path class="st0" d="M138.8,17.9c0,0-0.1-0.1-0.3-0.1c-0.1,0-0.2,0-0.2,0.1c0.1,0,0.2,0.1,0.3,0.1C138.7,18,138.8,17.9,138.8,17.9z
		"/>
	<path class="st0" d="M142,16.7c0.1,0,0.2,0,0.2-0.1c0,0,0-0.1-0.1-0.1C142.1,16.5,142,16.6,142,16.7
		C141.9,16.6,141.9,16.7,142,16.7z"/>
	<path class="st0" d="M140.2,15.8c0.1,0,0.2,0,0.2-0.1c0,0-0.1-0.1-0.2-0.2c-0.1,0-0.2,0-0.2,0.1C140,15.7,140.1,15.8,140.2,15.8z"
		/>
	<path class="st0" d="M148.4,15.8c0-0.1-0.3-0.3-0.5-0.2c-0.1,0-0.1,0.1-0.1,0.2C147.8,15.9,148.3,15.9,148.4,15.8z"/>
	<path class="st0" d="M119.3,7.9c0,0.1,0,0.1,0.1,0.2c0.1,0,0.1,0,0.2-0.1c0-0.1,0-0.2-0.1-0.2C119.4,7.8,119.3,7.8,119.3,7.9z"/>
	<path class="st0" d="M77.6,8.8c-0.1,0,0,0.1,0.1,0.1c0.2,0,0.3,0,0.2-0.1C77.8,8.8,77.7,8.8,77.6,8.8z"/>
	<path class="st0" d="M69.4,8.6c-0.1,0-0.2,0-0.3,0c-0.1,0.1,0,0.1,0.1,0.1C69.4,8.7,69.5,8.7,69.4,8.6z"/>
	<path class="st0" d="M80.7,7.8c-0.1,0,0,0,0.2,0.1c0.2,0,0.2,0,0.1-0.1C80.9,7.7,80.8,7.7,80.7,7.8z"/>
	<path class="st0" d="M65.3,8.6c0.5,0.1,0.6,0,0.4,0C65.6,8.6,65.5,8.6,65.3,8.6z"/>
	<path class="st0" d="M22.5,0.9c-0.1-0.1-0.2-0.1-0.3,0C22.1,0.9,22.2,0.9,22.5,0.9C22.6,1,22.6,1,22.5,0.9z"/>
	<path class="st0" d="M20.6,1.2C20,1.1,19.3,1,19.4,1.1c0.3,0.1,0.6,0.1,0.8,0.1C20.7,1.3,20.8,1.3,20.6,1.2z"/>
	<path class="st0" d="M47.9,2.4c0.2,0,0.2,0,0.1-0.1c-0.1,0-0.1,0-0.3,0C47.7,2.4,47.7,2.4,47.9,2.4z"/>
	<path class="st0" d="M33.1,1.3c0.2,0,0.3,0,0.2-0.1c0,0,0,0,0,0c0.1,0,0.1,0,0-0.1c-0.1,0-0.2,0-0.3,0c-0.1,0,0,0,0,0.1
		c0,0-0.1,0-0.1,0C32.8,1.2,32.9,1.3,33.1,1.3z"/>
	<path class="st0" d="M35.1,1.1c0.3,0,0.3-0.1,0.2-0.1c-0.1,0-0.3,0-0.4,0C34.8,1.1,34.9,1.1,35.1,1.1z"/>
	<path class="st0" d="M34,1.1c-0.1,0-0.2,0-0.3,0s0,0,0.1,0.1C34,1.2,34.1,1.2,34,1.1z"/>
	<path class="st0" d="M34.1,3.5c0.2,0,0.3,0,0.5-0.1C34.9,3.4,34.6,3.3,34.1,3.5z"/>
	<path class="st0" d="M24.7,3.9c0.3,0,0.4,0,0.2-0.1c-0.1,0-0.3,0-0.5,0C24.3,3.8,24.4,3.9,24.7,3.9z"/>
	<path class="st0" d="M47,5.8c0.2,0,0.3,0,0.2-0.1c-0.1,0-0.2,0-0.4,0C46.7,5.7,46.8,5.8,47,5.8z"/>
	<path class="st0" d="M37.5,4.8c0.2,0,0.3,0,0.2-0.1c-0.1,0-0.2,0-0.4,0C37.2,4.7,37.3,4.8,37.5,4.8z"/>
	<path class="st0" d="M36.5,0.5c0.2,0,0.2,0,0.1-0.1c-0.1,0-0.2,0-0.3,0C36.3,0.5,36.3,0.5,36.5,0.5z"/>
	<path class="st0" d="M27.8,3.3c0.2,0,0.3,0,0.2-0.1c-0.1,0-0.3,0-0.4,0C27.5,3.3,27.6,3.3,27.8,3.3z"/>
	<path class="st0" d="M110.9,6.7C111.1,6.7,111.1,6.7,110.9,6.7c0.1-0.1,0.1-0.2,0-0.2c0,0,0.1,0,0.2,0.1c0.2,0,0.2,0,0.1-0.1
		c-0.1-0.1-0.2-0.1-0.3,0c-0.1,0,0,0,0,0c0,0-0.1,0-0.2,0.1C110.7,6.7,110.7,6.7,110.9,6.7z"/>
	<path class="st0" d="M117.9,4.7c0.2,0,0.2,0,0.1-0.1c-0.1,0-0.2,0-0.3,0C117.7,4.7,117.7,4.7,117.9,4.7z"/>
	<path class="st0" d="M118.6,6.5c0,0,0,0,0.2,0.1c0.2,0,0.2,0,0.1-0.1C118.8,6.4,118.7,6.4,118.6,6.5z"/>
	<path class="st0" d="M117.8,7.4c0.2,0,0.3,0,0.5-0.1c0.2-0.1,0.1-0.1-0.2,0C117.5,7.3,117.4,7.4,117.8,7.4z"/>
	<path class="st0" d="M118.2,2.2c0.1,0,0.2,0,0.2-0.1c0,0,0-0.1-0.1-0.1s-0.2,0-0.2,0.1C118.1,2.1,118.1,2.2,118.2,2.2z"/>
	<path class="st0" d="M138.1,17.9c0,0-0.1-0.1-0.3-0.1c-0.1,0-0.2,0-0.2,0.1c0.1,0,0.2,0.1,0.3,0.1C138,18,138.1,18,138.1,17.9z"/>
	<path class="st0" d="M141.3,16.7c0.1,0,0.2,0,0.2-0.1c0,0,0-0.1-0.1-0.1C141.4,16.5,141.3,16.6,141.3,16.7
		C141.2,16.6,141.2,16.7,141.3,16.7z"/>
	<path class="st0" d="M147.7,15.8c0-0.1-0.3-0.3-0.5-0.2c-0.1,0-0.1,0.1-0.1,0.2C147.1,15.9,147.6,15.9,147.7,15.8z"/>
	<path class="st0" d="M118.8,8c0-0.1,0-0.2-0.1-0.2c-0.1,0-0.2,0-0.2,0.1c0,0.1,0,0.1,0.1,0.2C118.7,8.1,118.8,8.1,118.8,8z"/>
	<path class="st0" d="M68.4,8.6c-0.1,0.1,0,0.1,0.1,0.1c0.2,0,0.3,0,0.2-0.1C68.6,8.6,68.5,8.6,68.4,8.6z"/>
	<path class="st0" d="M80.1,7.8c0.2,0,0.2,0,0.2,0C80.2,7.7,80.1,7.7,80.1,7.8C80,7.8,80.1,7.8,80.1,7.8z"/>
	<path class="st0" d="M116.1,4.9c0,0,0.1,0,0.1,0c0.5,0,1,0,1.5-0.1c-0.8-0.1-1.5-0.2-2.3-0.2c-0.6,0-1.2,0-1.7,0.1
		c-0.7,0-0.8,0,1.8,0.2C115.7,4.9,115.9,4.9,116.1,4.9z"/>
	<path class="st0" d="M99.3,6.7c0.1,0,0.2,0,0.5,0c0.2,0,0.3,0,0.4,0c0,0,0,0,0,0c-0.1,0,0,0,0.2,0.1c0.2,0,0.2,0,0.1-0.1
		c0,0,0,0-0.1,0c0.1,0,0.3,0,0.5-0.1c0.4-0.1,0.3-0.1-0.2-0.1c-0.1,0-0.2,0-0.3,0c-0.1,0-0.2,0-0.4,0c-0.4,0-0.7,0-1.1,0.1
		c-0.5,0.1-0.5,0.1,0.2,0.1C99.2,6.7,99.2,6.7,99.3,6.7z"/>
	<path class="st0" d="M21.7,0.9c-0.1-0.1-0.2-0.1-0.3,0c0,0,0.1,0,0.2,0.1C21.8,1,21.8,1,21.7,0.9z"/>
	<path class="st0" d="M18.3,2.3c0.3,0.1,0.5,0.1,0.8,0c0,0-0.1,0-0.4,0C18.3,2.2,18.1,2.3,18.3,2.3c-0.1,0-0.2,0-0.4,0
		c-0.3-0.1-0.5,0-0.4,0C17.8,2.4,18,2.4,18.3,2.3z"/>
	<path class="st0" d="M19.5,1.2c0.5,0.1,0.6,0.1,0.4,0c-0.6-0.1-1.3-0.2-1.2-0.1C19,1.2,19.3,1.2,19.5,1.2z"/>
	<path class="st0" d="M32.6,1.2c-0.1-0.1-0.2-0.1-0.3,0c-0.1,0-0.1,0.1,0.1,0.1C32.6,1.3,32.7,1.3,32.6,1.2z"/>
	<path class="st0" d="M34.4,1.1c0.3,0,0.3-0.1,0.2-0.1c-0.1,0-0.3,0-0.4,0C34.1,1.1,34.2,1.1,34.4,1.1z"/>
	<path class="st0" d="M30.4,3.2c0.2,0,0.4,0,0.5,0c0,0-0.1,0-0.1,0c0.1,0,0.2,0,0.3,0c0.2,0,0.3,0,0.4,0c0,0.1,0,0.1,0.2,0.1
		c0.2,0,0.2,0,0.1-0.1c0-0.1-0.1-0.1-0.3,0c-0.4-0.1-0.6-0.1-0.9-0.1c-0.1,0-0.1,0,0,0.1c-0.3,0-0.5-0.1-0.7-0.1
		C29.7,3.1,29.9,3.2,30.4,3.2z"/>
	<path class="st0" d="M33.4,3.5c0.2,0,0.3,0,0.5-0.1C34.2,3.4,33.9,3.3,33.4,3.5z"/>
	<path class="st0" d="M24.2,3.8c-0.1,0-0.3,0-0.5,0c-0.1,0,0,0.1,0.3,0.1S24.4,3.9,24.2,3.8z"/>
	<path class="st0" d="M28.5,0.1c0.3,0.1,0.5,0.1,0.8,0C28.8,0,28.3-0.1,27.8,0c-0.3,0-0.6,0-0.9,0c0,0,0.3,0.1,0.8,0.1
		C28,0.2,28.2,0.2,28.5,0.1z"/>
	<path class="st0" d="M44.1,2.6c0.1,0,0.3,0,0.6-0.1c0,0,0,0.1,0.1,0.1c0.1,0,0.5-0.1,1.1-0.1c0.4,0,0.8,0,1.1-0.1c0,0,0,0,0,0
		c0,0,0.1,0,0.2,0c0.2,0,0.2,0,0.1-0.1c-0.1,0-0.1,0-0.2,0c0,0-0.1-0.1-0.3,0c-0.1,0-0.2,0-0.4,0c0-0.1,0-0.1-0.3,0
		c-0.2,0-0.7,0.1-1.2,0.1c-0.3,0-0.5,0-0.8,0.1C44,2.5,44,2.6,44.1,2.6z"/>
	<path class="st0" d="M36.8,4.8c0.2,0,0.3,0,0.2-0.1c-0.1,0-0.2,0-0.4,0C36.5,4.7,36.6,4.8,36.8,4.8z"/>
	<path class="st0" d="M35.8,0.5C36,0.5,36,0.5,35.8,0.5c0-0.1-0.1-0.1-0.2-0.1C35.6,0.5,35.6,0.5,35.8,0.5z"/>
	<path class="st0" d="M27.1,3.3c0.2,0,0.3,0,0.2-0.1c-0.1,0-0.3,0-0.4,0C26.8,3.3,26.9,3.3,27.1,3.3z"/>
	<path class="st0" d="M109.5,6.6c0.2,0,0.2,0,0.1-0.1c-0.1,0-0.2,0-0.3,0S109.3,6.6,109.5,6.6z"/>
	<path class="st0" d="M118.6,6.7C118.8,6.7,118.8,6.7,118.6,6.7c0-0.1-0.1-0.1-0.2-0.1C118.4,6.7,118.4,6.7,118.6,6.7z"/>
	<path class="st0" d="M119,4.2c0.1,0,0.2,0,0.2-0.1c0-0.1-0.1-0.1-0.1-0.1C119,4,118.9,4.1,119,4.2C118.9,4.1,118.9,4.2,119,4.2z"/>
	<path class="st0" d="M142,18.7c0.1,0,0.2,0,0.2-0.1c0,0,0-0.1-0.1-0.1C142.1,18.5,142,18.5,142,18.7
		C141.9,18.6,141.9,18.7,142,18.7z"/>
	<path class="st0" d="M140.2,17.8c0.1,0,0.2,0,0.2-0.1s-0.1-0.1-0.2-0.2c-0.1,0-0.2,0-0.2,0.1C140,17.7,140.1,17.8,140.2,17.8z"/>
	<path class="st0" d="M148.4,17.8c0-0.1-0.3-0.3-0.5-0.2c-0.1,0-0.1,0.1-0.1,0.2C147.8,17.9,148.3,17.9,148.4,17.8z"/>
	<path class="st0" d="M22.5,2.9c-0.1-0.1-0.2-0.1-0.3,0C22.1,2.9,22.2,2.9,22.5,2.9C22.6,3,22.6,3,22.5,2.9z"/>
	<path class="st0" d="M19.4,3.1c0.3,0.1,0.6,0.1,0.8,0.1c0.5,0.1,0.6,0.1,0.4,0C20,3.1,19.3,3,19.4,3.1z"/>
	<path class="st0" d="M47.9,4.4c0.2,0,0.2,0,0.1-0.1c-0.1,0-0.1,0-0.3,0C47.7,4.4,47.7,4.4,47.9,4.4z"/>
	<path class="st0" d="M33.1,3.3c0.2,0,0.3,0,0.2-0.1C33.2,3.2,33.2,3.2,33.1,3.3C33,3.2,33,3.2,32.9,3.2C32.8,3.2,32.9,3.3,33.1,3.3
		z"/>
	<path class="st0" d="M32.5,5.2c0.2,0,0.2,0,0.1-0.1c-0.1,0-0.2,0-0.3,0C32.3,5.2,32.3,5.2,32.5,5.2z"/>
	<path class="st0" d="M35.3,3.1c-0.1,0-0.3,0-0.4,0c-0.1,0,0,0,0.2,0.1C35.4,3.2,35.4,3.1,35.3,3.1z"/>
	<path class="st0" d="M33.8,3.2c0.2,0,0.3,0,0.2-0.1C33.9,3.1,33.8,3.1,33.8,3.2C33.6,3.1,33.7,3.2,33.8,3.2z"/>
	<path class="st0" d="M27.8,5.3c0.2,0,0.3,0,0.2-0.1c-0.1,0-0.3,0-0.4,0C27.5,5.3,27.6,5.3,27.8,5.3z"/>
	<path class="st0" d="M117.9,6.7c0.2,0,0.2,0,0.1-0.1c-0.1,0-0.2,0-0.3,0C117.7,6.7,117.7,6.7,117.9,6.7z"/>
	<path class="st0" d="M118.2,4.2c0.1,0,0.2,0,0.2-0.1c0-0.1,0-0.1-0.1-0.1s-0.2,0.1-0.2,0.1S118.1,4.2,118.2,4.2z"/>
	<path class="st0" d="M141.3,18.7c0.1,0,0.2,0,0.2-0.1c0,0,0-0.1-0.1-0.1C141.4,18.5,141.3,18.5,141.3,18.7
		C141.2,18.6,141.2,18.7,141.3,18.7z"/>
	<path class="st0" d="M147.7,17.8c0-0.1-0.3-0.3-0.5-0.2c-0.1,0-0.1,0.1-0.1,0.2C147.1,17.9,147.6,17.9,147.7,17.8z"/>
	<path class="st0" d="M116,6.9c0.1,0,0.1,0,0.2,0c0.5,0,1,0,1.5-0.1c-0.8-0.1-1.5-0.2-2.3-0.2c-0.6,0-1.2,0-1.7,0.1
		c-0.7,0.1-0.8,0.1,1.8,0.2C115.7,6.9,115.8,6.9,116,6.9z"/>
	<path class="st0" d="M8.2,20.9c-0.1,0-0.1-0.1-0.3-0.1C8,21,8.1,21,8.2,20.9z"/>
	<path class="st0" d="M21.7,2.9c-0.1-0.1-0.2-0.1-0.3,0c0,0,0.1,0,0.2,0.1C21.8,3,21.8,3,21.7,2.9z"/>
	<path class="st0" d="M18.3,4.4c0.3,0.1,0.5,0.1,0.8,0c0,0-0.1-0.1-0.4,0C18.4,4.3,18.3,4.3,18.3,4.4c-0.1-0.1-0.2-0.1-0.4,0
		c-0.3-0.1-0.5,0-0.4,0C17.8,4.4,18,4.4,18.3,4.4z"/>
	<path class="st0" d="M16.8,12.2l0.6,0.2c0.6,0.1,1.5,0.2,1.3,0.1c0,0-0.1,0-0.1,0c0.5,0.1,1,0.1,0.8,0c-0.3-0.1-0.6-0.2-1-0.2
		l-0.9-0.1l0.4,0.1c-0.1,0-0.1,0-0.2,0L16.8,12.2z"/>
	<path class="st0" d="M18.7,3.1c0.1,0,0.3,0.1,0.4,0.1c-0.1,0.1,0,0.1,0.2,0.1c0.2,0,0.2,0,0.2,0c0.5,0.1,0.6,0.1,0.4,0
		C19.3,3.1,18.6,3,18.7,3.1z"/>
	<path class="st0" d="M32.4,3.3c0.2,0,0.2,0,0.2,0c0.1,0,0,0,0-0.1c-0.1-0.1-0.2-0.1-0.3,0C32.3,3.2,32.3,3.2,32.4,3.3
		C32.3,3.2,32.3,3.2,32.4,3.3C32.2,3.2,32.2,3.3,32.4,3.3z"/>
	<path class="st0" d="M31.8,5.1c0,0-0.1,0-0.3,0c0,0,0,0.1,0,0.1c-0.4-0.1-0.6-0.1-0.9-0.1c-0.1,0-0.1,0,0,0.1
		c-0.3,0-0.5-0.1-0.7-0.1c-0.2,0,0,0.1,0.5,0.1c0.2,0,0.4,0,0.5,0c0,0-0.1,0-0.1,0c0.1,0,0.2,0,0.3,0c0.2,0,0.4,0,0.5,0c0,0,0,0,0,0
		C31.6,5.2,31.7,5.2,31.8,5.1C31.9,5.2,31.9,5.2,31.8,5.1z"/>
	<path class="st0" d="M34.6,3.1c-0.1,0-0.3,0-0.4,0c-0.1,0,0,0,0.2,0.1C34.7,3.2,34.7,3.1,34.6,3.1z"/>
	<path class="st0" d="M33.3,3.1c-0.1,0-0.2,0-0.3,0c-0.1,0,0,0.1,0.1,0.1C33.3,3.2,33.4,3.2,33.3,3.1z"/>
	<path class="st0" d="M28.5,2.2c0.3,0.1,0.5,0.1,0.8,0C28.8,2.1,28.3,2,27.8,2c-0.3,0-0.6,0-0.9,0c0,0,0.3,0.1,0.8,0.1
		C28,2.2,28.2,2.2,28.5,2.2z"/>
	<path class="st0" d="M44.1,4.6c0.1,0,0.3,0,0.6-0.1c0,0,0,0.1,0.1,0.1c0.1,0,0.5-0.1,1.1-0.1c0.4,0,0.8-0.1,1.1-0.1c0,0,0,0,0,0
		c0,0,0.1,0,0.2,0c0.2,0,0.2,0,0.1-0.1c-0.1,0-0.1,0-0.2,0c0,0-0.1-0.1-0.3,0c-0.1,0-0.2,0-0.4,0c0-0.1,0-0.1-0.3,0
		c-0.2,0-0.7,0.1-1.2,0.1c-0.3,0-0.5,0-0.8,0.1C44,4.5,44,4.6,44.1,4.6z"/>
	<path class="st0" d="M35.8,2.5C36,2.5,36,2.4,35.8,2.5c0-0.1-0.1-0.1-0.2-0.1C35.6,2.5,35.6,2.5,35.8,2.5z"/>
	<path class="st0" d="M27.1,5.3c0.2,0,0.3,0,0.2-0.1c-0.1,0-0.3,0-0.4,0C26.8,5.3,26.9,5.3,27.1,5.3z"/>
	<path class="st0" d="M131.5,16c-0.2,0.1-0.1,0.2,0.2,0.2c0,0,0,0,0.1,0c0.1,0,0.2,0,0.2,0c0.2,0,0.5,0,0.7,0.1
		c0.7,0.1,4.1,0.3,3.7,0.2c-0.5-0.1-1-0.1-1.6-0.2c-0.5,0-1-0.1-1.5-0.2C132.7,16,132.1,16,131.5,16z"/>
	<path class="st0" d="M131.3,16.6c0.3,0,0.4,0,0.3-0.1c-0.2,0-0.3,0-0.5,0S131,16.6,131.3,16.6z"/>
	<path class="st0" d="M125.5,8.4C125.6,8.4,125.7,8.4,125.5,8.4c0-0.1-0.1-0.1-0.2-0.1C125.3,8.4,125.4,8.4,125.5,8.4z"/>
	<path class="st0" d="M126.5,10.2c-0.1-0.1-0.2-0.1-0.3,0c0,0,0.1,0,0.2,0.1C126.6,10.3,126.6,10.3,126.5,10.2z"/>
	<path class="st0" d="M125.9,5.9c0.1,0,0.2,0,0.2-0.1c0-0.1-0.1-0.1-0.1-0.1c-0.1,0-0.2,0-0.2,0.1C125.8,5.8,125.8,5.9,125.9,5.9z"
		/>
	<path class="st0" d="M145.7,21.6c0,0-0.1-0.1-0.3-0.1c-0.1,0-0.2,0-0.2,0.1c0.1,0,0.2,0.1,0.3,0.1S145.7,21.7,145.7,21.6z"/>
	<path class="st0" d="M149,20.2l-0.2,0.1c0,0,0,0.1,0.1,0.1c0.1,0,0.2-0.1,0.2-0.1S149.1,20.2,149,20.2z"/>
	<path class="st0" d="M154.8,19.3c-0.1,0-0.2,0.1-0.1,0.2c0,0.1,0.5,0.1,0.6,0C155.3,19.4,155,19.2,154.8,19.3z"/>
	<path class="st0" d="M126.3,29.8L126.3,29.8c0.1,0.1,0.3,0.1,0.5,0C126.6,29.7,126.4,29.8,126.3,29.8z"/>
	<path class="st0" d="M125.3,29.8c-1.9,0.1-2.6,0.1-2.6,0.2c0,0.2,0.2,0.2,0.3,0.1c0.5-0.1,1.1-0.1,1.6-0.1c0.6,0,1.1,0,1.7-0.1
		C126.4,29.8,126.1,29.8,125.3,29.8z"/>
	<path class="st0" d="M125.4,29c-0.1,0-0.3,0-0.4,0.1c-0.2,0.1-0.2,0.1,0,0.1S125.3,29.1,125.4,29C125.6,29,125.6,29,125.4,29z"/>
	<path class="st0" d="M84.3,30.4c0.3,0.1,0.5,0.1,0.8,0c-0.5-0.1-1.1-0.1-1.7-0.1C83.7,30.4,84,30.4,84.3,30.4z"/>
	<path class="st0" d="M56.2,29.4c-0.1,0,0,0.1,0.3,0.1s0.4-0.1,0.2-0.1C56.5,29.4,56.3,29.4,56.2,29.4z"/>
	<path class="st0" d="M53.2,29.4c-0.6,0.1-0.6,0.1-0.2,0.1c0.2,0,0.8,0,1.3,0h0.9l-0.8-0.1C54,29.4,53.6,29.4,53.2,29.4z"/>
	<path class="st0" d="M51.4,29.5c-0.9,0-1.8,0-2.7,0c-0.4,0-0.8,0-1.2,0l-0.8-0.1l0.6-0.1c0.3,0,0,0-1-0.1c-0.8,0-1.5,0-1.5,0
		s0.6,0.1,1.3,0.2c-0.2,0-0.4,0-0.6,0.1c-0.6,0.1-0.6,0.1-0.2,0.1c0.2,0,0.8,0,1.3,0l0.5-0.1c1.6,0.1,3.1,0.2,4.6,0.2
		c0.5,0,0.9,0,0.8-0.1C52.1,29.5,51.8,29.4,51.4,29.5z"/>
	<path class="st0" d="M62.9,29.3c0,0.1,0,0.1,0.2,0.1c0.1,0,0.2,0,0.1-0.1C63.1,29.3,63,29.3,62.9,29.3z"/>
	<path class="st0" d="M60.4,29.3c-0.2,0-0.1,0.1,0.2,0.1c0.2,0,0.3-0.1,0.2-0.1C60.6,29.3,60.5,29.3,60.4,29.3z"/>
	<path class="st0" d="M44.4,29C44.5,29,44.5,29,44.4,29c0.3,0,0.3,0,0.2-0.1c-0.1,0-0.2,0-0.3,0c-0.2,0-0.4,0-0.6,0
		c-0.1,0,0,0.1,0.4,0.1C44.3,29,44.4,29,44.4,29z"/>
	<path class="st0" d="M65.5,29.3c-0.1,0,0,0.1,0.2,0.1c0.2,0,0.3,0,0.2-0.1C65.8,29.3,65.6,29.3,65.5,29.3z"/>
	<path class="st0" d="M68.4,29.2c-0.3,0-0.1,0.1,0.4,0.1c0.5,0.1,0.6,0,0.4,0C69,29.2,68.7,29.2,68.4,29.2z"/>
	<path class="st0" d="M67.3,29.3c-0.1,0.1,0,0.1,0.2,0.1c0.3,0,0.3-0.1,0.2-0.1C67.6,29.3,67.5,29.3,67.3,29.3z"/>
	<path class="st0" d="M144.3,24.1c0,0,0.2-0.1,0.5,0l0.4-0.1h-0.5C144.5,24,144.2,24,144.3,24.1z"/>
	<path class="st0" d="M147.8,26.1c0.3,0,0.4-0.1,0.4-0.1s-0.5,0-1-0.1c-0.5,0-1-0.1-1.5-0.2c-0.6-0.1-1.1-0.2-1.7-0.2
		c-0.5,0-0.9-0.1-1.4-0.2l-0.3-0.1l0.4-0.1c0.2,0,0.5-0.1,0.7-0.1c0.2,0,0.4-0.1,0.7-0.2c0.4-0.1,0.4-0.2,0.1-0.1
		c-2,0.2-2.4,0.2-2.5,0c-0.1-0.2,0.6-0.4,1.5-0.4c0.4,0,0.7,0,1-0.1c-1.2-0.2-2.3-0.2-3.4-0.1c-0.6,0.1-0.9,0-0.9-0.3
		c0.4-0.1,0.7-0.1,0.7-0.2c0-0.1-0.2,0-0.7,0.1c0-0.1,0.1-0.1,0.2-0.1c0.2-0.1,4,0,5.7,0.1c0.2,0,0.4,0,0.6-0.1
		c0-0.2-0.8-0.3-1.7-0.4c-1,0-1.2-0.1-0.6-0.3c0.8-0.1,1.7-0.1,2.5,0.1c1.1,0.3,1,0.1-0.2-0.2c-0.9-0.3-1.9-0.3-2.8-0.1
		c-0.8,0.2-1.6,0.2-2.4,0.3c-0.7,0-0.7-0.1-0.2-0.3c0.3,0,0.4-0.1,0.4-0.1s-0.5,0-1-0.1c-0.4,0-0.9-0.1-1.3-0.2c0.2,0,0.3,0,0.5-0.1
		c0-0.2-0.8-0.3-1.7-0.4c-0.1,0-0.1,0-0.2,0c0,0,0,0,0-0.1c0.5-0.1,1-0.1,1.4-0.2c0.1,0,0.1,0,0.2,0c0.8,0.2,1,0.2,0.5,0
		c0,0,0,0,0,0c0.9,0.2,1,0.2,0.4,0c0.1,0,0.3,0,0.4,0c0.5,0,1.1-0.1,1.6-0.4c0.1-0.1,0.3-0.1,0.5-0.2l0.5-0.1l-0.4-0.1
		c-0.2-0.1-0.4-0.1-0.7,0c-0.4,0-0.9,0.1-1.4,0.1c-0.3,0-0.7,0-1.1,0.1c-0.4,0.1-0.7,0.1-1.1-0.1c-0.2-0.1-0.2-0.1,0.3-0.2
		c0.3,0,0.5-0.1,0.5-0.1c-0.6,0-1.1,0.1-1.7,0.3c-0.2,0-0.3,0.1-0.5,0.1c-0.1,0-0.5,0.1-0.8,0.1c-0.4,0-0.6,0-0.5-0.1
		c0,0,0.1,0,0.1,0c0.2,0,0.3,0,0.5,0c0.4,0,0.7,0,1-0.1c-0.8-0.1-1.6-0.2-2.3-0.2c-0.6,0-1.2,0-1.7,0.1c-0.1,0-0.1-0.1-0.1-0.1
		c1,0,2-0.1,3-0.2c0.2,0,0.3,0,0.5,0c0,0,0,0,0,0.1c0,0,0.2,0,0.4,0l0.3-0.1c0,0,0,0,0,0.1c0,0,0.2,0,0.4,0l0.5-0.1h0
		c0.1,0,0.2,0,0.3,0c0.1,0,0.3,0,0.4,0c0.2,0,0.4,0,0.6-0.1c0-0.1-0.3-0.2-0.8-0.3c0.1,0,0.1,0,0.2,0c0.2,0,0.3-0.1,0.3-0.1
		c0,0,0.1,0,0.1,0c0.2,0,0.2,0,0.1-0.1c0.5,0.1,0.4,0-0.2-0.2c0.2,0,0.4,0.1,0.5,0.1c1.1,0.3,1,0.1-0.2-0.2c0,0-0.1,0-0.1,0
		c0-0.1-0.1-0.1-0.1-0.1c0.2-0.1,0.3-0.1,0.7,0c0.2,0.1,0.5,0.2,0.7,0.3c0.1,0.2,0.2,0.2,0.2,0.1c0-0.2-0.7-0.5-1.3-0.7
		c-2-0.2-4-0.3-5.9-0.3c0,0,0,0,0,0c0,0,0-0.1-0.1-0.1s-0.1,0-0.2,0.1c0,0,0,0,0,0c-0.3,0-0.6,0-0.9,0c-0.2,0-0.8,0-1.4,0.1
		c-0.2-0.1-0.3-0.2-0.3-0.3c0.5-0.1,1-0.1,1.5-0.2c0.2,0,0.4,0,0.6,0c0.3,0.1,0.6,0,0.9,0c0.5,0,1.1-0.1,1.6-0.4
		c0.1-0.1,0.3-0.1,0.5-0.2l0.5-0.1l-0.4-0.1c-0.2-0.1-0.4-0.1-0.7,0c0,0,0,0,0,0l0,0c-0.2-0.1-0.4-0.1-0.7,0c-0.2,0-0.5,0-0.8,0.1
		c-0.2-0.1-0.5-0.3-0.8-0.4c0.1-0.1,0.3-0.1,0.4-0.2c0.3-0.2,0.3-0.2,0-0.1c-0.3,0.1-0.6,0.1-0.9,0.2c-1.7-0.1-3.3-0.3-5-0.3
		c0,0,0,0-0.1,0c-0.1,0-0.1,0-0.1,0c-0.2,0-0.3,0-0.5,0c0,0,0,0,0,0c0,0,0,0,0,0c-0.1,0-0.1,0-0.1,0c-0.1,0-0.2,0-0.4,0
		c0.4-0.1,0.8-0.1,1.2-0.2c0.7,0,1.3,0.1,1.1,0c0,0-0.1,0-0.1,0c0,0,0.1,0,0-0.1c0,0,0.1,0,0.3,0s0.4,0,0.4,0s0-0.1,0.1-0.1
		c0.4,0,0.8-0.1,1.2-0.1c0.6,0,0.8-0.1,0.9-0.2c0.1-0.1,0.3-0.2,0.5-0.2c0.4-0.1,0.4-0.1,0.2-0.3c-0.2-0.1-0.1-0.1,0-0.2
		c0,0,0.1,0,0.2,0c0.2,0.1,0.5,0.2,0.7,0.3c0.1,0.2,0.2,0.2,0.2,0.1c0-0.1-0.3-0.3-0.7-0.5c0.1,0,0.1,0,0.2-0.1
		c0.1,0,0.2,0.1,0.3,0.1c0.2,0.1,0.5,0.2,0.7,0.3c0.1,0.2,0.2,0.2,0.2,0.1c0-0.2-0.5-0.4-1-0.6c0.1,0,0.3,0,0.5,0
		c0.3,0,0.5,0,0.8-0.1c0.1,0,0-0.1-0.4-0.1c-0.6,0-0.6-0.1-0.5-0.3c0-0.1,0-0.3-0.3-0.2c-0.5-0.4-0.7-0.4-1.5-0.3
		c-1.3,0.1-2.8,0.2-4.2,0.2c-0.3,0-0.6,0-0.9,0c0.1,0,0.1,0,0.2-0.1c0.3-0.2,0.3-0.2,0-0.1c-0.3,0.1-0.7,0.1-1,0.2
		c0-0.1-0.1-0.1-0.2-0.2c0,0,0,0,0,0c1-0.1,1.9-0.3,2.5-0.4c0.3-0.1,0.7-0.2,1.1-0.2c0.2,0,0.3,0,0.4-0.1c0.1-0.1,0.2-0.1,0.4-0.1
		s0.3-0.1,0.3-0.2c0-0.1,0.1-0.2,0.5-0.2c0.2,0-0.1,0-0.7-0.1c-0.4-0.1-0.8-0.2-1.3-0.1c-0.1,0-0.2,0-0.4,0.1c-0.1,0-0.2,0-0.3,0
		c-0.5,0-0.9-0.1-1.4-0.2c0-0.2,0.2-0.2,0.8-0.2c0.2,0,0.5,0,0.7-0.1c0-0.1-0.1-0.1-0.2-0.1c-0.1,0-0.1,0,0.1-0.1l0.3-0.1l-0.4,0.1
		c-0.3,0.1-0.8,0.1-1.3,0.1c-0.6,0-1.1,0-2.2,0c0.1,0,0.3-0.1,0.4-0.1c0.3,0,0.5-0.1,0.8-0.2c0,0,0.1,0,0.1,0c0.2,0,0.3,0,0.5,0
		c0,0,0,0,0,0c0,0.1,0,0.1,0.1,0.2c0.1,0,0.1-0.1,0.2-0.1c0-0.1,0-0.1,0-0.2c0,0,0,0,0,0c0.1,0,0-0.1-0.2-0.1c0.1,0,0.2,0,0.3,0
		c0.3,0,0.5,0,0.8-0.1c0.1,0,0-0.1-0.4-0.1c-0.5,0-0.6-0.1-0.5-0.2c0,0,0.1,0,0.1,0c0.2,0,0.3-0.1,0.2-0.1c-0.1-0.1-0.2-0.1-0.3,0
		c0-0.1,0-0.2-0.2-0.3c-0.5-0.4-0.7-0.4-1.5-0.3c-1.3,0.1-2.8,0.2-4.2,0.2c-0.1,0-0.2,0-0.2,0c0,0,0,0,0,0c0.1,0,0.2,0,0.3,0
		c0.2,0,0.5,0,0.7-0.1c0-0.1-0.1-0.1-0.2-0.1c-0.1,0-0.1,0,0.1-0.1l0.3-0.1l-0.4,0.1c-0.2,0.1-0.4,0.1-0.6,0.1l0.3-0.2l-0.4,0.1
		c-0.2,0.1-0.6,0.1-1,0.1c0.3-0.1,0.6-0.1,0.9-0.1c0.1,0,0.3-0.1,0.5-0.1c0,0,0,0,0,0c0.2,0,0.4-0.1,0.6-0.1c0.2,0,0.3,0,0.4-0.1
		c0,0,0.1,0,0.1-0.1c0.1,0,0.3,0,0.4,0c0.2,0,0.3,0,0.4-0.1c0.1-0.1,0.2-0.1,0.4-0.1s0.3-0.1,0.3-0.2c0-0.1,0.1-0.2,0.5-0.2
		c0.2,0-0.1,0-0.7-0.1c-0.4-0.1-0.8-0.2-1.3-0.1C121.6,9,121.2,9,120.8,9c-0.7,0-0.9-0.1-1-0.2c0,0,0-0.1,0-0.1c0.2,0,0.4,0,0.6-0.1
		c0-0.1,0-0.1-0.1-0.1c0.1,0,0.2,0,0.3,0c0.1,0,0.3,0,0.4,0c0.2,0,0.9,0,2.1,0.1c0.5,0,1,0,1.5-0.1c-1.1-0.1-2.1-0.1-3.3-0.1
		c0,0,0,0,0,0c0-0.1-0.1-0.1-0.2-0.1c-0.1,0-0.1,0,0.1-0.1l0.3-0.1l-0.4,0.1c-0.2,0.1-0.4,0.1-0.6,0.1l0.3-0.2l-0.4,0.1
		c-0.3,0.1-0.8,0.1-1.3,0.1c-0.4,0-0.8,0-1.3,0c0,0,0,0,0,0c-0.1,0-0.2,0-0.3,0c0,0,0,0,0,0c-0.4,0-0.8,0-1.4,0
		c-0.8-0.1-1.7-0.1-2.5,0c-0.5,0.1-0.7,0.1-0.2,0.1c-0.1,0-0.2,0-0.2,0c-0.4,0-1,0-1.6,0c0.1,0,0.3,0,0.5,0c0.2,0,0.5,0,0.7-0.1
		c0-0.1-0.1-0.1-0.2-0.1c-0.1,0-0.1,0,0.1-0.1l0.3-0.1l-0.4,0.1c-0.3,0.1-0.8,0.1-1.3,0.1c-0.9,0-1.4,0-3.8,0.1
		c-0.8,0-1.7,0.1-2.1,0.1c-0.7,0-1.7,0-2.8,0.1c0,0,0,0,0,0c-0.1,0-0.2,0-0.3,0c0,0,0,0,0,0c-0.6,0-1.2,0-1.8,0.1c0,0,0,0,0,0
		c0.1,0,0.3,0,0.5-0.1c0.4,0,0.3,0-0.2-0.1c-0.2,0-0.4,0-0.6,0c0,0,0,0,0,0c0.2,0,0.3,0,0.4-0.1c0,0,0.1,0,0.1,0c-0.7,0-1.3,0-1.9,0
		c-1.3,0-3,0.1-4,0.1c-0.4,0-1,0-1.7,0c0.4,0,0.8,0,1,0c1,0,2.7-0.1,4-0.1c0.8,0,1.8,0,2.7,0c0,0-0.1,0-0.1,0
		c2.9-0.1,6.2-0.2,7.6-0.3c0.7,0,1.6-0.1,2.6-0.1c0,0,0,0.1,0.1,0.1c0.1,0,0.1,0,0.2-0.1c0,0,0,0,0,0c1.2,0,2.3-0.1,3.2-0.1
		c3.2,0,5.4-0.1,5.4-0.3c0.1-0.1,0.1-0.1-0.7-0.1c0,0-0.3,0-1.8,0.1c-0.9,0.1-2.3,0.1-3,0.1c-0.8,0-2.2,0-3.6,0.1
		c0.4,0,0.7-0.1,0.7-0.2c0.1-0.1,0.2-0.1-1.8,0c-0.9,0.1-2.3,0.1-3,0.1c-1.5,0-5.7,0.1-6.6,0.2C99.2,8,98.7,8,97.6,8.1
		c-0.4,0-1.2,0-1.8,0.1c-0.5,0-1.5,0.1-2,0.1c-0.5,0-1.2,0-1.6,0.1c2.9-0.1,6.2-0.2,7.6-0.3c1.5-0.1,4.4-0.2,6.1-0.2
		c0.7,0,1.3,0,1.9,0c-0.1,0-0.1,0-0.2,0C107,8,106.5,8,105.3,8c-0.4,0-1.2,0-1.8,0.1c-0.5,0-1.4,0.1-2,0.1c-0.5,0-1.3,0-1.7,0.1
		c-0.4,0.1-1.5,0.1-2.4,0.1c-1,0-2.8,0.1-4.2,0.1c-0.2,0-0.4,0-0.6,0c-0.1,0-0.2,0-0.3-0.1c-0.3,0-0.6,0-0.9,0.1c-0.2,0-0.5,0-0.8,0
		c0.6,0,1.2,0,1.4-0.1c0,0,0.1,0,0.1,0c-0.7,0-1.3,0-1.9,0c-0.6,0-1.4,0-2.1,0c-2.3,0-5-0.1-7.9-0.1c-0.1,0-0.2,0-0.3,0
		c-0.1,0-0.3,0-0.4,0c-0.3,0-0.7,0-1.2,0c-0.9,0-2,0-3.3,0c-5.7-0.1-12.1-0.3-18.4-0.6c-1.8-0.1-3.5-0.2-4.5-0.2
		c0.4,0,0.9-0.1,1.5-0.1c0.9,0,2.1,0,2.5-0.1c0.1,0,0.1,0,0.2,0c1.6,0,3.3,0.1,5,0.1c1.7,0.1,3.9,0.1,5.9,0.1c0.1,0,0.3,0,0.4,0.1
		c0.7,0.1,0.9,0.1,0.6,0c-0.1,0-0.2,0-0.3-0.1c0,0,0,0,0.1,0c0.1,0,0.2,0,0.4,0.1c0.7,0.1,0.9,0.1,0.6,0c-0.1,0-0.2,0-0.3-0.1
		c0.2,0,0.5,0,0.7,0c0,0-0.1,0-0.1,0.1c0,0,0,0,0.2,0.1c0.2,0,0.2,0,0.1-0.1c0,0-0.1-0.1-0.1-0.1c0.2,0,0.4,0,0.6,0
		c0,0-0.1,0-0.1,0.1c0,0,0,0.1,0.2,0.1c0.2,0,0.2,0,0.1-0.1c0,0-0.1-0.1-0.1-0.1c0.6,0,1.2,0,1.6,0c0,0,0.1,0,0.2,0
		c1.8,0,3.8,0.1,5.4,0.1c1.2,0,2.2,0,2.9,0c0.1,0,0.2,0,0.4,0c0.5,0,1.1,0,1.7,0c0.1,0,0.2,0,0.3,0c0.1,0,0.3,0,0.4,0
		c0.7,0,1.5,0,2.2-0.1c0.3-0.1,0.6-0.1,0.9-0.1c0.9,0,1.3-0.1,0.5-0.2c0,0-0.1,0-0.1,0c0.2,0,0.4,0,0.7,0c0,0,0,0,0.1,0
		c0.4,0.1,0.8,0.1,1.2,0c0.4,0,0.7,0,1.2,0c0,0,0,0-0.2,0c0.4,0,0.8,0,1.1,0c-0.2,0-0.3,0-0.3,0.1l-0.4,0.1h0.5c0.2,0,0.3,0,0.5,0.1
		c0.2,0,0.4-0.1,0.5-0.1c0.1,0,0.1,0,0.2,0.1c0.5-0.1,0.9-0.1,1.4-0.1c2.8,0,7.4-0.1,8.7-0.2c0,0,0.1,0.1,0.1,0c0,0,0.5-0.1,1.1-0.1
		c0,0,0,0,0,0c-0.2,0-0.3,0.1-0.5,0.1c-0.1,0,0,0.2,0.1,0.1c0,0,0.5-0.1,1.1-0.1c0.4,0,0.8,0,1.2-0.1c-0.5-0.1-0.9-0.1-1.4,0
		c-0.6,0-1.1,0-1.7,0c-0.2,0-0.4,0-0.6,0c-0.4,0-1,0-1.5,0c-0.3,0-0.5,0-0.8,0c-1.2,0-2.9,0-4.6,0.1c0.2,0,0.5-0.1,1-0.1
		c0.4,0.1,0.8,0,1.2,0c-0.8-0.1-1.6-0.1-2.4,0c-0.1,0,0,0.1,0,0.1c-0.6,0-1.3,0-1.9,0c1,0,1.6-0.1,1.3-0.1c-0.3,0-1.3,0-2.3,0
		C89.5,6.9,87,7,84.7,7C82.3,6.9,78,6.8,74,6.7c-6.2-0.1-14.6-0.3-20.5-0.6c0.1,0,0.3,0,0.4-0.1C54,6,54,5.9,53.6,6
		c-0.2,0-0.7,0.1-1.2,0.1c-0.1,0-0.3,0-0.4,0c-3.4-0.1-5.6-0.3-5.4-0.4c0.2-0.1,0.1-0.1-0.3-0.1c-1.6,0-2.9,0-2.7-0.1h1.7h0.6
		l-2.1-0.1c-1.2-0.1-2.9-0.1-4-0.1c0,0,0,0-0.1,0c-0.2,0-0.4,0-0.6,0c-1,0-2.6,0.1-3.8,0.1c-1.2-0.1-3-0.1-3.9-0.1
		c-1.1,0-2.8,0.1-4,0.1c-2.8,0-6.1,0.1-6.6,0.2c-0.2,0-2.7,0.1-4.1,0.2c0,0-0.1,0-0.1,0c0,0,0,0-0.1-0.1c-0.1,0-0.3,0-0.5,0
		c-0.1,0,0,0.1,0.2,0.1c-0.1,0-0.2,0-0.4,0.1C15.6,6,15.5,6,17.4,6c0.2,0,0.3,0,0.5,0c0.8,0,1.9,0,2.5-0.1c3.2-0.2,6.2-0.4,9.8-0.4
		c-0.9,0-1.6,0.1-1.8,0.1c-0.1,0-1.3,0-2.4,0.1c-0.7,0-1.4,0-1.9,0c-0.1,0-0.3,0-0.5,0c0,0,0,0,0,0c-0.1,0-0.1,0-0.2,0
		c-1.9,0.1-3.3,0.2-4.1,0.3c-0.4,0-0.5,0-0.3,0c-0.1,0-0.2,0-0.3,0.1c0,0.1-0.1,0.1-0.3,0.1c0,0,0,0,0,0c-0.2,0-0.3,0-0.5,0
		c-0.1,0-0.1,0,0,0.1c-0.5,0-1.1,0-2.1-0.1c-1.5,0-2.7-0.1-2.8,0c0.6,0.1,1.2,0.1,1.8,0.1c1.3,0,1.8,0,1.4,0.1
		c-0.3,0.1-0.7,0.1-1,0.1c-0.4,0-0.4,0-0.3,0.3c0.1,0,0,0-0.6,0.1c-0.7,0-1.5,0.2-1.2,0.2c0.8,0,1.6,0.1,2.4,0.1
		c0.2,0,0.6,0,1.1,0.1c0.8,0.2,1.5,0.2,2.3,0.1c1.7-0.1,2.1-0.1,1.9,0c-0.3,0.1-0.6,0.1-0.9,0.2c-0.9,0-2.4,0.1-3.4,0.2
		c-0.3,0-0.6,0-0.9,0.1C15.6,8,15.5,8,17.7,8c0.8,0,2.1,0,2.8-0.1c0.7,0,1.4-0.1,2-0.1l1.3,0.1c0,0-0.1,0-0.1,0
		c-0.6,0-1.3,0-1.7,0.1c-0.6,0-1.6,0.1-2.3,0.1c-0.5,0-1,0.1-1.6,0.1c0,0,0,0,0,0c-0.1,0-0.1,0-0.1,0c-0.1,0-0.2,0-0.3,0
		c-0.1,0-0.1,0-0.2,0c0,0-0.1,0-0.1,0c-0.4,0-0.9,0.1-1.2,0.2c-0.2,0-0.4,0.1-0.5,0.1c-1.3,0-2.3-0.1-2.4,0c0.6,0.1,1.2,0.1,1.8,0.1
		c0.2,0,0.4,0,0.5,0c0.1,0,0.5,0,1,0.1c0,0-0.1,0-0.1,0c-0.3,0.1-0.7,0.1-1,0.1c-0.4,0-0.5,0-0.3,0.1c-0.1,0-0.2,0-0.5-0.1
		c-0.7,0-1.6,0.3-1.3,0.4c0.2,0,0.4,0,0.6,0l0.2,0l0.6,0.1l-0.5,0.1c-0.2,0.1-0.5,0.1-0.4,0.2c1.5,0.2,2.9,0.3,4.4,0.2
		c0,0-0.1,0-0.1,0c-0.3,0-1.3,0.1-2.1,0.1h-1.5l1.7,0.1c0.1,0,0.3,0,0.4,0c0,0.1,0,0.1,0.2,0.1c0.2,0,0.2,0,0.1-0.1l0.2,0.1
		c-0.6,0.1-1.3,0.1-1.8,0.1c-0.6,0-0.9,0.1-0.7,0.1c0.3,0,0.3,0,0.2,0.1c-0.3,0-0.7,0.1-1.1,0.1h-1l0.9,0.2c0.7,0,0.8,0.1,0.2,0.1
		h-0.3l0.1,0c-0.1,0-0.2,0-0.3,0c-1.1,0-1.1,0.1-0.2,0.2c0.3,0,0.5,0.1,0.7,0.2c0,0-0.1,0,0,0.1c0.1,0,0.2,0,0.3,0
		c0.4,0.1,1,0.1,1.7,0.1c1,0.1,2,0.1,3,0c0.4,0,0.9,0,1.5,0c0,0,0.1,0.1,0.2,0.1c0.1,0,0.2,0,0.1-0.1c0.1,0,0.2,0,0.4,0
		c0,0,0.1,0.1,0.2,0.1c0.1,0,0.1,0,0.1,0c0.1,0,0.1,0,0.2,0.1c-0.1,0-0.2,0.1-0.1,0.1c0.2,0,0.3,0,0.5,0c0.1,0,0.2,0,0.3,0.1
		c-0.1,0-0.3,0-0.4,0c-0.1,0-0.2,0-0.4,0c0,0,0,0,0,0c-0.1,0-0.2,0-0.2,0.1c0.1,0,0.2,0.1,0.3,0.1c0.3,0-0.6,0.1-2.1,0.2
		c-0.5,0.1-1.5,0.1-2.1,0.2c-0.6,0.1-1.5,0.1-2.1,0.2C15,13,14.7,13,14.9,13c0.1,0,0.2,0,0.2,0.1c0,0,0,0,0,0c-0.3,0-1,0-1.8,0.1
		c0,0,0,0,0,0c-0.1,0-0.2,0-0.3,0c0,0,0,0,0,0c0,0-0.1,0-0.1,0c-0.6,0.1-1.2,0.1-1.8,0c-0.1-0.1-0.2-0.1-0.3,0
		c-0.1,0.1,0,0.2,0.4,0.3c0.2,0,0.4,0.1,0.5,0.3c0.2,0.3,0.2,0.3,0.6,0.1c0.2-0.2,0.5-0.2,0.7-0.1c0.3,0.1,0.6,0.1,0.8,0.2
		c0.3,0,0.3,0-0.3,0.1c-1.6,0.1-3.1,0-4.6-0.1c-0.5-0.2-0.7-0.2-0.8-0.1C8,13.9,7.9,14,7.7,14c-0.1,0-0.3,0-0.3,0.1
		c1.4,0.1,2.7,0.2,4.1,0.2c0.3,0,0.6,0,0.9,0.1c-0.1,0.1-0.2,0.1-0.3,0.2c-0.4,0.3-0.3,0.4,0.1,0.4c0.3,0,0.4,0.1,0.3,0.2
		c-0.5,0-0.9,0-1.4,0c-0.1-0.1-0.2-0.1-0.3,0c0,0,0,0.1,0,0.1c-0.2,0-0.5-0.1-0.7-0.2c-0.5-0.2-0.7-0.2-0.5,0
		c0.2,0.1,0.4,0.2,0.7,0.3c0.8,0.2,0.8,0.3,0.2,0.2c-0.2-0.1-0.4-0.1-0.3,0c0.1,0,0.7,0.1,1.6,0.2c0.1,0.2,0.2,0.2,0.4,0.1
		c0.3,0.1,0.7,0.1,1,0.2c-1.5,0.1-2.9,0-4.3-0.1c-0.5-0.2-0.7-0.2-0.8-0.1c-0.1,0-0.2,0.1-0.4,0.1c-0.1,0-0.3,0-0.3,0.1
		c1.4,0.1,2.7,0.2,4.1,0.2c0.3,0,0.6,0,0.9,0.1c0,0-0.1,0-0.1,0.1c-0.4,0-0.6,0-0.6,0c-0.1,0-0.3,0-0.4,0l-1.4-0.1l0.5,0.3
		c0.3,0.2,0.5,0.3,0.8,0.4c0.2,0.1,0.3,0.1,0.3,0.2c-0.2,0-0.3,0-0.5,0c-0.3,0-0.6-0.1-0.9-0.2c-0.5-0.2-0.7-0.2-0.5,0
		c0,0,0.1,0,0.1,0.1c0,0,0,0,0,0c0,0,0,0,0,0c0,0,0,0,0,0c-0.5-0.1-1-0.2-1.5-0.1c-1.1,0.1-1.9,0-1.6-0.1c0.2-0.1,0.5-0.1,0.8-0.1
		c1,0,0.7-0.1-0.7-0.2c-0.1,0-0.2,0-0.3,0c0.1,0,0,0.1-0.1,0.1c-0.1,0,0,0.1,0.3,0.1c0.2,0,0,0.1-0.5,0.1c-0.3,0-0.7,0.1-1,0.2
		c-0.2,0.1-0.2,0.2,0.2,0.3c0.3,0.1,1.1,0.2,3.2,0.2c1.1,0,1.8,0,2.2,0c0.2,0,0.4,0.1,0.7,0.1c0,0,0.1,0,0.1,0.1
		c0.1,0.1,0.3,0.2,0.5,0.2s0.4,0,0.6,0.1c0,0,0,0,0,0c0,0,0,0,0.1,0c0.5,0,1,0,1.4,0c0.1,0,0.1,0,0.2,0c0.3,0,0.7,0.1,1.1,0.1
		c-0.1,0-0.1,0-0.2,0.1c-0.1,0-0.2,0-0.2,0c-0.7-0.1-1.6-0.1-2-0.2c-0.1,0-0.2,0-0.3,0c0,0,0,0,0,0c0,0-0.1,0-0.1,0c0,0-0.1,0-0.1,0
		c0,0-0.1,0-0.1,0c-0.5,0-0.7,0-0.7,0.1c-0.2,0-0.4,0-0.6,0c-1-0.1-2.6,0-2.1,0.1c0.2,0,0.3,0,0.3,0.1c0,0.1,0.3,0.2,0.7,0.3
		c0.2,0,0.4,0,0.7,0c0,0,0.1,0.1,0.1,0.1c-0.3,0-0.6-0.1-0.8-0.1c0,0-0.1,0-0.1,0c-0.2,0-0.2,0,0.1,0.1c0.3,0.1,0.6,0.1,0.9,0.1
		c0.1,0.1,0.2,0.1,0.4,0.1c0.2,0.1,0.3,0.1,0.3,0.2c-0.5,0.1-1,0-1.5-0.1c0.1,0,0,0-0.3,0c0,0,0,0,0,0c0,0,0,0,0,0
		C9.4,19.1,9.2,19,8.9,19c0,0,0,0,0,0c-0.1,0-0.1-0.1-0.3-0.1c0,0,0.1,0.1,0.1,0.1c-0.1,0-0.3,0-0.4,0c0,0-0.1,0-0.1,0l0,0
		c-0.1,0-0.1-0.1-0.3-0.1c0,0,0,0,0.1,0.1c-0.4-0.1-0.6-0.1-0.7-0.1c0.1,0,0.1,0,0.2,0c1,0,0.7-0.1-0.7-0.2c-0.7-0.1-1.6-0.1-2-0.2
		c-0.6,0-0.8,0-0.7,0.1c0,0.1,0.3,0.1,1,0.2c0.9,0,1,0,1.2,0c0.4,0.2,0.4,0.2,0.2,0.3c-0.1,0,0,0.1,0.3,0.1c0.2,0,0,0.1-0.4,0.1
		c0,0-0.1-0.1-0.3-0.1c-0.2,0-0.4,0.1-0.4,0.1s0,0,0.1,0.1c-0.2,0-0.4,0.1-0.5,0.1C5,19.6,5,19.6,5.3,19.6c0.2,0.1,0.8,0.2,2.2,0.2
		c0.1,0.1,0.2,0.1,0.4,0.2c0.2,0.1,0.4,0.2,0.6,0.2c0.1,0,0.2,0,0.3,0.1c-1.4,0-2.7,0-4-0.2c-0.7-0.2-1.2-0.2-1.1-0.1
		c0.1,0.1,2.1,0.3,4,0.4c0.5,0,0.9,0,1.2,0.1c-0.1,0-0.1,0,0,0.1c0.2,0,0.3,0,0.3,0.1c0,0.1,0.2,0.2,0.5,0.3c-0.2,0-0.1,0,0.1,0.1
		c0.2,0.1,0.4,0.2,0.4,0.1c0,0,0.1,0,0.2,0c0.2,0,0.3,0,0.2-0.1c-0.1,0-0.3,0-0.4,0c0,0,0,0,0,0c0,0,0,0-0.1-0.1c0,0,0,0-0.1,0
		c0.3,0,0.5,0.1,0.9,0.1c0,0.1,0.1,0.1,0.2,0.1c0.2,0,0.2,0,0.2,0c0,0,0.1,0,0.1,0c0.3,0,0.5,0,0.8,0.1s0.6,0.2,0.9,0.2
		c0.3,0,0.6,0,0.9,0.1c0.1,0.1-0.2,0.3-0.5,0.3c-0.1,0,0,0,0.2,0.1c0.3,0.1,0.2,0.1-0.2,0c-0.3,0-0.9,0-1.5-0.1
		c-0.4,0-0.8-0.1-1.2-0.2c-0.2-0.1-0.5-0.1-0.8-0.1s-0.5,0-0.8-0.1c-0.1,0-0.2-0.1-0.4-0.1c-0.1,0-0.4,0-0.6-0.1
		C7,21,6.9,21,7.1,21.1c0.1,0,0.2,0.1,0.3,0.1c0.2,0,0.5,0.3,0.3,0.4c-0.1,0-0.3,0-0.4-0.1c-0.3-0.1-0.3-0.1-0.4,0
		C6.8,21.7,7.2,22,7.5,22c0.1,0,0.3,0.1,0.3-0.1C8,22,8.2,22.1,8.4,22.1c0.1,0,0.2,0,0.4,0.2c-1.4,0-2.7,0-4-0.2
		c-0.7-0.2-1.2-0.2-1.1-0.1c0.1,0.1,2.1,0.3,4,0.4c1.8,0.1,2.2,0.1,2.6,0.3c0.5,0.2,1,0.2,2.5,0.4c0.2,0,0.5,0,0.7,0.1
		c0.2,0.1,0.4,0.1,0.6,0.2c0.1,0,0.1,0.1,0.2,0.1c-0.1,0-0.1,0,0,0c0.2,0.1,0.5,0.2,0.7,0.3c0,0,0,0,0,0c-0.1,0-0.3,0-0.4,0
		c0.1,0,0.2,0,0.3,0c-0.9,0-1.8-0.1-2.7-0.2c-0.7-0.2-1.2-0.2-1.1-0.1c0.1,0.1,2.1,0.3,4,0.4c0,0,0.1,0,0.1,0c0.1,0,0.1,0.1,0.2,0.2
		c0,0,0.1,0,0.1,0c-1.6-0.1-3.2-0.3-4.8-0.6c-1.5-0.3-2-0.3-1.7-0.2c0.2,0.1,2.8,0.6,3.6,0.8c0.7,0.1,1.6,0.1,3.3,0.3
		c0.2,0,0.6,0.1,1,0.1c0.1,0,0.2,0.1,0.3,0.1c-0.2,0-0.4,0-0.4,0.1c0,0.1,0.4,0.3,1,0.4l-0.3,0c-3.1-0.2-4.5-0.3-4.7-0.2
		c-0.1,0-0.1,0.1,0.1,0.1c0.1,0,0.3,0,0.4,0.1c0.2,0.1,0.5,0.1,0.7,0.2c0.5,0.1,0.5,0.1,0.2,0.1c-0.7,0,1.8,0.2,3.6,0.3
		c0.3,0,0.7,0,1.1,0.1c0.2,0,0.4,0.1,0.5,0.1c-0.6,0-1.2,0-1.6,0c-1.1,0-2.2-0.1-3.3-0.2c1.9,0.2,4.7,0.3,5.1,0.2
		c0.3,0.1,0.5,0.1,0.7,0.2c0.4,0.1,0.8,0.1,1.4,0.1c-1.1,0.1-2.9,0.2-3,0.1c-0.5,0-0.9-0.1-1.4-0.1c-2.2-0.1-4.4-0.3-6.6-0.7
		c-1.5-0.3-2-0.3-1.7-0.2c0.2,0.1,2.8,0.6,3.6,0.8c0.7,0.1,1.6,0.1,3.3,0.3c0.2,0,0.5,0.1,0.8,0.1c0.3,0.3,1.5,0.5,3.1,0.8
		c1.8,0.2,3.6,0.4,5.5,0.4c0.7,0,1.5,0,2.2,0c0.2,0,0.3,0.1,0.4,0.1c0.4,0.1,0.8,0.1,1.4,0.1c-1.1,0.1-2.9,0.2-3,0.1
		c-0.5,0-0.9-0.1-1.4-0.1c-2.2-0.1-4.4-0.3-6.6-0.7c-1.5-0.3-2-0.3-1.7-0.2c0.2,0.1,2.8,0.6,3.6,0.7c0.7,0.1,1.7,0.2,3.3,0.4
		c1.6,0.2,7,0.4,7.1,0.3c0.3-0.1,0.6-0.1,1-0.1c0.3,0,0.8,0,1.2-0.1c1.9,0.1,4.5,0.2,5.2,0.2c1.7,0.1,3.8,0.2,6,0.3
		c3.4,0.1,6.8,0.2,7.5,0.3s1.5,0.1,1.8,0.1s1.2-0.1,2-0.1c1,0,1.7-0.1,2.4-0.1c0.8,0,1.3,0.1,1.6,0.1c0.7,0.1,1.5,0.1,1.8,0.1
		s1.2-0.1,2-0.1c0.9,0,1.6-0.1,2.2-0.1c1.4,0.1,3.2,0.1,4,0c0.3,0,0.7,0,1,0c0.8,0,1.7,0,2.8,0c1.4,0.1,3.2,0.1,4,0c0,0,0.1,0,0.1,0
		c0.2,0.1,0.5,0.4,0.7,0.9c0.7,0.1,1.5,0.1,1.9,0c1.3-0.1,3.1-0.2,6.1-0.1c1.7,0,3.1,0,3.2,0c0,0,1,0,2.2,0c2.1,0.1,3.9,0.1,5.3,0
		c0.1,0,0.2,0,0.3-0.1c0,0,0.1,0,0.2,0c0.4,0,0.8,0,1.2,0c0.6,0,1.6-0.1,2.3-0.1c0.5,0,1.3,0,1.9,0c0.8,0,1.5,0,2.2,0c0,0,0,0,0,0
		c-0.2,0-0.3,0-0.4,0c-1.7,0.1-3.9,0.1-7.6,0.2C95,29.9,93,30,92.5,30c-0.8,0.1-0.7,0.1,0.5,0.1c0.8,0,1.7,0,2.1,0
		c4.7,0.1,7.7,0,9.7-0.1c0.7,0,1.8-0.1,2.4-0.1c2.3,0,8.6-0.4,8.9-0.5c0.1,0,0.1,0,0.2,0c0.8,0,1.8-0.1,2.7-0.1c0.1,0,0.2,0,0.3,0
		c2.1-0.1,4.1-0.3,4.4-0.3c0.7,0,1.5-0.1,2.2-0.1c0.6,0,1.4,0,1.9-0.1c0.1,0,0.4,0,0.7,0c-0.5,0.1-1,0.2-1.5,0.3
		c-0.1,0.1,0.1,0.1,1.8-0.2c0.2,0,0.4-0.1,0.6-0.1c0.4,0,0.8,0,1.1-0.1c1-0.1,2.2-0.2,2.7-0.2s1.1-0.1,1.5-0.1c0.1,0,0.1,0,0.2,0
		c0.2,0,0.3,0,0.5-0.1c0.4,0,1.7,0,2.7-0.1c1-0.1,2.2-0.1,2.7-0.2c0.5,0,1.1-0.1,1.5-0.1c0.4-0.1,0.7-0.1,1.1-0.2
		c0.6-0.1,1.1-0.1,1.6-0.2c1.2-0.1,2.4-0.3,2.4-0.4c0-0.1-0.2,0-0.7,0.1c-0.1,0-0.2,0-0.1-0.1c0.3-0.2,0.6-0.3,1-0.3
		c0.5-0.1,0.9-0.2,1-0.2c-0.1-0.1-0.3-0.1-0.5-0.1C147.3,26.4,147.2,26.3,147.8,26.1z M32.7,28c-1,0-1.9-0.1-2.9-0.2
		c0.5,0,1,0,1.4,0c0.2,0,0.3,0,0.5,0l0.4,0c0.1,0,0.3,0,0.4,0c0,0,0,0,0,0c0,0,0,0,0,0c0,0,0,0,0,0c0.2,0,0.3,0,0.5,0
		c0.4,0,0.8,0.1,1.3,0.1c0.1,0,0.1,0,0.1,0c-0.2,0-0.4,0-0.6,0.1C33.4,28,33.1,28,32.7,28z M24.7,7.7C24.7,7.7,24.7,7.7,24.7,7.7
		c0.7,0,1.4-0.1,2.2-0.1c-0.4,0.1-0.8,0.1-1,0.1C25.7,7.7,25.3,7.7,24.7,7.7C24.7,7.8,24.7,7.7,24.7,7.7z M132.5,17.2
		c0.2,0.1,0.4,0.2,0.6,0.3c-0.3,0-0.6,0-1,0.1c0,0,0,0,0,0c-0.2-0.1-0.1-0.1,0-0.2c0,0,0,0,0,0c0.1,0,0.1,0,0.2,0
		C132.4,17.2,132.4,17.2,132.5,17.2C132.5,17.2,132.5,17.2,132.5,17.2z M26.6,26.8c-0.1,0-0.1,0-0.2,0c0.3,0,0.5,0,0.8,0l0.1,0.1
		C27,26.8,26.7,26.8,26.6,26.8z M16.6,14.3c-0.3,0-0.4-0.1-0.3-0.1C16.4,14.2,16.5,14.2,16.6,14.3c0.1-0.1,0.1-0.1,0.2-0.1
		C17,14.3,16.9,14.3,16.6,14.3z M48.7,7.8c-0.8,0-1.6-0.1-2.3-0.1c0.1,0,0.3-0.1,0.4-0.1c0.1,0,0.3,0,0.2-0.1c0.1,0,0.3,0,0.4,0
		c0.2,0,0.3,0,0.4,0c1.5,0.1,1.6,0.1,1.3,0.2C49,7.7,48.8,7.8,48.7,7.8z M20,14.4C20,14.4,20.1,14.4,20,14.4
		C20.1,14.4,20,14.4,20,14.4c-0.1,0.1-0.2,0-0.3,0C19.8,14.4,19.9,14.4,20,14.4z M90.8,10.6c1.3,0,2.6,0,3,0c0.1,0,0.2,0,0.2,0
		c0.2,0,0.4,0,0.5,0c3,0,4-0.1,5.6-0.1c0,0,0,0.1-0.1,0.1c-0.4,0-0.9,0-1.3,0c-1.7,0-4.4,0.1-6.8,0.1c-0.4,0-0.9,0-1.2,0
		c-0.3,0-0.5,0-0.8,0c-1.3,0-2.2-0.1-2.8-0.1c0,0,0,0,0,0c0,0,0,0,0,0c1.3,0,2.1,0,2.9-0.1C90.3,10.5,90.5,10.5,90.8,10.6z
		 M80.8,10.4c0,0,0.1,0,0.2,0c0,0,0,0,0,0c-0.2,0-0.4,0-0.6,0c0,0,0,0,0.1,0C80.5,10.4,80.6,10.4,80.8,10.4z M81.5,10.5
		C81.5,10.5,81.5,10.5,81.5,10.5c-0.2,0-0.4,0-0.6,0c0.1,0,0.1,0,0.1,0C81.2,10.5,81.4,10.5,81.5,10.5z M86.7,10.6
		C86.7,10.6,86.7,10.6,86.7,10.6c-0.1,0-0.1,0-0.2,0c0,0-0.1,0-0.1,0c0,0,0,0,0,0c0,0,0,0,0,0C86.5,10.6,86.6,10.6,86.7,10.6
		C86.7,10.6,86.7,10.6,86.7,10.6z M103.5,17.4c-0.1,0-0.1,0-0.2,0c-0.1,0-0.2,0-0.3,0c0.1,0,0.1,0,0.2,0c0.1,0.1,0.3,0.1,0.6,0.1
		c0.1,0,0.1,0,0.2,0c0,0,0,0,0,0c0,0,0,0,0,0C103.8,17.4,103.6,17.4,103.5,17.4z M98,17.6C98,17.6,98,17.6,98,17.6
		c-0.1,0-0.1,0-0.1,0c-0.2,0-0.4,0-0.6,0c-0.6,0-1.2,0-1.8,0.1c-0.1,0-0.3-0.1-0.6-0.1c-0.7,0-0.7,0-0.3,0c1.1,0,2.2,0,2.4-0.1
		c0,0,0,0,0,0c-0.1,0-0.1,0-0.2,0c0.1,0,0.2,0,0.3,0c0,0-0.1,0-0.1,0c0.1,0,0.2,0,0.3,0c0,0,0,0,0.1,0c0.3,0,0.7,0,1,0
		c0.3,0,0.6,0,0.8,0c0.2,0,0.4,0,0.7,0c0.4,0,0.7,0,1.1,0c0,0-0.1,0-0.1,0c0,0,0,0,0,0c-0.1,0-0.3,0-0.4,0
		C99.6,17.5,98.8,17.6,98,17.6z M101.2,17.5C101.2,17.4,101.1,17.4,101.2,17.5C101.1,17.4,101.1,17.4,101.2,17.5c0.2,0,0.4,0,0.7,0
		C101.7,17.4,101.5,17.5,101.2,17.5C101.2,17.5,101.2,17.5,101.2,17.5z M107,17.3C107,17.3,107,17.3,107,17.3
		C107,17.3,107,17.3,107,17.3c-0.1,0-0.1,0-0.1,0L107,17.3z M80,10.5C80,10.5,80.1,10.5,80,10.5c0.1,0,0.1,0,0.1,0
		C80.1,10.5,80,10.5,80,10.5z M81.7,10.5C81.7,10.5,81.7,10.5,81.7,10.5C81.7,10.5,81.7,10.5,81.7,10.5
		C81.7,10.5,81.7,10.5,81.7,10.5z M40.4,7.5c0.3,0,0.6,0,0.8,0.1c-0.1,0-0.1,0-0.2,0c-0.1,0-0.2,0-0.3,0c-0.3,0-0.7,0-1,0
		c-0.7-0.1-1.3,0-1.6,0c0.1,0,0.2,0,0.2,0c0.1,0,0.2,0,0.2-0.1C39.1,7.5,39.8,7.5,40.4,7.5z M37.5,7.6c-0.2,0-0.2,0-0.2-0.1
		c0.2,0,0.3,0,0.5,0C37.8,7.6,37.7,7.6,37.5,7.6z M111.1,10.2c-0.1,0-0.2,0-0.3,0C110.9,10.2,111.1,10.2,111.1,10.2
		C111.1,10.2,111.1,10.2,111.1,10.2z M113.1,10.1C113.1,10.1,113,10.1,113.1,10.1c-0.1,0-0.2,0-0.3,0L113.1,10.1l-0.3,0
		c-0.4,0-0.6,0-0.4,0.1c0,0,0,0,0,0c0,0,0,0,0,0c0,0,0,0,0,0c-0.1-0.1-0.3-0.1-0.4,0c0,0,0,0,0,0c-0.1,0-0.2,0-0.3,0c0,0,0,0,0,0
		c-0.1-0.1-0.3-0.1-0.4,0c0,0,0,0-0.1-0.1c0.4-0.1,0.8-0.1,1.1-0.2c0.4,0,0.8,0,1.2,0c0,0,0,0-0.1,0
		C113.3,10.1,113.2,10.1,113.1,10.1z M37.8,6.9l0.4,0c0.1,0,0.2,0,0.4,0.1c0,0,0.1,0,0.1-0.1l0.6,0c0,0,0.1,0,0.2,0
		c0.1,0,0.2,0,0.2,0L41.5,7l-1.8,0.1c-1,0-3.1,0.1-4.7,0.1c-0.4,0-0.8,0-1.2,0c0,0-0.1,0-0.2-0.1c0.1,0,0.1,0,0.2-0.1
		c0.1,0,0.1,0,0.1,0C35.1,7,37,6.9,37.8,6.9z M32.8,7.1c0,0,0.4,0,1,0c-0.1,0-0.2,0-0.3,0.1C33.3,7.1,33.1,7.1,32.8,7.1
		C32.8,7.1,32.8,7.1,32.8,7.1z M114,10c-0.4,0-0.5,0-0.4-0.1c0.2,0,0.4,0,0.5,0C114.1,10,114.1,10,114,10C114.1,10,114.1,10,114,10z
		 M44.4,6.9c-1.6,0.1-1.5,0.1-1.2,0c0.1,0,0.1,0,0.2,0c0.4,0,0.8,0,1.2,0C44.6,6.9,44.5,6.9,44.4,6.9z M114.3,10
		C114.3,10,114.3,10,114.3,10c0.3-0.1,0.6-0.1,0.8-0.1C114.8,10,114.5,10,114.3,10z M118.2,9.3c0.2,0,0.5,0,0.7,0.1
		c0,0-0.2,0.1-0.7,0.2c-0.3,0-0.6,0-1,0c-0.8,0.1-2.1,0.1-2.8,0.1c0.7,0,1.4,0,1.4,0c0.4,0,0.8-0.1,1.2-0.2
		C117.4,9.4,117.8,9.4,118.2,9.3z M47.1,7.9c-0.1,0-0.2,0-0.2,0c-0.1,0-0.1,0-0.2,0c0,0,0,0,0,0c0.3,0,0.5,0,0.8,0
		C47.3,7.9,47.2,7.9,47.1,7.9z M16.6,14.6c1,0.1,1.3,0.1,1,0.2c-0.9,0-1.7-0.1-2.6-0.2C14.9,14.5,15.3,14.5,16.6,14.6z M17.6,16.8
		c-0.8,0-1.6-0.1-2.4-0.2c0.2,0,0.4-0.1,0.6-0.1c0.1,0,0.1,0,0.1,0c0.2,0,0.4,0,0.7,0C17.6,16.7,17.9,16.8,17.6,16.8z M128.3,16.4
		C128.3,16.4,128.3,16.4,128.3,16.4C128.3,16.4,128.3,16.4,128.3,16.4C128.3,16.4,128.3,16.4,128.3,16.4z M95.2,8.9
		c0.1,0,0.2,0,0.3,0C95.5,9,95.3,9,95.2,8.9z M42,5.5C42,5.5,42,5.5,42,5.5c-0.3,0.1-0.9,0.1-1.7,0.1c-0.5,0-1,0-1.3,0
		c-0.8,0-1.3,0-1.3,0c-1.1,0-1.9,0-2.3,0c1.6-0.1,3.4-0.1,5.2-0.1C41,5.5,41.5,5.5,42,5.5z M26.6,7.4c0.3,0,0.7,0,1-0.1
		c0.5,0,0.9,0,1.2-0.1c0.1,0,0.1,0,0,0.1c-0.2,0-0.4,0.1-0.6,0.1c-0.3,0-0.6,0-0.8,0c-0.5,0-1.1,0-1.6,0C26.1,7.4,26.3,7.4,26.6,7.4
		z M12.8,15.7C12.8,15.7,12.8,15.7,12.8,15.7C12.8,15.7,12.8,15.7,12.8,15.7z M11.7,18.9C11.7,18.9,11.7,18.9,11.7,18.9
		C11.7,18.9,11.7,18.9,11.7,18.9C11.7,18.9,11.7,18.9,11.7,18.9z M19.4,25.1c-0.2,0-0.3-0.1-0.5-0.1C19.2,25,19.3,25.1,19.4,25.1z
		 M21.6,25.8c0.1,0,0.1,0,0.2,0c-0.1,0-0.2,0-0.3,0c-0.2,0-0.3,0-0.4,0c0.1,0,0.2-0.1,0.3-0.1C21.5,25.8,21.5,25.8,21.6,25.8z
		 M23.7,26c0.2,0,0.4,0,0.6,0c0.2,0,0.4,0.1,0.5,0.2c0,0,0,0,0,0C23.9,26.2,23,26.1,22,26C22.6,26,23.2,26,23.7,26z M24.8,26.7
		c0,0,0.1,0,0.1,0c-0.2,0-0.3,0-0.4,0C24.6,26.7,24.7,26.7,24.8,26.7z M111.3,29.2c-0.1,0-0.2,0-0.2,0
		C111.1,29.2,111.2,29.2,111.3,29.2z M137.8,20.3c-0.1,0-0.2,0-0.2,0l0,0h-0.4c0.1,0,0.3,0,0.4,0C137.6,20.3,137.7,20.3,137.8,20.3
		c0.1,0,0.3,0,0.5,0H137.8z M139.3,19.6C139.3,19.6,139.3,19.6,139.3,19.6C139.3,19.6,139.3,19.6,139.3,19.6
		C139.3,19.6,139.3,19.6,139.3,19.6z M133,17.2c0.2,0.1,0.4,0.2,0.5,0.2c-0.1,0-0.2,0-0.3,0c-0.1-0.1-0.3-0.2-0.6-0.3c0,0,0,0,0.1,0
		C132.8,17.2,132.9,17.2,133,17.2z M93.9,8.6c1.4,0,3.2-0.1,4.2-0.1c0.4,0,0.8,0,1.1,0c-0.1,0-0.2,0-0.3,0.1
		c-0.5,0.1-0.5,0.1,0.2,0.1c0.1,0,0.1,0,0.2,0c0.1,0,0.2,0,0.5,0c0.2,0,0.3,0,0.4,0c0,0,0,0,0,0c0,0,0,0,0,0c-0.4,0-0.7,0-1.1,0
		c-1.3,0-2.5,0.1-2.8,0.1c-0.1,0-0.3,0-0.4,0c-0.4,0-0.8,0-1.2,0c-0.2,0-0.3,0-0.4,0c-0.1,0-0.2,0-0.3,0c0,0,0,0.1,0,0.1
		c-0.2,0-0.4,0-0.7,0c0.2,0,0.2,0,0.1,0c-0.3,0-1.3,0-2.3,0c-1.7,0-4.4,0.1-6.8,0.1c0,0-0.1,0-0.1,0c-1.9,0-4.4-0.1-7.1-0.1
		c0.1,0,0.2,0,0.1-0.1c-0.1,0-0.2,0-0.3,0c-0.1,0-0.1,0.1,0.1,0.1c-1,0-2,0-3-0.1c-1.2,0-2.5-0.1-3.9-0.1c0,0,0-0.1,0-0.1
		c-0.1,0-0.3,0-0.4,0c-0.1,0,0,0,0.1,0.1c-0.1,0-0.2,0-0.3,0c0,0,0,0-0.1,0c0,0-0.1,0-0.2,0c-0.1,0-0.2,0-0.2,0c-0.1,0,0,0,0,0
		c-1.3,0-2.6-0.1-4-0.1c0,0,0,0-0.1,0c0,0-0.1,0-0.1,0c-0.1,0-0.1,0-0.1,0c-0.1,0-0.1,0-0.2,0c0.1,0,0.1,0,0.2,0
		c-3.1-0.1-6.2-0.2-8.9-0.3c-3-0.1-5.6-0.2-7.4-0.3c0.2,0,0.3,0,0.5,0c0.6,0,1.5,0,1.7,0c2.6,0.1,5.5,0.1,8.4,0.2
		c-2.8-0.1-5.8-0.2-8.7-0.3c0,0,0.1,0,0.1,0c0.8,0,2.2,0,4.7,0.1c3.2,0,7.7,0.2,12.1,0.2c6.7,0.2,13.1,0.4,18,0.4
		c-1.1,0-2.9,0.1-5.1,0c2.2,0,4,0,5.3,0c0.3,0,0.7,0,1.1,0c1.6,0,3,0,4.3,0c-0.1,0,0.1,0,0.5,0c0.2,0,0.4,0,0.6,0
		C92.7,8.6,93.4,8.6,93.9,8.6z M20.5,7.7l1.2-0.3c0.4,0,0.7-0.1,1.1-0.1c0.2,0,0.4,0,0.6,0c0.2,0,0.7,0,1.1,0.1
		c0.3,0,0.6,0.1,0.9,0.1c-0.5,0-0.9,0-1.3,0c0,0,0,0,0,0c-0.1,0-0.3,0-0.5,0c0,0,0,0,0,0c-1.4,0-2.5,0.1-2.8,0.1
		C20.8,7.6,20.7,7.6,20.5,7.7z M23,7.8h-0.2c0.5,0,1.1-0.1,1.6-0.1c0,0,0,0.1,0,0.1c-0.2,0-0.4,0-0.6,0H23z M18.1,10.2
		C18.1,10.2,18,10.3,18.1,10.2L18.1,10.2C18,10.2,18,10.2,18.1,10.2C18,10.2,18.1,10.2,18.1,10.2z M17.4,10.3l-0.2,0
		C17.3,10.2,17.4,10.2,17.4,10.3C17.4,10.2,17.4,10.3,17.4,10.3z M10.7,16.7c-0.1-0.1,0.4-0.2,1-0.2c0,0,0.1,0.1,0.3,0.1
		c-0.1,0.1-0.2,0.2-0.2,0.2c-0.1,0-0.1,0-0.2,0c0,0,0,0-0.1,0c-0.1,0-0.1,0-0.2,0C11.1,16.8,10.9,16.8,10.7,16.7z M16,18.3
		c0,0-0.1,0-0.1,0C15.9,18.3,15.9,18.3,16,18.3z M11.4,18.8C11.4,18.9,11.4,18.9,11.4,18.8c-0.3,0-0.5,0-0.7-0.1
		C11,18.8,11.2,18.8,11.4,18.8z M6.6,18.9c0.1-0.1,0.2-0.1,0.4-0.1c0,0,0,0,0,0c0.1,0,0.2,0.1,0.3,0.1c0,0,0.1,0,0.1,0
		C6.7,19,6.4,18.9,6.6,18.9z M9.8,20.6c0.2,0,0.3,0,0.4,0c0,0,0,0,0.1,0c0.2,0.1,0.3,0.1,0.5,0.1c-0.3,0-0.6,0-0.9-0.1
		C9.6,20.6,9.6,20.6,9.8,20.6z M12.9,21.3c0.1,0,0.2,0,0.3,0.1c0,0-0.1,0-0.1,0C13,21.3,12.9,21.3,12.9,21.3z M23.3,26.5
		c-0.3,0-0.5,0-0.6,0c-0.4,0.1-0.4,0-0.3-0.1c0,0,0,0,0,0C22.7,26.4,23,26.5,23.3,26.5z M21.1,27.4l-0.9-0.2h0.6
		c0.6,0,0.5,0-0.5-0.2c-0.6-0.1-1.3-0.2-1.5-0.2c-0.1,0-0.1,0-0.2,0c0.9,0,1.8,0.1,2.5,0.1c0.2,0,0.3,0.1,0.5,0.1
		c0.5,0.1,0.5,0.1,0.2,0.1c-0.7,0,1.8,0.2,3.6,0.3c0.1,0,0.2,0,0.3,0c0.5,0.1,1.1,0.2,1.5,0.3C26.9,27.9,22.9,27.7,21.1,27.4z
		 M30.3,28.2c-0.4,0.1-0.4,0-0.3-0.1c0,0,0,0,0,0c0.3,0,0.6,0.1,0.9,0.1C30.6,28.2,30.4,28.2,30.3,28.2z"/>
	<path class="st0" d="M29.4,4.6c-0.1-0.1-0.2-0.1-0.3,0C29,4.6,29.1,4.6,29.4,4.6C29.5,4.7,29.5,4.7,29.4,4.6z"/>
	<path class="st0" d="M26.3,4.7C26.3,4.7,26.3,4.7,26.3,4.7C26.3,4.7,26.3,4.7,26.3,4.7z"/>
	<path class="st0" d="M27.5,4.9c-0.5-0.1-1-0.2-1.2-0.2c0.2,0.1,0.5,0.2,0.8,0.2C27.6,5,27.7,5,27.5,4.9z"/>
	<path class="st0" d="M54.8,6.1C55,6.1,55,6.1,54.8,6.1C54.8,6,54.7,6,54.6,6C54.6,6.1,54.6,6.1,54.8,6.1z"/>
	<path class="st0" d="M40,5c0.2,0,0.3,0,0.2-0.1c-0.1,0-0.2,0-0.4,0C39.7,4.9,39.8,5,40,5z"/>
	<path class="st0" d="M41.9,4.9c0.3,0,0.3-0.1,0.2-0.1c-0.1,0-0.3,0-0.4,0C41.7,4.8,41.6,4.9,41.9,4.9z"/>
	<path class="st0" d="M40.7,4.9c0.2,0,0.3,0,0.2-0.1c-0.1,0-0.2,0-0.3,0C40.5,4.9,40.6,4.9,40.7,4.9z"/>
	<path class="st0" d="M34.5,3.7c0,0,0.3,0.1,0.8,0.1c0.3,0,0.6,0,0.8,0C35.6,3.7,35.1,3.6,34.5,3.7z"/>
	<path class="st0" d="M43.4,4.3c0.2,0,0.2,0,0.1-0.1c-0.1,0-0.2,0-0.3,0C43.2,4.3,43.2,4.3,43.4,4.3z"/>
</g>
</svg>
