<?xml version="1.0" encoding="utf-8"?>
<!-- Generator: Adobe Illustrator 22.1.0, SVG Export Plug-In . SVG Version: 6.00 Build 0)  -->
<svg version="1.1" id="Layer_1" xmlns="http://www.w3.org/2000/svg" xmlns:xlink="http://www.w3.org/1999/xlink" x="0px" y="0px"
	 viewBox="0 0 355 70" style="enable-background:new 0 0 355 70;" xml:space="preserve">
<style type="text/css">
	.st0{fill:#FFFFFF;}
</style>
<path class="st0" d="M330.2,28.1c0,0,0.1,0.1,0.1,0.1C330,28.1,330,28.1,330.2,28.1z M143.4,63.8c-0.1,0-0.3,0-0.4,0
	c1.5,0,3.6,0,6,0c0.2,0,0.4,0,0.7,0C147.2,63.8,145.1,63.8,143.4,63.8z M330.1,27.9c0,0.1,0.1,0.1,0.2,0.2c0.1,0,0.4,0,0.7,0
	c0.4,0,0.8,0,1.2-0.2c0.1,0,0.1-0.1,0.1-0.1l-2.4-0.3L330.1,27.9z M330.9,28.2c-0.2,0-0.4-0.1-0.5-0.1c0,0,0,0,0.1,0
	C330.6,28.2,330.8,28.2,330.9,28.2z M98.4,22.3c-0.1-0.1-0.1-0.1-0.1-0.2L98,21.7l2.3,0.3c0.1-0.3-1-0.5-2.2-0.3c-0.4,0-0.8,0-1.2,0
	c-0.3,0-0.6,0-0.8,0c-0.5,0.2-0.6,0-0.5-0.2c-0.5-0.2-1.1-0.2-1.5-0.2h-0.3c-0.2,0.2-0.3,0.2-0.3,0.2s0.2,0.2,0.4,0.2
	c0.3,0.2,0.6,0.4,0.8,0.6c0.5,0,1,0,1.4,0c0.6,0,1.6,0,2.5,0.1c0,0,0,0-0.1,0C98.2,22.3,98.2,22.3,98.4,22.3z M96,17.8
	c-0.5-0.2-1.1-0.2-1.6-0.2c-0.8,0-1.3,0-1.1,0.2C94.1,18,95.1,18,96,18C96.4,18,96.3,18,96,17.8z M111.4,33.5
	c-0.5-0.2-1.1-0.2-1.6-0.2c-0.8,0-1.2,0-1.1,0.2c0.9,0.2,1.8,0.2,2.7,0.2C111.8,33.7,111.8,33.7,111.4,33.5z M92.4,22.3
	c0.6,0,1.4,0,2,0C93.7,22.1,93.1,22.1,92.4,22.3C92.3,22.3,92.4,22.3,92.4,22.3z M106.3,47.5C106.4,47.5,106.4,47.5,106.3,47.5
	c-0.3-0.3-0.7-0.4-2.3-0.3h-1.7l1.3,0.2c0.6,0.1,1.2,0.1,1.7,0.1c0.2-0.1,0.4-0.1,0.6-0.1C106,47.5,106.2,47.5,106.3,47.5z M70,51.9
	c-0.1,0-0.2,0-0.3,0c-0.4,0-0.8,0-1.2,0C69.1,51.9,69.6,51.9,70,51.9z M84.7,18.6c0-0.2-0.1-0.2-0.2-0.2c-0.2,0-0.2,0.2-0.1,0.2
	C84.5,18.6,84.6,18.6,84.7,18.6z M79.8,18.8c-0.2,0-0.3,0-0.5,0C79.4,19,79.6,18.8,79.8,18.8z M83.6,18.6c0.1,0,0,0-0.2-0.2
	c-0.2,0-0.2,0.2-0.1,0.2S83.5,18.6,83.6,18.6z M82.5,19c0.7,0.2,1.3,0.4,1.6,0.4c0.3,0,0.6,0,0.9-0.2c0,0-0.6-0.2-1.3-0.2
	C83,18.8,82.5,18.8,82.5,19z M88.8,46.9c0.1,0.2,0.2,0.2,0.4,0.2c0.1,0,0.2,0,0.3,0c0.9-0.2,1.5-0.4,1.5-0.4c-1.3,0-2.3,0-2.3,0
	S88.7,46.7,88.8,46.9z M56.6,51.3c-0.3,0-0.4,0-0.2,0c0.5,0,0.9,0,1.1,0c0.1,0,0.2,0,0.3,0c-0.2,0-0.5,0-0.7,0
	C56.9,51.3,56.7,51.3,56.6,51.3z M42.8,45.3c0.4,0,0.8,0,1.2,0.2c0,0.2,0.2,0.2,0.3,0c0,0,0.1-0.2,0.2-0.2c-0.4,0-0.7,0-1.1,0
	C43.2,45.3,43,45.3,42.8,45.3z M87.2,46.9c0.1,0,0.3,0,0.4,0C87.7,46.7,87.6,46.7,87.2,46.9z M47.9,45.5
	C47.9,45.5,47.9,45.5,47.9,45.5C48,45.4,48,45.4,47.9,45.5z M103.2,34.9c0.1-0.2,0-0.2-0.2-0.2c-0.2,0-0.2,0.2-0.1,0.2
	C103,34.9,103.1,34.9,103.2,34.9z M99.2,34.3c0,0-0.1,0-0.2-0.2c-0.2,0-0.2,0.2-0.1,0.2C99,34.3,99.1,34.3,99.2,34.3z M98.1,35.1
	c0.2,0,0.4,0,0.6,0c1,0,1.8-0.2,1.8-0.2s-0.5-0.2-1.2-0.2c-0.8-0.2-1.3-0.2-1.3,0c0,0-0.1,0.2-0.3,0.2C97.9,35.1,98,35.1,98.1,35.1z
	 M100.1,34.3c0-0.2,0-0.2-0.2-0.2c-0.2,0-0.2,0.2-0.1,0.2C99.9,34.3,100,34.3,100.1,34.3z M103.4,37.6c0.7,0.2,1.3,0.2,1.6,0.2
	c0-0.2,0.1-0.2,0.9-0.2c0.5,0,0.9,0,1.4,0l0.5-0.2l-0.6-0.2c-1.2-0.2-2.2-0.4-3.3-0.2c-0.3,0.2-1.2,0.2-2.1,0.2
	C102.4,37.4,102.8,37.6,103.4,37.6z M329.6,57.6c0.1,0,0.3,0,0.4,0c0.1-0.2,0-0.2-0.2-0.2C329.5,57.4,329.4,57.4,329.6,57.6z
	 M97.8,51.5c-0.3,0-0.7,0-1,0c0.3,0,0.8,0.2,1.4,0.2c0.1,0,0.2,0,0.3,0H99c0,0,0,0.1,0,0.1c1.2,0.1,1.5,0.1,1.3-0.1
	c-0.8,0-1.5-0.2-2.2-0.2C98,51.5,97.9,51.5,97.8,51.5z M180.9,57.1c-0.1,0-0.1,0-0.2,0c0.1,0,0.1,0.1,0.2,0.1
	C180.9,57.2,180.9,57.1,180.9,57.1z M88.5,19c-0.4,0-0.4,0-0.1,0.2c1.3,0.2,2.4,0.4,3.6,0.2c0.5-0.2,0.5-0.2-0.3-0.2
	c-0.5,0-1.4-0.2-1.8-0.2C89.4,19,89,19,88.5,19z M340.6,45.9c0.1,0,0.2,0,0.3,0c-0.1-0.2-0.1-0.2-0.2-0.2c-0.2-0.2-0.5-0.2-0.7-0.2
	C339.9,45.5,340.1,45.7,340.6,45.9z M343.9,30.9c0.1,0.1,0.4,0.1,0.5,0.1c0.4,0.1,0.8,0.1,1.1,0.3c0.3,0.1,0.7,0.3,0.9,0.3
	c0.5,0,1.3,0.4,1.2,0.6c-0.1,0.3-0.1,0.3-0.7,0c-0.1-0.1-0.4-0.1-0.7-0.1c-0.3,0.1,0.1,0.5,0.5,0.5c0.1,0,0.4,0,0.5,0.1
	c0.1,0.1,0.1,0.1-2.3-0.1c-0.4,0-0.9-0.1-1.2-0.1c-0.3,0-0.4,0-0.7-0.1c-0.5-0.1-0.9-0.1-1.5-0.1s-1.1,0-1.6-0.1
	c-0.7-0.1-1.5-0.3-2.2-0.3c-1.1,0-2.4-0.1-3-0.1c-0.8-0.1-0.9-0.1-0.4,0c0.4,0.1,0.5,0.1,0.3,0.1c-0.3,0-0.7,0.1-0.9,0.3
	c0.7,0,1.3,0.1,2,0.3c0.4,0,0.9,0,1.3,0.1c0.4,0.1,0.8,0.1,1.3,0.1c2.4,0.1,4.2,0.4,4.2,0.6c0,0,0.3,0.1,0.5,0.1
	c0.9,0-2.2,0.1-4,0.1c-0.7,0-1.1,0-1.5,0c-0.1,0.1-0.7,0.1-1.8,0c-0.1,0,0,0.1,0.1,0.1c0.4,0.1,0.8,0.1,1.2,0.1
	c0.4,0,0.8,0.1,1.1,0.3c0.3,0.3,0.8,0.3,5.8,0.3c4,0.1,5.7,0.1,6.1,0.3c0.7,0.3,0.7,0.3,0.4,0.5c-0.1,0.1-0.8,0.3-1.9,0.3
	c-0.8,0.1-1.2,0.1-0.8,0.1c0.5,0,0.7,0,0.4,0.1c-0.3,0-0.3,0.1,0.3,0.4c0.5,0.3,0.7,0.4,2.4,0.4c1.5,0.1,1.9,0.1,2,0.3
	c0.1,0.1-0.1,0.1-1.3,0c-0.7-0.1-2.4-0.1-3.8-0.3c-2.6-0.3-3.2-0.3-1.3-0.3c0.5,0,1.1,0,1.6-0.1c0.7-0.3-1.1-0.4-3-0.3
	c-0.9,0.1-1.9,0.1-2.8,0c-1.5-0.3-3.5-0.3-3.5-0.1c0,0,0.3,0.1,0.5,0.1c0.5,0.1,1.1,0.3,1.5,0.5l0.9,0.4l-2.7-0.1
	c-1.2,0-2.8-0.1-3.9-0.1c0.1,0.1,0.1,0.1,0.3,0.1c0.7,0.3,1.5,0.3,5,0.4c3.8,0.1,7.4,0.4,7.7,0.5c0.1,0.1-0.7,0-2-0.1
	c-1.6-0.1-7.7-0.4-7.5-0.3c0.1,0.1,0.4,0.1,0.5,0.1c0.4,0.1,0.8,0.1,1.1,0.3c0.3,0.1,0.7,0.3,0.9,0.3c0.5,0,1.3,0.4,1.2,0.6
	c-0.1,0.1-0.1,0.1-0.1,0.1h0.1c0.4,0.3,0,0.3-0.8,0c-0.3,0-0.4-0.1-0.7-0.1c0,0.3,0.4,0.5,0.7,0.5c0.1,0,0.4,0,0.5,0.1
	c0.1,0.1,0.1,0.1-2.3-0.1c-0.4,0-0.9-0.1-1.2-0.1c-0.1,0-0.3,0-0.4,0c0.1,0.1,0,0.3-0.4,0.4c-0.1,0-0.3,0.1-0.4,0.3
	c0.5,0.1,1.2,0.1,1.8,0.1c3.2,0,7.8,0.1,7.8,0.3c0,0.1-0.3,0.1-0.5,0.1s-0.5,0-0.7,0.1c-0.1,0.1-0.7,0.1-1.6,0
	c-0.9-0.1-3.6-0.1-6.1-0.1c-0.5,0-2.2,0.1-3.4,0.1c-0.3,0-0.1,0,0.3,0.1c0.4,0.1,1.1,0.1,1.5,0.3c0.5,0.1,0.9,0.1,1.3,0
	c0.8-0.3,0.8-0.3,1.1,0.1c0.1,0.1,0.3,0.3,0.4,0.3c4,0.1,5.7,0.1,6.1,0.3c0.7,0.3,0.7,0.3,0.4,0.5c-0.1,0.1-0.8,0.3-1.9,0.3
	c-0.8,0.1-1.2,0.1-0.8,0.1c0.5,0,0.7,0,0.4,0.1c-0.3,0-0.3,0.1,0.3,0.4c0.5,0.3,0.7,0.4,2.4,0.4c1.5,0.1,1.9,0.1,2,0.3
	c0.1,0.1-0.1,0.1-1.3,0c-0.7-0.1-2.4-0.1-3.8-0.3c-2.6-0.3-3.2-0.3-1.3-0.3c0.5,0,1.1,0,1.6-0.1c0.7-0.3-1.1-0.4-3-0.3
	c-0.9,0.1-1.9,0.1-2.8,0c-1.5-0.3-3.5-0.3-3.5-0.1c0,0,0.3,0.1,0.5,0.1c0.5,0.1,1.1,0.3,1.5,0.5l0.9,0.4l-2.7-0.1
	c-1.5-0.1-3.5-0.3-4.4-0.3c-1.5-0.1-1.8-0.1-1.8-0.4c0-0.3,0.3-0.3,1.2-0.3c0.7,0,1.2,0,1.9,0l0.7-0.1l-0.8-0.1
	c-1.6-0.1-3.1-0.3-4.6-0.1c-0.4,0.1-2.2,0.1-3.8,0.1c-1.6,0-3.4,0-3.9,0c-0.4,0-1.3,0-2.4,0c-1.1,0.1-2.2,0.3-3.2,0.4
	c0.5,0,1.2,0,1.9,0c4,0.1,9.6,0.4,13.2,0.6c0,0,0.1,0,0.3,0h0.1c2-0.1,5.4,0.1,5.4,0.3s0.7,0.3,1.5,0.3c1.8,0.1,1.6,0.1-0.1,0.3
	c0.1,0,0.4,0.1,0.5,0.1c0,0-0.3,0-0.7,0c-1.1,0-0.9,0,0,0.3h0.3c0.4,0.1,0.9,0.3,1.3,0.4c0.4,0.3,0,0.3-0.8,0
	c-0.6-0.1-1.3-0.2-2-0.2c0,0,0,0,0,0c-0.4-0.1-0.9-0.3-3.2-0.1h-2.4l1.8,0.1c0.8,0.1,1.6,0.1,2.3,0.1c-0.1,0-0.1,0-0.2,0
	c-0.3,0.1-0.1,0.1,0.4,0.1c0.4,0,0,0.1-0.7,0.1c0.1,0,0.1,0,0.3,0c0.7,0,0.8,0.3,0.1,0.5c-0.1,0-0.3,0.1-0.4,0.3
	c0.5,0.1,1.2,0.1,1.8,0.1c3.2,0,7.8,0.1,7.8,0.3c0,0.1-0.3,0.1-0.5,0.1c-0.3,0-0.5,0-0.7,0.1c-0.1,0.1-0.7,0.1-1.6,0
	c-1.5-0.3-6.2-0.3-8.6-0.1c2.4,0.1,4.3,0.1,4.4,0.3c0.1,0.1-0.1,0.1-0.7,0.3l-0.4,0.1l0.1,0.1h0.5l1.1,0.1h-1.2
	c0.1,0.1,0.4,0.1,0.5,0.1c0.8,0.1,1.1,0.3,0.8,0.4c-0.1,0.1-0.3,0.1-0.5,0c-0.3-0.1-1.2-0.1-3.4,0c-0.7,0-1.6,0.1-2.3,0.1
	c1.9,0,2.8,0.1,2.8,0.1c0,0.1-0.5,0.3-1.3,0.3c-0.8,0-2,0.1-2.8,0.3c-1.3,0.1-2.6,0.3-3.9,0.3c-1.3,0-3.2,0.1-4.3,0.1
	s-3.2,0.1-4.7,0.1c-1.5,0-3.1,0.1-3.5,0.1c-0.4,0.1-2.4,0.1-4.3,0.1h-0.5c0,0,0,0,0.1,0.1c0.1,0.3,0.8,0.4,1.9,0.5
	c0.1-0.1,0.4-0.1,0.5-0.1c0.1,0,0,0.1-0.1,0.1c-0.1,0.1-0.1,0.1,0,0.1c0.4,0,0.8,0,1.3,0c0.7,0,1.6,0,2.6-0.1c1.1,0,2-0.1,3.1,0
	c0.8,0.1,1.3,0.1,1.3,0c0-0.1,1.3-0.3,3-0.3c1.6,0,3.8-0.1,4.9-0.1s3.5,0,5.3,0l3.2,0.1H331c-1.6,0-3.4,0.1-4,0.1
	c-0.3,0-0.9,0.1-1.6,0.1c1.8,0,3.6,0.1,3.6,0.3c0,0,0,0,0.1,0c0.1,0,0.3,0,0.4,0c0.9,0.1,1.9,0.1,2.2,0.1c1.6,0,4.3,0,4.6,0.1
	c0.4,0.1-1.1,0.5-2.6,0.5c-1.1,0-1.3,0-1.1,0.1c0.4,0.1,0.3,0.1-0.4,0.1c-0.7,0-1.3,0.1-1.9,0.1c-0.7,0.1,0.1,0.1,2.7,0.1
	c2,0,3.5,0.1,3.5,0.1s-2.4,0-5.4,0c-3.9-0.1-5.4-0.1-5.5,0c-0.1,0.3-3.5,0.4-8.8,0.6c-0.5,0.1-1.3,0.1-2.3,0.1
	c0.1,0.1,0.1,0.1,0.3,0.1c0.1,0.1-1.3,0.3-5.1,0.3c-0.9,0-1.8,0.1-2.6,0.1c-0.1,0.1,4.7,0.1,8.6,0.1c2.8-0.1,5.5-0.3,8.4-0.4
	c1.3,0,3.5-0.1,5-0.1c3.9,0,3.8,0,3.4,0.1c-0.5,0.1-1.1,0.1-1.6,0.1c-2.2,0-5.8,0.3-7,0.3c2.7,0.1,5.3,0.1,5.4,0.3
	c0.1,0.1-0.1,0.1-0.7,0.3l-0.8,0.1l1.1,0.1l1.1,0.1h-1.2c-0.7,0-1.5,0-2.2,0.1c-0.9,0-1.5,0.1-7.5,0.1c-6.2,0-5.7,0.1,1.2,0.3
	c4.4,0.1,6.5,0.1,6.5,0.3c0,0.1-0.7,0.3-1.3,0.3c-0.3,0-0.5,0.1-0.9,0.1c0.9,0,1.9,0.1,2.3,0.1c0.5,0.1,0.1,0.1-1.6,0
	c-0.5-0.1-1.1-0.1-1.5-0.1c-0.4,0-0.8,0.1-1.1,0.1c-1.3,0.1-2.6,0.3-3.9,0.3s-3.2,0.1-4.3,0.1c-1.1,0-3.2,0.1-4.7,0.1
	c-1.5,0-3.1,0.1-3.5,0.1c-0.4,0.1-2.4,0.1-4.3,0.1c-4,0-6.2,0-7.1,0.3c-0.5,0.1-1.1,0.3-1.6,0.3c-1.9,0.1-1.2,0.3,1.2,0.3
	c8.2,0,8.9,0,9.2-0.1c0.1-0.1,0.4-0.1,0.5-0.1c0.1,0,0,0.1-0.1,0.1c-0.5,0.1,2,0.1,4,0c1.1,0,2-0.1,3.1,0c0.8,0.1,1.3,0.1,1.3,0
	c0.5-0.1,1.2-0.1,1.8-0.1c-0.1,0-0.1-0.1,0.1-0.1c0.3-0.1,0.7-0.1,0.9-0.1c0.4,0,0.3,0-0.1,0.1c0.1,0,0.2,0,0.3,0
	c1.6,0,3.8-0.1,4.9-0.1c1.1,0,3.5,0,5.3,0l3.2,0.1h-2.8c-1.6,0-3.4,0.1-4,0.1c-0.3,0-1.1,0.1-1.8,0.1c0.1,0,0.3,0,0.5,0
	c0.9,0.1,1.2,0.1,0.8,0.1c-0.7,0-1.2,0-1.8,0h-0.1c-0.4,0-0.7,0-0.9,0c-0.1,0-0.1,0-0.3,0c-0.1,0-0.3,0-0.4,0c-0.5,0-1.1,0-1.6,0.1
	c-0.3,0.1,0.3,0.1,3.6,0c1.5-0.1,2.8-0.1,4.3,0C325,56,326,56,326.3,56c1.6,0,4.3,0,4.6,0.1c0.4,0.1-1.1,0.5-2.6,0.5
	c-1.1,0-1.3,0-1.1,0.1c0.4,0.1,0.3,0.1-0.4,0.1c-0.7,0-1.3,0.1-1.9,0.1c-0.7,0.1,0.1,0.1,2.7,0.1c2,0,3.5,0.1,3.5,0.1s-2.4,0-5.4,0
	c-3.9-0.1-5.4-0.1-5.5,0c-0.1,0.1-3.5,0.4-8.8,0.6c-1.3,0-4.7,0.1-7.3,0.1c-2.6,0.1-4.7,0.1-4.9,0.1c-0.1,0-1.8,0-3.8,0
	s-4,0.1-4.6,0.1c-0.5,0.1-0.9,0.1-1.5,0.1c-0.5,0-0.5,0-0.3-0.1c0.4-0.1-2-0.1-5.1,0c-0.8,0.1-0.9,0.1-0.5,0
	c0.9-0.1-32.2-1-52.3-1.3c-10.5-0.3-22.1-0.4-24.4-0.5c-1.5-0.1-0.7-0.3,0.8-0.3c0.7,0,1.2,0,1.8-0.1c0.1-0.1,1.6-0.1,4.2-0.1
	c1.7,0,3.7,0,4.8,0c0,0,0,0,0.1,0c0.1,0,0.1,0,0.3,0c0,0,0.1,0,0.3,0c4.3,0,13.6,0,19.7,0.1c11.9,0.1,24.2,0.2,26,0.1
	c7.1,0.2,9.7,0.2,10.1,0.1c0.4-0.1,0.4-0.1-0.1-0.1c-0.5,0,0.2,0,1.2-0.1c-0.4,0.1,0.2,0.2,2.6,0.2c0.9,0.1,2,0.1,3,0
	c0,0,0.1,0,0.4,0c0.3,0.1,0.5,0,0.8,0c0.8-0.1,1.6-0.1,2.4-0.3c0.8,0,1.8,0,2.6-0.1c0.4-0.1,0.9-0.1,1.3-0.1c1.8,0.1,0.8,0-1.6-0.1
	c-0.3,0-0.6-0.1-0.9-0.1l0.9-0.2h-1.1c-0.4,0-0.9,0-1.5-0.1c-0.3-0.1-0.4-0.1-0.4,0c0,0.1-0.5,0.1-1.2,0.1c-0.5,0-1.1,0-1.5,0.1
	c-0.8,0.1-1.8,0.3-2.6,0.3c0,0,0,0,0,0c0,0-0.1,0-0.1,0c-5.4-0.3-12.7-0.4-17.1-0.5c-5.3-0.1-6.9-0.1-9.4-0.3c-0.7,0-1.5,0-1.9,0
	s-2.7-0.1-5.3-0.1c-7.8-0.1-24.8-0.3-25.3-0.3c-0.1,0-4.4,0-9.4-0.1c-2.9-0.1-6-0.1-9.2-0.1c0.9,0.1,1.2,0.1,0.8,0.1
	c-0.7,0-1.2,0-1.8,0h-0.1c-0.4,0-0.7,0-0.9,0c-0.1,0-0.1,0-0.3,0c-0.1,0-0.3,0-0.4,0c-0.5,0-1.1,0-1.6,0.1c-0.3,0.1,0.3,0.1,3.6,0
	c1.5-0.1,2.8-0.1,4.3,0c0.9,0.1,1.9,0.1,2.2,0.1c0.6,0,1.2,0,1.9,0c0.4,0.1,0.2,0.1-0.4,0.1c-0.7,0-1.3,0.1-1.9,0.1
	c-0.7,0.1,0.1,0.1,2.7,0.1c2,0,3.5,0.1,3.5,0.1s-2.4,0-5.4,0c-3.9-0.1-5.4-0.1-5.5,0c-0.1,0.3-3.5,0.4-8.8,0.6
	c-1.3,0-4.7,0.1-7.3,0.1c-2.6,0.1-4.7,0.1-4.9,0.1c-0.1,0-1.8,0-3.8,0s-4,0.1-4.6,0.1c-0.5,0.1-0.9,0.1-1.5,0.1
	c-0.5,0-0.5,0-0.3-0.1c0.4-0.1-2-0.1-5.1,0c-0.8,0.1-0.9,0.1-0.5,0c0.5,0-7.1-0.3-17.4-0.5c-0.3,0-0.5,0-0.8,0
	c-3.8,0.1-3.5,0.1-3.5,0c0,0,0.1-0.1,0.3-0.1c-10-0.3-21.7-0.5-30.7-0.6c-10.5-0.3-22.1-0.4-24.4-0.5c-1.5-0.1-0.7-0.3,0.8-0.3
	c0.7,0,1.2,0,1.8-0.1c0.1-0.1,1.6-0.1,4.2-0.1c1.7,0,3.7,0,4.8,0c0,0,0,0,0.1,0c0.1,0,0.1,0,0.3,0c0,0,0.1,0,0.3,0
	c4.3,0,13.6,0,19.7,0.1c8.6,0.1,17.3,0.3,22.2,0.3c0.7,0,0.8,0,0.7-0.3c-0.1-0.1-0.5-0.3-1.9-0.3c-0.8-0.1-1.5,0-2.2,0
	c-0.9,0.1-1.8,0.1-2.6,0c-1.2-0.1-1.8-0.1-1.3-0.1c0.5,0,0.7,0,0.8-0.1c-19.8-0.5-38.8-0.8-51.2-0.9c0.8,0,1.8,0,2.7,0H90
	c3.2,0,6.9,0.1,10.6,0.1c5.4,0.1,23,0.4,36.9,0.6h0.1c0.3-0.1,0.4-0.1,0.7-0.1c0.8,0,1.5,0,2.2-0.1c1.1-0.1,2.8-0.4,4.7-0.5h-0.7
	c-5.4-0.1-6.9-0.1-9.4-0.3c-0.4,0.1-0.9,0.1-1.3,0.1c-1.2,0-1.8,0-2.3-0.1c-0.9,0-2.2,0-3.5,0c-7.8-0.1-24.8-0.3-25.3-0.3
	c-0.1,0-4.4,0-9.4-0.1c-13.7-0.1-34.5,0-34.9,0.3c0,0.1-0.5,0.1-1.3,0c-0.4,0-0.9-0.1-1.3,0c-0.3,0.1-0.7,0.1-1.1,0.1
	c-0.5,0-2.8,0-5.3,0.1c-4,0.1-9.2,0.3-12,0.3c-0.8,0-2.6,0.1-4,0.1c-4.6,0.1-5.7,0.1-7.3,0.1c-0.9,0.1-2,0.1-2.4,0.1h-0.8l0.5-0.1
	c0.3-0.1,0.4-0.1,0.1-0.1c-0.3,0.1-0.4,0-0.4,0c0.4-0.1,0.8-0.1,1.2-0.1c1.5-0.1,1.6-0.1,1.5-0.4c-0.1-0.1-0.5-0.3-1.9-0.3
	c-0.8-0.1-1.5,0-2.2,0c-0.9,0.1-1.8,0.1-2.6,0c0,0-0.1,0-0.1,0c0.2,0,0.4-0.1,0.5-0.1c0.6,0,1.3-0.1,1.3-0.3c0-0.1-0.7-0.1-2.2-0.2
	c0.1-0.1,0.2-0.1,0.5-0.1c0.3,0,0.4,0,0.7-0.1c0.3-0.1,0.4-0.1,0.7-0.1c0.8,0,1.5,0,2.2-0.1c2.2-0.3,6.3-0.6,9.6-0.9
	c4.2-0.4,4.7-0.4,2.6-0.4c-1.9,0-4.2,0.1-6.9,0.3c-0.9,0.1-2.7,0.1-4,0.1c-0.2,0-0.4,0-0.6,0c0,0,0,0,0,0c-0.1-0.1-2.6-0.1-5.1-0.3
	c1.1,0,4.6-0.3,6.6-0.3c0.5,0,1,0,1.5-0.1c0.4-0.1,0.5-0.1-3.2-0.1c-1.4,0-3.4,0.1-4.7,0.1c-2,0.1-4,0.2-5.9,0.3
	c0-0.1,0-0.2,0.1-0.3c0.1-0.4,0.1-0.4-0.8-0.4c-0.3,0-0.5,0-0.6,0c0.1,0,0.3,0,0.4-0.1c5-0.3,8.2-0.4,8.3-0.7c0.1-0.1,1.5-0.1,5.2,0
	c2.8,0,5.1,0,5.1,0s-1.4-0.1-3.3-0.1c-1.1,0-1.9,0-2.3,0c1.5,0,3.1-0.1,3.8-0.2c0.8-0.1,1.8-0.3,2.6-0.3c-0.1,0-0.1-0.1-0.1-0.1
	c0-0.1,0.5-0.1,1.5-0.3c-0.3,0-0.5,0-0.8,0c-0.4,0-0.8,0-0.8,0s-0.4,0-1,0c0.3-0.1,0.4-0.2,0.3-0.2c-0.2-0.1-2.7-0.1-4.2-0.1
	c-0.1,0-0.3-0.1-0.7,0c-0.3,0-0.6,0-0.9-0.1c1.2,0,2.8-0.1,4.3-0.2c0.1-0.1,0.1-0.1,0.1-0.1h-0.1c0,0-0.1,0-0.3,0
	c-1.5-0.1-2.8-0.1-4.2-0.1c-0.7,0-1.2,0-1.3,0c-0.3,0-0.4,0-0.7,0.1c-0.1,0-0.1,0-0.2,0c-0.1,0-0.1,0-0.2,0c0,0,0,0,0,0
	c-0.6,0-1.2,0-1.7,0c0.6,0,1.2-0.1,1.4-0.1c0.6,0,2.3-0.1,3.8-0.1h2.7l-3.1-0.1c-1.7,0-4,0-5,0s-3.1,0.1-4.6,0.1
	c-0.9,0-1.8,0.1-2.3,0.1c-3.9-0.1-7.5-0.1-10.3-0.2c-0.1-0.1-0.2-0.1-0.3-0.2c-0.1-0.1-0.1-0.1-0.1-0.1h0.5c1.8,0,3.7,0,4.1-0.1
	c0.4,0,1.9-0.1,3.3-0.1c0.3,0,0.5,0,0.8,0c1,0,2,0,3.2,0c0.1,0,0.3-0.1,0.5-0.1c1,0,2.8-0.1,4-0.1c1.3,0,2.4-0.1,3.7-0.3
	c0.8-0.1,1.9-0.3,2.7-0.3c0.8,0,1.3-0.1,1.3-0.3c0,0-0.9-0.1-2.7-0.1c0.6,0,1.5-0.1,2.2-0.1c2-0.1,2.9-0.1,3.2,0
	c0.3,0.1,0.4,0.1,0.5,0c0.3-0.1,0-0.3-0.8-0.4c-0.1,0-0.4,0-0.5-0.1h1.1l-1-0.1h-0.5l-0.1-0.1l0.4-0.1c0.5-0.1,0.8-0.1,0.6-0.3
	c-0.1-0.1-1.9-0.1-4.2-0.3c2.3-0.1,6.8-0.1,8.2,0.1c0.9,0.1,1.4,0.1,1.5,0C34,43,34.3,43,34.5,43c0.3,0,0.5,0,0.5-0.1
	c0-0.1-4.3-0.3-7.4-0.3c-0.5,0-1.1,0-1.7-0.1c0.1-0.1,0.3-0.3,0.4-0.3c0.6-0.3,0.5-0.6-0.1-0.6c-0.1,0-0.1,0-0.3,0
	c0.6,0,1-0.1,0.6-0.1c-0.5,0-0.6,0-0.4-0.1c0.1,0,0.1,0,0.2,0c0.8,0,1.4,0,1.5-0.1c0.7,0,1.3,0.1,1.9,0.2c0.8,0.3,1.1,0.3,0.8,0
	c-0.4-0.1-0.9-0.3-1.3-0.4h-0.3c-0.9-0.3-1-0.3,0-0.3c0.4,0,0.6,0,0.6,0c-0.1,0-0.4-0.1-0.5-0.1c1.7-0.1,1.8-0.1,0.1-0.3
	c-0.8,0-1.4-0.1-1.4-0.3c0-0.1-3.2-0.4-5.1-0.3h-0.1c-0.1,0-0.3,0-0.3,0c-3.4-0.3-8.7-0.6-12.5-0.7c-0.6,0-1.3,0-1.8,0
	c1-0.1,2-0.3,3.1-0.4c1,0,1.9,0,2.3,0c0.5,0,2.2,0,3.7,0c1.5,0,3.2,0,3.6-0.1c1.4-0.1,2.8,0,4.3,0.1l0.8,0.1L25.2,39
	c-0.6,0-1.1,0-1.8,0c-0.9,0-1.1,0-1.1,0.3c0,0.3,0.3,0.3,1.7,0.4c0.9,0,2.8,0.1,4.2,0.3l2.6,0.1l-0.9-0.4c-0.4-0.3-0.9-0.4-1.4-0.6
	c-0.3,0-0.5-0.1-0.5-0.1c0-0.1,1.9-0.1,3.3,0.1c0.9,0.1,1.8,0.1,2.7,0c1.8-0.1,3.4,0,2.8,0.3c-0.5,0.1-1,0.1-1.5,0.1
	c-1.8,0-1.1,0,1.3,0.3c1.3,0.1,2.9,0.1,3.6,0.3c1.1,0.1,1.4,0.1,1.3,0c-0.1-0.1-0.5-0.1-1.9-0.3c-1.7,0-1.8-0.1-2.3-0.4
	c-0.5-0.3-0.5-0.4-0.3-0.4c0.3-0.1,0.1-0.1-0.4-0.1c-0.4,0,0,0,0.8-0.1c1,0,1.7-0.1,1.8-0.3c0.3-0.3,0.3-0.3-0.4-0.6
	c-0.4-0.1-1.9-0.1-5.7-0.3c-0.1,0-0.3-0.1-0.4-0.3c-0.3-0.4-0.3-0.4-1-0.1c-0.4,0.1-0.8,0.1-1.3,0c-0.4-0.1-1-0.1-1.4-0.3
	c-0.4-0.1-0.5-0.1-0.3-0.1c1.1,0,2.7-0.1,3.2-0.1c2.3,0,4.8,0,5.7,0.1c0.9,0.1,1.4,0.1,1.5,0c0.1-0.1,0.4-0.1,0.6-0.1
	c0.3,0,0.5,0,0.5-0.1c0-0.1-4.3-0.3-7.4-0.3c-0.5,0-1.1,0-1.7-0.1c0.1-0.1,0.3-0.3,0.4-0.3c0.4-0.1,0.5-0.3,0.4-0.4
	c0.1,0,0.3,0,0.4,0c0.3,0,0.8,0.1,1.1,0.1c2.3,0.3,2.3,0.3,2.2,0.1c-0.1-0.1-0.4-0.1-0.5-0.1c-0.3,0-0.6-0.3-0.6-0.6
	c0.3,0,0.4,0.1,0.6,0.1c0.8,0.3,1.1,0.3,0.8,0h-0.1c0,0,0,0,0.1-0.1c0.1-0.3-0.6-0.7-1.1-0.7c-0.3,0-0.6-0.1-0.9-0.3
	c-0.3-0.1-0.6-0.1-1-0.3c-0.1,0-0.4,0-0.5-0.1c-0.1-0.1,5.6,0.1,7.1,0.3c1.3,0.1,2,0.3,1.9,0.1c-0.3-0.1-3.7-0.4-7.3-0.6
	c-3.3-0.1-4.1-0.1-4.7-0.4c-0.1,0-0.1,0-0.3-0.1c1,0,2.6,0.1,3.7,0.1l2.6,0.1l-0.9-0.4c-0.4-0.3-0.9-0.4-1.4-0.6
	c-0.3,0-0.5-0.1-0.5-0.1c0-0.1,1.9-0.1,3.3,0.1c0.9,0.1,1.8,0.1,2.7,0c1.8-0.1,3.4,0,2.8,0.3c-0.5,0.1-1,0.1-1.5,0.1
	c-1.8,0-1.1,0,1.3,0.3c1.3,0.1,2.9,0.1,3.6,0.3c1.1,0.1,1.4,0.1,1.3,0c-0.1-0.1-0.5-0.1-1.9-0.3c-1.7,0-1.8-0.1-2.3-0.4
	c-0.5-0.3-0.5-0.4-0.3-0.4c0.3-0.1,0.1-0.1-0.4-0.1c-0.4,0,0,0,0.8-0.1c1,0,1.7-0.1,1.8-0.3c0.3-0.3,0.3-0.3-0.4-0.6
	c-0.4-0.1-1.9-0.1-5.7-0.3c-4.7,0-5.2,0-5.5-0.3c-0.3-0.1-0.6-0.3-1-0.3c-0.4,0-0.8,0-1.1-0.1c-0.1,0-0.3-0.1-0.1-0.1
	c1,0.1,1.5,0.1,1.7,0c0.4,0,0.8,0,1.4,0c1.8,0,4.7-0.1,3.8-0.1c-0.3,0-0.5-0.1-0.5-0.1c0-0.3-1.7-0.6-4-0.7c-0.5,0-0.9,0-1.3-0.1
	c-0.4-0.1-0.9-0.1-1.3-0.1c-0.6-0.1-1.3-0.3-1.9-0.3c0.3-0.1,0.6-0.3,0.9-0.3s0.1,0-0.3-0.1c-0.5-0.1-0.4-0.1,0.4,0
	c0.5,0,1.8,0.1,2.8,0.1c0.6,0,1.4,0.1,2,0.3c0.5,0.1,1,0.1,1.5,0.1c0.5,0,0.9,0,1.4,0.1c0.3,0.1,0.4,0.1,0.6,0.1
	c0.3,0,0.8,0.1,1.1,0.1c2.3,0.3,2.3,0.3,2.2,0.1c-0.1-0.1-0.4-0.1-0.5-0.1c-0.4,0-0.8-0.4-0.5-0.6c0.3,0,0.5,0,0.6,0.1
	c0.5,0.3,0.5,0.3,0.6,0c0.1-0.3-0.6-0.7-1.1-0.7c-0.3,0-0.6-0.1-0.9-0.3s-0.6-0.1-1-0.3c-0.1,0-0.4,0-0.5-0.1
	c-0.1-0.1,5.6,0.1,7.1,0.3c1.3,0.1,2,0.3,1.9,0.1c-0.3-0.1-3.7-0.4-7.3-0.6c-3.3-0.1-4.1-0.1-4.7-0.4c-0.8-0.3-1.8-0.4-4.5-0.6
	c-0.8,0-1.4-0.1-2.2-0.3c-0.6-0.4-1.4-0.7-2.2-0.8c-0.3,0-0.4-0.1-0.6-0.3c-0.5-0.3-1.1-0.4-1.7-0.4c-0.5,0-1.1-0.1-1.7-0.4
	c-0.3-0.1-0.9-0.3-2-0.3c-0.8-0.1-1.3-0.1-1.6-0.2c0.2,0,0.4,0,0.6,0c-0.3,0-0.5,0-0.6-0.1c-0.1,0-0.1,0-0.2-0.1c0.2,0,0.4,0,0.8,0
	c0.5,0,1,0,1.5-0.1c0.1,0,0.1-0.1,0.1-0.1l1.2,0.1c5.6,0.3,8.2,0.4,8.4,0.3c0.1,0,0.1-0.1-0.1-0.1c-0.3,0-0.4,0-0.6-0.1
	c-0.4-0.1-0.8-0.3-1.1-0.3c-0.9-0.1-0.9-0.1-0.3-0.1c1.1,0-3.2-0.3-6.5-0.4c-1.9,0-3.3-0.1-3.4-0.3c-0.3-0.3,7.8,0,11.1,0.4l1.5,0.1
	h-1c-0.9,0-0.9,0,1,0.3c1.1,0.1,2.3,0.3,2.7,0.3c0.6,0,1.1,0.1,1.7,0.3c1.3,0.3,2,0.3,2,0c0-0.4-2.3-0.8-5.7-1.1
	c-4.5-0.4-6-0.6-7.9-0.6c-1,0-1.3-0.1-1.7-0.4c-0.1,0-0.1-0.1-0.1-0.1c0.6,0,1.4,0.1,2,0.1c0.9,0,1.8,0.1,2.7,0.1
	c0,0.1,0.1,0.1,0.3,0.1s0.3,0,0.3-0.1c2.8,0.1,5.5,0.4,8.2,1c2.7,0.4,3.4,0.6,2.9,0.3c-0.4-0.1-4.8-1-6.1-1.1
	c-1.3-0.1-2.8-0.3-5.7-0.4c-0.6,0-1.7-0.1-2.9-0.1c0.1,0,0.1,0,0.1,0c0-0.1-0.3-0.1-0.5-0.1c-0.3,0-0.5,0-0.6,0.1
	c-0.2,0-0.3,0-0.5,0c0.3-0.1,0.1-0.1-0.4-0.1c-0.4,0,0,0,0.8-0.1c1,0,1.7-0.1,1.8-0.3c0.3-0.3,0.3-0.3-0.4-0.6
	c-0.4-0.1-1.9-0.1-5.7-0.3c-4.7,0-5.2,0-5.5-0.3c-0.3-0.1-0.6-0.3-1-0.3c-0.4,0-0.8,0-1.1-0.1c-0.5-0.1-0.4-0.1,2.8-0.1
	c1.8,0,4.7-0.1,3.8-0.1c-0.3,0-0.5-0.1-0.5-0.1c0-0.3-1.7-0.6-4-0.7c-0.5,0-0.9,0-1.3-0.1c-0.5-0.1-1.1-0.1-1.7-0.1s-1,0-1.5-0.1
	C7,17.3,7.6,17.1,8,17.1c0.3,0,0.1,0-0.3-0.1c-0.5-0.1-0.4-0.1,0.4,0c0.5,0,1.8,0.1,2.8,0.1c0.6,0,1.4,0.1,2,0.3
	c0.5,0.1,1,0.1,1.5,0.1s0.9,0,1.4,0.1c0.3,0.1,0.4,0.1,0.6,0.1s0.8,0.1,1.1,0.1c2.3,0.3,2.3,0.3,2.2,0.1s-0.4-0.1-0.5-0.1
	c-0.4,0-0.8-0.4-0.5-0.6c0.3,0,0.5,0,0.6,0.1c0.5,0.3,0.5,0.3,0.6,0c0.1-0.3-0.6-0.7-1.1-0.7c-0.3,0-0.6-0.1-0.9-0.3
	c-0.3-0.1-0.6-0.1-1-0.3c-0.1,0-0.4,0-0.5-0.1c-0.1-0.1,5.6,0.1,7.1,0.3c1.3,0.1,2,0.3,1.9,0.1c-0.3-0.1-3.7-0.4-7.3-0.6
	c-3.3-0.1-4.1-0.1-4.7-0.4c-0.8-0.3-1.8-0.4-4.5-0.6c-0.8,0-1.4-0.1-2.2-0.3c-0.6-0.4-1.4-0.7-2.2-0.8c-0.3,0-0.4-0.1-0.6-0.3
	c-0.5-0.3-1.1-0.4-1.7-0.4c-0.2,0-0.5,0-0.8-0.1c0.2,0,0.3,0,0.5,0c0.7,0,2-0.1,2.8-0.1c0.9,0,2-0.1,2.6-0.1c0.4-0.1,0.8-0.1,1.2,0
	c0.3,0.1,4.7,0,5.1-0.1c0.1,0,0.6-0.1,1.4-0.1c0,0,0.1,0,0.1,0c3.4-0.2,11.9-0.5,15.5-0.5c1.2,0,3.2-0.1,4.6-0.1
	c3.8-0.1,9.6-0.1,18.6-0.1c0.8,0,2.6,0,4,0c0.4,0,0.7,0,0.9,0c-0.9,0.1-4.7,0.1-8.4,0.1c-7,0-11.3,0.1-14.4,0.3
	c-1.1,0-3.5,0.1-5.5,0.1c-5.4,0.1-10.5,0.3-10.6,0.4c-0.1,0.1,5.7,0.1,6.7,0c0.5,0,2.7-0.1,5-0.1c2.2-0.1,4-0.1,4.2-0.1s1.3,0,2.6,0
	c1.2,0,3.4,0.1,4.7,0c1.3-0.1,3.4-0.1,4.4-0.1s2.6,0,3.2,0c2.6,0,6.2,0,10.1,0c2.2,0,4,0,4.2,0c0.1,0,2.8,0,6.1,0
	c5.7,0.1,9,0,11.7-0.1c0.7,0,2.3,0,3.6,0c1.3,0,2.4,0,2.6-0.1c0.1-0.1,0.3-0.1,0.4-0.1c0.1,0,0.3,0.1,0.1,0.1
	c-0.3,0.1,5.5,0.1,12.9-0.1c1.6,0,5,0,7.7,0c10,0.3,10.6,0.3,19,0c1.5-0.1,3.2-0.1,3.8-0.1c0.5,0,2.2,0.1,3.5,0.1s7.7,0.3,14.2,0.4
	c10,0.3,19.4,0.6,16.8,0.6c-0.8,0-0.9,0-0.3,0.1c0.1,0,0.3,0,0.4,0c0.3-0.1,0.5,0,0.5,0.1c0,0.1-0.1,0.1-0.1,0.1
	c0.4,0,0.9,0.1,1.6,0.1c1.9,0.1,3.8,0.3,5.7,0.3c1.6,0,3.9,0,5.3,0s4,0,6.1,0c3.5,0,4.3,0.1,10.5,0.6c0.7,0,1.3,0.1,1.9,0.1
	c0.5-0.1,1.1-0.1,1.6-0.1c0.1,0,0.2,0,0.3,0c-3.9-0.6-7.8-0.9-11.9-1c-0.8,0-1.6,0-2.4-0.1c-0.1,0-3.8,0-5.7,0.1
	c-0.7,0.1-0.8,0-0.7-0.1c0.1-0.1,0-0.1-0.5-0.1c-0.3,0.1-1.8,0.1-3.2,0.1c-1.5,0-3.4,0-4.3,0s-1.6-0.1-1.5-0.1
	c0.1-0.1,0.3-0.1,0.4-0.1c0.1,0,1.2,0,2.3,0c1.2,0,2.8,0,3.8,0c0.5,0,1.2-0.1,1.8-0.1c0.1,0,9.8,0.3,12.7,0.4
	c3.1,0.1,4.7,0.3,6.1,0.4c0.9,0.1,3.4,0.5,5,0.8c0.5,0,1.2,0,1.8,0c1.3,0,2.4,0,2.6-0.1c0.1-0.1,0.3-0.1,0.4-0.1
	c0.1,0,0.3,0.1,0.1,0.1c-0.3,0.1,5.5,0.1,12.9-0.1c1.6,0,5,0,7.7,0c10,0.3,10.6,0.3,19,0c1.5-0.1,3.2-0.1,3.8-0.1
	c0.5,0,2.2,0.1,3.5,0.1c1.3,0,7.7,0.3,14.2,0.4c10,0.3,19.4,0.6,16.8,0.6c-1.3,0-0.7,0.1,2.3,0.4c1.9,0.1,3.8,0.3,5.7,0.3
	c1.6,0,3.9,0,5.3,0c1.3,0,4,0,6.1,0c3.5,0,4.3,0.1,10.5,0.6c3.6,0.3,6.1,0.6,6.1,1c0,0.3-0.8,0.3-2.2,0c-0.5-0.1-1.1-0.3-1.8-0.3
	c-0.4,0-1.6-0.1-2.8-0.3c-2-0.3-2-0.3-1.1-0.3h1.1l-1.6-0.1c-3.5-0.4-12-0.6-11.7-0.4c0.1,0.1,1.6,0.3,3.6,0.3
	c3.5,0.1,8.1,0.4,6.9,0.4c-0.7,0-0.7,0,0.3,0.1c0.4,0,0.8,0.1,1.2,0.3c0.3,0.1,0.4,0.1,0.7,0.1c0.3,0,0.3,0.1,0.1,0.1
	c-0.3,0.1-3,0-8.9-0.3l-4.4-0.3l0.4,0.3c0.3,0.3,0.7,0.3,2.2,0.4c1.2,0,1.9,0.1,2.2,0.3c0.5,0.3,1.2,0.4,1.8,0.4
	c0.5,0,1.2,0.1,1.8,0.4c0.3,0.1,0.4,0.3,0.7,0.3c0.8,0.1,1.6,0.4,2.3,0.8c0.8,0.1,1.5,0.3,2.3,0.3c2.8,0.1,3.9,0.3,4.7,0.5
	c0.7,0.3,1.5,0.3,5,0.4c3.8,0.1,7.4,0.4,7.7,0.5c0.1,0.1-0.7,0-2-0.1c-1.6-0.1-7.7-0.4-7.5-0.3c0.1,0.1,0.4,0.1,0.5,0.1
	c0.4,0.1,0.8,0.1,1.1,0.3c0.3,0.1,0.7,0.3,0.9,0.3c0.5,0,1.3,0.4,1.2,0.6c-0.1,0.3-0.1,0.3-0.7,0c-0.1-0.1-0.4-0.1-0.7-0.1
	c-0.3,0.1,0.1,0.5,0.5,0.5c0.1,0,0.4,0,0.5,0.1c0.1,0.1,0.1,0.1-2.3-0.1c-0.4,0-0.9-0.1-1.2-0.1s-0.4,0-0.7-0.1
	c-0.5-0.1-0.9-0.1-1.5-0.1s-1.1,0-1.6-0.1c-0.7-0.1-1.5-0.3-2.2-0.3c-1.1,0-2.4-0.1-3-0.1c-0.8-0.1-0.9-0.1-0.4,0
	c0.4,0.1,0.5,0.1,0.3,0.1c-0.4,0-1.1,0.3-0.9,0.4c0.5,0.1,1.1,0.1,1.6,0.1c0.5,0,1.2,0,1.8,0.1c0.4,0.1,0.8,0.1,1.3,0.1
	c2.4,0.1,4.2,0.4,4.2,0.6c0,0,0.3,0.1,0.5,0.1c0.9,0-2.2,0.1-4,0.1c-3.4,0-3.5,0-3,0.1c0.4,0.1,0.8,0.1,1.2,0.1
	c0.4,0,0.8,0.1,1.1,0.3c0.3,0.3,0.8,0.3,5.8,0.3c4,0.1,5.7,0.1,6.1,0.3c0.7,0.3,0.7,0.3,0.4,0.5c-0.1,0.1-0.8,0.3-1.9,0.3
	c-0.8,0.1-1.2,0.1-0.8,0.1c0.5,0,0.7,0,0.4,0.1c0.2,0,0.3,0,0.5,0c0.1-0.1,0.4-0.1,0.7-0.1c0.3,0,0.5,0,0.5,0.1c0,0,0,0-0.1,0
	c1.3,0,2.4,0.1,3.1,0.1c3.1,0.1,4.7,0.3,6.1,0.4c1.3,0.1,6.1,0.9,6.5,1c0.5,0.3-0.3,0.1-3.1-0.3c-2.8-0.5-5.7-0.8-8.6-0.9
	c0,0.1-0.1,0.1-0.3,0.1c-0.1,0-0.3,0-0.3-0.1c-0.9,0-1.9-0.1-2.8-0.1c-0.7,0-1.5-0.1-2.2-0.1c0,0,0,0.1,0.1,0.1
	c0.4,0.3,0.7,0.4,1.8,0.4c2,0,3.6,0.1,8.4,0.5c3.6,0.3,6.1,0.6,6.1,1c0,0.3-0.8,0.3-2.2,0c-0.5-0.1-1.1-0.3-1.8-0.3
	c-0.4,0-1.6-0.1-2.8-0.3c-2-0.3-2-0.3-1.1-0.3h1.1l-1.6-0.1c-3.5-0.4-12-0.6-11.7-0.4c0.1,0.1,1.6,0.3,3.6,0.3
	c3.5,0.1,8.1,0.4,6.9,0.4c-0.7,0-0.7,0,0.3,0.1c0.4,0,0.8,0.1,1.2,0.3c0.3,0.1,0.4,0.1,0.7,0.1s0.3,0.1,0.1,0.1
	c-0.3,0.1-3,0-8.9-0.3l-1.2-0.1c0.2-0.2-1.4-0.3-3.1-0.2c-0.5,0-1.1,0-1.6,0c-0.4,0-0.8,0-1.1,0c-0.7,0.1-0.8,0-0.7-0.1
	c-0.7-0.1-1.5-0.1-2-0.1H317c-0.3,0.1-0.4,0.1-0.4,0.1s0.3,0.1,0.5,0.1c0.4,0.1,0.8,0.3,1.1,0.4c0.7,0,1.3,0,1.9,0
	c0.8,0,2.2,0,3.5,0.1c0.3,0.1,0.8,0.1,1.7,0.2c1.2,0,1.9,0.1,2.2,0.3c0.5,0.3,1.2,0.4,1.8,0.4c0.5,0,1.2,0.1,1.8,0.4
	c0.3,0.1,0.4,0.3,0.7,0.3c0.8,0.1,1.6,0.4,2.3,0.8c0.8,0.1,1.5,0.3,2.3,0.3c2.8,0.1,3.9,0.3,4.7,0.5c0.7,0.3,1.5,0.3,5,0.4
	c3.8,0.1,7.4,0.4,7.7,0.5c0.1,0.1-0.7,0-2-0.1C349.8,31.1,343.8,30.8,343.9,30.9z M18.9,14.3c0.1,0,0.3,0,0.4,0
	C19.6,14.2,19.5,14.2,18.9,14.3z M30.8,37.1c-0.1-0.1-0.1-0.1-0.3-0.1c-0.3-0.1-0.6-0.1-0.9-0.1c-0.1,0,0.1,0.1,0.8,0.3
	C30.6,37.1,30.7,37.1,30.8,37.1z M16.9,46c-0.4,0-0.5,0-0.3,0.1c0.1,0,0.4,0,0.5,0C17.3,46,17.2,46,16.9,46z M23.4,45.9
	c-0.5,0-1.2,0-1.8,0c-0.4,0-0.8,0-1.1,0.1c-0.1,0.1-0.4,0.1-0.7,0.1c1.2,0,2.3,0,3.4-0.1C23.4,46,23.4,45.9,23.4,45.9z M31.3,47.3
	c-0.3,0-0.4,0-0.3,0.1c0.1,0,0.4,0,0.5,0C31.8,47.3,31.6,47.3,31.3,47.3z M33,47.3c-0.1,0-0.1,0-0.1,0h-0.3c0,0.1,0.1,0.1,0.3,0.1
	S33.1,47.4,33,47.3z M270.2,57.4c-0.7,0-1.5,0-2.2,0.1c-0.3,0.1,4,0,4.4-0.1C272.9,57.3,273.2,57.3,270.2,57.4z M303.6,25
	c0.1,0,0.3,0,0.4,0c0-0.1-0.1-0.1-0.3-0.1C303.5,24.8,303.5,25,303.6,25z M302.1,25c0.1,0,0.3,0,0.4,0c0.1,0,0,0-0.3-0.1
	C302,24.8,302,25,302.1,25z M273.6,46.7c4.2,0.1,7.8,0.1,10.1,0.1c-1.6,0-3.1-0.1-4.6-0.1c-7.1-0.1-11.1-0.3-13.5-0.3
	c-0.3,0-0.5,0-0.7,0C263.3,46.4,266.1,46.5,273.6,46.7z M273.7,49.4h-1.1c-0.7-0.1-1.3,0-2,0c0.8,0.1,5.9,0.1,6.2,0
	C275.8,49.3,274.8,49.3,273.7,49.4z M269.1,49.4c0.1,0,0.2,0,0.3,0C269.5,49.4,269.4,49.3,269.1,49.4z M262.6,49.6
	c1.5,0.1,2,0.1,1.6,0c-0.9-0.3-2-0.3-3-0.1C260.8,49.4,261.2,49.4,262.6,49.6z M252.8,42.6C252.8,42.6,252.8,42.6,252.8,42.6
	C253,42.5,253,42.5,252.8,42.6z M245.7,42.5c0.5,0,1.1,0,1.6,0.1c0,0.1,0.3,0.1,0.4,0c0,0,0.1-0.1,0.3-0.1c-0.5,0-0.9,0-1.5,0
	C246.2,42.5,245.9,42.5,245.7,42.5z M243.8,50.1c-0.1,0-0.2,0-0.3,0c0.1,0.1,0.4,0.1,0.5,0.1C244.2,50.1,244,50.1,243.8,50.1z
	 M241.5,50c0,0,0,0-0.1,0c-0.4,0.1-0.4,0.1,0,0.1c0.3,0,0.4,0,0.4-0.1H241.5z M240.1,50.1c0.1,0,0.4,0,0.5,0c0.1-0.1,0-0.1-0.3-0.1
	C240,50,239.9,50.1,240.1,50.1z M236.6,42.1c0,0.1,0.7,0.3,1.5,0.3c0.4,0,0.7,0,0.9,0l2.4-0.1l-3.6-0.1
	C237.4,42.1,237,42.1,236.6,42.1z M233.1,50c0,0.1,0.5,0.1,1.5,0.1c0.4-0.1,0.9,0,1.3,0c-0.4,0.1-0.9,0.1-1.3,0.1
	c0.7,0,0.5,0,0.3,0.1c-0.4,0.1-0.7,0.1-1.1,0.1c2.4,0,5.9,0,8.4,0c0-0.1,0.1-0.1,0.3,0c0.1,0,0.1,0,0.3,0c0.9,0,1.8,0,2.6-0.1
	c0.1-0.1-0.3-0.1-0.8-0.1c-1.9,0.1-8.4,0-8.1-0.1c0.5,0,1.1,0,1.6,0c0.8,0,1.5-0.1,1.5-0.1c-2.2,0-4.2-0.1-6.2-0.1
	C233.1,50,233.1,50,233.1,50z M226.8,49.8c-0.5,0-1.3,0.1-2.4,0.1c3,0,6.1,0,6.7,0.1c1.5,0.1,1.8,0,1.6-0.1c-1.8-0.1-3.4-0.1-5-0.1
	C227.5,49.8,227.1,49.8,226.8,49.8z M227.2,50.2c0.1,0.1,0.3,0.1,0.4,0C227.4,50.2,227.3,50.2,227.2,50.2z M225,50.1
	c-0.3,0-0.4,0.1-0.1,0.1c0.1,0,0.3,0,0.4,0C225.4,50.1,225.3,50.1,225,50.1z M216.8,41.7l0.4,0.1c1.1,0,2.4,0,4.2,0c1,0,2.2,0,3.4,0
	C222.2,41.8,219.2,41.7,216.8,41.7z M215.3,41.7c0.3,0.1,0.4,0.1,0.7,0.1c0.3,0,0.5-0.1,0.5-0.1C216.1,41.7,215.7,41.7,215.3,41.7z
	 M177.7,54.6c5,0,6.1,0,6.3-0.1C181.5,54.5,179.2,54.5,177.7,54.6z M188.4,54.4c-1.3,0-2.6,0-3.9,0
	C184.9,54.5,186.8,54.5,188.4,54.4z M123.5,47.9c-0.4,0.1-0.4,0.1,0,0.1c0.3,0,0.4,0,0.4-0.1c0-0.1,0-0.1,0-0.1h-0.3
	C123.7,47.9,123.5,47.9,123.5,47.9z M122.3,48.1c0.1,0,0.4,0,0.5,0c0.1-0.1,0-0.1-0.3-0.1C122.3,47.9,122.2,47.9,122.3,48.1z
	 M115.3,47.8c0,0.1,0.5,0.1,1.5,0.1c0.4-0.1,0.9,0,1.3,0c-0.4,0.1-0.9,0.1-1.3,0.1c0.7,0,0.5,0,0.3,0.1c-0.4,0.1-0.7,0.1-1.1,0.1
	c0.4,0,0.8,0,1.2,0c1.5-0.1,2.8-0.1,4-0.1c1.9,0,3.9,0,5,0c0.2,0,0.3,0,0.4,0h0.5c0.1,0,0.1,0,0.3,0c0.1-0.1-0.3-0.1-0.8-0.1
	c-0.1,0-0.2,0-0.4,0c0,0-0.1,0-0.3,0c-0.1,0-0.2,0-0.3,0c0.1,0,0.2,0,0.3,0c-2.4,0.1-7.7,0-7.4-0.2c0.5,0,1.1,0,1.6,0
	c0.8,0,1.5-0.1,1.5-0.1c-2.2,0-4.2-0.1-6.2-0.1C115.3,47.8,115.3,47.8,115.3,47.8z M106.6,47.8c3.1,0,6.1,0.1,6.7,0.1
	c1.5,0.1,1.8,0,1.6-0.1c-1.8-0.1-3.4-0.1-5-0.1c-0.3,0-0.7,0-0.9,0C108.4,47.7,107.6,47.8,106.6,47.8z M109.9,48.2
	c-0.5-0.1-0.7-0.1-0.5,0C109.7,48.2,109.8,48.2,109.9,48.2h0.3C110.5,48.2,110.2,48.1,109.9,48.2z M107.2,47.9
	c-0.3,0-0.3,0.1-0.1,0.1c0.1,0,0.3,0,0.4,0C107.6,48.1,107.5,48.1,107.2,47.9z M70.7,46.5c0.3,0.1,0.4,0.1,0.5,0H70.7z M56.6,47.7
	c-2.3,0.1-3.2,0.1-4.4,0.2c0.9,0,1.7,0,2.5-0.1c1.3,0,4.4,0,7,0c0.5,0,1.1,0,1.6,0c-1.9,0-3.8-0.1-5.9-0.1
	C57.1,47.7,56.8,47.7,56.6,47.7z M88.6,50.2c0.3-0.1-1.6-0.1-6.7-0.3c-6.5-0.1-8.1-0.1-12.1,0c-0.8,0-3.5,0-6.3,0
	c0.1-0.1,0-0.1-0.3-0.1s-0.3,0-0.1,0.1c-4.4-0.1-11.2-0.1-12.5-0.1c-0.1,0-0.9,0.1-1.9,0.1c-0.9,0.1-1.8,0.1-1.9,0.1
	c-0.1,0-0.3,0.1-0.3,0.1c-0.4,0-0.7,0-1.1,0c-1.9,0-5.1,0-5.4,0.1c-0.3,0.1-0.3,0-2.3,0.1c-1.2,0-1.6,0.1-1.9,0.3
	c-0.3,0.1-0.4,0.3-0.7,0.1c0.8-0.3-0.1-0.3-3.1,0c-4.6,0.3-6.6,0.5-6.5,0.6s4.4,0,5-0.1c0.7-0.1,1.3-0.3,2.2-0.3
	c0.1,0,5.9-0.1,6.9-0.1c0.4-0.1,1.8-0.1,3-0.1c1.8-0.1,2.3-0.1,2.3-0.3c0-0.1-0.1-0.1-0.7-0.1c-1.3,0.1-2.7,0.1-2.6,0
	c0.3-0.1,4.2-0.3,4.4-0.1c0,0.1-0.1,0.1-0.4,0.1c-0.5,0-0.5,0,0.1,0.1c0.4,0,0.7,0,1.1,0c0.7-0.1,1.3-0.1,2-0.1
	c0.9,0,2.2-0.1,2.8-0.1c0.7-0.1,2.3-0.1,3.6-0.1s4.2,0,6.3,0c3.5,0,5,0,11.3,0c1.1,0,4.7,0,8,0c3.6,0.1,5.9,0.1,6.1,0
	c0.1,0,0.4,0,0.7,0C88,50.3,88.4,50.3,88.6,50.2z M90.8,50c-0.4,0-0.7,0-0.5,0.1c0,0.1-0.1,0.1-0.4,0.1c-0.1,0-0.4-0.1-0.3-0.1
	c0.1-0.1-0.1-0.1-0.4,0c-0.4,0.3-0.1,0.4,0.9,0.3c0.5,0,1.1-0.1,0.9-0.1c-0.1,0,0,0,0.1-0.1C91.3,50,91.2,50,90.8,50z M104,50.2
	c-6.2-0.1-7.4-0.1-7.4,0c0,0.1,0,0.1-0.3,0c-0.5-0.1-0.9-0.1-1.5-0.1c-0.7,0-1.6,0-2.2,0c-0.7,0-0.8,0-0.7,0.1c0.3,0,0.3,0.1,0,0.1
	c-0.3,0.1,0,0.1,0.4,0.1c0.3,0.1,0.5,0.1,0.8,0c0.9-0.1,1.9,0,2.8,0c1.9,0.1,2.8,0.1,2.8,0c0-0.1,0.5-0.1,0.7,0c0,0.1,0.3,0.1,0.9,0
	c0.9-0.1,2-0.1,3-0.1c1.2,0,2.8,0,3.8,0C108.4,50.3,107.4,50.3,104,50.2z M145.9,50.6c0.3-0.1,0.5-0.1,0.8-0.1c-4.2,0-5.9,0-7.5,0
	c-0.4,0-0.9,0-1.8,0c-0.1,0-0.1,0-0.1,0c-2.3,0-6.2,0-10,0c-13.1-0.1-18.1-0.1-18.2-0.1c-0.1,0,20.2,0.5,22,0.5c0.3,0,2.2,0,5,0
	c0.3,0,0.7,0,1.1,0c1.1,0,2.4,0,3,0C141.6,50.8,144.8,50.7,145.9,50.6z M149.4,53.3c-1.2-0.1-2.3-0.1-3.4-0.1
	c-2.2,0.3-3.2,0.4-3.1,0.5c0.1,0.1,4.4,0,5-0.1C148.3,53.4,148.9,53.3,149.4,53.3z M152.4,55.3c-0.7,0-1.5,0-2.2,0.1
	c-0.3,0.1,4,0.1,4.4-0.1C155.1,55.2,155.4,55.2,152.4,55.3z M182.7,55c-2.2,0-4.2,0-5.1,0c-1.1,0-4.4,0-7.4,0c-3,0-7,0.1-8.9,0.1
	l-3.4,0.1l7,0.1c1.8,0,3.2,0,4.7-0.1C173.7,55.2,178.8,55,182.7,55z M195.7,15.8l-0.8-0.1c-1.2-0.1-3.2-0.3-5.1-0.4
	c-0.1,0-0.4,0-0.5,0c-3.1-0.1-6.1-0.1-5.9,0c0.1,0.1,1.6,0.3,3.6,0.3c2.6,0,5.8,0.1,6.7,0.3C194.4,15.8,195,15.8,195.7,15.8z
	 M200.2,52.1H200c-6.2,0-5.7,0.1,1.2,0.3c1.2,0,2.2,0,3,0c0.1,0,0.4,0,0.5,0c0.1,0,0.4,0,0.7,0c0.3,0.1,0.7,0.1,0.9,0
	C206.6,52.2,204.8,52.2,200.2,52.1z M208.6,52.2c-0.4,0-0.5,0-0.4,0.1c0,0.1-0.1,0.1-0.4,0.1c-0.1,0-0.4-0.1-0.3-0.1
	c0.1-0.1-0.1-0.1-0.4,0c-0.4,0.1-0.1,0.3,0.8,0.3c0.5,0,0.9-0.1,0.9-0.1c-0.1,0,0-0.1,0.1-0.1C209.1,52.2,209,52.2,208.6,52.2z
	 M221.7,52.2c-6.2-0.1-7.4-0.1-7.4,0c0,0.1,0,0.1-0.3,0c-0.5-0.1-0.9-0.1-1.5-0.1c-0.7,0-1.6,0-2.2,0c-0.7,0-0.8,0-0.7,0.1
	c0.3,0,0.3,0.1,0,0.1c-0.1,0.1,0,0.1,0.4,0.1c0.3,0.1,0.5,0.1,0.8,0c0.9,0,1.9,0,2.8,0c1.9,0.1,2.8,0.1,2.8,0c0-0.1,0.5-0.1,0.7,0
	c0,0.1,0.3,0.1,0.9,0c0.9-0.1,2-0.1,3-0.1c1.2,0,2.8,0,3.8,0C226.1,52.4,225,52.4,221.7,52.2z M275.6,57.4l3.6-0.1
	c-0.1,0-0.2,0-0.3,0L275.6,57.4z M287.8,57.2c-1.2,0-2.7,0-4,0c1.8,0.1,3.4,0.1,4.9,0.1h0.1c1.1,0,1.9,0,2,0l0.1,0.1c2.4,0,4,0,5,0
	c0.5,0,1.8,0,2.6,0c2.2,0,9.6-0.3,9.8-0.3c-0.4,0-0.9,0-1.3,0c-3.8,0-10,0-11.7,0C294.2,57.2,290.8,57.2,287.8,57.2z M295.9,53.4
	c-0.3-0.1-0.7-0.1-1.1-0.1c-0.4,0-0.8,0-1.2,0c-0.4,0-0.4,0-0.3-0.1c-0.7,0-1.2,0-1.8,0c-0.1,0-2,0-4.7,0c-0.1,0-0.4,0-0.5,0
	c-3.8,0-8.8-0.1-12.8-0.3c-11.3-0.3-14.3-0.4-16.8-0.3c-1.2,0.1-6.5,0-11.7,0c-13.1-0.1-18.1-0.1-18.2-0.1c-0.1,0,20.4,0.5,21.7,0.5
	c0.4,0,4.7,0.1,9.7,0.1c7.8,0,9.2,0,10.1-0.1c1.1-0.1,1.9-0.1,1.6,0.1c-0.1,0.1,0.3,0.1,1.5,0.1c1.5,0,1.8,0,2,0.1
	c0.3,0.3,0.9,0.3,1.2,0.1c1.2,0,2.3,0,3.5,0c1.8,0,4.2,0,5.1-0.1c1.1-0.1,4.3-0.1,7.3,0C293.4,53.4,295.8,53.4,295.9,53.4z
	 M296.2,53.5h-0.5c-0.1,0-0.3,0-0.4,0l-0.8,0.1h0.9C295.8,53.6,296.2,53.6,296.2,53.5z M297.3,25.1c-0.2,0-0.4,0-0.7,0
	C296.7,25.2,297,25.1,297.3,25.1z M300.2,53.1c-0.1,0-0.2,0-0.3,0c0.1,0,0.4,0,0.5,0.1C300.6,53.1,300.5,53.1,300.2,53.1z
	 M300.8,50.3c-0.7-0.1-1.2-0.3-1.9-0.3c-0.1,0-0.1,0-0.3,0c-0.1,0.1-0.4,0.1-0.5,0.1c0.5,0,1.2,0.1,1.6,0.1
	C300.6,50.5,300.9,50.3,300.8,50.3z M303.3,25.5c0.4,0,0.8,0,1.2-0.1c0,0-0.8-0.1-1.8-0.1c-1.1-0.1-1.8-0.1-1.8,0
	C302,25.4,302.8,25.5,303.3,25.5z M302,53c-0.3,0-0.3,0.1-0.1,0.1c0.1,0.1,0.3,0.1,0.4,0C302.4,53,302.3,53,302,53z M303.7,50.5
	l-0.8,0.1h0.9c0.4,0,0.7,0,1.1-0.1C305.1,50.3,305,50.3,303.7,50.5z M321,46.5c0.4,0,1.1,0.1,2,0.1c2.6,0.1,3.2,0.1,2.8,0
	c-1.1,0-2-0.1-3.1-0.1c-0.1,0-0.3,0-0.4,0C321.9,46.5,321.4,46.5,321,46.5z M316,24.5c1.2,0.1,2.6,0.1,3.8,0.1c0.5,0,0.4,0,0-0.1
	c-0.7-0.1-1.5-0.1-2.3-0.1C316.4,24.3,315.7,24.3,316,24.5z M309.3,25.4c1.8,0.1,3.4,0.3,5,0.1c0.7-0.1,0.7-0.1-0.4-0.1
	c-0.7,0-1.9-0.1-2.6-0.1s-1.2,0-1.9,0C308.9,25.2,308.9,25.2,309.3,25.4z M307.8,25.4c0.1,0,0.3,0,0.4,0c0.1,0,0,0-0.3-0.1
	C307.7,25.2,307.7,25.4,307.8,25.4z M307.5,43.5c0.2,0,0.4,0,0.5,0C308.3,43.4,308.1,43.4,307.5,43.5z M312.9,43.4
	c-1.8,0-3.2,0-3.2,0s0,0,0.1,0.1c0.1,0.1,0.3,0.1,0.5,0.1c0.1,0,0.3,0,0.4,0C312,43.5,312.9,43.4,312.9,43.4z M313.9,27.3l0.7-0.1
	l-0.8-0.1c-0.3-0.1-0.7-0.1-0.9-0.1c-0.5,0-1.1,0-1.3,0c-0.8,0.1-1.5,0-1.5,0c-0.3,0-0.5,0-0.8,0c-0.3,0-1.2,0-2.3,0.1
	c0.4,0.1,1.2,0.1,2.4,0.3c0.5,0,1.1,0.1,1.6,0.1c0-0.1,0.3-0.1,1.1-0.1C312.6,27.3,313.2,27.3,313.9,27.3z M317.6,27.4
	c-0.9-0.1-1.9-0.1-3,0c0,0,0.1,0,0.1,0C315.6,27.4,316.7,27.4,317.6,27.4z M325.2,35.2c0.1,0,0.3,0,0.4,0c0-0.1,0-0.1-0.3-0.1
	S325,35.2,325.2,35.2z M323.8,35.2c0.1,0,0.3,0,0.4,0c0,0-0.1,0-0.3-0.1C323.7,35.1,323.7,35.2,323.8,35.2z M326.1,35.6
	c0,0-0.7-0.1-1.6-0.1c-1.1-0.1-1.8-0.1-1.8,0c0,0-0.1,0.1-0.4,0.1c0.1,0.1,0.3,0.1,0.4,0.1c0.3,0,0.5,0,0.8,0
	C324.9,35.8,326.1,35.6,326.1,35.6z M337.6,34.7c1.2,0.1,2.6,0.1,3.8,0.1c0.5,0,0.5,0,0-0.1c-0.7-0.1-1.5-0.1-2.3-0.1
	C338,34.6,337.4,34.6,337.6,34.7z M329.5,35.6c0.1,0,0.3,0,0.4,0c0.1-0.1,0-0.1-0.3-0.1C329.4,35.5,329.4,35.6,329.5,35.6z
	 M328.1,35.6c0.1,0,0.3,0,0.4,0C328.7,35.6,328.5,35.5,328.1,35.6z M336.2,37.5c0.1,0,0.4,0.1,0.5,0.1c0,0.1,0.1,0.1,0.1,0.1
	c1.6,0.1,3.1,0.1,2.8-0.1c-0.4-0.1-0.9-0.3-3.2-0.1H336.2z M336.2,37.8c-0.1,0-0.1-0.1-0.3-0.1h-1.9l1.8,0.1c0.1,0,0.3,0,0.5,0.1
	C336.4,37.8,336.2,37.8,336.2,37.8z M335.4,37.1c-1.6-0.1-3.1-0.3-4.6-0.1c-0.4,0.1-1.6,0.1-3,0.1c0.8,0.1,1.5,0.3,2.3,0.3
	c0.9,0.1,1.8,0.1,2.3,0.1c0-0.1,0.1-0.1,1.2-0.1c0.7,0,1.2,0,1.9,0l0.7-0.1L335.4,37.1z M333,35.5c-0.7,0-1.2,0-1.9,0
	c-0.5,0-0.5,0-0.1,0.1c1.8,0.1,3.4,0.3,5,0.1c0.7-0.1,0.5-0.1-0.4-0.1C334.9,35.6,333.7,35.5,333,35.5z M294.3,68.5
	c0.5,0,1-0.1,1.5-0.1c1.3,0,2-0.3,1-0.4c-0.8,0-1.5,0.2-2.3,0.4C294.4,68.5,294.3,68.5,294.3,68.5z M102,34.9c0.1,0,0.2,0,0.3,0
	S102.3,34.7,102,34.9z M108.3,38.2c1.2,0.2,2.2,0.2,2-0.2c-0.3-0.2-0.7-0.4-2.3-0.2h-0.2c0.1,0,0.3,0.2,0.4,0.2
	C108.2,38.2,108.3,38.2,108.3,38.2z M302.1,67.9l0.3-0.1C301.8,67.7,301.7,67.8,302.1,67.9z M87.7,19.2c0.1,0,0,0-0.2-0.2
	c-0.2,0-0.2,0.2-0.1,0.2C87.5,19.2,87.6,19.2,87.7,19.2z M88.4,22.1c0.4,0,0.8,0.2,1.2,0.2c0-0.2,0.2-0.2,0.8-0.2c0.5,0,0.9,0,1.4,0
	l0.5-0.2l-0.6-0.2c-0.2-0.2-0.5-0.2-0.7-0.2c-0.4,0-0.8,0-1,0c-0.6,0.2-1.1,0-1.1,0c-0.2,0-0.4,0-0.6,0c-0.2,0-0.9,0-1.6,0.2
	C87,21.9,87.6,21.9,88.4,22.1z M104.1,34.7c-0.4,0-0.4,0-0.1,0.2c1.3,0.2,2.4,0.4,3.6,0.2c0.5-0.2,0.4-0.2-0.3-0.2
	c-0.5,0-1.4-0.2-1.8-0.2C105,34.7,104.6,34.7,104.1,34.7z M107.6,38h-1.4l1.3,0.2c0.1,0,0.2,0,0.4,0.2c0-0.2-0.1-0.2-0.1-0.2
	C107.7,38.2,107.7,38,107.6,38z M337.4,51.3c0.6,0,1.1,0,1.2-0.1c-0.2,0-0.4-0.1-0.5-0.1C337.8,51.2,337.6,51.2,337.4,51.3z
	 M326.9,45.6c-0.1,0-0.3,0-0.4,0C326.2,45.7,326.4,45.7,326.9,45.6z M315,22.8c0.1,0.1,0.1,0.1,0.3,0.1c0.3,0.1,0.6,0.1,0.9,0.1
	c0.1,0-0.1-0.1-0.8-0.3C315.3,22.8,315.1,22.8,315,22.8z M328.9,13.9c0.4,0,0.5,0,0.3-0.1c-0.1,0-0.4,0-0.5,0
	C328.5,13.9,328.7,13.9,328.9,13.9z M322.5,14c0.5,0,1.2,0,1.8,0c0.4,0,0.8,0,1.1-0.1c0.1-0.1,0.4-0.1,0.7-0.1c-1.2,0-2.3,0-3.4,0.1
	C322.5,13.9,322.5,14,322.5,14z M314.5,12.6c0.3,0,0.4,0,0.3-0.1c-0.1,0-0.4,0-0.5,0C314.1,12.6,314.2,12.6,314.5,12.6z M312.9,12.6
	c0.1,0,0.1,0,0.1,0l0.3,0c0-0.1-0.1-0.1-0.3-0.1C312.9,12.5,312.8,12.5,312.9,12.6z M75.7,1.9c0.7,0,1.5,0,2.2-0.1
	c0.3-0.1-4,0-4.4,0.1C73,2,72.7,2,75.7,1.9z M42.2,34.3c-0.1,0-0.3,0-0.4,0c0,0.1,0.1,0.1,0.3,0.1C42.4,34.4,42.4,34.3,42.2,34.3z
	 M43.7,34.3c-0.1,0-0.3,0-0.4,0c-0.1,0,0,0,0.3,0.1C43.8,34.4,43.8,34.3,43.7,34.3z M72.3,12.7c-4.2-0.1-7.8-0.1-10.1-0.1
	c1.6,0,3.1,0.1,4.6,0.1c7.1,0.1,11.1,0.3,13.5,0.3c0.3,0,0.5,0,0.7,0C82.5,13,79.7,12.8,72.3,12.7z M72.2,9.9l1.1,0
	c0.7,0.1,1.3,0,2,0c-0.8-0.1-5.9-0.1-6.2,0C70,10,71.1,10,72.2,9.9z M76.8,9.9c-0.1,0-0.2,0-0.3,0C76.3,9.9,76.5,10,76.8,9.9z
	 M83.2,9.8c-1.5-0.1-2-0.1-1.6,0c0.9,0.3,2,0.3,3,0.1C85.1,9.9,84.7,9.9,83.2,9.8z M93.1,16.8C93.1,16.8,93.1,16.8,93.1,16.8
	C92.8,16.9,92.9,16.9,93.1,16.8z M100.2,16.9c-0.5,0-1.1,0-1.6-0.1c0-0.1-0.3-0.1-0.4,0c0,0-0.1,0.1-0.3,0.1c0.5,0,0.9,0,1.5,0
	C99.7,16.9,99.9,16.9,100.2,16.9z M102.1,9.3c0.1,0,0.2,0,0.3,0c-0.1-0.1-0.4-0.1-0.5-0.1C101.7,9.3,101.8,9.3,102.1,9.3z
	 M104.4,9.5c0,0,0,0,0.1,0c0.4-0.1,0.4-0.1,0-0.1c-0.3,0-0.4,0-0.4,0.1L104.4,9.5z M105.7,9.3c-0.1,0-0.4,0-0.5,0
	c-0.1,0.1,0,0.1,0.3,0.1C105.9,9.5,106,9.3,105.7,9.3z M109.2,17.3c0-0.1-0.7-0.3-1.5-0.3c-0.4,0-0.7,0-0.9,0l-2.4,0.1l3.6,0.1
	C108.4,17.3,108.8,17.3,109.2,17.3z M112.7,9.5c0-0.1-0.5-0.1-1.5-0.1c-0.4,0.1-0.9,0-1.3,0c0.4-0.1,0.9-0.1,1.3-0.1
	c-0.7,0-0.5,0-0.3-0.1c0.4-0.1,0.7-0.1,1.1-0.1c-2.4,0-5.9,0-8.4,0c0,0.1-0.1,0.1-0.3,0c-0.1,0-0.1,0-0.3,0c-0.9,0-1.8,0-2.6,0.1
	c-0.1,0.1,0.3,0.1,0.8,0.1c1.9-0.1,8.4,0,8.1,0.1c-0.5,0-1.1,0-1.6,0c-0.8,0-1.5,0.1-1.5,0.1c2.2,0,4.2,0.1,6.2,0.1
	C112.7,9.5,112.7,9.5,112.7,9.5z M119.1,9.6c0.5,0,1.3-0.1,2.4-0.1c-3,0-6.1,0-6.7-0.1c-1.5-0.1-1.8,0-1.6,0.1
	c1.8,0.1,3.4,0.1,5,0.1C118.4,9.6,118.8,9.6,119.1,9.6z M118.7,9.2c-0.1-0.1-0.3-0.1-0.4,0C118.5,9.2,118.6,9.2,118.7,9.2z
	 M120.8,9.4c0.3,0,0.4-0.1,0.1-0.1c-0.1,0-0.3,0-0.4,0C120.4,9.4,120.6,9.4,120.8,9.4z M129,17.8l-0.4-0.1c-1.1,0-2.4,0-4.2,0
	c-1,0-2.2,0-3.4,0C123.7,17.6,126.6,17.8,129,17.8z M130.5,17.8c-0.3-0.1-0.4-0.1-0.7-0.1c-0.3,0-0.5,0.1-0.5,0.1
	C129.7,17.8,130.1,17.8,130.5,17.8z M168.1,4.9c-5,0-6.1,0-6.3,0.1C164.4,5,166.7,5,168.1,4.9z M157.5,5.1c1.3,0,2.6,0,3.9,0
	C161,5,159.1,5,157.5,5.1z M222.3,11.8c0.4-0.1,0.4-0.1,0-0.1c-0.3,0-0.4,0-0.4,0.1c0,0.1,0,0.1,0,0.1l0.3,0
	C222.2,11.8,222.3,11.8,222.3,11.8z M223.5,11.6c-0.1,0-0.4,0-0.5,0c-0.1,0.1,0,0.1,0.3,0.1C223.5,11.8,223.7,11.8,223.5,11.6z
	 M230.5,11.9c0-0.1-0.5-0.1-1.5-0.1c-0.4,0.1-0.9,0-1.3,0c0.4-0.1,0.9-0.1,1.3-0.1c-0.7,0-0.5,0-0.3-0.1c0.4-0.1,0.7-0.1,1.1-0.1
	c-0.4,0-0.8,0-1.2,0c-1.5,0.1-2.8,0.1-4,0.1c-1.9,0-3.9,0-5,0c-0.2,0-0.3,0-0.4,0l-0.5,0c-0.1,0-0.1,0-0.3,0
	c-0.1,0.1,0.3,0.1,0.8,0.1c0.1,0,0.2,0,0.4,0c0,0,0.1,0,0.3,0c0.1,0,0.2,0,0.3,0c-0.1,0-0.2,0-0.3,0c2.4-0.1,7.7,0.1,7.4,0.2
	c-0.5,0-1.1,0-1.6,0c-0.8,0-1.5,0.1-1.5,0.1c2.2,0,4.2,0.1,6.2,0.1C230.5,11.9,230.5,11.9,230.5,11.9z M239.3,11.9
	c-3.1,0-6.1-0.1-6.7-0.1c-1.5-0.1-1.8,0-1.6,0.1c1.8,0.1,3.4,0.1,5,0.1c0.3,0,0.7,0,0.9,0C237.4,12,238.2,11.9,239.3,11.9z
	 M235.9,11.5c0.5,0.1,0.7,0.1,0.5,0C236.2,11.5,236.1,11.5,235.9,11.5l-0.3,0C235.4,11.5,235.7,11.7,235.9,11.5z M238.6,11.8
	c0.3,0,0.3-0.1,0.1-0.1c-0.1,0-0.3,0-0.4,0C238.2,11.7,238.4,11.7,238.6,11.8z M275.2,13.3c-0.3-0.1-0.4-0.1-0.5,0L275.2,13.3z
	 M289.3,12.2c2.3-0.1,3.2-0.1,4.4-0.2c-0.9,0-1.7,0-2.5,0.1c-1.3,0-4.4,0-7,0c-0.5,0-1.1,0-1.6,0c1.9,0,3.8,0.1,5.9,0.1
	C288.8,12.2,289,12.2,289.3,12.2z M257.2,9.5c-0.3,0.1,1.6,0.1,6.7,0.3c6.5,0.1,8.1,0.1,12.1,0c0.8,0,3.5,0,6.3,0
	c-0.1,0.1,0,0.1,0.3,0.1s0.3,0,0.1-0.1C287.3,10,294,10,295.4,10c0.1,0,0.9-0.1,1.9-0.1c0.9-0.1,1.8-0.1,1.9-0.1
	c0.1,0,0.3-0.1,0.3-0.1c0.4,0,0.7,0,1.1,0c1.9,0,5.1,0,5.4-0.1c0.3-0.1,0.3,0,2.3-0.1c1.2,0,1.6-0.1,1.9-0.2
	c0.3-0.1,0.4-0.3,0.7-0.1c-0.8,0.3,0.1,0.3,3.1,0c4.6-0.2,6.6-0.5,6.5-0.6c-0.1-0.1-4.4,0-5,0.1c-0.7,0.1-1.3,0.3-2.2,0.2
	c-0.1,0-5.9,0.1-6.9,0.1c-0.4,0.1-1.8,0.1-3,0.1c-1.8,0.1-2.3,0.1-2.3,0.2c0,0.1,0.1,0.1,0.7,0.1c1.3-0.1,2.7-0.1,2.6,0
	c-0.3,0.1-4.2,0.2-4.4,0.1c0-0.1,0.1-0.1,0.4-0.1c0.5,0,0.5,0-0.1-0.1c-0.4,0-0.7,0-1.1,0c-0.7,0.1-1.3,0.1-2,0.1
	c-0.9,0-2.2,0.1-2.8,0.1c-0.7,0.1-2.3,0.1-3.6,0.1c-1.3,0-4.2,0-6.3,0c-3.5,0-5,0-11.3,0c-1.1,0-4.7,0-8,0c-3.6-0.1-5.9-0.1-6.1,0
	c-0.1,0-0.4,0-0.7,0C257.9,9.4,257.5,9.4,257.2,9.5z M255.1,9.8c0.4,0,0.7,0,0.5-0.1c0-0.1,0.1-0.1,0.4-0.1c0.1,0,0.4,0.1,0.3,0.1
	c-0.1,0.1,0.1,0.1,0.4,0c0.4-0.3,0.1-0.4-0.9-0.3c-0.5,0-1.1,0.1-0.9,0.1c0.1,0,0,0-0.1,0.1C254.5,9.8,254.7,9.8,255.1,9.8z
	 M241.9,9.5c6.2,0.1,7.4,0.1,7.4,0c0-0.1,0-0.1,0.3,0c0.5,0.1,0.9,0.1,1.5,0.1c0.7,0,1.6,0,2.2,0c0.7,0,0.8,0,0.7-0.1
	c-0.3,0-0.3-0.1,0-0.1c0.3-0.1,0-0.1-0.4-0.1c-0.3-0.1-0.5-0.1-0.8,0c-0.9,0.1-1.9,0-2.8,0c-1.9-0.1-2.8-0.1-2.8,0
	c0,0.1-0.5,0.1-0.7,0c0-0.1-0.3-0.1-0.9,0c-0.9,0.1-2,0.1-3,0.1c-1.2,0-2.8,0-3.8,0C237.4,9.4,238.5,9.4,241.9,9.5z M199.9,9
	c-0.3,0.1-0.5,0.1-0.8,0.1c4.2,0,5.9,0,7.5,0c0.4,0,0.9,0,1.8,0c0.1,0,0.1,0,0.1,0c2.3,0,6.2,0,10,0c13.1,0.2,18.1,0.2,18.2,0.2
	c0.1,0-20.2-0.6-22-0.6c-0.3,0-2.2,0-5,0c-0.3,0-0.7,0-1.1,0c-1.1,0-2.4,0-3,0C204.3,8.8,201,8.9,199.9,9z M196.4,6.4
	c1.2,0.1,2.3,0.1,3.4,0.1c2.2-0.2,3.2-0.4,3.1-0.5c-0.1-0.1-4.4,0-5,0.1C197.5,6.2,197,6.4,196.4,6.4z M193.5,4.3
	c0.7,0,1.5,0,2.2-0.1c0.3-0.1-4-0.1-4.4,0.1C190.8,4.5,190.5,4.5,193.5,4.3z M163.2,4.5c2.2,0,4.2,0,5.1,0c1.1,0,4.4,0,7.4,0
	s7-0.1,8.9-0.1l3.4-0.1l-7-0.1c-1.8,0-3.2,0-4.7,0.1C172.2,4.4,167.1,4.5,163.2,4.5z M150.2,43.7l0.8,0.1c1.2,0.1,3.2,0.3,5.1,0.4
	c0.1,0,0.4,0,0.5,0c3.1,0.1,6.1,0.1,5.9,0c-0.1-0.1-1.6-0.3-3.6-0.3c-2.6,0-5.8-0.1-6.7-0.3C151.4,43.7,150.9,43.7,150.2,43.7z
	 M145.6,7.4l0.3,0c6.2,0,5.7-0.1-1.2-0.3c-1.2,0-2.2,0-3,0c-0.1,0-0.4,0-0.5,0c-0.1,0-0.4,0-0.7,0c-0.3-0.1-0.7-0.1-0.9,0
	C139.3,7.3,141,7.3,145.6,7.4z M137.3,7.3c0.4,0,0.5,0,0.4-0.1c0-0.1,0.1-0.1,0.4-0.1c0.1,0,0.4,0.1,0.3,0.1c-0.1,0.1,0.1,0.1,0.4,0
	c0.4-0.1,0.1-0.3-0.8-0.3C137.4,6.9,137,7,137,7c0.1,0,0,0.1-0.1,0.1C136.7,7.3,136.9,7.3,137.3,7.3z M124.2,7.2
	c6.2,0.1,7.4,0.1,7.4,0c0-0.1,0-0.1,0.3,0c0.5,0.1,0.9,0.1,1.5,0.1c0.7,0,1.6,0,2.2,0c0.7,0,0.8,0,0.7-0.1c-0.3,0-0.3-0.1,0-0.1
	c0.1-0.1,0-0.1-0.4-0.1c-0.3-0.1-0.5-0.1-0.8,0c-0.9,0-1.9,0-2.8,0c-1.9-0.1-2.8-0.1-2.8,0c0,0.1-0.5,0.1-0.7,0c0-0.1-0.3-0.1-0.9,0
	c-0.9,0.1-2,0.1-3,0.1c-1.2,0-2.8,0-3.8,0C119.8,7.1,120.8,7.1,124.2,7.2z M70.3,1.9L66.7,2c0.1,0,0.2,0,0.3,0L70.3,1.9z M58,2.1
	c1.2,0,2.7,0,4,0C60.3,2,58.7,2,57.2,2l-0.1,0c-1.1,0-1.9,0-2,0l-0.1-0.1c-2.4,0-4,0-5,0c-0.5,0-1.8,0-2.6,0c-2.2,0-9.6,0.2-9.8,0.2
	c0.4,0,0.9,0,1.3,0c3.8,0,10,0,11.7,0C51.7,2.1,55.1,2.1,58,2.1z M49.9,5.9c0.3,0.1,0.7,0.1,1.1,0.1c0.4,0,0.8,0,1.2,0
	c0.4,0,0.4,0,0.3,0.1c0.7,0,1.2,0,1.8,0c0.1,0,2,0,4.7,0c0.1,0,0.4,0,0.5,0c3.8,0,8.8,0.1,12.8,0.3c11.3,0.3,14.3,0.4,16.8,0.3
	c1.2-0.1,6.5,0,11.7,0C114,7,118.9,7,119.1,7c0.1,0-20.4-0.6-21.7-0.6c-0.4,0-4.7-0.1-9.7-0.1c-7.8,0-9.2,0-10.1,0.1
	c-1.1,0.1-1.9,0.1-1.6-0.1c0.1-0.1-0.3-0.1-1.5-0.1c-1.5,0-1.8,0-2-0.1c-0.3-0.3-0.9-0.3-1.2-0.1c-1.2,0-2.3,0-3.5,0
	c-1.8,0-4.2,0-5.1,0.1c-1.1,0.1-4.3,0.1-7.3,0C52.5,5.9,50.1,5.9,49.9,5.9z M49.7,5.8l0.5,0c0.1,0,0.3,0,0.4,0l0.8-0.1l-0.9,0
	C50.1,5.7,49.7,5.7,49.7,5.8z M48.6,34.2c0.2,0,0.4,0,0.7,0C49.1,34.1,48.8,34.2,48.6,34.2z M45.6,6.2c0.1,0,0.2,0,0.3,0
	c-0.1,0-0.4,0-0.5-0.1C45.2,6.2,45.4,6.2,45.6,6.2z M45.1,9c0.7,0.1,1.2,0.3,1.9,0.3c0.1,0,0.1,0,0.3,0c0.1-0.1,0.4-0.1,0.5-0.1
	c-0.5,0-1.2-0.1-1.6-0.1C45.2,8.8,44.9,9,45.1,9z M42.5,33.8c-0.4,0-0.8,0-1.2,0.1c0,0,0.8,0.1,1.8,0.1c1.1,0.1,1.8,0.1,1.8,0
	C43.8,33.9,43,33.8,42.5,33.8z M43.9,6.3c0.3,0,0.3-0.1,0.1-0.1c-0.1-0.1-0.3-0.1-0.4,0C43.5,6.3,43.6,6.3,43.9,6.3z M42.1,8.8
	l0.8-0.1l-0.9,0c-0.4,0-0.7,0-1.1,0.1C40.8,9,40.9,9,42.1,8.8z M24.9,12.7c-0.4,0-1.1-0.1-2-0.1c-2.6-0.1-3.2-0.1-2.8,0
	c1.1,0,2,0.1,3.1,0.1c0.1,0,0.3,0,0.4,0C23.9,12.7,24.5,12.7,24.9,12.7z M29.8,34.8c-1.2-0.1-2.6-0.1-3.8-0.1c-0.5,0-0.4,0,0,0.1
	c0.7,0.1,1.5,0.1,2.3,0.1C29.4,34.9,30.1,34.9,29.8,34.8z M36.6,33.9c-1.8-0.1-3.4-0.3-5-0.1c-0.7,0.1-0.7,0.1,0.4,0.1
	c0.7,0,1.9,0.1,2.6,0.1c0.7,0,1.2,0,1.9,0C37,34.1,37,34.1,36.6,33.9z M38.1,33.9c-0.1,0-0.3,0-0.4,0c-0.1,0,0,0,0.3,0.1
	C38.2,34.1,38.2,33.9,38.1,33.9z M38.3,15.8c-0.2,0-0.4,0-0.5,0C37.5,15.9,37.8,15.9,38.3,15.8z M32.9,15.9c1.8,0,3.2,0,3.2,0
	s0,0-0.1-0.1c-0.1-0.1-0.3-0.1-0.5-0.1c-0.1,0-0.3,0-0.4,0C33.9,15.8,32.9,15.9,32.9,15.9z M32,32l-0.7,0.1l0.8,0.1
	c0.3,0.1,0.7,0.1,0.9,0.1c0.5,0,1.1,0,1.3,0c0.8-0.1,1.5,0,1.5,0c0.3,0,0.5,0,0.8,0s1.2,0,2.3-0.1c-0.4-0.1-1.2-0.1-2.4-0.3
	c-0.5,0-1.1-0.1-1.6-0.1c0,0.1-0.3,0.1-1.1,0.1C33.2,32,32.7,32,32,32z M28.2,31.9c0.9,0.1,1.9,0.1,3,0c0,0-0.1,0-0.1,0
	C30.2,31.9,29.2,31.9,28.2,31.9z M20.7,24c-0.1,0-0.3,0-0.4,0c0,0.1,0,0.1,0.3,0.1C20.8,24.1,20.8,24,20.7,24z M22,24
	c-0.1,0-0.3,0-0.4,0c0,0,0.1,0,0.3,0.1C22.2,24.1,22.2,24,22,24z M19.7,23.6c0,0,0.7,0.1,1.6,0.1c1.1,0.1,1.8,0.1,1.8,0
	c0,0,0.1-0.1,0.4-0.1c-0.1-0.1-0.3-0.1-0.4-0.1c-0.3,0-0.5,0-0.8,0C20.9,23.5,19.7,23.6,19.7,23.6z M8.3,24.5
	c-1.2-0.1-2.6-0.1-3.8-0.1c-0.5,0-0.5,0,0,0.1c0.7,0.1,1.5,0.1,2.3,0.1C7.9,24.6,8.4,24.6,8.3,24.5z M16.4,23.6c-0.1,0-0.3,0-0.4,0
	c-0.1,0.1,0,0.1,0.3,0.1C16.5,23.7,16.5,23.6,16.4,23.6z M17.7,23.6c-0.1,0-0.3,0-0.4,0C17.2,23.6,17.3,23.7,17.7,23.6z M9.6,21.7
	c-0.1,0-0.4-0.1-0.5-0.1c0-0.1-0.1-0.1-0.1-0.1c-1.6-0.1-3.1-0.1-2.8,0.1c0.4,0.1,0.9,0.3,3.2,0.1L9.6,21.7z M9.6,21.4
	c0.1,0,0.1,0.1,0.3,0.1l1.9,0L10,21.4c-0.1,0-0.3,0-0.5-0.1C9.5,21.4,9.6,21.4,9.6,21.4z M10.4,22.1c1.6,0.1,3.1,0.3,4.6,0.1
	c0.4-0.1,1.6-0.1,3-0.1c-0.8-0.1-1.5-0.3-2.3-0.3c-0.9-0.1-1.8-0.1-2.3-0.1c0,0.1-0.1,0.1-1.2,0.1c-0.7,0-1.2,0-1.9,0l-0.7,0.1
	L10.4,22.1z M12.9,23.7c0.7,0,1.2,0,1.9,0c0.5,0,0.5,0,0.1-0.1c-1.8-0.1-3.4-0.3-5-0.1c-0.7,0.1-0.5,0.1,0.4,0.1
	C11,23.6,12.2,23.7,12.9,23.7z"/>
</svg>
